<?xml version="1.0" encoding="utf-8"?>
<!-- Generator: Adobe Illustrator 19.0.0, SVG Export Plug-In . SVG Version: 6.00 Build 0)  -->
<svg version="1.1" id="图层_1" xmlns="http://www.w3.org/2000/svg" xmlns:xlink="http://www.w3.org/1999/xlink" x="0px" y="0px"
	 viewBox="153 188 200 125" style="enable-background:new 153 188 200 125;" xml:space="preserve">
<style type="text/css">
	.st0{fill:#C8DAFF;}
	.st1{fill:#A7C3FF;}
	.st2{fill:#F1B395;}
	.st3{fill:#86043F;}
	.st4{fill:#FFC4A7;}
	.st5{fill:#BE065A;}
	.st6{fill:#313132;}
	.st7{fill:#080708;fill-opacity:0.223;}
	.st8{fill:#E3E9FF;}
	.st9{fill:#FF97C7;}
	.st10{fill:#842404;}
	.st11{fill:#F19B93;}
	.st12{fill:#1075F0;}
	.st13{fill:#467FFF;}
	.st14{fill:#EAEFFF;}
	.st15{fill:#E09282;}
	.st16{fill:#283845;}
	.st17{fill:#083254;}
	.st18{fill:#0A4677;}
	.st19{fill:none;stroke:#E3E9FF;stroke-width:0.5;stroke-linecap:round;}
	.st20{fill:none;stroke:#E3E9FF;stroke-width:0.924;stroke-linecap:round;}
	.st21{fill:none;stroke:#062944;stroke-width:0.924;stroke-linecap:round;stroke-opacity:0.6991;}
	.st22{fill:#321111;}
	.st23{fill:#B9726B;}
	.st24{fill:#A0C6FF;}
	.st25{fill:#EFF3FF;}
	.st26{fill:#F5AC00;}
	.st27{fill:#FFBF29;}
	.st28{fill:#FF326F;}
	.st29{fill:#FF5D8E;}
	.st30{fill:#8330AD;}
	.st31{fill:#B34EE6;}
	.st32{fill:#FFFFFF;}
	.st33{fill-opacity:9.645430e-002;}
	.st34{fill:#4ED266;}
	.st35{fill:#C4D1FF;}
	.st36{fill:#40B955;}
	.st37{fill:none;stroke:#A7C3FF;stroke-width:1.512;}
	.st38{fill:#A1C0FF;}
</style>
<path class="st0" d="M161.4,308.3c0-0.3,0.2-0.5,0.5-0.5l10.5-0.6h3.2l10.5,0.6c0.3,0,0.5,0.2,0.5,0.5v0.7h-25.1V308.3z"/>
<path class="st0" d="M172.8,289.4h2.4v17.9h-2.4V289.4z"/>
<path class="st1" d="M172.4,304.8h3.1c0.1,0,0.2,0.1,0.2,0.2v3.7c0,0.1-0.1,0.2-0.2,0.2h-3.1c-0.1,0-0.2-0.1-0.2-0.2v-3.7
	C172.2,304.9,172.3,304.8,172.4,304.8z"/>
<path class="st1" d="M171,288.4c0-0.1,0.1-0.2,0.2-0.2h5.5c0.1,0,0.2,0.1,0.2,0.2v1.9c0,0.1-0.1,0.2-0.2,0.2l-1.3,0.5
	c0,0-0.1,0-0.1,0h-2.9c0,0-0.1,0-0.1,0l-1.3-0.5c-0.1,0-0.2-0.1-0.2-0.2V288.4z"/>
<path class="st1" d="M161.4,309h1.2c0.3,0,0.6,0.3,0.6,0.6v1.2c0,0.3-0.3,0.6-0.6,0.6h-1.2c-0.3,0-0.6-0.3-0.6-0.6v-1.2
	C160.8,309.3,161.1,309,161.4,309z"/>
<path class="st1" d="M185.3,309h1.2c0.3,0,0.6,0.3,0.6,0.6v1.2c0,0.3-0.3,0.6-0.6,0.6h-1.2c-0.3,0-0.6-0.3-0.6-0.6v-1.2
	C184.7,309.3,185,309,185.3,309z"/>
<path class="st1" d="M173.4,309h1.2c0.3,0,0.6,0.3,0.6,0.6v1.2c0,0.3-0.3,0.6-0.6,0.6h-1.2c-0.3,0-0.6-0.3-0.6-0.6v-1.2
	C172.8,309.3,173,309,173.4,309z"/>
<path class="st0" d="M171.1,286.7c0-1.1,0.9-1.9,1.9-1.9h15c1.1,0,1.9,0.9,1.9,1.9c0,1.1-0.9,1.9-1.9,1.9h-15
	C172,288.6,171.1,287.7,171.1,286.7z"/>
<path class="st1" d="M161.8,267.1h3.3c0,0,0,4.8,0,9.5c0,4.8,5.4,9.5,5.4,9.5h-4.4c0,0-4.3-4.1-4.3-9.5
	C161.8,271.9,161.8,267.1,161.8,267.1z"/>
<path class="st0" d="M163.2,267.1h3.3c0,0,0,4.8,0,9.5c0,4.8,5.4,9.5,5.4,9.5H168c0,0-4.8-4-4.8-9.5
	C163.2,271.9,163.2,267.1,163.2,267.1z"/>
<path class="st0" d="M153.4,262.6c0-1.3,1.1-2.4,2.4-2.4h16.8c1.3,0,2.4,1.1,2.4,2.4v9.3c0,1.3-1.1,2.4-2.4,2.4h-16.8
	c-1.3,0-2.4-1.1-2.4-2.4V262.6z"/>
<path class="st1" d="M153.3,261.7c0-0.9,0.7-1.5,1.5-1.5s1.5,0.7,1.5,1.5v11c0,0.9-0.7,1.5-1.5,1.5s-1.5-0.7-1.5-1.5V261.7z"/>
<path class="st1" d="M159.4,286.7c0-1.1,0.9-1.9,1.9-1.9h14.6c1.1,0,1.9,0.9,1.9,1.9c0,1.1-0.9,1.9-1.9,1.9h-14.6
	C160.3,288.6,159.4,287.7,159.4,286.7z"/>
<path class="st2" d="M172.8,276.3c0,0,1.5,9.3,7.3,9.3c5.8,0,11.1-0.9,11.1-0.9l-4.3,17.5h3l8.3-17.2c1.6-3.4-0.6-7.3-4.4-7.6
	l-11.5-1v-1.4h-9.5V276.3z"/>
<path class="st2" d="M191.7,310.1c0.9,0.1,2.8,0.1,3.1,0c0.1,0,0.1-0.1,0.1-0.2c0-0.2-0.2-0.4-0.4-0.5c-0.4-0.3-1.3-0.8-2.2-1.2
	c-1.3-0.6-2.5-2.1-2.8-3.5c-0.3-1.2,1.5-4.6,1.5-4.6l-3.7,0.8c0,0-0.7,2.2-1.1,3c-0.6,1.3-1.1,2-1,2.3c0.3,0.7,1.3,0.4,1.9,1.3
	C188.7,309.5,187.7,309.9,191.7,310.1z"/>
<path class="st3" d="M185.8,304.3c0,0-1,0.5-0.7,1.8c0.3,1.3,0.4,3.6,0.4,3.6h0.7c0,0,0-2,0-2.3c0-0.2,0.6-0.9,1,0.3
	c0.4,1.2,0.8,2,1.9,2.3c1.1,0.3,6.5,0.6,6.3,0c-0.2-0.6-3.1-2.1-3.1-2.1s-0.3,1.4-2.5,1.2C188.8,309.1,185.8,304.3,185.8,304.3z"/>
<path class="st3" d="M185.9,304.9l3.7-0.5l0-0.6l-3.8,0.4L185.9,304.9z"/>
<path class="st4" d="M204.7,310.1c0.9,0.1,2.8,0.1,3.1,0c0.1,0,0.1-0.1,0.1-0.2c0-0.2-0.2-0.4-0.4-0.5c-0.4-0.3-1.3-0.8-2.2-1.2
	c-1.3-0.6-2.4-2.1-2.8-3.5c-0.4-1.4-1.1-4.8-1.1-4.8l-3.5,1.6c0,0,0.6,1.2,0.9,2.3c0.1,0.2-0.8,1.8-0.5,2.4c0.3,0.7,1.3,0.4,1.9,1.3
	C201.7,309.5,200.7,309.9,204.7,310.1z"/>
<path class="st5" d="M198.6,304.3c0,0-1,0.5-0.7,1.8c0.3,1.3,0.4,3.6,0.4,3.6h0.7c0,0,0-2,0-2.3c0-0.2,0.6-0.9,1,0.3
	c0.4,1.2,0.8,2,1.9,2.3c1.1,0.3,6.5,0.6,6.3,0c-0.2-0.6-3.1-2.1-3.1-2.1s-0.7,1.2-2.5,1.2C201.6,309.2,198.6,304.3,198.6,304.3z"/>
<path class="st5" d="M198.7,304.9l3.8-0.8l-0.2-0.6l-3.7,0.7L198.7,304.9z"/>
<path class="st4" d="M167.3,276.3c0,0-0.9,8.6,6.4,8.5c5.8-0.1,18.4-0.6,18.4-0.6s0.6,4.9,1.7,7.8c1.1,2.9,4.3,10.4,4.3,10.4h3.6
	l-3.6-19.5c-0.5-2.5-2.5-4.4-5-4.8l-13.6-1.8v-1.4h-12.3L167.3,276.3z"/>
<path class="st5" d="M190.9,284.5c0.6-0.6,1.6-2.2,1.6-2.2l-3.5-1.2l4.1-0.6l2.3-3.6l-12.2-1.8h-16.6c0,0-1.5,3.9,0,6.6
	C170,287.6,190.1,285.3,190.9,284.5z"/>
<path class="st4" d="M183,254.1l3.7,7.9l1.1-7.9c0.1-1,0.2-1.5,0.2-1.6c0.1-0.4-0.4-1.3-0.5-2.2l0-0.1c-0.1-0.9-0.4-2-0.3-2.3
	c0-0.3,0.5-0.1,0.7,0.1c0.6,0.5,0.5,1.1,0.9,1.8c0.1,0.3,1.3-2.4,1.8-2.4c0.5,0,1.9,2.3,1.9,3c0,0.5-0.7,1.5-2.2,2.9l-0.5,12.4
	c-0.1,1.5-1.4,2.7-2.9,2.7c-1,0-1.9-0.6-2.4-1.6l-5.5-10.7L183,254.1z"/>
<path class="st6" d="M182.2,251.3c-0.6-1.2-2-1.7-3.2-1.1l-0.5,0.2c-1.2,0.6-1.6,2-1,3.2l7,13.2c1.2,2.4,4.8,1.8,5.3-0.8l0.8-3.9
	l-3.8-1.5l-0.1,0.6L182.2,251.3z"/>
<path class="st7" d="M181.9,253.1c0,0,2.6,4.5,2.6,5.9c0,1.4-1.3,5.4-1.3,5.4l-1.6-3.2L181.9,253.1z"/>
<path class="st7" d="M186.7,261.3l-0.4,2.9v-3.8L186.7,261.3z"/>
<path class="st4" d="M166.8,253.1c-0.4-1.4,0.6-2.9,2.1-3l6.1-0.8l4.9,0.6c0.3,0,0.6,0.2,0.8,0.6c0.7,1.5,2.8,6.2,2.9,8.2
	c0.1,1.9-1.5,3.9-1.5,5.8c0,1.9,0.7,10.3,0.7,10.3l-15.4,1c-0.1,0-0.3-0.1-0.2-0.3l2.4-11.4L166.8,253.1z"/>
<path class="st5" d="M166.8,253.1c-0.4-1.4,0.6-2.8,2.1-3l3.6-0.5c0,0,0.9,2.9,3.6,2.9c2.7,0,1.9-2.8,1.9-2.8l2,0.2
	c0.3,0,0.6,0.2,0.8,0.6c0.7,1.5,2.8,6.2,2.9,8.2c0.1,1.9-1.5,3.9-1.5,5.8c0,1.9,1.1,10.9,1.1,10.9l-17,0.9l3.3-12.1L166.8,253.1z"/>
<path class="st6" d="M166.6,253.1c-0.4-1.4,0.6-2.9,2.1-3l3.7-0.5c0,0,0.9,2.9,3.6,2.9c2.7,0,1.9-2.8,1.9-2.8l2.2,0.2
	c0.3,0,0.6,0.2,0.8,0.6c0.7,1.5,2.8,6.2,2.9,8.2c0.1,1.9-1.6,3.9-1.6,5.8c0,1.9,1,5.6,1,5.6s-1.8,1.7-3.1,0.2
	c-1.3-1.5-1-8.8-1.6-10.6c-0.5-1.9-2-5.6-2-5.6s-0.5,2.5-0.7,5.6c-0.2,3.1,1.2,8-0.9,10.6c-1.8,2.3-6.8,1.1-7.9,0.8
	c-0.1,0-0.2-0.2-0.1-0.3l2.4-6.7L166.6,253.1z"/>
<path class="st8" d="M176.5,253.6l-1.4,0.6c-0.1,0.1-0.2,0-0.3-0.1l0,0c-0.1-0.3-0.1-0.7-0.1-1c0-0.1,0.1-0.2,0.2-0.1l1.5,0.3
	L176.5,253.6z"/>
<path class="st8" d="M176.4,253.6l1.4,0.3c0.1,0,0.2,0,0.2-0.2l0,0c0.1-0.3,0-0.7-0.1-1c0-0.1-0.1-0.1-0.2-0.1l-1.3,0.6L176.4,253.6
	z"/>
<path class="st9" d="M176.5,253.6c0.2,0,0.3-0.1,0.3-0.3c0-0.2-0.1-0.3-0.3-0.3s-0.3,0.1-0.3,0.3
	C176.2,253.5,176.3,253.6,176.5,253.6z"/>
<path class="st7" d="M170.7,254l-1.6,8.3l-1.3-4.4L170.7,254z"/>
<path class="st10" d="M175.2,238c0,0-2.6-1.5-3.9,1.1c-0.8,1.6-0.1,2.9-1.1,4.3c-1.4,2,1.1,5.4,1.1,5.4s1.9-0.9,3.9-0.4
	C176.6,246.4,175.2,238,175.2,238z"/>
<path class="st10" d="M181,239.4c0,0,1,3.4,0.4,5.3c-0.6,1.8,0,3.7,0,3.7s-2.2-0.3-5.2-0.3c-0.7-1.5,3.9-7.8,3.9-7.8L181,239.4z"/>
<path class="st4" d="M173.3,250.2c0,1,0.8,1.9,1.9,1.9c1.1,0,2-0.9,1.9-2.1l-0.2-2.4c0,0,2.3,0.2,3.1-0.9c0.8-1.1,0.7-7,0.7-7h-7.4
	c0,0,0,1.5,0,2c-2.3,0-2.3,2.7,0,2.7C173.3,246.1,173.3,248.5,173.3,250.2z"/>
<path class="st11" d="M179.3,243.2v1.9c0,0,0.9-0.2,0.9-0.5C180.1,244.4,179.3,243.2,179.3,243.2z"/>
<path class="st11" d="M176.9,247.6c0,0-0.7-0.1-1.2-0.3c-0.5-0.2-1.2-0.5-1.2-0.5s0.9,0.9,1.4,1.3c0.5,0.4,1.2,0.8,1.2,0.8
	L176.9,247.6z"/>
<path class="st10" d="M173.4,243.7l0.5-1.4c0.1-0.3,0.5-0.5,0.8-0.5c1,0.2,2.9,0.4,4,0.2c1.9-0.4,2.4-1.4,2.4-1.4s0.6-3.3-1.9-4.5
	c-2.6-1.1-6.1,1.9-6.1,1.9l-0.5,3.6l0.5-0.1L173.4,243.7z"/>
<path class="st12" d="M179.7,264c0.2-0.4,0.6-0.5,1-0.3l3.8,1.9c0.3,0.2,0.5,0.6,0.3,0.9l-2.9,6.4c-0.2,0.4-0.6,0.5-1,0.3l-3.8-1.9
	c-0.3-0.2-0.5-0.6-0.3-0.9L179.7,264z"/>
<path class="st13" d="M180.2,264c0.2-0.4,0.6-0.5,1-0.3l3.8,2.1l2.8,0.9c0.4,0.1,0.6,0.6,0.4,1l-2.9,6.4c-0.1,0.3-0.5,0.5-0.8,0.4
	l-3-0.9l-3.9-2.2c-0.3-0.2-0.4-0.6-0.3-0.9L180.2,264z"/>
<path class="st14" d="M180.4,265.8c0.1-0.2,0.4-0.3,0.6-0.2l1.8,1c0.2,0.1,0.3,0.4,0.2,0.6l-0.4,0.8c-0.1,0.2-0.4,0.3-0.6,0.2
	l-1.8-1c-0.2-0.1-0.3-0.4-0.2-0.6L180.4,265.8z"/>
<path class="st14" d="M184.6,265.9c0.1-0.1,0.2-0.2,0.3-0.1l0.2,0.1c0.1,0.1,0.2,0.2,0.1,0.3l-3.2,7.3c-0.1,0.1-0.2,0.2-0.3,0.1
	l-0.2-0.1c-0.1-0.1-0.2-0.2-0.1-0.3L184.6,265.9z"/>
<path class="st12" d="M184.8,266c0.1-0.1,0.2-0.2,0.3-0.1l0.2,0.1c0.1,0.1,0.2,0.2,0.1,0.3l-3.2,7.3c-0.1,0.1-0.2,0.2-0.3,0.1
	l-0.2-0.1c-0.1-0.1-0.2-0.2-0.1-0.3L184.8,266z"/>
<path class="st4" d="M169.5,255.3l-5.4,8.7c0,0,8.3,3.2,11,4c0.9,0.3,2.1-2.1,3.5-1.7c0.5,0.1-1.5,2-0.6,2.2c2.2,0.4,3.9,0.8,4,1.2
	c0.2,0.6-2.2,2-3.3,2.1c-0.6,0.1-2.3-0.5-4.4-1.1c-1.5-0.4-7.3-1.7-11.7-2.6c-2.4-0.5-3.6-3.2-2.4-5.3l5.5-9.7L169.5,255.3z"/>
<path class="st6" d="M166.3,251.7c0.7-1.2,2.2-1.6,3.4-0.8l0.4,0.3c1,0.7,1.3,2.1,0.7,3.2l-5.8,9.6l2.2,0.9l-1.5,4.3l-4.3-1.2
	c-1.8-0.5-2.6-2.5-1.7-4.1L166.3,251.7z"/>
<path class="st0" d="M261.2,308.3c0-0.3,0.2-0.5,0.5-0.5l10.5-0.6h3.2l10.5,0.6c0.3,0,0.5,0.2,0.5,0.5v0.7h-25.1V308.3z"/>
<path class="st0" d="M272.5,289.4h2.4v17.9h-2.4V289.4z"/>
<path class="st1" d="M272.1,304.8h3.1c0.1,0,0.2,0.1,0.2,0.2v3.7c0,0.1-0.1,0.2-0.2,0.2h-3.1c-0.1,0-0.2-0.1-0.2-0.2v-3.7
	C271.9,304.9,272,304.8,272.1,304.8z"/>
<path class="st1" d="M270.7,288.4c0-0.1,0.1-0.2,0.2-0.2h5.5c0.1,0,0.2,0.1,0.2,0.2v1.9c0,0.1-0.1,0.2-0.2,0.2l-1.3,0.5
	c0,0-0.1,0-0.1,0h-2.9c0,0-0.1,0-0.1,0l-1.3-0.5c-0.1,0-0.2-0.1-0.2-0.2V288.4z"/>
<path class="st1" d="M261.2,309h1.2c0.3,0,0.6,0.3,0.6,0.6v1.2c0,0.3-0.3,0.6-0.6,0.6h-1.2c-0.3,0-0.6-0.3-0.6-0.6v-1.2
	C260.6,309.3,260.8,309,261.2,309z"/>
<path class="st1" d="M285,309h1.2c0.3,0,0.6,0.3,0.6,0.6v1.2c0,0.3-0.3,0.6-0.6,0.6H285c-0.3,0-0.6-0.3-0.6-0.6v-1.2
	C284.4,309.3,284.7,309,285,309z"/>
<path class="st1" d="M273.1,309h1.2c0.3,0,0.6,0.3,0.6,0.6v1.2c0,0.3-0.3,0.6-0.6,0.6h-1.2c-0.3,0-0.6-0.3-0.6-0.6v-1.2
	C272.5,309.3,272.8,309,273.1,309z"/>
<path class="st0" d="M270.8,286.7c0-1.1,0.9-1.9,1.9-1.9h15c1.1,0,1.9,0.9,1.9,1.9c0,1.1-0.9,1.9-1.9,1.9h-15
	C271.7,288.6,270.8,287.7,270.8,286.7z"/>
<path class="st1" d="M261.5,267.1h3.3c0,0,0,4.8,0,9.5c0,4.8,5.4,9.5,5.4,9.5h-4.4c0,0-4.3-4.1-4.3-9.5
	C261.5,271.9,261.5,267.1,261.5,267.1z"/>
<path class="st0" d="M263,267.1h3.3c0,0,0,4.8,0,9.5c0,4.8,5.4,9.5,5.4,9.5h-3.9c0,0-4.8-4-4.8-9.5C263,271.9,263,267.1,263,267.1z"
	/>
<path class="st0" d="M253.2,262.6c0-1.3,1.1-2.4,2.4-2.4h16.8c1.3,0,2.4,1.1,2.4,2.4v9.3c0,1.3-1.1,2.4-2.4,2.4h-16.8
	c-1.3,0-2.4-1.1-2.4-2.4V262.6z"/>
<path class="st1" d="M253.1,261.7c0-0.9,0.7-1.5,1.5-1.5c0.9,0,1.5,0.7,1.5,1.5v11c0,0.9-0.7,1.5-1.5,1.5c-0.9,0-1.5-0.7-1.5-1.5
	V261.7z"/>
<path class="st1" d="M259.1,286.7c0-1.1,0.9-1.9,1.9-1.9h14.6c1.1,0,1.9,0.9,1.9,1.9c0,1.1-0.9,1.9-1.9,1.9H261
	C260,288.6,259.1,287.7,259.1,286.7z"/>
<path class="st15" d="M287.3,309.8c0.9,0.1,2.8,0.1,3.1,0c0.1,0,0.1-0.1,0.1-0.2c0-0.2-0.2-0.4-0.4-0.5c-0.4-0.3-1.3-0.8-2.2-1.2
	c-1.3-0.6-2.8-3.5-2.9-4.2c-0.1-1,1.7-4.3,1.7-4.3l-3.7-0.2c0,0-1.2,4.2-1.6,5c-0.1,0.2-0.8,1.8-0.5,2.4c0.3,0.7,0.9,0.8,1.9,1.3
	C284.8,308.9,284.8,309.5,287.3,309.8z"/>
<path class="st16" d="M281.5,303.9c0,0-1.6,0.7-1,2.9c0.7,2.1,0.6,2.9,0.6,2.9h1.6v-1.5c0,0,0.1-0.1,0.3,0.2
	c0.8,0.6,2.2,1.7,2.8,1.9c1.1,0.3,4.8-0.2,4.8-0.2v-0.3h-2.8c0,0,1.5-1.4,1.2-1.6c-0.4-0.2-1.2-0.8-1.2-0.8l-2.8,1.2L281.5,303.9z"
	/>
<path class="st17" d="M268.2,275.9c0,0,1.5,9.1,7.3,9.1s11.1-0.7,11.1-0.7s-0.9,3.8-1.8,7c-0.8,3.2-2.7,10.4-2.7,10.4h8.3l5.1-17.9
	c0.9-3.2-1.3-6.5-4.7-6.8l-13.1-1.1v-1.4h-9.5V275.9z"/>
<path class="st15" d="M300.2,310.1c0.9,0.1,2.6,0.1,2.9,0c0.2-0.1,0.2-0.2,0.1-0.3c-0.1-0.1-0.2-0.2-0.3-0.3
	c-0.3-0.2-1.1-0.8-2.1-1.2c-1.3-0.6-2.4-1.5-2.8-2.9s-1.2-5.2-1.2-5.2L293,300c0,0,1.2,3.4,1.2,4.5c0,0.2-0.8,1.8-0.5,2.4
	c0.3,0.7,0.9,0.8,1.9,1.3C297.7,309.2,296.2,309.9,300.2,310.1z"/>
<path class="st16" d="M294.2,304.3c0,0-1.6,0.7-1,2.9c0.7,2.1,0.6,2.9,0.6,2.9h1.6v-1.5c0,0,0.1-0.1,0.3,0.2
	c0.8,0.6,2.2,1.7,2.8,1.9c1.1,0.3,4.8-0.2,4.8-0.2v-0.3h-2.8c0,0,1.5-1.4,1.2-1.6c-0.4-0.2-1.2-0.8-1.2-0.8l-2.8,1.2L294.2,304.3z"
	/>
<path class="st18" d="M262.7,276c0,0-0.8,9.5,6.5,9.4c5.8-0.1,18.3-1.5,18.3-1.5s0.2,4.3,1.3,7.8c1.2,3.5,3.1,10.4,3.1,10.4h8.1
	l-6.2-20.1c-0.7-2.2-2.6-3.8-4.9-4.1l-14.1-1.8v-1.4h-12.3L262.7,276z"/>
<path class="st8" d="M268.4,276.1l-2.3,4.1c0,0-0.1-0.2-0.3-1.2c-0.2-1-0.4-3.1-0.4-3.1L268.4,276.1z"/>
<path class="st19" d="M265.5,274.5l0.3,4.1c0.2,2.7,2.4,4.7,5.1,4.6l16.9-0.7c0.6,0,1.2,0.4,1.4,1l5.1,18.5"/>
<path class="st15" d="M277.7,254.6l3.7,7.2l8.3-8c0,0,0.1-0.1,0.1-0.1l0.3-3c0,0,2-3.2,2.3-2c0.1,0.4-0.9,0.9-0.7,2.4
	c0,0.3,2.2-1.2,3.1-1.8c0.1-0.1,0.3,0,0.3,0.2l-0.6,3.3c0,0,0,0.1-0.1,0.1l-3,2.5l-7.7,10.5c-1.2,1.7-3.7,1.5-4.7-0.3l-5.1-9.2
	L277.7,254.6z"/>
<path class="st12" d="M292.1,247.5c0-0.4,0.3-0.7,0.7-0.7l3.4-0.1c0.4,0,0.7,0.3,0.7,0.7l0.1,8.2c0,0.4-0.3,0.7-0.7,0.7l-3.4,0.1
	c-0.4,0-0.7-0.3-0.7-0.7L292.1,247.5z"/>
<path class="st13" d="M293.1,246.7l3.4-0.1c0.4,0,0.7,0.3,0.7,0.7l0.1,8.2c0,0.4-0.3,0.7-0.7,0.7l-3.4,0.1c-0.4,0-0.7-0.3-0.7-0.7
	l-0.1-8.2C292.5,247,292.8,246.7,293.1,246.7z"/>
<path class="st14" d="M292.8,247.7c0-0.3,0.3-0.6,0.6-0.6l0.4,0c0,0,0.1,0,0.1,0.1c0,0.1,0.1,0.2,0.2,0.2l1.6,0
	c0.1,0,0.2-0.1,0.2-0.2c0,0,0-0.1,0.1-0.1l0.3,0c0.3,0,0.6,0.3,0.6,0.6l0.1,7.7c0,0.3-0.3,0.6-0.6,0.6l-2.9,0
	c-0.3,0-0.6-0.3-0.6-0.6L292.8,247.7z"/>
<path class="st18" d="M277.1,251.9c-0.6-1.2-2.1-1.7-3.3-1.1c-1.3,0.6-1.8,2.2-1.1,3.4l3.5,6.3l4-2.7L277.1,251.9z"/>
<path class="st7" d="M277.3,255.8l1.9,2.7l-1,0.7L277.3,255.8z"/>
<path class="st20" d="M280.2,257.8l-4,2.7"/>
<path class="st15" d="M261.4,253.8c-0.4-1.4,0.6-2.9,2.1-3l6.3-0.8l5.1,0.6c0.4,0,0.7,0.3,0.8,0.6c0.7,1.6,2.6,6.2,2.7,8.2
	c0.1,1.9-1.6,3.9-1.6,5.8c0,1.9,1,9.8,1,9.8l-15.7,0.5c-0.1,0-0.3-0.1-0.2-0.3l2.2-10.4L261.4,253.8z"/>
<path class="st8" d="M261.4,253.8c-0.4-1.4,0.6-2.9,2.1-3l3.7-0.5c0,0,1.6,1.5,3,3c1.3,1.5,2.5,3.5,2.5,3.5s0.2-1.6,0.2-3.1
	c0-1.4-0.2-3.5-0.2-3.5l2,0.2c0.3,0,0.6,0.2,0.8,0.5c0.7,1.5,2.9,6.2,3,8.2c0.1,1.9-1.6,3.9-1.6,5.8c0,1.9,0.9,10.2,0.9,10.2
	l-13,0.7c-1.7,0.1-3-1.5-2.6-3.1l1.9-8.2L261.4,253.8z"/>
<path class="st18" d="M263.5,250.8l3.7-0.5l0.9,1.7c1.3,2.4,2.3,4.3,2.9,5.6c0.8,1.6,1.5,3.3,2.2,5.1c0.6-1.8,0.8-3.5,0.7-5.1l0-0.2
	c-0.1-1.6-0.5-4-1.3-7.1l2.2,0.2c0.3,0,0.6,0.3,0.8,0.6l0.2,0.4c1.7,3.7,2.7,6.3,2.8,7.8c0.1,1.9-1.6,3.9-1.6,5.8l0,0.1
	c0,1.3,0.4,4.6,1.1,9.9c0.1,0.4-0.2,0.8-0.6,0.8c0,0,0,0-0.1,0l-13.7,0.7c-1.2,0.1-2.3-0.9-2.3-2.1c0-0.2,0-0.5,0.1-0.7l2.6-9.2
	l-2.8-11c-0.3-1.3,0.5-2.6,1.8-3C263.3,250.8,263.4,250.8,263.5,250.8z"/>
<path class="st7" d="M273.3,263.9l0.4,12.3h1L273.3,263.9z"/>
<path class="st21" d="M277.8,276.1l-14,0.7c-0.5,0-0.9-0.1-1.3-0.3"/>
<path class="st8" d="M273.5,264.8c0.3,0,0.6-0.3,0.6-0.6c0-0.3-0.3-0.6-0.6-0.6s-0.6,0.3-0.6,0.6
	C272.9,264.5,273.2,264.8,273.5,264.8z"/>
<path class="st7" d="M265.5,254.7l-1.6,8.3l-1.3-4.4L265.5,254.7z"/>
<path class="st22" d="M274.4,249.4c0.6-0.6,0.1-4.2-0.1-5.1c0-0.1,0-0.2,0.1-0.3c0.4-0.3,1.4-1,1.7-2c1.5-6.4-8.2-5.8-8.9-3.3
	c-1.6,0.2-1.9,2.3-1.8,4c0,0.5,0,4.2,0,5.7c0,0.4,0.3,0.8,0.6,0.9l2.9,1C269,250.3,273.8,250,274.4,249.4z"/>
<path class="st15" d="M268.4,250.7c0,1,0.8,1.8,1.8,1.8c1,0,1.9-0.9,1.8-1.9l-0.2-2.3c0,0,2.2,0.2,3-0.9c0.7-1.1,0.6-6.6,0.6-6.6h-7
	c0,0,0,1.4,0,1.9c-2.1,0-2.1,2.6,0,2.6C268.4,246.7,268.4,249.1,268.4,250.7z"/>
<path class="st22" d="M275.4,242v-2.6h-7.2l0.2,5.1c0,0.1,0.1,0.1,0.2,0c0.2-0.3,0.4-0.8,0.6-1.3c0.4-0.9,1.6-1.3,2.4-1.3
	c0.8,0,2,0.1,2.8-0.5C275.3,240.7,275.4,242,275.4,242z"/>
<path class="st23" d="M271.8,248.2c0,0-0.7-0.1-1.2-0.2c-0.5-0.2-1.1-0.5-1.1-0.5s0.9,0.8,1.3,1.2c0.5,0.4,1.1,0.7,1.1,0.7
	L271.8,248.2z"/>
<path class="st23" d="M274,243.8v1.8c0,0,0.8-0.4,0.8-0.6C274.7,244.9,274,243.8,274,243.8z"/>
<path class="st24" d="M270.8,237.3c1.1-0.4,2.8-0.4,4,0.6c0,0-2.1-0.3-3.5,0.1c-1.2,0.4-3,2.2-3.1,4.6l-0.4,0.1
	C267.7,240.3,268.3,238.1,270.8,237.3z"/>
<path class="st15" d="M263.7,257l-4.5,8.4c0,0,17.3-6.2,17.5-5.9c0.3,0.4-1.4,1.2-1.8,1.8c-0.4,0.5,0,2-0.5,2.6
	c-0.2,0.2-2.3,0.2-3,0.2c-0.3,0-3.7,1.5-8.8,4.1c-0.4,0.2-1.4,0.6-2.7,1.2c-3.1,1.3-6.1-1.9-4.6-4.9l4.8-9.6L263.7,257z"/>
<path class="st18" d="M260.7,252.4c0.7-1.4,2.4-1.9,3.7-1.1l0.3,0.2c1.2,0.7,1.6,2.2,1,3.5l-3.4,6.5l-4.6-2.5L260.7,252.4z"/>
<path class="st15" d="M271,261.5c0,0,1.4-2.7,1.8-2.7c0.5,0-0.4,2.6-0.4,2.6L271,261.5z"/>
<path class="st20" d="M257.7,258.9l4.5,2.5"/>
<path class="st12" d="M267.9,245.8L267.9,245.8c0.6-0.1,1.1-0.9,1.1-1.8c0-1-0.5-1.7-1.1-1.8v0h-1.1l0,0.7c-0.2,0.3-0.3,0.7-0.3,1.2
	c0,0.4,0.1,0.8,0.3,1.2l0,0.7H267.9z"/>
<path class="st13" d="M267.2,242.1c0-2.8,2.3-5,5.1-5h1.9c0.4,0,0.8,0.3,0.9,0.7l0,0.1h-2.8c-2.3,0-4.2,1.9-4.2,4.2H267.2z"/>
<path class="st13" d="M266.9,245.8c-0.7,0-1.3-0.8-1.3-1.8s0.6-1.8,1.3-1.8c0.7,0,1.3,0.8,1.3,1.8S267.6,245.8,266.9,245.8z"/>
<path class="st6" d="M273.4,247.4c0.1,0,0.1,0.1,0.1,0.1c0,0.1-0.1,0.1-0.1,0.1h-2.2c-0.3,0-0.6-0.1-0.8-0.3l-2.1-2
	c-0.1-0.1-0.1-0.1,0-0.2c0.1-0.1,0.1-0.1,0.2,0l2.1,1.9c0.2,0.2,0.5,0.3,0.8,0.3H273.4z"/>
<path class="st6" d="M274.2,247.2h-0.6c-0.2,0-0.3,0.1-0.3,0.3l0,0c0,0.2,0.1,0.3,0.3,0.3h0.6c0.2,0,0.3-0.1,0.3-0.3l0,0
	C274.5,247.3,274.3,247.2,274.2,247.2z"/>
<path class="st1" d="M235.8,274.5h-4.3v38.4h4.3V274.5z"/>
<path class="st0" d="M236.5,274.5h-2.9v38.4h2.9V274.5z"/>
<path class="st1" d="M257.3,274.5h-23.6v5H253v33.4h4.3V274.5z"/>
<path class="st0" d="M258,274.5h-2.9v38.4h2.9V274.5z"/>
<path class="st1" d="M190.5,274.5h-4.3v38.4h4.3V274.5z"/>
<path class="st0" d="M191.2,274.5h-2.9v38.4h2.9V274.5z"/>
<path class="st1" d="M211.9,274.5h-23.6v38.4h19.3h4.3V274.5z"/>
<path class="st0" d="M228.4,274.5h-18.6v38.4l18.6,0.1V274.5z"/>
<path class="st1" d="M238.4,273.7c0-0.3-0.2-0.5-0.5-0.5h-55.6c-0.3,0-0.5,0.2-0.5,0.5v2.6c0,0.3,0.2,0.5,0.5,0.5H238
	c0.3,0,0.5-0.2,0.5-0.5V273.7z"/>
<path class="st0" d="M262.3,273.7c0-0.3-0.2-0.5-0.5-0.5h-55.6c-0.3,0-0.5,0.2-0.5,0.5v2.6c0,0.3,0.2,0.5,0.5,0.5h55.6
	c0.3,0,0.5-0.2,0.5-0.5V273.7z"/>
<path class="st1" d="M326.2,274.5h-4.3v38.4h4.3V274.5z"/>
<path class="st0" d="M326.9,274.5H324v38.4h2.9V274.5z"/>
<path class="st1" d="M347.7,274.5H324v5h19.3v33.4h4.3V274.5z"/>
<path class="st0" d="M348.4,274.5h-2.9v38.4h2.9V274.5z"/>
<path class="st1" d="M280.8,274.5h-4.3v38.4h4.3V274.5z"/>
<path class="st0" d="M281.5,274.5h-2.9v38.4h2.9V274.5z"/>
<path class="st1" d="M302.3,274.5h-23.6v38.4H298h4.3V274.5z"/>
<path class="st0" d="M318.8,274.5h-18.6v38.4l18.6,0.1V274.5z"/>
<path class="st1" d="M328.8,273.7c0-0.3-0.2-0.5-0.5-0.5h-55.6c-0.3,0-0.5,0.2-0.5,0.5v2.6c0,0.3,0.2,0.5,0.5,0.5h55.6
	c0.3,0,0.5-0.2,0.5-0.5V273.7z"/>
<path class="st0" d="M352.7,273.7c0-0.3-0.2-0.5-0.5-0.5h-55.6c-0.3,0-0.5,0.2-0.5,0.5v2.6c0,0.3,0.2,0.5,0.5,0.5h55.6
	c0.3,0,0.5-0.2,0.5-0.5V273.7z"/>
<path class="st25" d="M285.5,270.3h-3.3v2.9h3.3c0,0,0.5-0.7,0.5-1.4C285.9,271,285.5,270.3,285.5,270.3z"/>
<rect x="281.9" y="270.1" class="st26" width="17.6" height="0.2"/>
<rect x="281.9" y="273.2" class="st26" width="17.6" height="0.2"/>
<path class="st27" d="M285.5,270.3h14.3c0,0,0.5,0.7,0.5,1.4c0,0.7-0.5,1.4-0.5,1.4h-14.3c0,0,0.5-0.7,0.5-1.4
	C285.9,271,285.5,270.3,285.5,270.3z"/>
<path class="st25" d="M283.8,267h-3.3v2.9h3.3c0,0,0.5-0.7,0.5-1.4C284.3,267.7,283.8,267,283.8,267z"/>
<rect x="280.2" y="266.7" class="st28" width="17.6" height="0.2"/>
<rect x="280.2" y="269.8" class="st28" width="17.6" height="0.2"/>
<path class="st29" d="M283.8,267h14.3c0,0,0.5,0.7,0.5,1.4c0,0.7-0.5,1.4-0.5,1.4h-14.3c0,0,0.5-0.7,0.5-1.4
	C284.3,267.7,283.8,267,283.8,267z"/>
<path class="st30" d="M335.2,248.8c0.1-0.6-0.4-1.2-1-1.2H304c-0.5,0-0.9,0.4-1,0.9l-2.3,17.9c-0.1,0.6,0.4,1.2,1,1.2h30.2
	c0.5,0,0.9-0.4,1-0.9L335.2,248.8z"/>
<path class="st31" d="M335.2,248.8c0.1-0.6-0.4-1.2-1-1.2H305c-0.5,0-0.9,0.4-1,0.9l-2.3,17.9c-0.1,0.6,0.4,1.2,1,1.2h29.1
	c0.5,0,0.9-0.4,1-0.9L335.2,248.8z"/>
<path class="st32" d="M317.9,256.4c-0.7-0.6-0.8-1.7-0.2-2.5c0.6-0.8,1.7-1.1,2.5-0.5c0.7,0.6,0.8,1.7,0.2,2.5
	C319.7,256.7,318.6,256.9,317.9,256.4z"/>
<path class="st33" d="M321.4,260.5h-5.6c-0.5,0-0.9,0.4-1,0.8l0,0.1l-0.9,6.3h7L321.4,260.5h-5.6H321.4z"/>
<path class="st30" d="M314.8,261.5c0-0.6,0.5-1,1-1h4.6c0.5,0,1,0.4,1,0.9l1.4,11.9h-12.5v-0.8h5.8l-1.3-10.9
	C314.8,261.6,314.8,261.5,314.8,261.5z M319,267.4c1.2-0.1,2-1.2,1.9-2.4c-0.1-1.2-1.2-2-2.4-1.9c-1.2,0.1-2,1.2-1.9,2.4
	C316.7,266.7,317.8,267.5,319,267.4z"/>
<path class="st1" d="M316.5,260.5c-0.6,0-1,0.5-1,1c0,0,0,0.1,0,0.1l1.4,11.6h6.6l-1.4-11.9c-0.1-0.5-0.5-0.9-1-0.9H316.5z
	 M321.7,264.9c0.1,1.2-0.7,2.3-1.9,2.4c-1.2,0.1-2.3-0.7-2.4-1.9c-0.1-1.2,0.7-2.3,1.9-2.4C320.4,262.9,321.5,263.8,321.7,264.9z"/>
<path class="st34" d="M245,265.3h-0.6c-0.3,0-0.6,0.3-0.6,0.6l0,0c0,0.3,0.3,0.6,0.6,0.6h0.6c0.3,0,0.6-0.3,0.6-0.6l0,0
	C245.5,265.6,245.3,265.3,245,265.3z"/>
<path class="st34" d="M247.2,263c0-0.6-0.5-1.1-1.1-1.1c-0.6,0-1.1,0.5-1.1,1.1l0.2,5.7h1.6L247.2,263z"/>
<path class="st34" d="M247.6,263.9l-0.4,0.3l0,0h-0.6c-0.3,0-0.6,0.3-0.6,0.6c0,0.3,0.3,0.6,0.6,0.6h0.6c0.1,0,0.3-0.1,0.4-0.1
	c0.1,0,0.1,0,0.2-0.1l0.6-0.4c0.2-0.2,0.3-0.5,0.1-0.7c0,0,0,0,0,0C248.2,263.6,247.9,263.6,247.6,263.9z"/>
<path class="st0" d="M250.4,267.9h-8.5v5.4h8.5V267.9z"/>
<path class="st1" d="M250.4,267.9h-4v5.4h4V267.9z"/>
<path class="st12" d="M199.6,271.8v-1.9c0-0.5,0.4-0.9,0.9-0.9c0.5,0,0.9,0.4,0.9,0.9v1.9c0,0.5-0.4,0.9-0.9,0.9
	C200.1,272.7,199.6,272.3,199.6,271.8z"/>
<path class="st13" d="M206.7,272.4c0-0.5-0.4-0.9-0.9-0.9h-11.1c-0.5,0-0.9,0.4-0.9,0.9c0,0.5,0.4,0.9,0.9,0.9h11.1
	C206.3,273.2,206.7,272.8,206.7,272.4z"/>
<path class="st13" d="M200.4,250.4c-0.2,0.2-0.2,0.6,0.1,0.8l1.8,1.4l1.8,4.2c0.1,0.3,0.5,0.4,0.7,0.3c0.1,0,0.2-0.1,0.2-0.2l4-4.9
	c0.2-0.2,0.2-0.6-0.1-0.8c-0.1-0.1-0.2-0.1-0.2-0.1l-4.4-0.9l-1.8-1.4c-0.2-0.2-0.6-0.2-0.8,0.1L200.4,250.4z"/>
<path class="st35" d="M204.2,250.2l-1.8-1.4c-0.2-0.2-0.6-0.2-0.8,0.1l-1.3,1.5c-0.2,0.2-0.2,0.6,0.1,0.8l1.8,1.4L204.2,250.2z"/>
<path class="st12" d="M191.2,259.7l10.2-9.5c0.3-0.2,0.7-0.2,0.9,0c0.2,0.3,0.2,0.7,0,0.9l-10.2,9.5c-0.3,0.2-0.7,0.2-0.9,0
	C191,260.3,191,259.9,191.2,259.7z"/>
<path class="st13" d="M200.1,270.5l-8.6-9.8c-0.2-0.3-0.2-0.7,0.1-0.9c0.3-0.2,0.7-0.2,0.9,0.1l8.6,9.8c0.2,0.3,0.2,0.7-0.1,0.9
	C200.7,270.8,200.3,270.7,200.1,270.5z"/>
<path class="st12" d="M172.5,245.8L172.5,245.8c0.6-0.1,1.1-0.9,1.1-1.8c0-1-0.5-1.7-1.1-1.8l0,0h-1.1l0,0.7
	c-0.2,0.3-0.3,0.7-0.3,1.2c0,0.4,0.1,0.8,0.3,1.2l0,0.7H172.5z"/>
<path class="st13" d="M171.7,242.1c0-2.8,2.3-5,5.1-5h1.9c0.4,0,0.8,0.3,0.9,0.7l0,0.1h-2.8c-2.3,0-4.2,1.9-4.2,4.2H171.7z"/>
<path class="st13" d="M171.5,245.8c-0.7,0-1.3-0.8-1.3-1.8s0.6-1.8,1.3-1.8c0.7,0,1.3,0.8,1.3,1.8S172.2,245.8,171.5,245.8z"/>
<path class="st6" d="M178,247.4c0.1,0,0.1,0.1,0.1,0.1c0,0.1-0.1,0.1-0.1,0.1h-2.2c-0.3,0-0.6-0.1-0.8-0.3l-2.1-2
	c-0.1-0.1-0.1-0.1,0-0.2c0.1-0.1,0.1-0.1,0.2,0l2.1,1.9c0.2,0.2,0.5,0.3,0.8,0.3H178z"/>
<path class="st6" d="M178.7,247.2h-0.6c-0.2,0-0.3,0.1-0.3,0.3l0,0c0,0.2,0.1,0.3,0.3,0.3h0.6c0.2,0,0.3-0.1,0.3-0.3l0,0
	C179,247.3,178.9,247.2,178.7,247.2z"/>
<path class="st26" d="M244.5,249.1c0.1-0.6-0.4-1.2-1-1.2h-30.2c-0.5,0-0.9,0.4-1,0.9l-2.3,17.9c-0.1,0.6,0.4,1.2,1,1.2h30.2
	c0.5,0,0.9-0.4,1-0.9L244.5,249.1z"/>
<path class="st27" d="M244.5,249.1c0.1-0.6-0.4-1.2-1-1.2h-29.1c-0.5,0-0.9,0.4-1,0.9l-2.3,17.9c-0.1,0.6,0.4,1.2,1,1.2h29.1
	c0.5,0,0.9-0.4,1-0.9L244.5,249.1z"/>
<path class="st32" d="M227.3,256.5c-0.7-0.6-0.8-1.7-0.2-2.5c0.6-0.8,1.7-1.1,2.5-0.5c0.7,0.6,0.8,1.7,0.2,2.5
	C229.1,256.9,228,257.1,227.3,256.5z"/>
<path class="st33" d="M230.1,260.8h-5c-0.5,0-0.9,0.4-1,0.8l0,0.1l-0.9,6.3h7l0.8-6c0,0,0-0.1,0-0.1l0,0
	C231.1,261.2,230.7,260.8,230.1,260.8L230.1,260.8h-5H230.1z"/>
<path class="st26" d="M224.1,261.8c0-0.6,0.5-1,1-1h4.6c0.5,0,1,0.4,1,0.9l1.4,11.9h-12.5v-0.8h5.8l-1.3-10.9
	C224.1,261.9,224.1,261.8,224.1,261.8z M228.4,267.7c1.2-0.1,2-1.2,1.9-2.4c-0.1-1.2-1.2-2-2.4-1.9c-1.2,0.1-2,1.2-1.9,2.4
	C226.1,267,227.2,267.8,228.4,267.7z"/>
<path class="st1" d="M225.9,260.8c-0.6,0-1,0.5-1,1c0,0,0,0.1,0,0.1l1.4,11.6h6.6l-1.4-11.9c-0.1-0.5-0.5-0.9-1-0.9H225.9z
	 M231,265.2c0.1,1.2-0.7,2.3-1.9,2.4c-1.2,0.1-2.3-0.7-2.4-1.9c-0.1-1.2,0.7-2.3,1.9-2.4C229.8,263.2,230.9,264,231,265.2z"/>
<path class="st36" d="M340.6,264.5h1c1.1,0,2.1,0.9,2.1,2.1h-1C341.5,266.6,340.6,265.7,340.6,264.5z"/>
<path class="st36" d="M341,263l0.3-0.5c0.3-0.6,1-0.8,1.5-0.5l-0.3,0.5C342.2,263.1,341.5,263.3,341,263z"/>
<path class="st36" d="M346.8,265.5h-1c-1.1,0-2.1,0.9-2.1,2.1h1C345.9,267.5,346.8,266.6,346.8,265.5z"/>
<path class="st36" d="M344.8,261.3l-0.1,0.2c-0.3,0.5-0.2,1.2,0.4,1.6l0.1-0.2C345.5,262.4,345.3,261.7,344.8,261.3z"/>
<path class="st36" d="M345.9,262.6l0.3,0.1c0.4,0.2,0.7,0.7,0.5,1.1l-0.3-0.1C345.9,263.5,345.7,263,345.9,262.6z"/>
<path class="st36" d="M343.7,262.3l-2.6-1.3l-0.1,0.3l2.6,1.3L343.7,262.3z"/>
<path class="st29" d="M339.5,261.5c0,0,0-0.1,0-0.1l0.3-0.1c0.1,0,0.1-0.1,0.1-0.2l-0.1-0.2c-0.1-0.1,0-0.3,0.2-0.4l0.2-0.1
	c0.1,0,0.1-0.1,0.1-0.2l-0.1-0.3c0,0,0-0.1,0.1-0.1l0.9,0.4c0.4,0.2,0.6,0.7,0.4,1.1c-0.2,0.4-0.7,0.6-1.1,0.4L339.5,261.5z"/>
<path class="st36" d="M342.2,259.9l-0.1,0.2c-0.3,0.5-0.2,1.2,0.4,1.6l0.1-0.2C342.9,260.9,342.7,260.2,342.2,259.9z"/>
<path class="st36" d="M343.6,263.7l2.6-1.3l0.1,0.3l-2.6,1.3L343.6,263.7z"/>
<path class="st29" d="M347.2,261C347.3,261,347.3,261,347.2,261l0,0.3c0,0.1,0,0.2,0.1,0.2l0.2,0c0.2,0,0.2,0.2,0.2,0.4l0,0.2
	c0,0.1,0,0.2,0.1,0.2l0.3,0.1c0.1,0,0.1,0.1,0,0.1l-0.9,0.5c-0.4,0.2-0.9,0.1-1.2-0.3c-0.2-0.4-0.1-0.9,0.3-1.2L347.2,261z"/>
<path class="st36" d="M343.5,258.4v11h0.3v-11H343.5z"/>
<path class="st29" d="M342.1,255.4c0-0.1,0.1-0.1,0.2-0.1l0.4,0.4c0.1,0.1,0.3,0.1,0.4,0l0.4-0.4c0.1-0.1,0.3-0.1,0.4,0l0.4,0.4
	c0.1,0.1,0.3,0.1,0.4,0l0.3-0.4c0.1-0.1,0.2,0,0.2,0.1v1.8c0,0.9-0.7,1.6-1.6,1.6c-0.9,0-1.6-0.7-1.6-1.6V255.4z"/>
<path class="st26" d="M340.5,267.7h6.4l-0.7,5.3c0,0.2-0.2,0.3-0.3,0.3h-4.3c-0.2,0-0.3-0.1-0.3-0.3L340.5,267.7z"/>
<path class="st27" d="M340.2,268c0-0.2,0.1-0.3,0.3-0.3h6.4c0.2,0,0.3,0.1,0.3,0.3v1c0,0.2-0.1,0.3-0.3,0.3h-6.4
	c-0.2,0-0.3-0.1-0.3-0.3V268z"/>
<rect x="153.6" y="188.8" class="st1" width="22.1" height="25.5"/>
<rect x="155.3" y="188.8" class="st0" width="22.1" height="25.5"/>
<path class="st14" d="M174.8,191.8h-16.9v19.6h16.9V191.8z"/>
<rect x="173" y="191.8" class="st1" width="1.7" height="19.6"/>
<path class="st37" d="M161,206.2c-0.1,0-0.2-0.1-0.1-0.2l5.6-9.9c0.1-0.1,0.2-0.1,0.3,0l5.4,9.9c0.1,0.1,0,0.2-0.1,0.2H161z"/>
<path class="st37" d="M161,201.6c-0.1,0-0.2-0.1-0.1-0.2l3-5.3c0.1-0.1,0.2-0.1,0.2,0l2.9,5.3c0.1,0.1,0,0.2-0.1,0.2H161z"/>
<rect x="202.7" y="188.8" class="st1" width="22.1" height="25.5"/>
<rect x="204.4" y="188.8" class="st0" width="22.1" height="25.5"/>
<path class="st14" d="M223.9,191.8H207v19.6h16.9V191.8z"/>
<path class="st37" d="M219.8,198.3h-8.2c-0.1,0-0.1,0.1-0.1,0.1v8.2c0,0.1,0.1,0.1,0.1,0.1h8.2c0.1,0,0.1-0.1,0.1-0.1v-8.2
	C219.9,198.3,219.8,198.3,219.8,198.3z"/>
<path class="st37" d="M215.2,195H209c-0.1,0-0.1,0.1-0.1,0.1v6.2c0,0.1,0.1,0.1,0.1,0.1h6.2c0.1,0,0.1-0.1,0.1-0.1v-6.2
	C215.3,195,215.3,195,215.2,195z"/>
<rect x="222.2" y="191.8" class="st1" width="1.7" height="19.6"/>
<rect x="248.5" y="188.8" class="st1" width="22.1" height="25.5"/>
<rect x="250.2" y="188.8" class="st0" width="22.1" height="25.5"/>
<path class="st14" d="M269.7,191.8h-16.9v19.6h16.9V191.8z"/>
<path class="st37" d="M258.1,200.8c-1.7,0-3.1-1.4-3.1-3.1c0-1.7,1.4-3.1,3.1-3.1c1.7,0,3.1,1.4,3.1,3.1
	C261.2,199.5,259.8,200.8,258.1,200.8z"/>
<path class="st37" d="M261,208.4c-3.3,0-5.9-2.7-5.9-5.9s2.7-5.9,5.9-5.9c3.3,0,5.9,2.7,5.9,5.9S264.3,208.4,261,208.4z"/>
<rect x="267.9" y="191.8" class="st1" width="1.7" height="19.6"/>
<path class="st1" d="M348.1,189.1h-45.3c-0.7,0-1.3,0.6-1.3,1.3v11.6c0,0.7,0.6,1.3,1.3,1.3h45.3c0.7,0,1.3-0.6,1.3-1.3v-11.6
	C349.4,189.6,348.8,189.1,348.1,189.1z"/>
<path class="st0" d="M351,189.1h-40.6c-0.7,0-1.3,0.6-1.3,1.3v11.6c0,0.7,0.6,1.3,1.3,1.3H351c0.7,0,1.3-0.6,1.3-1.3v-11.6
	C352.2,189.6,351.6,189.1,351,189.1z"/>
<rect x="350" y="198.4" class="st1" width="1.3" height="1.3"/>
<rect x="350" y="196.9" class="st0" width="1.3" height="1.3"/>
<path class="st1" d="M349.4,201.7c0-0.6-0.5-1.1-1.1-1.1h-34.7c-0.6,0-1.1,0.5-1.1,1.1c0,0.6,0.5,1.1,1.1,1.1h34.7
	C348.9,202.8,349.4,202.3,349.4,201.7z"/>
<path class="st1" d="M349.4,191.9h-37.2v2.2h37.2V191.9z"/>
<path class="st32" d="M349.1,200.3h-37.2l0.6,1.6h37.2L349.1,200.3z"/>
<path class="st38" d="M321.3,201.2h-1.6l2.2,2.8h1.6L321.3,201.2z"/>
</svg>
