<?xml version="1.0" encoding="utf-8"?>
<!-- Generator: Adobe Illustrator 19.0.0, SVG Export Plug-In . SVG Version: 6.00 Build 0)  -->
<svg version="1.1" id="图层_1" xmlns="http://www.w3.org/2000/svg" xmlns:xlink="http://www.w3.org/1999/xlink" x="0px" y="0px"
	 viewBox="303 187.5 200 125" style="enable-background:new 303 187.5 200 125;" xml:space="preserve">
<style type="text/css">
	.st0{fill:#ABC5FA;}
	.st1{fill:#C8DAFF;}
	.st2{fill:#EAEFFF;}
	.st3{fill:none;stroke:#83A9FF;stroke-width:3.5;stroke-dasharray:7;}
	.st4{fill:#467FFF;}
	.st5{fill:#FFFFFF;}
	.st6{fill:#1075F0;}
	.st7{fill:#D5E4FF;}
	.st8{fill:#FFFFFF;stroke:#D2E0FF;}
	.st9{fill:#9BBAFF;}
	.st10{fill:#FFBF29;}
	.st11{fill:#FFD676;}
	.st12{fill:#616988;}
	.st13{fill:#642F14;}
	.st14{fill:#B7C3D1;}
	.st15{fill:#9DA9B6;}
	.st16{fill:#823E1D;}
	.st17{fill:#CCD8E7;}
	.st18{fill:#0B5E59;}
	.st19{fill:none;stroke:#71B6C2;stroke-width:0.5544;}
	.st20{fill:#AFBBCA;}
	.st21{fill:#FFC4A7;}
	.st22{fill:#13A199;}
	.st23{fill:#080708;fill-opacity:0.3402;}
	.st24{fill:#546A8B;}
	.st25{fill:#F19B93;}
	.st26{fill:#A7C3FF;}
	.st27{fill:#F5AC00;}
	.st28{fill:#C1D7FF;}
	.st29{fill:#94A4B1;}
	.st30{fill:#737F88;}
	.st31{fill:#930244;}
	.st32{fill:#ACBDCB;}
	.st33{fill:#84919A;}
	.st34{fill:#BE065A;}
	.st35{fill:none;stroke:#FFCBE3;stroke-width:0.5877;}
	.st36{fill:#842404;}
	.st37{fill:#FF7E74;}
	.st38{fill:#CC635C;}
	.st39{fill:#4F2511;}
	.st40{fill:#34180A;}
	.st41{fill:#203584;}
	.st42{fill:#7680A4;}
	.st43{fill:#2E47A6;}
	.st44{fill:none;stroke:#98ABF4;stroke-width:0.5544;}
	.st45{fill:#FF4F4F;}
	.st46{fill:#080708;fill-opacity:0.2213;}
	.st47{fill:#8A5835;}
</style>
<path class="st0" d="M332.4,188.1h120.3c1.2,0,2.2,1,2.2,2.2v61c0,1.2-1,2.2-2.2,2.2H332.4c-1.2,0-2.2-1-2.2-2.2v-61
	C330.2,189.1,331.1,188.1,332.4,188.1z"/>
<path class="st1" d="M334.8,188.1h120.3c1.2,0,2.2,1,2.2,2.2v61c0,1.2-1,2.2-2.2,2.2H334.8c-1.2,0-2.2-1-2.2-2.2v-61
	C332.6,189.1,333.6,188.1,334.8,188.1z"/>
<path class="st0" d="M336.3,193.6c0-1.2,1-2.2,2.2-2.2h112.8c1.2,0,2.2,1,2.2,2.2V248c0,1.2-1,2.2-2.2,2.2H338.5
	c-1.2,0-2.2-1-2.2-2.2V193.6z"/>
<path class="st1" d="M336.8,193.3c0-0.4,0.4-0.8,0.8-0.8H451c0.4,0,0.8,0.4,0.8,0.8v53.9c0,0.4-0.4,0.8-0.8,0.8H337.6
	c-0.4,0-0.8-0.4-0.8-0.8V193.3z"/>
<path class="st2" d="M339.2,192.5h110.4c1.2,0,2.2,1,2.2,2.2v52c0,1.2-1,2.2-2.2,2.2H339.2c-1.2,0-2.2-1-2.2-2.2v-52
	C337,193.5,338,192.5,339.2,192.5z"/>
<path class="st3" d="M366.9,208.1l-16.3,18.9c-0.4,0.4-0.1,1.1,0.5,1.1l28.4-0.6"/>
<path class="st4" d="M386.9,221.6c0.5,0,0.9,0.4,0.9,0.9v9.9c0,0,0,0,0,0.1h-15.6c0,0,0,0,0-0.1v-9.9c0-0.5,0.4-0.9,0.9-0.9H386.9z"
	/>
<path class="st5" d="M380.5,228.3c0.1,0.1,0,0.2-0.1,0.3l-0.1,0c-0.1,0.1-0.2,0-0.3-0.1l-0.3-0.5l-0.6,0.4c-0.1,0.1-0.3,0-0.3-0.1
	l-0.2-2.1c0-0.2,0.2-0.3,0.3-0.2l1.8,1.1c0.1,0.1,0.1,0.3,0,0.3l-0.6,0.4L380.5,228.3z"/>
<path class="st6" d="M378.6,232.8v0.2h2.6v-0.2h7.3c0.1,0,0.1,0.1,0.1,0.1c-0.1,0.6-0.7,1.1-1.4,1.1h-14.5c-0.6,0-1.2-0.4-1.4-1.1
	c0-0.1,0-0.1,0.1-0.1H378.6z"/>
<path class="st7" d="M345.1,223c0-0.1,0-0.2,0.1-0.2l6.2-3.1c0.1-0.1,0.3-0.1,0.4,0l6.2,3.3c0.1,0,0.1,0.1,0.1,0.2l-0.1,1.6
	c-0.2,3.6-1.8,6.9-4.4,9.3l-1.8,1.6c-0.1,0.1-0.2,0.1-0.3,0l-1.8-1.6c-2.6-2.4-4.2-5.7-4.4-9.3L345.1,223z"/>
<path class="st8" d="M344.8,222.8c0,0,0-0.1,0.1-0.1l6.2-3.1c0.1,0,0.2,0,0.3,0l6.2,3.3c0,0,0.1,0.1,0.1,0.1l-0.1,1.6
	c-0.2,3.5-1.8,6.8-4.4,9.2l-1.8,1.6c0,0-0.1,0-0.1,0l-1.8-1.6c-2.6-2.4-4.2-5.7-4.4-9.2L344.8,222.8z"/>
<path class="st9" d="M351.3,223.3c1.9,0,3.5,1.6,3.5,3.5s-1.6,3.5-3.5,3.5s-3.5-1.6-3.5-3.5S349.3,223.3,351.3,223.3z"/>
<path class="st4" d="M352.2,225.8c0.1-0.1,0.3-0.2,0.5,0c0.1,0.1,0.1,0.3,0,0.5l0,0l-1.3,1.6c-0.2,0.2-0.5,0.3-0.7,0.1l0,0l-0.8-0.8
	c-0.1-0.1-0.1-0.4,0-0.5c0.1-0.1,0.3-0.2,0.4-0.1l0,0l0.8,0.7L352.2,225.8z"/>
<path class="st7" d="M362.3,213c-2-0.1-3.5-1.7-3.5-3.6c0-2,1.6-3.6,3.6-3.6c0.1,0,0.2,0,0.3,0c0.1-2,1.7-3.5,3.6-3.5
	c1.9,0,3.5,1.5,3.6,3.3c0.1,0,0.3,0,0.5,0c2.1,0,3.7,1.7,3.7,3.7c0,1.9-1.4,3.5-3.3,3.7l0,0H362.3z"/>
<path class="st4" d="M361.9,212.5c-2-0.1-3.5-1.7-3.5-3.6c0-2,1.6-3.6,3.6-3.6c0.1,0,0.2,0,0.3,0c0.1-2,1.7-3.5,3.6-3.5
	c1.9,0,3.5,1.5,3.6,3.3c0.1,0,0.3,0,0.5,0c2.1,0,3.7,1.7,3.7,3.7c0,1.9-1.4,3.5-3.3,3.7l0,0H361.9z"/>
<path class="st5" d="M366.7,205.7c0.1,0,0.2,0.1,0.2,0.2v1.9l0.5,0c0,0,0.1,0,0.1,0l0,0c0.1,0.1,0.1,0.2,0,0.3l0,0l-1.5,1.7
	c0,0,0,0,0,0c-0.1,0.1-0.2,0.1-0.3,0l0,0l-1.5-1.7c0,0-0.1-0.1-0.1-0.1c0-0.1,0.1-0.2,0.2-0.2l0,0l0.5,0v-1.9c0-0.1,0.1-0.2,0.2-0.2
	H366.7z"/>
<path class="st5" d="M364.3,210.3h3.3c0.1,0,0.2,0.1,0.2,0.2l0,0c0,0.1-0.1,0.2-0.2,0.2h-3.3c-0.1,0-0.2-0.1-0.2-0.2l0,0
	C364.1,210.4,364.2,210.3,364.3,210.3z"/>
<path class="st0" d="M389,247.4c0-0.1,0.1-0.3,0.3-0.3h12.2c0.1,0,0.1,0,0.1,0l0.7,0.5v2.8c0,0.1-0.1,0.3-0.3,0.3h-12.8
	c-0.1,0-0.3-0.1-0.3-0.3V247.4z"/>
<path class="st1" d="M389.8,248.3c0-0.1,0.1-0.3,0.3-0.3h12.3v3h-12.6V248.3z"/>
<path class="st7" d="M395.8,204.8c0-1.2,1-2.2,2.2-2.2h48.3c1.2,0,2.2,1,2.2,2.2v30.3c0,1.2-1,2.2-2.2,2.2H398c-1.2,0-2.2-1-2.2-2.2
	V204.8z"/>
<path class="st8" d="M394.6,203.5c0-1.2,0.9-2.1,2.1-2.1H445c1.2,0,2.1,0.9,2.1,2.1v30.3c0,1.2-0.9,2.1-2.1,2.1h-48.3
	c-1.2,0-2.1-0.9-2.1-2.1V203.5z"/>
<path class="st10" d="M401.8,228.9c0.6,0,1.1-0.5,1.1-1.1s-0.5-1.1-1.1-1.1s-1.1,0.5-1.1,1.1S401.2,228.9,401.8,228.9z"/>
<path class="st10" d="M428.1,227.3c0.2,0,0.4,0.2,0.4,0.4c0,0.2-0.2,0.4-0.4,0.4l0,0h-23c-0.2,0-0.4-0.2-0.4-0.4
	c0-0.2,0.2-0.4,0.4-0.4l0,0H428.1z"/>
<path class="st11" d="M416.2,230.5c0.2,0,0.4,0.2,0.4,0.4c0,0.2-0.2,0.4-0.4,0.4l0,0h-11.1c-0.2,0-0.4-0.2-0.4-0.4
	c0-0.2,0.2-0.4,0.4-0.4l0,0H416.2z"/>
<path class="st7" d="M402.3,206.9h26.2c0.6,0,1.1,0.5,1.1,1.1v13.9c0,0.6-0.5,1.1-1.1,1.1h-26.2c-0.6,0-1.1-0.5-1.1-1.1V208
	C401.2,207.4,401.7,206.9,402.3,206.9z"/>
<path class="st10" d="M401.1,205.7h26.2c0.6,0,1.1,0.5,1.1,1.1v13.9c0,0.6-0.5,1.1-1.1,1.1h-26.2c-0.6,0-1.1-0.5-1.1-1.1v-13.9
	C400,206.2,400.5,205.7,401.1,205.7z"/>
<path class="st5" d="M414,218.5c2.6,0,4.7-2.1,4.7-4.7c0-2.6-2.1-4.7-4.7-4.7s-4.7,2.1-4.7,4.7C409.3,216.4,411.4,218.5,414,218.5z"
	/>
<path class="st10" d="M413,212.4c-0.1-0.1-0.3,0-0.3,0.2v2.6c0,0.1,0.1,0.2,0.3,0.2l2.6-1.4c0.1-0.1,0.1-0.3,0-0.3L413,212.4z"/>
<path class="st11" d="M441.5,206.6c0.2,0,0.4,0.2,0.4,0.4c0,0.2-0.2,0.4-0.4,0.4l0,0h-7.1c-0.2,0-0.4-0.2-0.4-0.4
	c0-0.2,0.2-0.4,0.4-0.4l0,0H441.5z"/>
<path class="st11" d="M437.6,209.2c0.2,0,0.4,0.2,0.4,0.4c0,0.2-0.2,0.4-0.4,0.4l0,0h-3.1c-0.2,0-0.4-0.2-0.4-0.4
	c0-0.2,0.2-0.4,0.4-0.4l0,0H437.6z"/>
<path class="st11" d="M441.5,214.9c0.2,0,0.4,0.2,0.4,0.4c0,0.2-0.2,0.4-0.4,0.4l0,0h-7.1c-0.2,0-0.4-0.2-0.4-0.4
	c0-0.2,0.2-0.4,0.4-0.4l0,0H441.5z"/>
<path class="st11" d="M437.6,217.5c0.2,0,0.4,0.2,0.4,0.4c0,0.2-0.2,0.4-0.4,0.4l0,0h-3.1c-0.2,0-0.4-0.2-0.4-0.4
	c0-0.2,0.2-0.4,0.4-0.4l0,0H437.6z"/>
<path class="st11" d="M441.5,222.8c0.2,0,0.4,0.2,0.4,0.4c0,0.2-0.2,0.4-0.4,0.4l0,0h-7.1c-0.2,0-0.4-0.2-0.4-0.4
	c0-0.2,0.2-0.4,0.4-0.4l0,0H441.5z"/>
<path class="st11" d="M437.6,225.4c0.2,0,0.4,0.2,0.4,0.4c0,0.2-0.2,0.4-0.4,0.4l0,0h-3.1c-0.2,0-0.4-0.2-0.4-0.4
	c0-0.2,0.2-0.4,0.4-0.4l0,0H437.6z"/>
<path class="st12" d="M331.2,295.2h2.9c0,0,0,3.4,0.3,3.8c0.4,0.4,3.6,1.9,3.6,1.9l-6.2-0.8L331.2,295.2z"/>
<path class="st13" d="M331.6,299.2c-0.1,0-0.2,0.6-0.2,1.1c0,0.4,0,1.5,0,1.8c0,0,0,0.1,0.1,0.1l2.1,0c0,0,0.1,0,0.1-0.1v-0.4
	c0,0,2.6,0.6,3,0.6s3-0.3,3.4-0.6c0.4-0.3-0.1-0.9-0.5-0.9s-1.6-0.2-2.2-0.5c-0.5-0.3-1.8-1.3-2-1.3c-0.2,0-0.4,0.9-0.2,1
	c0.1,0.1,0.3,0.4,0.3,0.4S331.7,299.2,331.6,299.2z"/>
<path class="st14" d="M323.1,254.2l5.1,22.7c0,0-0.3,3.4-0.3,5.8c0,2.4,3.3,14.5,3.3,14.5h3.3l-2.2-43H323.1z"/>
<path class="st15" d="M330.2,295.9c0-0.1,0-0.1,0.1-0.1h4.2c0,0,0.1,0,0.1,0.1v1.5c0,0,0,0.1-0.1,0.1h-3.8c0,0-0.1,0-0.1-0.1
	L330.2,295.9z"/>
<path class="st12" d="M317.5,295.2h2.9c0,0-0.8,3.4-0.5,3.8c0.4,0.4,3.6,1.9,3.6,1.9l-6.2-0.8L317.5,295.2z"/>
<path class="st16" d="M317.1,299.2c-0.1,0-0.2,0.6-0.2,1.1c0,0.4,0,1.5,0,1.8c0,0,0,0.1,0.1,0.1l2.1,0c0,0,0.1,0,0.1-0.1v-0.4
	c0,0,2.6,0.6,3,0.6s3-0.3,3.4-0.6c0.4-0.3-0.1-0.9-0.5-0.9s-1.6-0.2-2.2-0.5s-1.8-1.3-2-1.3c-0.2,0-0.4,0.9-0.2,1
	c0.1,0.1,0.3,0.4,0.3,0.4S317.2,299.2,317.1,299.2z"/>
<path class="st17" d="M319.1,254.2l-0.9,21.9c0,0-1.1,3.6-1.1,6.1s-0.4,15.1-0.4,15.1h4l7.4-43H319.1z"/>
<path class="st18" d="M325.2,255l-2.5,3.6l0.4-3.5L325.2,255z"/>
<path class="st19" d="M323.1,254.8l-2.5,22.1c0,0-0.7,2.7-1.1,5.8c-0.4,3-1.2,14.6-1.2,14.6"/>
<path class="st20" d="M316.2,296.1C316.2,296,316.3,296,316.2,296.1l5-0.1c0.1,0,0.1,0,0.1,0.1l-0.2,1.3c0,0,0,0.1-0.1,0.1h-4.7
	c0,0-0.1,0-0.1-0.1V296.1z"/>
<path class="st21" d="M335.8,238.4l3.6,2c0,0,6.8-9.6,7.4-10.5c0.4-0.5,1.2-1.4,2-1.8c0.4-0.2,1-0.3,1.2-0.3c0.2,0,0.7,0.3,0.2,0.6
	c-0.1,0.1-0.6,0-1,0.4c-0.4,0.3-0.6,0.7-0.8,1c-0.7,1.2-0.8,2.4-1.1,2.9c-0.3,0.6-3.7,7-5.5,10.3c-0.6,1.1-1.9,1.5-3,1l-4.7-2.4
	L335.8,238.4z"/>
<path class="st21" d="M347.7,229.8c0,0,0.9,0,1.1,0.1c0.2,0.1,0.6,0.8,0.6,1c0,0.2-0.3,1.2-0.6,1.2c-0.2,0,0-0.6,0-1
	c0-0.1-0.3-0.3-0.3-0.3c-0.2-0.2-1,0.2-1,0.2L347.7,229.8z"/>
<path class="st21" d="M347.2,232.6c0,0,1.6,0,1.9-0.3c0.2-0.3,1.2-1.8,0.8-2c-0.4-0.2-0.8,0.8-1.1,0.9c-0.3,0.1-1.3-0.1-1.3-0.1
	L347.2,232.6z"/>
<path class="st22" d="M331.4,235.6c-1-0.5-2.3-0.2-2.9,0.8l-0.2,0.4c-0.6,1.1-0.2,2.4,0.9,2.9l10.1,4.8c0.7,0.3,1.6,0.1,2-0.5
	l1.8-2.5l-3.1-2.7l-1.2,0.8L331.4,235.6z"/>
<path class="st23" d="M331.9,241l-0.2-1.5l3.2,3L331.9,241z"/>
<path class="st22" d="M318.2,237c0-0.9,0.7-1.7,1.6-1.8l5.9-0.6l4.4,0.6c0.8,0.1,1.5,0.8,1.5,1.6l1.5,18.3l-0.8,0.3l-0.1,0.5h-12.9
	l-0.1-0.5l-1-0.4V237z"/>
<path class="st18" d="M325.7,234.6l2.4,0.3c0,0,0,0,0,0.1c0,0.8-0.5,1.7-1.6,2.8l-0.2-0.1c-1.7-0.9-2.5-1.8-2.5-2.6
	c0-0.1,0-0.2,0-0.3L325.7,234.6z"/>
<path class="st23" d="M321.4,239.6l-3.1,10.3v-6.1L321.4,239.6z"/>
<path class="st21" d="M318.3,243.7l-2,3.6c0,0,9.9,0.1,10.5,0.1c0.6,0,2.3,3.1,2.4,3.2c0.1,0.1,0,0.5-0.5,0.2
	c-0.5-0.4-0.6-0.6-1-0.6c-0.4,0-1,0.7-1.6,0.6c-0.6-0.2-1.4-0.9-1.5-0.9c-0.1,0-5.7,0.4-9.7,0.7c-1.8,0.1-3-1.7-2.2-3.3l2.6-5.3
	L318.3,243.7z"/>
<path class="st22" d="M317.9,236.5c0.6-1.1,1.9-1.5,3-0.9l0.4,0.2c1,0.6,1.3,1.9,0.7,2.9l-4.6,8l1.4,0.4l-1.9,4l-2.3-0.5
	c-1.7-0.4-2.6-2.3-1.8-3.8L317.9,236.5z"/>
<path class="st21" d="M326.8,247.5c0,0,2-0.1,2.1,0.2c0.1,0.3-1.6,0.6-1.6,0.6L326.8,247.5z"/>
<path class="st21" d="M324.4,234.7c0,0.8,0.7,1.5,1.5,1.5c0.9,0,1.6-0.8,1.5-1.7l-0.1-1.2c0,0,1.9,0.2,2.6-0.8
	c0.4-0.5,0.5-2.9,0.5-5c0-1.6-1.3-3-3-3h-0.6c-1.7,0-3,1.3-3,3c0,0.5,0,0.8,0,0.9c-1.3,0.4-1,2.1,0.6,2.1
	C324.4,232,324.4,233.5,324.4,234.7z"/>
<path class="st24" d="M324.3,228.5C324.4,228.5,324.4,228.5,324.3,228.5l0.3,1.2c0,0.1,0.1,0.2,0.2,0.2c0.1,0,0.2-0.1,0.2-0.2
	c0.1-0.3,0.2-0.8,0.3-1c0.1-0.1,0.3-0.5,0.5-0.9c0.3-0.4,0.7-0.7,1.2-0.6c0.5,0,1.2,0,1.8,0c0.9,0,1.3,0,1.5,0c0,0,0.1,0,0.1-0.1
	c0.1-0.3,0.5-1.7-0.5-2.3c-0.6-0.4-2.3-0.5-4-0.4c-2.1,0.1-3.2,2.4-2.2,4.2L324.3,228.5z"/>
<path class="st24" d="M328.3,231.1c0-0.1,0.1-0.2,0.1-0.2c0.2,0,0.5-0.1,0.9-0.1c0.3,0,0.7,0.1,0.8,0.1c0.1,0,0.1,0.1,0.1,0.2
	c0,0.1-0.1,0.2-0.3,0.2c-0.2,0-0.4-0.1-0.7-0.1c-0.3,0-0.5,0-0.7,0.1C328.4,231.3,328.3,231.2,328.3,231.1z"/>
<path class="st24" d="M328,231.2c0-0.1,0.1-0.2,0.2-0.2l0.2-0.1l0.2,0v1.6H328V231.2z"/>
<path class="st24" d="M328,232.3h2.3v0.3c0,0.5-0.4,0.9-0.9,0.9h-0.5c-0.5,0-0.9-0.4-0.9-0.9V232.3z"/>
<path class="st24" d="M330,230.9L330,230.9c0.2,0,0.3,0.1,0.3,0.2v1.4H330V230.9z"/>
<path class="st25" d="M327.3,233.3c0,0-0.6-0.1-1-0.2c-0.4-0.1-1-0.4-1-0.4s0.7,0.7,1.1,1c0.4,0.3,0.9,0.6,0.9,0.6L327.3,233.3z"/>
<path class="st25" d="M329.4,228.7l0.8,1.6c0,0,0,0.1-0.1,0.1l-0.8,0.2V228.7z"/>
<path class="st1" d="M315.3,257.8c0-0.3,0.2-0.6,0.4-0.7l6.8-2.9h20.4c0.4,0,0.7,0.3,0.7,0.7v48.3h-28.3V257.8z"/>
<path class="st26" d="M322.3,254.2h21.3v2.2h-21.3V254.2z"/>
<path class="st26" d="M312.2,257c0-0.3,0.2-0.7,0.6-0.7l9.7-2.1v49h-10.3V257z"/>
<rect x="321.8" y="300.6" class="st26" width="21.8" height="1.8"/>
<path class="st26" d="M310.6,255.8c0-0.1,0.1-0.2,0.1-0.2l10.2-2.2h13.5c0.1,0,0.2,0.1,0.2,0.2v1.9c0,0.1-0.1,0.2-0.2,0.2l-11.9,0.7
	l-11.7,1.4c-0.1,0-0.2-0.1-0.2-0.2V255.8z"/>
<path class="st1" d="M320.8,253.7c0-0.1,0.1-0.2,0.2-0.2h24.1c0.1,0,0.2,0.1,0.2,0.2v1.9c0,0.1-0.1,0.2-0.2,0.2H321
	c-0.1,0-0.2-0.1-0.2-0.2V253.7z"/>
<path class="st26" d="M308.1,300.9h30.4c0.2,0,0.4,0.2,0.4,0.4v4c0,0.2-0.2,0.4-0.4,0.4h-30.4c-0.2,0-0.4-0.2-0.4-0.4v-4
	C307.7,301,307.9,300.9,308.1,300.9z"/>
<path class="st26" d="M303.7,305.3h30.4c0.2,0,0.4,0.2,0.4,0.4v4c0,0.2-0.2,0.4-0.4,0.4h-30.4c-0.2,0-0.4-0.2-0.4-0.4v-4
	C303.3,305.5,303.5,305.3,303.7,305.3z"/>
<path class="st1" d="M317.8,300.9h30.4c0.2,0,0.4,0.2,0.4,0.4v4c0,0.2-0.2,0.4-0.4,0.4h-30.4c-0.2,0-0.4-0.2-0.4-0.4v-4
	C317.4,301,317.6,300.9,317.8,300.9z"/>
<path class="st26" d="M317.2,305h31.5v1.8h-31.5V305z"/>
<path class="st1" d="M314.1,305.7c0-0.2,0.2-0.4,0.4-0.4h37c0.2,0,0.4,0.2,0.4,0.4v4c0,0.2-0.2,0.4-0.4,0.4h-37
	c-0.2,0-0.4-0.2-0.4-0.4V305.7z"/>
<path class="st10" d="M343.5,253c0-0.1-0.1-0.2-0.2-0.2h-21.6c-0.1,0-0.2,0.1-0.2,0.2v0.3c0,0.1,0.1,0.2,0.2,0.2h21.6
	c0.1,0,0.2-0.1,0.2-0.2V253z"/>
<path class="st27" d="M329.1,253c0-0.1-0.1-0.2-0.2-0.2h-7.2c-0.1,0-0.2,0.1-0.2,0.2v0.3c0,0.1,0.1,0.2,0.2,0.2h7.2
	c0.1,0,0.2-0.1,0.2-0.2V253z"/>
<path class="st27" d="M344.6,244.5c0.1-0.5-0.3-0.9-0.8-0.9h-13.3c-0.4,0-0.7,0.3-0.8,0.7l-1,7.6c-0.1,0.5,0.3,0.9,0.8,0.9h13.3
	c0.4,0,0.7-0.3,0.8-0.7L344.6,244.5z"/>
<path class="st10" d="M344.6,244.5c0.1-0.5-0.3-0.9-0.8-0.9h-12.8c-0.4,0-0.7,0.3-0.8,0.7l-1,7.6c-0.1,0.5,0.3,0.9,0.8,0.9h12.8
	c0.4,0,0.7-0.3,0.8-0.7L344.6,244.5z"/>
<path class="st5" d="M336.5,249.4c-0.4-0.3-0.5-0.9-0.1-1.4s1-0.6,1.4-0.3c0.4,0.3,0.5,0.9,0.1,1.4S336.9,249.7,336.5,249.4z"/>
<path class="st26" d="M442.3,282.8h-2.9v29.8h2.9V282.8z"/>
<path class="st1" d="M442.6,282.8h-1.6v29.8h1.6V282.8z"/>
<path class="st26" d="M457.1,282.8h-2.9v29.8h2.9V282.8z"/>
<path class="st1" d="M457.4,282.8h-1.6v29.8h1.6V282.8z"/>
<path class="st26" d="M473.6,282.8h-2.9v29.8h2.9V282.8z"/>
<path class="st1" d="M474,282.8h-1.6v29.8h1.6V282.8z"/>
<path class="st26" d="M476,282.3c0-0.2-0.2-0.4-0.4-0.4h-39.1c-0.2,0-0.4,0.2-0.4,0.4v2c0,0.2,0.2,0.4,0.4,0.4h39.1
	c0.2,0,0.4-0.2,0.4-0.4V282.3z"/>
<path class="st1" d="M476.2,282.3c0-0.2-0.2-0.4-0.4-0.4H455c-0.2,0-0.4,0.2-0.4,0.4v2c0,0.2,0.2,0.4,0.4,0.4h20.9
	c0.2,0,0.4-0.2,0.4-0.4V282.3z"/>
<path class="st27" d="M455.1,280.1c0-0.2,0.2-0.4,0.4-0.4h11.9c0.2,0,0.4,0.2,0.4,0.4v1.3c0,0.2-0.2,0.4-0.4,0.4h-11.9
	c-0.2,0-0.4-0.2-0.4-0.4V280.1z"/>
<path class="st10" d="M455.1,280.1c0-0.2,0.2-0.4,0.4-0.4h6.4c0.2,0,0.4,0.2,0.4,0.4v1.3c0,0.2-0.2,0.4-0.4,0.4h-6.4
	c-0.2,0-0.4-0.2-0.4-0.4V280.1z"/>
<path class="st2" d="M455.5,280.3c0-0.2,0.2-0.4,0.4-0.4h11.7c0.1,0,0.2,0.1,0.2,0.2v1.3c0,0.1-0.1,0.2-0.2,0.2h-11.7
	c-0.2,0-0.4-0.2-0.4-0.4V280.3z"/>
<path class="st28" d="M462.3,280.3c0-0.2,0.2-0.4,0.4-0.4h4.9c0.1,0,0.2,0.1,0.2,0.2v1.3c0,0.1-0.1,0.2-0.2,0.2h-4.9
	c-0.2,0-0.4-0.2-0.4-0.4V280.3z"/>
<path class="st21" d="M475.9,311.7c-0.7,0.2-2.9,0-4.5,0.1c-0.7,0.1-2.2-0.1-2.4-0.2c-0.4-0.2,0.2-0.6,0.6-0.8
	c0.6-0.2,1.5-0.6,2.2-0.9c1-0.5,2-0.7,2.1-1.4c0.1-0.7-1.2-4.1-1.2-4.1l2.9,1.2c0,0,0.6,2.5,0.9,3.7c0.3,1.2,0.2,1.7,0.2,1.7
	S476.6,311.5,475.9,311.7z"/>
<path class="st29" d="M473.3,308.4c0,0,0.3,0.3,0.3,0.7c0,0.4,0.2,0.6,0.3,0.6c0.1,0,0.1-0.2,0.5-0.1c0.4,0.1,0.4,0.3,1.2,0.3
	c0.8,0,1-0.7,1-0.7s0.2,0.5,0.2,1c0,0.5-0.1,1.2-0.1,1.2l-4,0.2l-4.2,0c0,0-0.1-0.4,0.1-0.5c0.1-0.1,2.3-1,3.2-1.4
	C472.5,309.2,473.3,308.4,473.3,308.4z"/>
<path class="st30" d="M476.7,311.3c0,0,0.1,0.3,0.1,0.6c-0.1,0.3-0.2,0.4-0.5,0.4c-0.1,0-0.5,0-1.4,0c-0.7,0-1.5-0.2-1.8-0.2
	c-0.3,0-1.3,0.2-2,0.2c-1.2,0-2.6,0-2.6,0c-0.2-0.1-0.3-0.8-0.1-0.8c0,0,1,0,2.9-0.1c0.4,0,1.5-0.2,2-0.2c0.5,0,1.2,0.1,1.6,0.1
	C476.1,311.3,476.7,311.3,476.7,311.3z"/>
<path class="st31" d="M480.9,293.4c-4.5,0-8.6-0.7-8.6-0.7s0.7,3,1.4,5.5c0.6,2.5,2.8,10.6,2.8,10.6h-2.9l-7.3-15.9
	c-1.2-2.6,0.6-5.6,3.4-5.9l9.4-0.8v-1.1h6.1C485.3,285.1,486.2,293.4,480.9,293.4z"/>
<path class="st21" d="M457.2,311.9c-0.7,0.2-2.9,0-4.5,0.1c-0.7,0.1-2.2-0.2-2.4-0.3c-0.4-0.2,0.2-0.6,0.6-0.7
	c0.6-0.2,1.5-0.6,2.2-0.8c1-0.4,2.1-0.9,2.2-1.6s1.4-3.9,1.4-3.9l2.5,1.3c0,0-0.9,1.9-1.1,2.7c-0.2,0.8,0,2.4,0,2.4
	S458,311.8,457.2,311.9z"/>
<path class="st32" d="M454.6,308.8c0,0,0.3,0.3,0.3,0.7c0,0.4,0.2,0.6,0.3,0.6c0.1,0,0.1-0.2,0.5-0.1c0.4,0.1,0.4,0.3,1.2,0.3
	c0.8,0,1-0.7,1-0.7s0.2,0.5,0.2,1c0,0.5-0.1,1.2-0.1,1.2l-4,0.2l-4.2,0c0,0-0.1-0.4,0.1-0.5c0.1-0.1,2.3-1,3.2-1.4
	C453.8,309.6,454.6,308.8,454.6,308.8z"/>
<path class="st33" d="M458,311.6c0,0,0.1,0.3,0.1,0.6c-0.1,0.3-0.2,0.4-0.5,0.4c-0.3,0-7.6,0.1-7.8,0c-0.2-0.1-0.3-0.8-0.1-0.8
	c0.1,0,1.6,0.1,4.6,0C455.5,311.8,458,311.6,458,311.6z"/>
<path class="st34" d="M477.6,293.5c-4.5-0.1-14.2-1.2-14.2-1.2s-0.2,3.8-1,6s-4.4,10.8-4.4,10.8h-3.1l3.8-18c0.4-1.9,2-3.3,3.9-3.6
	l10.6-1.4v-1.1h9.1C482.3,285.1,483.3,293.5,477.6,293.5z"/>
<path class="st31" d="M474.1,286.1l1.6,2.3l0.6-2.4L474.1,286.1z"/>
<path class="st35" d="M476.4,285.1l-0.2,1.8c-0.2,1.9-1.8,3.4-3.7,3.5l-10.7,0.2c-0.7,0-1.2,0.5-1.4,1.1l-4.7,17.5"/>
<path class="st25" d="M475.7,260.7v1.5c0,0-0.7-0.1-0.7-0.4C475.1,261.7,475.7,260.7,475.7,260.7z"/>
<path class="st21" d="M481,266.4h-3.3l0.3-1.5c0,0-1.4,0.1-2-0.7c-0.6-0.9-0.5-5.5-0.5-5.5h5.5V266.4z"/>
<path class="st25" d="M478,264.9l0.7-0.1l-1,1.6L478,264.9z"/>
<path class="st36" d="M475,258.3c0.2,1.3,2.1,1,1.9,2.3c-0.1,0.7-0.4,1.6-0.4,2.5c0,0.6,0.4,2.1,0.4,2.1s2.6-0.3,3.9-0.3
	c1.3,0,2.8,0.3,2.8,0.3s0.8-1.8,0.7-2.6c-0.3-1.2-1.2-1.7-0.8-3.1c0.9-3.4-4.3-5.3-6.2-3.3C476.3,255.8,474.8,257,475,258.3z"/>
<path class="st21" d="M485.9,268.8l4.3,8.1c0.2,0.3,0.2,0.7,0.1,1.1l-2.1,9.6c0,0,0.2,3.2-1,3.7c-0.2,0.1-0.7,2-1.2,1.4
	c-0.1-0.2-0.2-2.8-0.2-2.8l0.6-3.4l0.3-8.4l-3.6-7.1L485.9,268.8z"/>
<path class="st37" d="M485.7,267.7c-0.6-1-1.8-1.3-2.8-0.7l-0.4,0.2c-1,0.6-1.3,1.9-0.7,2.8l2.4,3.7l3.3-2.6L485.7,267.7z"/>
<path class="st38" d="M485.5,268.8l-0.4,4.3l-0.7,0.6l0.1-1.8L485.5,268.8z"/>
<path class="st37" d="M485.5,268.9c0.3-1.1-0.4-2.2-1.5-2.3c-1.4-0.2-3.1-0.4-4.3-0.5c-1.7-0.1-3.8,0.2-4.7,0.3
	c-0.3,0-0.5,0.2-0.6,0.4c-0.5,1.2-2.2,4.8-2.3,6.4c-0.1,1.4,1.2,3,1.2,4.5s-1,8.4-1,8.4l13.4,0.7c0.1,0,0.2-0.1,0.2-0.2l-2.6-9.2
	L485.5,268.9z"/>
<path class="st38" d="M475.5,270.6l-3.2,1.8l0.7-2.3L475.5,270.6z"/>
<path class="st21" d="M465.6,255.2c0,0,0.7-0.9,0.6-1.2c0-0.3-0.8-0.4-0.8-0.4L465.6,255.2z"/>
<path class="st21" d="M471.1,266.8l-3.9-0.1c0,0-1.2-13.1-1.8-13.6c-0.7-0.6-1.7-1.9-1.9-1.6c-0.2,0.2,0.5,0.9,0.7,1.5
	c0,0.1-0.7,0-0.7,0.3c0,2,0.9,2.9,0.8,3.1c0,0.6-0.3,7.7-0.4,11.3c0,1.2,0.9,2.2,2.1,2.2l5.1,0.3L471.1,266.8z"/>
<path class="st37" d="M474.7,266.4c1.1,0,2,0.9,2,2v0.4c0,1.1-0.9,2-2,2h-3.7v-4.4H474.7z"/>
<path class="st26" d="M476,293.6l-2.7,18.9l1.4,0l2.7-18.7L476,293.6z"/>
<path class="st1" d="M477.1,293.6l2.7,18.9l-1.4,0l-2.7-18.7L477.1,293.6z"/>
<path class="st26" d="M468.2,293.6l-2.7,18.9l1.4,0l2.7-18.7L468.2,293.6z"/>
<path class="st1" d="M485.2,293.6l2.7,18.9l-1.4,0l-2.7-18.7L485.2,293.6z"/>
<path class="st26" d="M467.2,294.7c-1.2,0-2.2-1-2.2-2.2s1-2.2,2.2-2.2h8.9c1.3,0,2.3-1,2.4-2.2l1.4-15.2c0.1-1.3,1.2-2.2,2.4-2.2
	h5.8c1.4,0,2.5,1.2,2.4,2.6l-1.5,19.2c-0.1,1.3-1.2,2.3-2.4,2.3H467.2z"/>
<path class="st1" d="M481.2,271l-1.5,19.3c-0.1,1.3-1.2,2.3-2.4,2.3H465l0,0l0,0c0-1.2,1-2.2,2.2-2.2h8.9c1.3,0,2.3-1,2.4-2.2
	l1.4-15.2C480,272.1,480.5,271.4,481.2,271z"/>
<path class="st26" d="M380.6,282.8h-2.9v29.8h2.9V282.8z"/>
<path class="st1" d="M381,282.8h-1.6v29.8h1.6V282.8z"/>
<path class="st26" d="M395.4,282.8h-2.9v29.8h2.9V282.8z"/>
<path class="st1" d="M395.8,282.8h-1.6v29.8h1.6V282.8z"/>
<path class="st26" d="M412,282.8h-2.9v29.8h2.9V282.8z"/>
<path class="st1" d="M412.3,282.8h-1.6v29.8h1.6V282.8z"/>
<path class="st26" d="M414.3,282.3c0-0.2-0.2-0.4-0.4-0.4h-39.1c-0.2,0-0.4,0.2-0.4,0.4v2c0,0.2,0.2,0.4,0.4,0.4h39.1
	c0.2,0,0.4-0.2,0.4-0.4V282.3z"/>
<path class="st1" d="M414.5,282.3c0-0.2-0.2-0.4-0.4-0.4h-20.9c-0.2,0-0.4,0.2-0.4,0.4v2c0,0.2,0.2,0.4,0.4,0.4h20.9
	c0.2,0,0.4-0.2,0.4-0.4V282.3z"/>
<path class="st4" d="M382.8,281.4c0-0.1,0.1-0.2,0.2-0.2h19.7c0.1,0,0.2,0.1,0.2,0.2v0.3c0,0.1-0.1,0.2-0.2,0.2H383
	c-0.1,0-0.2-0.1-0.2-0.2V281.4z"/>
<path class="st6" d="M382.8,281.4c0-0.1,0.1-0.2,0.2-0.2h7.6c0.1,0,0.2,0.1,0.2,0.2v0.3c0,0.1-0.1,0.2-0.2,0.2H383
	c-0.1,0-0.2-0.1-0.2-0.2V281.4z"/>
<path class="st6" d="M381.4,272.9c-0.1-0.5,0.3-0.9,0.8-0.9h13.1c0.4,0,0.7,0.3,0.8,0.7l1,7.6c0.1,0.5-0.3,0.9-0.8,0.9h-13.1
	c-0.4,0-0.7-0.3-0.8-0.7L381.4,272.9z"/>
<path class="st4" d="M381.8,272.9c-0.1-0.5,0.3-0.9,0.8-0.9h12.8c0.4,0,0.7,0.3,0.8,0.7l1,7.6c0.1,0.5-0.3,0.9-0.8,0.9h-12.8
	c-0.4,0-0.7-0.3-0.8-0.7L381.8,272.9z"/>
<path class="st2" d="M382.2,273.2c-0.1-0.4,0.3-0.8,0.7-0.8h12.2c0.4,0,0.7,0.3,0.7,0.6l0.9,6.9c0.1,0.4-0.3,0.8-0.7,0.8h-12.2
	c-0.4,0-0.7-0.3-0.7-0.6L382.2,273.2z"/>
<path class="st12" d="M420.2,305.8h-2.9l1.2,4.1h2.7L420.2,305.8z"/>
<path class="st39" d="M420.9,308l0.8,4.3h-9v-0.6c0,0,0.7-1,2.1-1c1.4,0,2-0.3,2.5-0.9c0.5-0.5,0.6-1.8,0.6-1.8H420.9z"/>
<rect x="412.7" y="311.9" class="st40" width="9" height="0.7"/>
<path class="st41" d="M429.2,284.1c0,0,0.7,7.8-5.4,7.8c-4.3,0-7.8,0-7.8,0s0.9,1,1.9,3.4c0.9,2.4,3.5,12.2,3.5,12.2h-3.9l-8.3-17.1
	c-1.2-2.5,0.5-5.4,3.2-5.6l9.9-0.8v-1h7V284.1z"/>
<path class="st42" d="M401.4,305.9h-2.9l-1.1,4.1h2.7L401.4,305.9z"/>
<path class="st16" d="M400.7,308.1l-0.4,4.3h-9v-0.6c0,0,0.5-1,1.9-1c1.4,0,2.8-0.3,3.3-0.9c0.5-0.5,1.1-1.8,1.1-1.8H400.7z"/>
<rect x="391.3" y="312" class="st39" width="9" height="0.7"/>
<path class="st43" d="M425.4,284.2c0,0,0,8.1-6,8.1c-4.3,0-12.8,0-12.8,0s0.1,2.4-0.7,4.5c-0.8,2.1-4.4,10.9-4.4,10.9h-4.2l4.3-18
	c0.4-1.6,1.7-2.9,3.3-3.2l10.4-2.3v-1L425.4,284.2z"/>
<path class="st41" d="M418.2,283.7l1.8,3.3l0.3-3.4L418.2,283.7z"/>
<path class="st44" d="M420.4,283.1l-0.2,2.6c-0.1,1.8-1.6,3.2-3.4,3.3l-11.7,0.6c-0.6,0-1.1,0.4-1.3,1l-5,17.1"/>
<path class="st21" d="M430.7,267.2l5.4,6.9c0.4,0.5,0.5,1.3,0.1,1.8l-4.9,8.1c0,0,0.2,3.4-1,3.9c-0.2,0.1-0.7,2-1.2,1.4
	c-0.1-0.2-0.2-3.8-0.2-3.8l0.6-2.7l2.4-7.9l-4-5.5L430.7,267.2z"/>
<path class="st45" d="M428.5,263.7c-0.8-0.9-2.1-1-3-0.2l-0.4,0.4c-0.9,0.8-1,2.1-0.2,3l4.8,5.5l3.6-3.2L428.5,263.7z"/>
<path class="st46" d="M428.5,267.7l1.3,4.4l-0.2,0.2l-0.9-1L428.5,267.7z"/>
<path class="st45" d="M428.2,264.6c-0.1-0.9-0.8-1.7-1.8-1.7h-9.8c-1,0-1.8,0.8-1.8,1.8v19.5h14.9L428.2,264.6z"/>
<path class="st46" d="M418,268.4l-3.1,10.2v-5.9L418,268.4z"/>
<path class="st21" d="M413.4,268.8l-1.8,3.6l-6.8-6.5c0,0,0-0.1,0-0.1l-0.4-2.5c0,0-1.5-2.6-1.8-1.6c-0.1,0.4,0.9,0.8,0.7,1.9
	c0,0.2-1.8-1.1-2.6-1.7c-0.1-0.1-0.3,0-0.3,0.2l0.5,2.9c0,0,0,0.1,0.1,0.1l2.5,2.1l6.3,8.6c1,1.3,3,1.2,3.8-0.2l3-5.2L413.4,268.8z"
	/>
<path class="st45" d="M414.7,264.2c0.5-1.1,1.8-1.5,2.8-1l0.5,0.2c1.1,0.5,1.5,1.8,1,2.8l-3.2,6.5l-4.3-2.1L414.7,264.2z"/>
<path class="st25" d="M418.4,256.5l-0.8,1.6c0,0,0,0.1,0.1,0.1l0.8,0.2V256.5z"/>
<path class="st21" d="M423.8,263h-3.5l0.3-1.6c0,0-1.4,0.2-2.1-0.8c-0.6-0.9-0.6-5.7-0.6-5.7h5.7V263z"/>
<path class="st47" d="M424.3,259.9c-0.1,0.2-0.3,0.3-0.6,0.3h-1.3c-0.2,0-0.4-0.1-0.5-0.3c-0.2-0.5-0.5-1.3-0.3-2
	c0.3-1.1-1.1-1.4-1.1-1.4l-0.1,1.3c0,0.1-0.1,0.1-0.1,0.1c-0.1,0-0.1,0-0.1-0.1l-0.4-1.8c-0.1-0.4-0.3-0.7-0.7-0.8l-0.8-0.3
	c0,0-0.7-0.3-1.1-1c-0.4-0.7-0.4-1.6-0.4-1.6s5.3-1.1,6.6-0.7c1.3,0.4,1.6,1.8,1.6,1.8s1.2,0.6,1.2,2
	C425.9,256.6,424.7,259,424.3,259.9z"/>
<path class="st25" d="M420.7,261.4l0.7-0.1l-1,1.7L420.7,261.4z"/>
<path class="st26" d="M417.6,293.6l-2.7,18.9l1.4,0l2.7-18.7L417.6,293.6z"/>
<path class="st1" d="M418.7,293.6l2.7,18.9l-1.4,0l-2.7-18.7L418.7,293.6z"/>
<path class="st26" d="M409.8,293.6l-2.7,18.9l1.4,0l2.7-18.7L409.8,293.6z"/>
<path class="st1" d="M426.9,293.6l2.7,18.9l-1.4,0l-2.7-18.7L426.9,293.6z"/>
<path class="st26" d="M408.8,294.7c-1.2,0-2.2-1-2.2-2.2s1-2.2,2.2-2.2h8.9c1.3,0,2.3-1,2.4-2.2l1.4-15.2c0.1-1.3,1.2-2.2,2.4-2.2
	h5.8c1.4,0,2.5,1.2,2.4,2.6l-1.5,19.2c-0.1,1.3-1.2,2.3-2.4,2.3H408.8z"/>
<path class="st1" d="M422.8,271l-1.5,19.3c-0.1,1.3-1.2,2.3-2.4,2.3h-12.3l0,0l0,0c0-1.2,1-2.2,2.2-2.2h8.9c1.3,0,2.3-1,2.4-2.2
	l1.4-15.2C421.7,272.1,422.1,271.4,422.8,271z"/>
<path class="st26" d="M495.3,205v-0.3c3.6-1,6.2-4.3,6.2-8.2c0-3.9-2.6-7.2-6.2-8.2v-0.3h-2.2c-4.7,0-8.5,3.8-8.5,8.5
	c0,4.6,3.7,8.4,8.3,8.5l0.1,0H495.3z"/>
<path class="st1" d="M494.8,205c-4.7,0-8.5-3.8-8.5-8.5c0-4.7,3.8-8.5,8.5-8.5c4.7,0,8.5,3.8,8.5,8.5
	C503.3,201.2,499.5,205,494.8,205z"/>
<path class="st26" d="M494.9,204.1c-4.2,0-7.6-3.4-7.6-7.6c0-4.2,3.4-7.6,7.6-7.6s7.6,3.4,7.6,7.6
	C502.5,200.7,499.1,204.1,494.9,204.1z"/>
<path class="st2" d="M494.3,189l-0.1,0c-3.8,0.4-6.8,3.6-6.8,7.5s3,7.2,6.8,7.5c3.8-0.4,6.8-3.6,6.8-7.5
	C501,192.6,498.1,189.4,494.3,189l-0.1,0L494.3,189z"/>
<path class="st26" d="M494.4,190.3v6.8c0,0.1-0.1,0.2-0.2,0.2s-0.2-0.1-0.2-0.2v-6.8c0-0.1,0.1-0.2,0.2-0.2S494.4,190.2,494.4,190.3
	z"/>
<path class="st26" d="M494,196.8l3.9-2.9c0.1-0.1,0.3-0.1,0.4,0.1c0.1,0.1,0.1,0.3-0.1,0.4l-3.9,2.9c-0.1,0.1-0.3,0.1-0.4-0.1
	C493.9,197.1,493.9,196.9,494,196.8z"/>
</svg>
