<?xml version="1.0" encoding="utf-8"?>
<!-- Generator: Adobe Illustrator 19.0.0, SVG Export Plug-In . SVG Version: 6.00 Build 0)  -->
<svg version="1.1" id="图层_1" xmlns="http://www.w3.org/2000/svg" xmlns:xlink="http://www.w3.org/1999/xlink" x="0px" y="0px"
	 viewBox="295.5 188 200 125" style="enable-background:new 295.5 188 200 125;" xml:space="preserve">
<style type="text/css">
	.st0{fill:#A7C3FF;}
	.st1{fill:#C8DAFF;}
	.st2{fill:#EAEFFF;}
	.st3{fill:none;stroke:#A7C3FF;stroke-width:1.512;}
	.st4{fill:#FF326F;}
	.st5{fill:#FF5D8E;}
	.st6{fill:#C1D7FF;}
	.st7{fill:#F5AC00;}
	.st8{fill:#FFBF29;}
	.st9{fill:#9AB9FA;}
	.st10{fill:#1075F0;}
	.st11{fill:#467FFF;}
	.st12{fill:#B34EE6;}
	.st13{fill:#CF6FFF;}
	.st14{fill:#40B955;}
	.st15{fill:#4ED266;}
	.st16{fill:#EFF3FF;}
	.st17{fill:#616988;}
	.st18{fill:#111F53;}
	.st19{fill:#525151;}
	.st20{fill:#1B2E76;}
	.st21{fill:#6B6B6B;}
	.st22{fill:#282828;}
	.st23{fill:none;stroke:#0D0D0D;stroke-width:0.5544;}
	.st24{fill:#F19B93;}
	.st25{fill:#FFC4A7;}
	.st26{fill:#0A2650;}
	.st27{fill:#FFA400;}
	.st28{fill:#080708;fill-opacity:0.3402;}
	.st29{fill:#D8DDF3;}
	.st30{fill:#93B2CC;}
	.st31{fill:#E3E9FF;}
	.st32{fill:#113B7B;}
	.st33{fill:none;stroke:#0A2650;stroke-width:0.5877;}
	.st34{fill:none;stroke:#EAEFFF;stroke-width:0.8;stroke-linecap:round;}
	.st35{fill:#FFE3F4;}
	.st36{fill:#FF4F4F;}
	.st37{fill:#080708;fill-opacity:0.1614;}
	.st38{fill:#5B1E09;}
	.st39{fill:#94A4B1;}
	.st40{fill:#737F88;}
	.st41{fill:#930244;}
	.st42{fill:#ACBDCB;}
	.st43{fill:#84919A;}
	.st44{fill:#BE065A;}
	.st45{fill:none;stroke:#FFCBE3;stroke-width:0.5877;}
	.st46{fill:#842404;}
	.st47{fill:#FF7E74;}
	.st48{fill:#CC635C;}
	.st49{fill:#DEE9FF;}
	.st50{fill:#FFFFFF;}
</style>
<rect x="351.6" y="191.5" class="st0" width="18.5" height="21.4"/>
<rect x="353" y="191.5" class="st1" width="18.5" height="21.4"/>
<path class="st2" d="M369.4,194h-14.2v16.5h14.2V194z"/>
<rect x="367.9" y="194" class="st0" width="1.4" height="16.5"/>
<path class="st3" d="M357.8,206c-0.1,0-0.2-0.1-0.1-0.2l4.7-8.3c0-0.1,0.2-0.1,0.2,0l4.5,8.3c0,0.1,0,0.2-0.1,0.2H357.8z"/>
<path class="st3" d="M357.8,202.2c-0.1,0-0.2-0.1-0.1-0.2l2.5-4.4c0-0.1,0.2-0.1,0.2,0l2.4,4.4c0,0.1,0,0.2-0.1,0.2H357.8z"/>
<rect x="378.3" y="191.5" class="st0" width="18.5" height="21.4"/>
<rect x="379.7" y="191.5" class="st1" width="18.5" height="21.4"/>
<path class="st2" d="M396.1,194h-14.2v16.5h14.2V194z"/>
<path class="st3" d="M392.6,199.4h-6.8c-0.1,0-0.1,0.1-0.1,0.1v6.8c0,0.1,0.1,0.1,0.1,0.1h6.8c0.1,0,0.1-0.1,0.1-0.1v-6.8
	C392.7,199.5,392.6,199.4,392.6,199.4z"/>
<path class="st3" d="M388.7,196.7h-5.2c-0.1,0-0.1,0.1-0.1,0.1v5.2c0,0.1,0.1,0.1,0.1,0.1h5.2c0.1,0,0.1-0.1,0.1-0.1v-5.2
	C388.8,196.7,388.8,196.7,388.7,196.7z"/>
<rect x="394.6" y="194" class="st0" width="1.4" height="16.5"/>
<rect x="404.7" y="191.5" class="st0" width="18.5" height="21.4"/>
<rect x="406.2" y="191.5" class="st1" width="18.5" height="21.4"/>
<path class="st2" d="M422.5,194h-14.2v16.5h14.2V194z"/>
<path class="st3" d="M412.8,201.6c-1.4,0-2.6-1.2-2.6-2.6c0-1.4,1.2-2.6,2.6-2.6c1.4,0,2.6,1.2,2.6,2.6
	C415.4,200.4,414.3,201.6,412.8,201.6z"/>
<path class="st3" d="M415.2,207.9c-2.8,0-5-2.2-5-5c0-2.8,2.2-5,5-5c2.8,0,5,2.2,5,5C420.2,205.7,418,207.9,415.2,207.9z"/>
<rect x="421.1" y="194" class="st0" width="1.4" height="16.5"/>
<path class="st4" d="M339.4,233.7c0-0.3,0.2-0.5,0.5-0.5h12.9c0.3,0,0.5,0.2,0.5,0.5v1.4c0,0.3-0.2,0.5-0.5,0.5h-12.9
	c-0.3,0-0.5-0.2-0.5-0.5V233.7z"/>
<path class="st5" d="M339.4,233.7c0-0.3,0.2-0.5,0.5-0.5h6.9c0.3,0,0.5,0.2,0.5,0.5v1.4c0,0.3-0.2,0.5-0.5,0.5h-6.9
	c-0.3,0-0.5-0.2-0.5-0.5V233.7z"/>
<path class="st2" d="M339.8,233.9c0-0.2,0.2-0.4,0.4-0.4h12.7c0.1,0,0.2,0.1,0.2,0.2v1.4c0,0.1-0.1,0.2-0.2,0.2h-12.7
	c-0.2,0-0.4-0.2-0.4-0.4V233.9z"/>
<path class="st6" d="M347.2,233.9c0-0.2,0.2-0.4,0.4-0.4h5.3c0.1,0,0.2,0.1,0.2,0.2v1.4c0,0.1-0.1,0.2-0.2,0.2h-5.3
	c-0.2,0-0.4-0.2-0.4-0.4V233.9z"/>
<path class="st7" d="M340.1,231.3c0-0.3,0.2-0.5,0.5-0.5h12.9c0.3,0,0.5,0.2,0.5,0.5v1.4c0,0.3-0.2,0.5-0.5,0.5h-12.9
	c-0.3,0-0.5-0.2-0.5-0.5V231.3z"/>
<path class="st8" d="M340.1,231.3c0-0.3,0.2-0.5,0.5-0.5h6.9c0.3,0,0.5,0.2,0.5,0.5v1.4c0,0.3-0.2,0.5-0.5,0.5h-6.9
	c-0.3,0-0.5-0.2-0.5-0.5V231.3z"/>
<path class="st2" d="M340.5,231.5c0-0.2,0.2-0.4,0.4-0.4h12.7c0.1,0,0.2,0.1,0.2,0.2v1.4c0,0.1-0.1,0.2-0.2,0.2H341
	c-0.2,0-0.4-0.2-0.4-0.4V231.5z"/>
<path class="st6" d="M347.9,231.5c0-0.2,0.2-0.4,0.4-0.4h5.3c0.1,0,0.2,0.1,0.2,0.2v1.4c0,0.1-0.1,0.2-0.2,0.2h-5.3
	c-0.2,0-0.4-0.2-0.4-0.4V231.5z"/>
<path class="st0" d="M454.1,298h2v6.4h-2V298z"/>
<path class="st1" d="M455.9,298h1.6v6.4h-1.6V298z"/>
<path class="st0" d="M445.1,298h2v6.4h-2V298z"/>
<path class="st1" d="M446.9,298h1.6v6.4h-1.6V298z"/>
<path class="st9" d="M423.7,236.4c0-0.4,0.4-0.8,0.8-0.8h33.8c0.4,0,0.8,0.4,0.8,0.8v64.1c0,0.4-0.4,0.8-0.8,0.8h-33.8
	c-0.4,0-0.8-0.4-0.8-0.8V236.4z"/>
<path class="st0" d="M423.7,236.4c0-0.4,0.4-0.8,0.8-0.8h11.8v65.7h-11.8c-0.4,0-0.8-0.4-0.8-0.8V236.4z"/>
<path class="st0" d="M448.3,235.6h10c0.4,0,0.8,0.4,0.8,0.8v64.1c0,0.4-0.4,0.8-0.8,0.8h-10V235.6z"/>
<path class="st1" d="M458.4,235.6c0.4,0,0.8,0.4,0.8,0.8v64.1c0,0.4-0.4,0.8-0.8,0.8h-22.2c-0.4,0-0.8-0.4-0.8-0.8v-64.1
	c0-0.4,0.4-0.8,0.8-0.8H458.4z M457.5,280h-20.4v19.4h20.4V280z M457.5,258.6h-20.4V278h20.4V258.6z M457.5,237.4h-20.4v19.4h20.4
	V237.4z"/>
<path class="st9" d="M400.8,236.4c0-0.4,0.4-0.8,0.8-0.8h33.8c0.4,0,0.8,0.4,0.8,0.8v64.1c0,0.4-0.4,0.8-0.8,0.8h-33.8
	c-0.4,0-0.8-0.4-0.8-0.8V236.4z"/>
<path class="st0" d="M400.8,236.4c0-0.4,0.4-0.8,0.8-0.8h11.8v65.7h-11.8c-0.4,0-0.8-0.4-0.8-0.8V236.4z"/>
<path class="st0" d="M425.5,235.6h10c0.4,0,0.8,0.4,0.8,0.8v64.1c0,0.4-0.4,0.8-0.8,0.8h-10V235.6z"/>
<path class="st1" d="M435.5,235.6c0.4,0,0.8,0.4,0.8,0.8v64.1c0,0.4-0.4,0.8-0.8,0.8h-22.2c-0.4,0-0.8-0.4-0.8-0.8v-64.1
	c0-0.4,0.4-0.8,0.8-0.8H435.5z M434.7,280h-20.4v19.4h20.4V280z M434.7,258.6h-20.4V278h20.4V258.6z M434.7,237.4h-20.4v19.4h20.4
	V237.4z"/>
<rect x="389.4" y="298" class="st0" width="2.8" height="6.4"/>
<path class="st1" d="M391.2,298h1.6v6.4h-1.6V298z"/>
<rect x="379" y="298" class="st0" width="2.8" height="6.4"/>
<path class="st1" d="M380.8,298h1.6v6.4h-1.6V298z"/>
<path class="st9" d="M378.4,236.4c0-0.4,0.4-0.8,0.8-0.8h33.8c0.4,0,0.8,0.4,0.8,0.8v64.1c0,0.4-0.4,0.8-0.8,0.8h-33.8
	c-0.4,0-0.8-0.4-0.8-0.8V236.4z"/>
<path class="st0" d="M378.4,236.4c0-0.4,0.4-0.8,0.8-0.8H391v65.7h-11.8c-0.4,0-0.8-0.4-0.8-0.8V236.4z"/>
<path class="st0" d="M403.1,235.6h10c0.4,0,0.8,0.4,0.8,0.8v64.1c0,0.4-0.4,0.8-0.8,0.8h-10V235.6z"/>
<path class="st1" d="M413.1,235.6c0.4,0,0.8,0.4,0.8,0.8v64.1c0,0.4-0.4,0.8-0.8,0.8h-22.2c-0.4,0-0.8-0.4-0.8-0.8v-64.1
	c0-0.4,0.4-0.8,0.8-0.8H413.1z M412.3,280h-20.4v19.4h20.4V280z M412.3,258.6h-20.4V278h20.4V258.6z M412.3,237.4h-20.4v19.4h20.4
	V237.4z"/>
<path class="st5" d="M434.2,266.6c0-0.3-0.2-0.5-0.5-0.5h-8.1c-0.3,0-0.5,0.2-0.5,0.5v11c0,0.3,0.2,0.5,0.5,0.5h8.1
	c0.3,0,0.5-0.2,0.5-0.5V266.6z"/>
<path class="st4" d="M434.2,266.6c0-0.3-0.2-0.5-0.5-0.5h-1.7V278h1.7c0.3,0,0.5-0.2,0.5-0.5V266.6z"/>
<path class="st2" d="M434,266.1h-1.7V278h1.7V266.1z"/>
<path class="st8" d="M431.6,266.6c0-0.3-0.2-0.5-0.5-0.5H423c-0.3,0-0.5,0.2-0.5,0.5v11c0,0.3,0.2,0.5,0.5,0.5h8.1
	c0.3,0,0.5-0.2,0.5-0.5V266.6z"/>
<path class="st7" d="M431.6,266.6c0-0.3-0.2-0.5-0.5-0.5h-1.7V278h1.7c0.3,0,0.5-0.2,0.5-0.5V266.6z"/>
<path class="st10" d="M429,266.6c0-0.3-0.2-0.5-0.5-0.5h-8.1c-0.3,0-0.5,0.2-0.5,0.5v11c0,0.3,0.2,0.5,0.5,0.5h8.1
	c0.3,0,0.5-0.2,0.5-0.5V266.6z"/>
<path class="st11" d="M429,266.6c0-0.3-0.2-0.5-0.5-0.5h-1.7V278h1.7c0.3,0,0.5-0.2,0.5-0.5V266.6z"/>
<path class="st2" d="M428.7,266.1h-1.7V278h1.7V266.1z"/>
<path class="st12" d="M426.3,266.6c0-0.3-0.2-0.5-0.5-0.5h-8.1c-0.3,0-0.5,0.2-0.5,0.5v11c0,0.3,0.2,0.5,0.5,0.5h8.1
	c0.3,0,0.5-0.2,0.5-0.5V266.6z"/>
<path class="st13" d="M426.3,266.6c0-0.3-0.2-0.5-0.5-0.5h-1.7V278h1.7c0.3,0,0.5-0.2,0.5-0.5V266.6z"/>
<path class="st2" d="M426.1,266.1h-1.7V278h1.7V266.1z"/>
<path class="st10" d="M423.7,266.6c0-0.3-0.2-0.5-0.5-0.5h-8.1c-0.3,0-0.5,0.2-0.5,0.5v11c0,0.3,0.2,0.5,0.5,0.5h8.1
	c0.3,0,0.5-0.2,0.5-0.5V266.6z"/>
<path class="st11" d="M423.7,266.6c0-0.3-0.2-0.5-0.5-0.5h-1.7V278h1.7c0.3,0,0.5-0.2,0.5-0.5V266.6z"/>
<path class="st12" d="M457.3,245.4c0-0.3-0.2-0.5-0.5-0.5h-8.1c-0.3,0-0.5,0.2-0.5,0.5v11c0,0.3,0.2,0.5,0.5,0.5h8.1
	c0.3,0,0.5-0.2,0.5-0.5V245.4z"/>
<path class="st13" d="M457.3,245.4c0-0.3-0.2-0.5-0.5-0.5h-1.7v11.9h1.7c0.3,0,0.5-0.2,0.5-0.5V245.4z"/>
<path class="st2" d="M457.1,244.9h-1.7v11.9h1.7V244.9z"/>
<path class="st5" d="M454.5,245.4c0-0.3-0.2-0.5-0.5-0.5h-8.1c-0.3,0-0.5,0.2-0.5,0.5v11c0,0.3,0.2,0.5,0.5,0.5h8.1
	c0.3,0,0.5-0.2,0.5-0.5V245.4z"/>
<path class="st4" d="M454.5,245.4c0-0.3-0.2-0.5-0.5-0.5h-1.7v11.9h1.7c0.3,0,0.5-0.2,0.5-0.5V245.4z"/>
<path class="st10" d="M449.2,245.4c0-0.3-0.2-0.5-0.5-0.5h-8.1c-0.3,0-0.5,0.2-0.5,0.5v11c0,0.3,0.2,0.5,0.5,0.5h8.1
	c0.3,0,0.5-0.2,0.5-0.5V245.4z"/>
<path class="st11" d="M449.2,245.4c0-0.3-0.2-0.5-0.5-0.5h-1.7v11.9h1.7c0.3,0,0.5-0.2,0.5-0.5V245.4z"/>
<path class="st2" d="M449,244.9h-1.7v11.9h1.7V244.9z"/>
<path class="st12" d="M434.2,245.4c0-0.3-0.2-0.5-0.5-0.5h-8.1c-0.3,0-0.5,0.2-0.5,0.5v11c0,0.3,0.2,0.5,0.5,0.5h8.1
	c0.3,0,0.5-0.2,0.5-0.5V245.4z"/>
<path class="st13" d="M434.2,245.4c0-0.3-0.2-0.5-0.5-0.5h-1.7v11.9h1.7c0.3,0,0.5-0.2,0.5-0.5V245.4z"/>
<path class="st2" d="M434,244.9h-1.7v11.9h1.7V244.9z"/>
<path class="st10" d="M431.3,245.4c0-0.3-0.2-0.5-0.5-0.5h-8.1c-0.3,0-0.5,0.2-0.5,0.5v11c0,0.3,0.2,0.5,0.5,0.5h8.1
	c0.3,0,0.5-0.2,0.5-0.5V245.4z"/>
<path class="st11" d="M431.3,245.4c0-0.3-0.2-0.5-0.5-0.5h-1.7v11.9h1.7c0.3,0,0.5-0.2,0.5-0.5V245.4z"/>
<path class="st14" d="M427.1,243.9H419c-0.3,0-0.5,0.2-0.5,0.5v11.9c0,0.3,0.2,0.5,0.5,0.5h8.1c0.3,0,0.5-0.2,0.5-0.5v-11.9
	C427.5,244.1,427.3,243.9,427.1,243.9z"/>
<path class="st15" d="M427.5,244.4c0-0.3-0.2-0.5-0.5-0.5h-1.7v12.9h1.7c0.3,0,0.5-0.2,0.5-0.5V244.4z"/>
<path class="st12" d="M424.7,243.9h-8.1c-0.3,0-0.5,0.2-0.5,0.5v11.9c0,0.3,0.2,0.5,0.5,0.5h8.1c0.3,0,0.5-0.2,0.5-0.5v-11.9
	C425.1,244.1,424.9,243.9,424.7,243.9z"/>
<path class="st13" d="M425.1,244.4c0-0.3-0.2-0.5-0.5-0.5H423v12.9h1.7c0.3,0,0.5-0.2,0.5-0.5V244.4z"/>
<path class="st10" d="M418.7,245.4c0-0.3-0.2-0.5-0.5-0.5h-3.6c-0.3,0-0.5,0.2-0.5,0.5v11c0,0.3,0.2,0.5,0.5,0.5h3.6
	c0.3,0,0.5-0.2,0.5-0.5V245.4z"/>
<path class="st11" d="M418.7,245.4c0-0.3-0.2-0.5-0.5-0.5h-1.7v11.9h1.7c0.3,0,0.5-0.2,0.5-0.5V245.4z"/>
<path class="st2" d="M418.5,244.9h-1.7v11.9h1.7V244.9z"/>
<path class="st5" d="M433.4,287.6h-7.5v11.9h7.5V287.6z"/>
<path class="st4" d="M433.4,287.6h-2.2v11.9h2.2V287.6z"/>
<path class="st8" d="M429.7,288.2h-5.5l-4,9.9h5.5L429.7,288.2z"/>
<path class="st7" d="M429.7,288.2c0,0,0.7,0.3,1.1,0.6c0.4,0.4,0.4,0.9,0.4,0.9l-4.1,9.8c0,0-0.1-0.6-0.5-0.9c-0.4-0.3-1-0.5-1-0.5
	L429.7,288.2z"/>
<path class="st16" d="M425.7,298.1h-5.3c0,0,0.7,0.5,1,0.7c0.3,0.2,0.7,0.7,0.7,0.7h5.2c0,0-0.1-0.6-0.5-0.9
	C426.3,298.3,425.7,298.1,425.7,298.1z"/>
<path class="st12" d="M418.2,288c0-0.3-0.2-0.5-0.5-0.5h-3.1c-0.3,0-0.5,0.2-0.5,0.5v11c0,0.3,0.2,0.5,0.5,0.5h3.1
	c0.3,0,0.5-0.2,0.5-0.5V288z"/>
<path class="st13" d="M418.2,288c0-0.3-0.2-0.5-0.5-0.5h-1.7v11.9h1.7c0.3,0,0.5-0.2,0.5-0.5V288z"/>
<path class="st2" d="M418,287.5h-1.7v11.9h1.7V287.5z"/>
<path class="st5" d="M456.8,288c0-0.3-0.2-0.5-0.5-0.5h-8.1c-0.3,0-0.5,0.2-0.5,0.5v11c0,0.3,0.2,0.5,0.5,0.5h8.1
	c0.3,0,0.5-0.2,0.5-0.5V288z"/>
<path class="st4" d="M456.8,288c0-0.3-0.2-0.5-0.5-0.5h-1.7v11.9h1.7c0.3,0,0.5-0.2,0.5-0.5V288z"/>
<path class="st5" d="M454.2,288c0-0.3-0.2-0.5-0.5-0.5h-8.1c-0.3,0-0.5,0.2-0.5,0.5v11c0,0.3,0.2,0.5,0.5,0.5h8.1
	c0.3,0,0.5-0.2,0.5-0.5V288z"/>
<path class="st4" d="M454.2,288c0-0.3-0.2-0.5-0.5-0.5h-1.7v11.9h1.7c0.3,0,0.5-0.2,0.5-0.5V288z"/>
<path class="st8" d="M451.6,288c0-0.3-0.2-0.5-0.5-0.5H443c-0.3,0-0.5,0.2-0.5,0.5v11c0,0.3,0.2,0.5,0.5,0.5h8.1
	c0.3,0,0.5-0.2,0.5-0.5V288z"/>
<path class="st7" d="M451.6,288c0-0.3-0.2-0.5-0.5-0.5h-1.7v11.9h1.7c0.3,0,0.5-0.2,0.5-0.5V288z"/>
<path class="st12" d="M449,288c0-0.3-0.2-0.5-0.5-0.5h-8.1c-0.3,0-0.5,0.2-0.5,0.5v11c0,0.3,0.2,0.5,0.5,0.5h8.1
	c0.3,0,0.5-0.2,0.5-0.5V288z"/>
<path class="st13" d="M449,288c0-0.3-0.2-0.5-0.5-0.5h-1.7v11.9h1.7c0.3,0,0.5-0.2,0.5-0.5V288z"/>
<path class="st10" d="M441.6,288c0-0.3-0.2-0.5-0.5-0.5h-3.6c-0.3,0-0.5,0.2-0.5,0.5v11c0,0.3,0.2,0.5,0.5,0.5h3.6
	c0.3,0,0.5-0.2,0.5-0.5V288z"/>
<path class="st11" d="M441.6,288c0-0.3-0.2-0.5-0.5-0.5h-1.7v11.9h1.7c0.3,0,0.5-0.2,0.5-0.5V288z"/>
<path class="st2" d="M441.4,287.5h-1.7v11.9h1.7V287.5z"/>
<path class="st7" d="M441.4,285.6c0-0.3,0.2-0.5,0.5-0.5h12.9c0.3,0,0.5,0.2,0.5,0.5v1.4c0,0.3-0.2,0.5-0.5,0.5h-12.9
	c-0.3,0-0.5-0.2-0.5-0.5V285.6z"/>
<path class="st8" d="M441.4,285.6c0-0.3,0.2-0.5,0.5-0.5h6.9c0.3,0,0.5,0.2,0.5,0.5v1.4c0,0.3-0.2,0.5-0.5,0.5h-6.9
	c-0.3,0-0.5-0.2-0.5-0.5V285.6z"/>
<path class="st2" d="M441.8,285.8c0-0.2,0.2-0.4,0.4-0.4h12.7c0.1,0,0.2,0.1,0.2,0.2v1.4c0,0.1-0.1,0.2-0.2,0.2h-12.7
	c-0.2,0-0.4-0.2-0.4-0.4V285.8z"/>
<path class="st6" d="M449.2,285.8c0-0.2,0.2-0.4,0.4-0.4h5.3c0.1,0,0.2,0.1,0.2,0.2v1.4c0,0.1-0.1,0.2-0.2,0.2h-5.3
	c-0.2,0-0.4-0.2-0.4-0.4V285.8z"/>
<path class="st5" d="M411.8,288c0-0.3-0.2-0.5-0.5-0.5h-8.1c-0.3,0-0.5,0.2-0.5,0.5v11c0,0.3,0.2,0.5,0.5,0.5h8.1
	c0.3,0,0.5-0.2,0.5-0.5V288z"/>
<path class="st4" d="M411.8,288c0-0.3-0.2-0.5-0.5-0.5h-1.7v11.9h1.7c0.3,0,0.5-0.2,0.5-0.5V288z"/>
<path class="st2" d="M411.6,287.5h-1.7v11.9h1.7V287.5z"/>
<path class="st12" d="M409.4,288c0-0.3-0.2-0.5-0.5-0.5h-8.1c-0.3,0-0.5,0.2-0.5,0.5v11c0,0.3,0.2,0.5,0.5,0.5h8.1
	c0.3,0,0.5-0.2,0.5-0.5V288z"/>
<path class="st13" d="M409.4,288c0-0.3-0.2-0.5-0.5-0.5h-1.7v11.9h1.7c0.3,0,0.5-0.2,0.5-0.5V288z"/>
<path class="st2" d="M409.2,287.5h-1.7v11.9h1.7V287.5z"/>
<path class="st10" d="M404.9,288c0-0.3-0.2-0.5-0.5-0.5h-8.1c-0.3,0-0.5,0.2-0.5,0.5v11c0,0.3,0.2,0.5,0.5,0.5h8.1
	c0.3,0,0.5-0.2,0.5-0.5V288z"/>
<path class="st11" d="M404.9,288c0-0.3-0.2-0.5-0.5-0.5h-1.7v11.9h1.7c0.3,0,0.5-0.2,0.5-0.5V288z"/>
<path class="st8" d="M401.5,288.3H396l-4,9.9h5.5L401.5,288.3z"/>
<path class="st7" d="M401.5,288.3c0,0,0.7,0.3,1.1,0.6c0.4,0.4,0.4,0.9,0.4,0.9l-4.1,9.8c0,0-0.1-0.6-0.5-0.9c-0.4-0.3-1-0.5-1-0.5
	L401.5,288.3z"/>
<path class="st16" d="M397.4,298.1h-5.3c0,0,0.7,0.5,1,0.7c0.3,0.2,0.7,0.7,0.7,0.7h5.2c0,0-0.1-0.6-0.5-0.9
	C398,298.3,397.4,298.1,397.4,298.1z"/>
<path class="st10" d="M411.3,245.4c0-0.3-0.2-0.5-0.5-0.5h-8.1c-0.3,0-0.5,0.2-0.5,0.5v10.9c0,0.3,0.2,0.5,0.5,0.5h8.1
	c0.3,0,0.5-0.2,0.5-0.5V245.4z"/>
<path class="st11" d="M411.3,245.4c0-0.3-0.2-0.5-0.5-0.5h-1.7v11.9h1.7c0.3,0,0.5-0.2,0.5-0.5V245.4z"/>
<path class="st5" d="M408.1,244.9h-7.5v11.9h7.5V244.9z"/>
<path class="st4" d="M408.1,244.9h-2.2v11.9h2.2V244.9z"/>
<path class="st13" d="M404.5,245.5H399l-4,9.9h5.5L404.5,245.5z"/>
<path class="st12" d="M404.5,245.5c0,0,0.7,0.3,1.1,0.6c0.4,0.4,0.4,0.9,0.4,0.9l-4.1,9.8c0,0-0.1-0.6-0.5-0.9c-0.4-0.3-1-0.5-1-0.5
	L404.5,245.5z"/>
<path class="st16" d="M400.4,255.4h-5.3c0,0,0.7,0.5,1,0.7c0.3,0.2,0.7,0.7,0.7,0.7h5.2c0,0-0.1-0.6-0.5-0.9
	C401,255.6,400.4,255.4,400.4,255.4z"/>
<path class="st12" d="M411.8,266.6c0-0.3-0.2-0.5-0.5-0.5h-8.1c-0.3,0-0.5,0.2-0.5,0.5v11c0,0.3,0.2,0.5,0.5,0.5h8.1
	c0.3,0,0.5-0.2,0.5-0.5V266.6z"/>
<path class="st13" d="M411.8,266.6c0-0.3-0.2-0.5-0.5-0.5h-1.7V278h1.7c0.3,0,0.5-0.2,0.5-0.5V266.6z"/>
<path class="st2" d="M411.6,266.1h-1.7V278h1.7V266.1z"/>
<path class="st10" d="M408.9,266.6c0-0.3-0.2-0.5-0.5-0.5h-8.1c-0.3,0-0.5,0.2-0.5,0.5v11c0,0.3,0.2,0.5,0.5,0.5h8.1
	c0.3,0,0.5-0.2,0.5-0.5V266.6z"/>
<path class="st11" d="M408.9,266.6c0-0.3-0.2-0.5-0.5-0.5h-1.7V278h1.7c0.3,0,0.5-0.2,0.5-0.5V266.6z"/>
<path class="st8" d="M406.3,266.6c0-0.3-0.2-0.5-0.5-0.5h-8.1c-0.3,0-0.5,0.2-0.5,0.5v11c0,0.3,0.2,0.5,0.5,0.5h8.1
	c0.3,0,0.5-0.2,0.5-0.5V266.6z"/>
<path class="st7" d="M406.3,266.6c0-0.3-0.2-0.5-0.5-0.5h-1.7V278h1.7c0.3,0,0.5-0.2,0.5-0.5V266.6z"/>
<path class="st8" d="M403.7,266.6c0-0.3-0.2-0.5-0.5-0.5h-8.1c-0.3,0-0.5,0.2-0.5,0.5v11c0,0.3,0.2,0.5,0.5,0.5h8.1
	c0.3,0,0.5-0.2,0.5-0.5V266.6z"/>
<path class="st7" d="M403.7,266.6c0-0.3-0.2-0.5-0.5-0.5h-1.7V278h1.7c0.3,0,0.5-0.2,0.5-0.5V266.6z"/>
<path class="st5" d="M401.1,266.6c0-0.3-0.2-0.5-0.5-0.5h-8.1c-0.3,0-0.5,0.2-0.5,0.5v11c0,0.3,0.2,0.5,0.5,0.5h8.1
	c0.3,0,0.5-0.2,0.5-0.5V266.6z"/>
<path class="st4" d="M401.1,266.6c0-0.3-0.2-0.5-0.5-0.5h-1.7V278h1.7c0.3,0,0.5-0.2,0.5-0.5V266.6z"/>
<path class="st8" d="M398.5,266.6c0-0.3-0.2-0.5-0.5-0.5h-5.7c-0.3,0-0.5,0.2-0.5,0.5v11c0,0.3,0.2,0.5,0.5,0.5h5.7
	c0.3,0,0.5-0.2,0.5-0.5V266.6z"/>
<path class="st7" d="M398.5,266.6c0-0.3-0.2-0.5-0.5-0.5h-1.7V278h1.7c0.3,0,0.5-0.2,0.5-0.5V266.6z"/>
<path class="st10" d="M395.8,266.6c0-0.3-0.2-0.5-0.5-0.5h-3.1c-0.3,0-0.5,0.2-0.5,0.5v11c0,0.3,0.2,0.5,0.5,0.5h3.1
	c0.3,0,0.5-0.2,0.5-0.5V266.6z"/>
<path class="st11" d="M395.8,266.6c0-0.3-0.2-0.5-0.5-0.5h-1.7V278h1.7c0.3,0,0.5-0.2,0.5-0.5V266.6z"/>
<path class="st12" d="M456.6,266.6c0-0.3-0.2-0.5-0.5-0.5H448c-0.3,0-0.5,0.2-0.5,0.5v11c0,0.3,0.2,0.5,0.5,0.5h8.1
	c0.3,0,0.5-0.2,0.5-0.5V266.6z"/>
<path class="st13" d="M456.6,266.6c0-0.3-0.2-0.5-0.5-0.5h-1.7V278h1.7c0.3,0,0.5-0.2,0.5-0.5V266.6z"/>
<path class="st2" d="M456.4,266.1h-1.7V278h1.7V266.1z"/>
<path class="st12" d="M454,266.6c0-0.3-0.2-0.5-0.5-0.5h-8.1c-0.3,0-0.5,0.2-0.5,0.5v11c0,0.3,0.2,0.5,0.5,0.5h8.1
	c0.3,0,0.5-0.2,0.5-0.5V266.6z"/>
<path class="st13" d="M454,266.6c0-0.3-0.2-0.5-0.5-0.5h-1.7V278h1.7c0.3,0,0.5-0.2,0.5-0.5V266.6z"/>
<path class="st2" d="M453.7,266.1h-1.7V278h1.7V266.1z"/>
<path class="st10" d="M451.4,266.6c0-0.3-0.2-0.5-0.5-0.5h-8.1c-0.3,0-0.5,0.2-0.5,0.5v11c0,0.3,0.2,0.5,0.5,0.5h8.1
	c0.3,0,0.5-0.2,0.5-0.5V266.6z"/>
<path class="st11" d="M451.4,266.6c0-0.3-0.2-0.5-0.5-0.5h-1.7V278h1.7c0.3,0,0.5-0.2,0.5-0.5V266.6z"/>
<path class="st2" d="M451.1,266.1h-1.7V278h1.7V266.1z"/>
<path class="st8" d="M448.5,266.6c0-0.3-0.2-0.5-0.5-0.5h-8.1c-0.3,0-0.5,0.2-0.5,0.5v11c0,0.3,0.2,0.5,0.5,0.5h8.1
	c0.3,0,0.5-0.2,0.5-0.5V266.6z"/>
<path class="st7" d="M448.5,266.6c0-0.3-0.2-0.5-0.5-0.5h-1.7V278h1.7c0.3,0,0.5-0.2,0.5-0.5V266.6z"/>
<path class="st10" d="M446.1,266.6c0-0.3-0.2-0.5-0.5-0.5h-8.1c-0.3,0-0.5,0.2-0.5,0.5v11c0,0.3,0.2,0.5,0.5,0.5h8.1
	c0.3,0,0.5-0.2,0.5-0.5V266.6z"/>
<path class="st11" d="M446.1,266.6c0-0.3-0.2-0.5-0.5-0.5H444V278h1.7c0.3,0,0.5-0.2,0.5-0.5V266.6z"/>
<path class="st0" d="M386.5,298h2v6.4h-2V298z"/>
<path class="st1" d="M388.3,298h1.6v6.4h-1.6V298z"/>
<path class="st0" d="M377.5,298h2v6.4h-2V298z"/>
<path class="st1" d="M379.3,298h1.6v6.4h-1.6V298z"/>
<path class="st9" d="M356,236.4c0-0.4,0.4-0.8,0.8-0.8h33.8c0.4,0,0.8,0.4,0.8,0.8v64.1c0,0.4-0.4,0.8-0.8,0.8h-33.8
	c-0.4,0-0.8-0.4-0.8-0.8V236.4z"/>
<path class="st0" d="M356,236.4c0-0.4,0.4-0.8,0.8-0.8h11.8v65.7h-11.8c-0.4,0-0.8-0.4-0.8-0.8V236.4z"/>
<path class="st0" d="M380.7,235.6h10c0.4,0,0.8,0.4,0.8,0.8v64.1c0,0.4-0.4,0.8-0.8,0.8h-10V235.6z"/>
<path class="st1" d="M390.7,235.6c0.4,0,0.8,0.4,0.8,0.8v64.1c0,0.4-0.4,0.8-0.8,0.8h-22.2c-0.4,0-0.8-0.4-0.8-0.8v-64.1
	c0-0.4,0.4-0.8,0.8-0.8H390.7z M389.9,280h-20.4v19.4h20.4V280z M389.9,258.6h-20.4V278h20.4V258.6z M389.9,237.4h-20.4v19.4h20.4
	V237.4z"/>
<path class="st9" d="M333.2,236.4c0-0.4,0.4-0.8,0.8-0.8h33.8c0.4,0,0.8,0.4,0.8,0.8v64.1c0,0.4-0.4,0.8-0.8,0.8H334
	c-0.4,0-0.8-0.4-0.8-0.8V236.4z"/>
<path class="st0" d="M333.2,236.4c0-0.4,0.4-0.8,0.8-0.8h11.8v65.7H334c-0.4,0-0.8-0.4-0.8-0.8V236.4z"/>
<path class="st0" d="M357.8,235.6h10c0.4,0,0.8,0.4,0.8,0.8v64.1c0,0.4-0.4,0.8-0.8,0.8h-10V235.6z"/>
<path class="st1" d="M367.8,235.6c0.4,0,0.8,0.4,0.8,0.8v64.1c0,0.4-0.4,0.8-0.8,0.8h-22.2c-0.4,0-0.8-0.4-0.8-0.8v-64.1
	c0-0.4,0.4-0.8,0.8-0.8H367.8z M367,280h-20.4v19.4H367V280z M367,258.6h-20.4V278H367V258.6z M367,237.4h-20.4v19.4H367V237.4z"/>
<rect x="321.8" y="298" class="st0" width="2.8" height="6.4"/>
<path class="st1" d="M323.6,298h1.6v6.4h-1.6V298z"/>
<rect x="311.4" y="298" class="st0" width="2.8" height="6.4"/>
<path class="st1" d="M313.2,298h1.6v6.4h-1.6V298z"/>
<path class="st9" d="M310.8,236.4c0-0.4,0.4-0.8,0.8-0.8h33.8c0.4,0,0.8,0.4,0.8,0.8v64.1c0,0.4-0.4,0.8-0.8,0.8h-33.8
	c-0.4,0-0.8-0.4-0.8-0.8V236.4z"/>
<path class="st0" d="M310.8,236.4c0-0.4,0.4-0.8,0.8-0.8h11.8v65.7h-11.8c-0.4,0-0.8-0.4-0.8-0.8V236.4z"/>
<path class="st0" d="M335.4,235.6h10c0.4,0,0.8,0.4,0.8,0.8v64.1c0,0.4-0.4,0.8-0.8,0.8h-10V235.6z"/>
<path class="st1" d="M345.4,235.6c0.4,0,0.8,0.4,0.8,0.8v64.1c0,0.4-0.4,0.8-0.8,0.8h-22.2c-0.4,0-0.8-0.4-0.8-0.8v-64.1
	c0-0.4,0.4-0.8,0.8-0.8H345.4z M344.6,280h-20.4v19.4h20.4V280z M344.6,258.6h-20.4V278h20.4V258.6z M344.6,237.4h-20.4v19.4h20.4
	V237.4z"/>
<path class="st4" d="M352.7,297.5c0-0.3,0.2-0.5,0.5-0.5H366c0.3,0,0.5,0.2,0.5,0.5v1.4c0,0.3-0.2,0.5-0.5,0.5h-12.9
	c-0.3,0-0.5-0.2-0.5-0.5V297.5z"/>
<path class="st5" d="M352.7,297.5c0-0.3,0.2-0.5,0.5-0.5h6.9c0.3,0,0.5,0.2,0.5,0.5v1.4c0,0.3-0.2,0.5-0.5,0.5h-6.9
	c-0.3,0-0.5-0.2-0.5-0.5V297.5z"/>
<path class="st2" d="M353.2,297.7c0-0.2,0.2-0.4,0.4-0.4h12.7c0.1,0,0.2,0.1,0.2,0.2v1.4c0,0.1-0.1,0.2-0.2,0.2h-12.7
	c-0.2,0-0.4-0.2-0.4-0.4V297.7z"/>
<path class="st6" d="M360.6,297.7c0-0.2,0.2-0.4,0.4-0.4h5.3c0.1,0,0.2,0.1,0.2,0.2v1.4c0,0.1-0.1,0.2-0.2,0.2H361
	c-0.2,0-0.4-0.2-0.4-0.4V297.7z"/>
<path class="st7" d="M352.7,295.2c0-0.3,0.2-0.5,0.5-0.5H366c0.3,0,0.5,0.2,0.5,0.5v1.4c0,0.3-0.2,0.5-0.5,0.5h-12.9
	c-0.3,0-0.5-0.2-0.5-0.5V295.2z"/>
<path class="st8" d="M352.7,295.2c0-0.3,0.2-0.5,0.5-0.5h6.9c0.3,0,0.5,0.2,0.5,0.5v1.4c0,0.3-0.2,0.5-0.5,0.5h-6.9
	c-0.3,0-0.5-0.2-0.5-0.5V295.2z"/>
<path class="st2" d="M353.2,295.4c0-0.2,0.2-0.4,0.4-0.4h12.7c0.1,0,0.2,0.1,0.2,0.2v1.4c0,0.1-0.1,0.2-0.2,0.2h-12.7
	c-0.2,0-0.4-0.2-0.4-0.4V295.4z"/>
<path class="st6" d="M360.6,295.4c0-0.2,0.2-0.4,0.4-0.4h5.3c0.1,0,0.2,0.1,0.2,0.2v1.4c0,0.1-0.1,0.2-0.2,0.2H361
	c-0.2,0-0.4-0.2-0.4-0.4V295.4z"/>
<path class="st7" d="M352.7,290.4c0-0.3,0.2-0.5,0.5-0.5H366c0.3,0,0.5,0.2,0.5,0.5v1.4c0,0.3-0.2,0.5-0.5,0.5h-12.9
	c-0.3,0-0.5-0.2-0.5-0.5V290.4z"/>
<path class="st8" d="M352.7,290.4c0-0.3,0.2-0.5,0.5-0.5h6.9c0.3,0,0.5,0.2,0.5,0.5v1.4c0,0.3-0.2,0.5-0.5,0.5h-6.9
	c-0.3,0-0.5-0.2-0.5-0.5V290.4z"/>
<path class="st2" d="M353.2,290.6c0-0.2,0.2-0.4,0.4-0.4h12.7c0.1,0,0.2,0.1,0.2,0.2v1.4c0,0.1-0.1,0.2-0.2,0.2h-12.7
	c-0.2,0-0.4-0.2-0.4-0.4V290.6z"/>
<path class="st6" d="M360.6,290.6c0-0.2,0.2-0.4,0.4-0.4h5.3c0.1,0,0.2,0.1,0.2,0.2v1.4c0,0.1-0.1,0.2-0.2,0.2H361
	c-0.2,0-0.4-0.2-0.4-0.4V290.6z"/>
<path class="st12" d="M352.7,292.8c0-0.3,0.2-0.5,0.5-0.5H366c0.3,0,0.5,0.2,0.5,0.5v1.4c0,0.3-0.2,0.5-0.5,0.5h-12.9
	c-0.3,0-0.5-0.2-0.5-0.5V292.8z"/>
<path class="st13" d="M352.7,292.8c0-0.3,0.2-0.5,0.5-0.5h6.9c0.3,0,0.5,0.2,0.5,0.5v1.4c0,0.3-0.2,0.5-0.5,0.5h-6.9
	c-0.3,0-0.5-0.2-0.5-0.5V292.8z"/>
<path class="st2" d="M352.7,293c0-0.2,0.2-0.4,0.4-0.4h6.7c0.3,0,0.5,0.2,0.5,0.5v1c0,0.3-0.2,0.5-0.5,0.5h-6.7
	c-0.2,0-0.4-0.2-0.4-0.4V293z"/>
<path class="st10" d="M358.5,288.2H353l-4,9.9h5.5L358.5,288.2z"/>
<path class="st11" d="M358.5,288.2c0,0,0.7,0.3,1.1,0.6c0.4,0.4,0.4,0.9,0.4,0.9l-4.1,9.8c0,0-0.1-0.6-0.5-0.9c-0.4-0.3-1-0.5-1-0.5
	L358.5,288.2z"/>
<path class="st16" d="M354.4,298.1h-5.3c0,0,0.7,0.5,1,0.7c0.3,0.2,0.7,0.7,0.7,0.7h5.2c0,0-0.1-0.6-0.5-0.9
	C355,298.3,354.4,298.1,354.4,298.1z"/>
<path class="st12" d="M366.3,245.4c0-0.3-0.2-0.5-0.5-0.5h-8.1c-0.3,0-0.5,0.2-0.5,0.5v11c0,0.3,0.2,0.5,0.5,0.5h8.1
	c0.3,0,0.5-0.2,0.5-0.5V245.4z"/>
<path class="st13" d="M366.3,245.4c0-0.3-0.2-0.5-0.5-0.5h-1.7v11.9h1.7c0.3,0,0.5-0.2,0.5-0.5V245.4z"/>
<path class="st2" d="M366,244.9h-1.7v11.9h1.7V244.9z"/>
<path class="st5" d="M363.4,245.4c0-0.3-0.2-0.5-0.5-0.5h-8.1c-0.3,0-0.5,0.2-0.5,0.5v11c0,0.3,0.2,0.5,0.5,0.5h8.1
	c0.3,0,0.5-0.2,0.5-0.5V245.4z"/>
<path class="st4" d="M363.4,245.4c0-0.3-0.2-0.5-0.5-0.5h-1.7v11.9h1.7c0.3,0,0.5-0.2,0.5-0.5V245.4z"/>
<path class="st12" d="M358.2,245.4c0-0.3-0.2-0.5-0.5-0.5h-8.1c-0.3,0-0.5,0.2-0.5,0.5v11c0,0.3,0.2,0.5,0.5,0.5h8.1
	c0.3,0,0.5-0.2,0.5-0.5V245.4z"/>
<path class="st13" d="M358.2,245.4c0-0.3-0.2-0.5-0.5-0.5H356v11.9h1.7c0.3,0,0.5-0.2,0.5-0.5V245.4z"/>
<path class="st2" d="M357.9,244.9h-1.7v11.9h1.7V244.9z"/>
<path class="st12" d="M387.7,245.4c0-0.3-0.2-0.5-0.5-0.5h-8.1c-0.3,0-0.5,0.2-0.5,0.5v11c0,0.3,0.2,0.5,0.5,0.5h8.1
	c0.3,0,0.5-0.2,0.5-0.5V245.4z"/>
<path class="st13" d="M387.7,245.4c0-0.3-0.2-0.5-0.5-0.5h-1.7v11.9h1.7c0.3,0,0.5-0.2,0.5-0.5V245.4z"/>
<path class="st2" d="M387.5,244.9h-1.7v11.9h1.7V244.9z"/>
<path class="st10" d="M384.9,245.4c0-0.3-0.2-0.5-0.5-0.5h-8.1c-0.3,0-0.5,0.2-0.5,0.5v11c0,0.3,0.2,0.5,0.5,0.5h8.1
	c0.3,0,0.5-0.2,0.5-0.5V245.4z"/>
<path class="st11" d="M384.9,245.4c0-0.3-0.2-0.5-0.5-0.5h-1.7v11.9h1.7c0.3,0,0.5-0.2,0.5-0.5V245.4z"/>
<path class="st14" d="M380.6,243.9h-8.1c-0.3,0-0.5,0.2-0.5,0.5v11.9c0,0.3,0.2,0.5,0.5,0.5h8.1c0.3,0,0.5-0.2,0.5-0.5v-11.9
	C381.1,244.1,380.8,243.9,380.6,243.9z"/>
<path class="st15" d="M381.1,244.4c0-0.3-0.2-0.5-0.5-0.5h-1.7v12.9h1.7c0.3,0,0.5-0.2,0.5-0.5V244.4z"/>
<path class="st17" d="M302.7,296.6h3.2l-0.8,5.3h-2.9L302.7,296.6z"/>
<path class="st18" d="M302.3,301.2c-0.2-0.1-0.4,0-0.4,0.2l-0.3,2.3h9.6c0-0.6-0.4-1.1-1-1.3c-1.4-0.3-3.6-1-4-1.4
	c-0.5-0.6-1.3,0.2-2,0.5C303.7,301.7,302.8,301.4,302.3,301.2z"/>
<path class="st19" d="M301.6,303.3h9.6v0.8h-9.6V303.3z"/>
<path class="st19" d="M304.3,251.3l-0.9,23.6c0,0-1.2,3.9-1.2,6.6c0,2.6-0.4,16.3-0.4,16.3h4.3l8.1-46.5H304.3z"/>
<path class="st17" d="M317.4,296.6h3.2l0.6,5.3h-2.9L317.4,296.6z"/>
<path class="st20" d="M318.2,301.2c-0.2-0.1-0.4,0-0.4,0.2l-0.2,2.3h9.6c0-0.6-0.4-1.1-1-1.3c-1.4-0.3-3.8-1-4.2-1.4
	c-0.5-0.6-1.3,0.2-2,0.5C319.6,301.7,318.7,301.4,318.2,301.2z"/>
<path class="st19" d="M317.6,303.3h9.6v0.8h-9.6V303.3z"/>
<path class="st21" d="M305.7,251.4c0,0,0.2,2.3,1.5,4.5c1.3,2.2,3.6,4.4,3.6,4.4l3.5,15.6c0,0-0.3,3.7-0.3,6.3
	c0,2.6,2.4,15.7,2.4,15.7h4.8l-2.4-46.5H305.7z"/>
<path class="st22" d="M318.7,252.1l-2.2,2.5l-0.1-2.7L318.7,252.1z"/>
<path class="st23" d="M316.3,251.6l3,46.2"/>
<path class="st24" d="M315.5,222.9l0.9,1.7c0,0.1,0,0.1-0.1,0.1l-0.8,0.2V222.9z"/>
<path class="st25" d="M309.6,229.9h3.7l-0.4-1.8c0,0,1.5,0.2,2.2-0.8c0.7-1,0.6-6.2,0.6-6.2h-6.2V229.9z"/>
<path class="st26" d="M315,225.2l0.8-0.2c0,0,0,0.2-0.1,0.3c-0.1,0.2-0.9,0.3-0.9,0.3L315,225.2z"/>
<path class="st26" d="M313.6,223.5l0.1,1.6c0,0.2,0.2,0.4,0.4,0.3l0.9-0.2l0.1,1.6c0,0.1,0.1,0.1,0.1,0.2l0.2,0c0,0,0.1,0,0.1,0.1
	c0.2,0.6-0.3,1.1-0.9,1l-0.3-0.1c-0.6-0.1-1-0.6-1.1-1.2l-0.2-3.8L313.6,223.5z"/>
<path class="st26" d="M309.1,226.1c0.1,0.3,0.4,0.4,0.7,0.4h1.4c0.3,0,0.5-0.1,0.6-0.4c0.2-0.5,0.4-1.2,0.2-2
	c-0.3-1.2,1.2-1.7,1.2-1.7l0.1,1.8c0,0.1,0.1,0.2,0.2,0.2c0.1,0,0.3-0.1,0.3-0.2l0.1-2.2c0-0.5,0.5-0.9,1-0.9c0.9,0,2,0,2.3-0.4
	c0.9-1.2-0.6-3.2-0.6-3.2s-0.7,0.9-1.6,0.8c-1.3-0.2-2.9-0.8-4.4-0.4c-1.2,0.4-2.5,2.4-3,3.2c-0.1,0.2-0.1,0.4,0,0.7L309.1,226.1z"
	/>
<path class="st24" d="M312.9,228.2l-0.8-0.1l1.1,1.9L312.9,228.2z"/>
<path class="st25" d="M302.2,234.4l-5.3,7c-0.4,0.5-0.5,1.3-0.2,1.9l4.8,9.5c0,0-0.3,3.7,1.1,4.2c0.3,0.1,0.7,2.2,1.2,1.6
	c0.1-0.2,0.2-4.1,0.2-4.1l-0.6-2.9l-2.6-8.5l4.4-6L302.2,234.4z"/>
<path class="st22" d="M304.5,230.7c0.8-1,2.3-1.1,3.3-0.3l0.4,0.4c1,0.8,1.1,2.3,0.2,3.2l-7.1,8.1l0.1,1.7l-4.6,0.5l-0.8-0.9
	c-0.7-0.7-0.7-1.9-0.1-2.7L304.5,230.7z"/>
<path class="st27" d="M304.8,231.6c0.1-1,0.9-1.8,1.9-1.8h10.6c1.1,0,1.9,0.9,1.9,1.9V252h-16.1L304.8,231.6z"/>
<path class="st28" d="M315.9,235.1l3.4,11.7v-6.4L315.9,235.1z"/>
<path class="st10" d="M331,225.1c0-0.3,0.2-0.5,0.4-0.5l8-1c0.3,0,0.5,0.2,0.5,0.4l1.3,10.9c0,0.3-0.2,0.5-0.4,0.5l-8,1
	c-0.3,0-0.5-0.2-0.5-0.4L331,225.1z"/>
<path class="st11" d="M331,225.1c0-0.3,0.2-0.5,0.4-0.5l1.7-0.2l1.5,11.8l-1.7,0.2c-0.3,0-0.5-0.2-0.5-0.4L331,225.1z"/>
<path class="st25" d="M320.9,236.1l2,3.9l7.3-7.1c0,0,0-0.1,0.1-0.1l0.4-2.7c0,0,1.6-2.8,1.9-1.8c0.1,0.4-0.9,0.8-0.8,2.1
	c0,0.2,2-1.2,2.8-1.8c0.1-0.1,0.3,0,0.3,0.2l-0.5,3.1c0,0,0,0.1-0.1,0.1l-2.7,2.2l-6.8,9.3c-1.1,1.4-3.3,1.3-4.1-0.2l-3.2-5.7
	L320.9,236.1z"/>
<path class="st22" d="M319.4,231.1c-0.5-1.2-1.9-1.6-3.1-1.1l-0.5,0.2c-1.2,0.6-1.6,2-1,3.1l5.2,9.9c0.9,1.7,3.3,2.1,4.6,0.7
	l1.6-1.7l-2.1-4.1l-1.2,0.7L319.4,231.1z"/>
<path class="st10" d="M343.3,287.6h-7.5v11.9h7.5V287.6z"/>
<path class="st11" d="M343.3,287.6h-2.2v11.9h2.2V287.6z"/>
<path class="st8" d="M339.6,288.2h-5.5l-4,9.9h5.5L339.6,288.2z"/>
<path class="st7" d="M339.6,288.2c0,0,0.7,0.3,1.1,0.6c0.4,0.4,0.4,0.9,0.4,0.9l-4.1,9.8c0,0-0.1-0.6-0.5-0.9c-0.4-0.3-1-0.5-1-0.5
	L339.6,288.2z"/>
<path class="st16" d="M335.6,298.1h-5.3c0,0,0.7,0.5,1,0.7c0.3,0.2,0.7,0.7,0.7,0.7h5.2c0,0-0.1-0.6-0.5-0.9
	S335.6,298.1,335.6,298.1z"/>
<path class="st5" d="M343.9,266.6c0-0.3-0.2-0.5-0.5-0.5h-8.1c-0.3,0-0.5,0.2-0.5,0.5v11c0,0.3,0.2,0.5,0.5,0.5h8.1
	c0.3,0,0.5-0.2,0.5-0.5V266.6z"/>
<path class="st4" d="M343.9,266.6c0-0.3-0.2-0.5-0.5-0.5h-1.7V278h1.7c0.3,0,0.5-0.2,0.5-0.5V266.6z"/>
<path class="st5" d="M341.3,266.6c0-0.3-0.2-0.5-0.5-0.5h-8.1c-0.3,0-0.5,0.2-0.5,0.5v11c0,0.3,0.2,0.5,0.5,0.5h8.1
	c0.3,0,0.5-0.2,0.5-0.5V266.6z"/>
<path class="st4" d="M341.3,266.6c0-0.3-0.2-0.5-0.5-0.5h-1.7V278h1.7c0.3,0,0.5-0.2,0.5-0.5V266.6z"/>
<path class="st8" d="M338.6,266.6c0-0.3-0.2-0.5-0.5-0.5h-8.1c-0.3,0-0.5,0.2-0.5,0.5v11c0,0.3,0.2,0.5,0.5,0.5h8.1
	c0.3,0,0.5-0.2,0.5-0.5V266.6z"/>
<path class="st7" d="M338.6,266.6c0-0.3-0.2-0.5-0.5-0.5h-1.7V278h1.7c0.3,0,0.5-0.2,0.5-0.5V266.6z"/>
<path class="st5" d="M336,266.6c0-0.3-0.2-0.5-0.5-0.5h-8.1c-0.3,0-0.5,0.2-0.5,0.5v11c0,0.3,0.2,0.5,0.5,0.5h8.1
	c0.3,0,0.5-0.2,0.5-0.5V266.6z"/>
<path class="st4" d="M336,266.6c0-0.3-0.2-0.5-0.5-0.5h-1.7V278h1.7c0.3,0,0.5-0.2,0.5-0.5V266.6z"/>
<path class="st10" d="M328.6,266.6c0-0.3-0.2-0.5-0.5-0.5h-3.6c-0.3,0-0.5,0.2-0.5,0.5v11c0,0.3,0.2,0.5,0.5,0.5h3.6
	c0.3,0,0.5-0.2,0.5-0.5V266.6z"/>
<path class="st11" d="M328.6,266.6c0-0.3-0.2-0.5-0.5-0.5h-1.7V278h1.7c0.3,0,0.5-0.2,0.5-0.5V266.6z"/>
<path class="st2" d="M328.4,266.1h-1.7V278h1.7V266.1z"/>
<path class="st12" d="M343.9,245.4c0-0.3-0.2-0.5-0.5-0.5h-8.1c-0.3,0-0.5,0.2-0.5,0.5v11c0,0.3,0.2,0.5,0.5,0.5h8.1
	c0.3,0,0.5-0.2,0.5-0.5V245.4z"/>
<path class="st13" d="M343.9,245.4c0-0.3-0.2-0.5-0.5-0.5h-1.7v11.9h1.7c0.3,0,0.5-0.2,0.5-0.5V245.4z"/>
<path class="st2" d="M343.6,244.9H342v11.9h1.7V244.9z"/>
<path class="st12" d="M341.5,245.4c0-0.3-0.2-0.5-0.5-0.5h-8.1c-0.3,0-0.5,0.2-0.5,0.5v11c0,0.3,0.2,0.5,0.5,0.5h8.1
	c0.3,0,0.5-0.2,0.5-0.5V245.4z"/>
<path class="st13" d="M341.5,245.4c0-0.3-0.2-0.5-0.5-0.5h-1.7v11.9h1.7c0.3,0,0.5-0.2,0.5-0.5V245.4z"/>
<path class="st2" d="M341.3,244.9h-1.7v11.9h1.7V244.9z"/>
<path class="st10" d="M337,245.4c0-0.3-0.2-0.5-0.5-0.5h-8.1c-0.3,0-0.5,0.2-0.5,0.5v11c0,0.3,0.2,0.5,0.5,0.5h8.1
	c0.3,0,0.5-0.2,0.5-0.5V245.4z"/>
<path class="st11" d="M337,245.4c0-0.3-0.2-0.5-0.5-0.5h-1.7v11.9h1.7c0.3,0,0.5-0.2,0.5-0.5V245.4z"/>
<path class="st8" d="M333.6,245.6h-5.5l-4,9.9h5.5L333.6,245.6z"/>
<path class="st7" d="M333.6,245.6c0,0,0.7,0.3,1.1,0.6c0.4,0.4,0.4,0.9,0.4,0.9l-4.1,9.8c0,0-0.1-0.6-0.5-0.9c-0.4-0.3-1-0.5-1-0.5
	L333.6,245.6z"/>
<path class="st16" d="M329.5,255.5h-5.3c0,0,0.7,0.5,1,0.7c0.3,0.2,0.7,0.7,0.7,0.7h5.2c0,0-0.1-0.6-0.5-0.9
	C330.1,255.7,329.5,255.5,329.5,255.5z"/>
<path class="st10" d="M364.6,266.6c0-0.3-0.2-0.5-0.5-0.5H356c-0.3,0-0.5,0.2-0.5,0.5v10.9c0,0.3,0.2,0.5,0.5,0.5h8.1
	c0.3,0,0.5-0.2,0.5-0.5V266.6z"/>
<path class="st11" d="M364.6,266.6c0-0.3-0.2-0.5-0.5-0.5h-1.7V278h1.7c0.3,0,0.5-0.2,0.5-0.5V266.6z"/>
<path class="st5" d="M361.4,266.2h-7.5v11.9h7.5V266.2z"/>
<path class="st4" d="M361.4,266.2h-2.2v11.9h2.2V266.2z"/>
<path class="st13" d="M357.8,266.8h-5.5l-4,9.9h5.5L357.8,266.8z"/>
<path class="st12" d="M357.8,266.8c0,0,0.7,0.3,1.1,0.6c0.4,0.4,0.4,0.9,0.4,0.9l-4.1,9.8c0,0-0.1-0.6-0.5-0.9c-0.4-0.3-1-0.5-1-0.5
	L357.8,266.8z"/>
<path class="st16" d="M353.7,276.6h-5.3c0,0,0.7,0.5,1,0.7c0.3,0.2,0.7,0.7,0.7,0.7h5.2c0,0-0.1-0.6-0.5-0.9
	C354.3,276.8,353.7,276.6,353.7,276.6z"/>
<path class="st7" d="M328.4,264.2c0-0.3,0.2-0.5,0.5-0.5h12.9c0.3,0,0.5,0.2,0.5,0.5v1.4c0,0.3-0.2,0.5-0.5,0.5h-12.9
	c-0.3,0-0.5-0.2-0.5-0.5V264.2z"/>
<path class="st8" d="M328.4,264.2c0-0.3,0.2-0.5,0.5-0.5h6.9c0.3,0,0.5,0.2,0.5,0.5v1.4c0,0.3-0.2,0.5-0.5,0.5h-6.9
	c-0.3,0-0.5-0.2-0.5-0.5V264.2z"/>
<path class="st2" d="M328.9,264.4c0-0.2,0.2-0.4,0.4-0.4H342c0.1,0,0.2,0.1,0.2,0.2v1.4c0,0.1-0.1,0.2-0.2,0.2h-12.7
	c-0.2,0-0.4-0.2-0.4-0.4V264.4z"/>
<path class="st6" d="M336.3,264.4c0-0.2,0.2-0.4,0.4-0.4h5.3c0.1,0,0.2,0.1,0.2,0.2v1.4c0,0.1-0.1,0.2-0.2,0.2h-5.3
	c-0.2,0-0.4-0.2-0.4-0.4V264.4z"/>
<path class="st12" d="M378.2,243.9h-8.1c-0.3,0-0.5,0.2-0.5,0.5v11.9c0,0.3,0.2,0.5,0.5,0.5h8.1c0.3,0,0.5-0.2,0.5-0.5v-11.9
	C378.7,244.1,378.5,243.9,378.2,243.9z"/>
<path class="st13" d="M378.7,244.4c0-0.3-0.2-0.5-0.5-0.5h-1.7v12.9h1.7c0.3,0,0.5-0.2,0.5-0.5V244.4z"/>
<path class="st12" d="M328.1,288c0-0.3-0.2-0.5-0.5-0.5h-3.1c-0.3,0-0.5,0.2-0.5,0.5v11c0,0.3,0.2,0.5,0.5,0.5h3.1
	c0.3,0,0.5-0.2,0.5-0.5V288z"/>
<path class="st13" d="M328.1,288c0-0.3-0.2-0.5-0.5-0.5H326v11.9h1.7c0.3,0,0.5-0.2,0.5-0.5V288z"/>
<path class="st2" d="M327.9,287.5h-1.7v11.9h1.7V287.5z"/>
<path class="st12" d="M389.4,288c0-0.3-0.2-0.5-0.5-0.5h-8.1c-0.3,0-0.5,0.2-0.5,0.5v11c0,0.3,0.2,0.5,0.5,0.5h8.1
	c0.3,0,0.5-0.2,0.5-0.5V288z"/>
<path class="st13" d="M389.4,288c0-0.3-0.2-0.5-0.5-0.5h-1.7v11.9h1.7c0.3,0,0.5-0.2,0.5-0.5V288z"/>
<path class="st2" d="M389.2,287.5h-1.7v11.9h1.7V287.5z"/>
<path class="st10" d="M386.5,288c0-0.3-0.2-0.5-0.5-0.5H378c-0.3,0-0.5,0.2-0.5,0.5v11c0,0.3,0.2,0.5,0.5,0.5h8.1
	c0.3,0,0.5-0.2,0.5-0.5V288z"/>
<path class="st11" d="M386.5,288c0-0.3-0.2-0.5-0.5-0.5h-1.7v11.9h1.7c0.3,0,0.5-0.2,0.5-0.5V288z"/>
<path class="st10" d="M383.9,288c0-0.3-0.2-0.5-0.5-0.5h-8.1c-0.3,0-0.5,0.2-0.5,0.5v11c0,0.3,0.2,0.5,0.5,0.5h8.1
	c0.3,0,0.5-0.2,0.5-0.5V288z"/>
<path class="st11" d="M383.9,288c0-0.3-0.2-0.5-0.5-0.5h-1.7v11.9h1.7c0.3,0,0.5-0.2,0.5-0.5V288z"/>
<path class="st10" d="M381.3,288c0-0.3-0.2-0.5-0.5-0.5h-8.1c-0.3,0-0.5,0.2-0.5,0.5v11c0,0.3,0.2,0.5,0.5,0.5h8.1
	c0.3,0,0.5-0.2,0.5-0.5V288z"/>
<path class="st11" d="M381.3,288c0-0.3-0.2-0.5-0.5-0.5h-1.7v11.9h1.7c0.3,0,0.5-0.2,0.5-0.5V288z"/>
<path class="st5" d="M378.7,288c0-0.3-0.2-0.5-0.5-0.5h-8.1c-0.3,0-0.5,0.2-0.5,0.5v11c0,0.3,0.2,0.5,0.5,0.5h8.1
	c0.3,0,0.5-0.2,0.5-0.5V288z"/>
<path class="st4" d="M378.7,288c0-0.3-0.2-0.5-0.5-0.5h-1.7v11.9h1.7c0.3,0,0.5-0.2,0.5-0.5V288z"/>
<path class="st8" d="M376.1,288c0-0.3-0.2-0.5-0.5-0.5h-5.7c-0.3,0-0.5,0.2-0.5,0.5v11c0,0.3,0.2,0.5,0.5,0.5h5.7
	c0.3,0,0.5-0.2,0.5-0.5V288z"/>
<path class="st7" d="M376.1,288c0-0.3-0.2-0.5-0.5-0.5h-1.7v11.9h1.7c0.3,0,0.5-0.2,0.5-0.5V288z"/>
<path class="st10" d="M373.4,288c0-0.3-0.2-0.5-0.5-0.5h-3.1c-0.3,0-0.5,0.2-0.5,0.5v11c0,0.3,0.2,0.5,0.5,0.5h3.1
	c0.3,0,0.5-0.2,0.5-0.5V288z"/>
<path class="st11" d="M373.4,288c0-0.3-0.2-0.5-0.5-0.5h-1.7v11.9h1.7c0.3,0,0.5-0.2,0.5-0.5V288z"/>
<path class="st12" d="M388.9,266.6c0-0.3-0.2-0.5-0.5-0.5h-8.1c-0.3,0-0.5,0.2-0.5,0.5v11c0,0.3,0.2,0.5,0.5,0.5h8.1
	c0.3,0,0.5-0.2,0.5-0.5V266.6z"/>
<path class="st13" d="M388.9,266.6c0-0.3-0.2-0.5-0.5-0.5h-1.7V278h1.7c0.3,0,0.5-0.2,0.5-0.5V266.6z"/>
<path class="st2" d="M388.7,266.1H387V278h1.7V266.1z"/>
<path class="st12" d="M386.3,266.6c0-0.3-0.2-0.5-0.5-0.5h-8.1c-0.3,0-0.5,0.2-0.5,0.5v11c0,0.3,0.2,0.5,0.5,0.5h8.1
	c0.3,0,0.5-0.2,0.5-0.5V266.6z"/>
<path class="st13" d="M386.3,266.6c0-0.3-0.2-0.5-0.5-0.5h-1.7V278h1.7c0.3,0,0.5-0.2,0.5-0.5V266.6z"/>
<path class="st2" d="M386.1,266.1h-1.7V278h1.7V266.1z"/>
<path class="st12" d="M383.7,266.6c0-0.3-0.2-0.5-0.5-0.5h-8.1c-0.3,0-0.5,0.2-0.5,0.5v11c0,0.3,0.2,0.5,0.5,0.5h8.1
	c0.3,0,0.5-0.2,0.5-0.5V266.6z"/>
<path class="st13" d="M383.7,266.6c0-0.3-0.2-0.5-0.5-0.5h-1.7V278h1.7c0.3,0,0.5-0.2,0.5-0.5V266.6z"/>
<path class="st2" d="M383.4,266.1h-1.7V278h1.7V266.1z"/>
<path class="st8" d="M380.8,266.6c0-0.3-0.2-0.5-0.5-0.5h-8.1c-0.3,0-0.5,0.2-0.5,0.5v11c0,0.3,0.2,0.5,0.5,0.5h8.1
	c0.3,0,0.5-0.2,0.5-0.5V266.6z"/>
<path class="st7" d="M380.8,266.6c0-0.3-0.2-0.5-0.5-0.5h-1.7V278h1.7c0.3,0,0.5-0.2,0.5-0.5V266.6z"/>
<path class="st10" d="M378.4,266.6c0-0.3-0.2-0.5-0.5-0.5h-8.1c-0.3,0-0.5,0.2-0.5,0.5v11c0,0.3,0.2,0.5,0.5,0.5h8.1
	c0.3,0,0.5-0.2,0.5-0.5V266.6z"/>
<path class="st11" d="M378.4,266.6c0-0.3-0.2-0.5-0.5-0.5h-1.7V278h1.7c0.3,0,0.5-0.2,0.5-0.5V266.6z"/>
<path class="st12" d="M372.5,264.2c0-0.3,0.2-0.5,0.5-0.5h12.9c0.3,0,0.5,0.2,0.5,0.5v1.4c0,0.3-0.2,0.5-0.5,0.5H373
	c-0.3,0-0.5-0.2-0.5-0.5V264.2z"/>
<path class="st13" d="M372.5,264.2c0-0.3,0.2-0.5,0.5-0.5h6.9c0.3,0,0.5,0.2,0.5,0.5v1.4c0,0.3-0.2,0.5-0.5,0.5H373
	c-0.3,0-0.5-0.2-0.5-0.5V264.2z"/>
<path class="st2" d="M372.5,264.4c0-0.2,0.2-0.4,0.4-0.4h6.7c0.3,0,0.5,0.2,0.5,0.5v1c0,0.3-0.2,0.5-0.5,0.5h-6.7
	c-0.2,0-0.4-0.2-0.4-0.4V264.4z"/>
<path class="st0" d="M400.9,290.7l2.9,20.4l-1.5,0l-2.9-20.2L400.9,290.7z"/>
<path class="st1" d="M399.6,290.7l-2.9,20.4l1.5,0l2.9-20.2L399.6,290.7z"/>
<path class="st0" d="M409.3,290.7l2.9,20.4l-1.5,0l-2.9-20.2L409.3,290.7z"/>
<path class="st1" d="M390.8,290.7l-2.9,20.4l1.5,0l2.9-20.2L390.8,290.7z"/>
<path class="st0" d="M410.4,294.3c1.3,0,2.4-1.1,2.4-2.4s-1.1-2.4-2.4-2.4h-9.7c-1.4,0-2.5-1-2.6-2.4l-1.6-16.5
	c-0.1-1.4-1.3-2.4-2.6-2.4h-6.3c-1.5,0-2.8,1.3-2.6,2.8l1.6,20.7c0.1,1.4,1.3,2.4,2.6,2.4H410.4z"/>
<path class="st1" d="M387.6,268.2c-0.1,0-0.2,0-0.3,0c0,0.1,0,0.2,0,0.3c0,0.1,0,0.1,0,0.2l1.6,20.7c0.1,1.4,1.3,2.4,2.6,2.4h21.1
	l0,0l0,0c0-1.3-1.1-2.4-2.4-2.4h-9.7c-1.4,0-2.5-1-2.6-2.4l-1.5-16.4c-0.1-1.4-1.3-2.4-2.6-2.4H387.6z"/>
<path class="st25" d="M409.1,310.3c0.8,0.2,3.2,0,4.9,0.1c0.8,0.1,2.4-0.1,2.6-0.2c0.4-0.2-0.2-0.7-0.6-0.8c-0.6-0.3-1.7-0.7-2.4-1
	c-1.1-0.5-2.1-0.8-2.3-1.6c-0.1-0.8,1.3-4.5,1.3-4.5l-3.2,1.3c0,0-0.7,2.7-1,4c-0.3,1.3-0.2,1.8-0.2,1.8S408.3,310.1,409.1,310.3z"
	/>
<path class="st29" d="M408.3,307.4c-0.1,0.2-0.4,1.6-0.4,1.6v0.7c0,0,4.3,1,5.8,1c1.5,0,4.1-0.8,4.1-0.8s-0.1-0.7-0.3-0.8
	c-0.2-0.1-2.1-0.3-2.4-0.5c-0.3-0.1-2.6-1.3-3.1-1.3s-0.6,0.1-0.9,0.3c-0.4,0.3-1,0.5-1.7,0.4c-0.7-0.1-0.4-0.8-0.6-0.9
	C408.5,307.1,408.4,307.2,408.3,307.4z"/>
<path class="st30" d="M407.7,309c-0.1,0.1-0.3,1.7-0.2,1.7c0.1,0.1,0.6,0.6,2.4,0.6c0.3,0,1.4-0.4,1.7-0.4c0.6,0,3.6,0.4,4.1,0.2
	c1.1-0.3,2.1-1,2.1-1.2c0-0.2,0-0.2-0.1-0.2c0,0-2.4,0.7-3.1,0.6c-0.2,0-2.2-0.6-2.9-0.6c-0.3,0-2,0.3-2,0.3S407.8,308.9,407.7,309z
	"/>
<path class="st26" d="M397.6,282.6c0,0,1.3,7.6,6.1,7.6s9.3-0.6,9.3-0.6s-0.8,3.2-1.5,5.9c-0.7,2.7-2.3,8.8-2.3,8.8h3.1l7-14.4
	c1.4-2.8-0.5-6.2-3.7-6.4l-10.1-0.8v-1.2h-8V282.6z"/>
<path class="st25" d="M420.5,310.4c0.8,0.2,3.2,0,4.9,0.1c0.8,0.1,2.1-0.2,2.4-0.3c0.4-0.2-0.2-0.7-0.6-0.8
	c-0.6-0.2-1.4-0.6-2.1-0.9c-1.1-0.5-2-0.9-2.4-1.7c-0.3-0.8-1.5-4.3-1.5-4.3l-2.7,1.5c0,0,1,2,1.2,3c0.2,0.9,0,2.6,0,2.6
	S419.7,310.2,420.5,310.4z"/>
<path class="st31" d="M419.4,307.2c-0.1,0.2-0.5,1.6-0.5,1.6l0,0.7c0,0,4.3,1.2,5.8,1.2c1.5,0.1,4.1-0.7,4.1-0.7s-0.1-0.7-0.3-0.8
	c-0.2-0.1-2.1-0.4-2.4-0.6c-0.3-0.1-2.6-1.4-3-1.4c-0.5,0-0.6,0.1-0.9,0.3c-0.4,0.2-1,0.5-1.7,0.3c-0.7-0.1-0.4-0.8-0.5-0.9
	C419.7,306.9,419.5,307,419.4,307.2z"/>
<path class="st30" d="M418.8,308.8c-0.2,0.1-0.3,1.7-0.2,1.7c0.1,0.1,0.6,0.6,2.4,0.6c1.7,0.1,4.8,0.2,5.9,0
	c1.1-0.2,2.2-0.9,2.2-1.1c0-0.2,0-0.2,0-0.2c0,0-2.4,0.7-3.2,0.5c-0.4-0.1-4.7-0.3-4.7-0.3S418.9,308.8,418.8,308.8z"/>
<path class="st32" d="M392.9,282.7c0,0-0.7,8,5.5,7.9c4.9-0.1,15.3-1.3,15.3-1.3s0.2,4.1,1.1,6.5c1,2.4,3.8,8.7,3.8,8.7h3.3
	l-3.2-16.4c-0.4-2.1-2.1-3.7-4.2-4l-11.5-1.5v-1.2h-10.3L392.9,282.7z"/>
<path class="st26" d="M397.7,282.7l-2,3.6l-0.4-3.7L397.7,282.7z"/>
<path class="st33" d="M395.3,281.5l0.2,3.4c0.1,2.2,2,3.9,4.3,3.8l14.2-0.5c0.5,0,1,0.3,1.1,0.8l4.2,15.5"/>
<path class="st25" d="M406,264.3l3.1,6.1l7-6.7c0,0,0-0.1,0.1-0.1l0.3-2.5c0,0,1.7-2.7,1.9-1.7c0.1,0.4-0.8,0.8-0.6,2
	c0,0.2,1.8-1,2.6-1.5c0.1-0.1,0.3,0,0.3,0.2l-0.5,2.8c0,0,0,0.1-0.1,0.1l-2.5,2.1l-6.5,8.8c-1,1.4-3.1,1.3-4-0.2l-4.3-7.7L406,264.3
	z"/>
<path class="st7" d="M418.2,258.5c0.1-0.3,0.4-0.5,0.7-0.5l3.4,0.7c0.3,0.1,0.5,0.4,0.5,0.7l-1,5.8c-0.1,0.3-0.4,0.5-0.7,0.5
	l-3.4-0.7c-0.3-0.1-0.5-0.4-0.5-0.7L418.2,258.5z"/>
<path class="st8" d="M418.6,258.4c0.1-0.3,0.4-0.6,0.7-0.5l3.5,0.9l3,0.2c0.3,0,0.6,0.3,0.5,0.7l-1,5.8c-0.1,0.3-0.3,0.5-0.6,0.5
	l-3.2-0.2l-3.6-1c-0.3-0.1-0.5-0.4-0.4-0.7L418.6,258.4z"/>
<path class="st34" d="M425.5,260.1l-2.7-0.1"/>
<path class="st34" d="M425.3,261l-2.7-0.1"/>
<path class="st34" d="M425.2,262l-2.7-0.1"/>
<path class="st34" d="M419.1,258.9l2.6,0.8"/>
<path class="st34" d="M419,259.8l2.6,0.8"/>
<path class="st34" d="M418.8,260.8l2.6,0.8"/>
<path class="st34" d="M418.6,261.7l2.6,0.8"/>
<path class="st34" d="M418.4,262.6l2.6,0.8"/>
<path class="st34" d="M418.3,263.6l2.6,0.8"/>
<path class="st2" d="M422.3,258.9c0-0.1,0.1-0.1,0.1-0.1c0.1,0,0.1,0.1,0.1,0.1l-1.2,6.8c0,0.1-0.1,0.1-0.1,0.1
	c-0.1,0-0.1-0.1-0.1-0.1L422.3,258.9z"/>
<path class="st35" d="M405.5,262.1c-0.5-1-1.8-1.4-2.8-0.9c-1.1,0.5-1.5,1.8-0.9,2.9l2.2,4.2l3.5-1.9L405.5,262.1z"/>
<path class="st36" d="M407.7,265.8c0,0-0.1-0.1-0.1,0l-3.9,2.3c0,0-0.1,0.1,0,0.1l0.5,0.9c0,0,0.1,0.1,0.1,0l3.9-2.3
	c0,0,0.1-0.1,0-0.1L407.7,265.8z"/>
<path class="st25" d="M392.3,263.7c-0.3-1.2,0.5-2.4,1.7-2.5l5.3-0.6l4.3,0.5c0.3,0,0.5,0.2,0.7,0.5c0.6,1.3,2.4,5.2,2.5,6.9
	c0.1,1.6-1.3,3.3-1.3,4.9c0,1.6,1,9.1,1,9.1l-14.5,0.7c-0.1,0-0.2-0.1-0.2-0.2l2.9-9.9L392.3,263.7z"/>
<path class="st35" d="M392.3,263.7c-0.3-1.2,0.5-2.4,1.7-2.5l3.1-0.4c0,0,1.7,2.8,3.7,2.6c2-0.2,0.9-2.6,0.9-2.6l1.8,0.2
	c0.3,0,0.5,0.2,0.7,0.5c0.6,1.3,2.4,5.2,2.5,6.9c0.1,1.6-1.3,3.3-1.3,4.9c0,1.6,1,9.1,1,9.1l-14.5,0.7c-0.1,0-0.2-0.1-0.2-0.2
	l2.9-9.9L392.3,263.7z"/>
<path class="st37" d="M395.7,264.4l-1.4,7l-1-3.7L395.7,264.4z"/>
<path class="st36" d="M397.5,260.7c1.2,1.8,2.3,2.4,3.4,2.2l0.1,0c1-0.2,1.2-0.9,0.7-2.1l0,0l0.9,0.1c0.7,1.7,0.1,2.6-1.5,2.9
	c-1.5,0.2-3.4-0.8-4.3-2.9l0-0.1L397.5,260.7z"/>
<path class="st25" d="M394.3,266.4l-3.8,7c0,0,14.5-5.2,14.6-5c0.2,0.4-1.2,1-1.5,1.5c-0.4,0.4,0,1.7-0.4,2.2
	c-0.2,0.2-2,0.2-2.6,0.2c-0.3,0-3.1,1.2-7.4,3.4c-0.3,0.2-1.2,0.5-2.3,1c-2.6,1.1-5.1-1.6-3.8-4.1l4-8.1L394.3,266.4z"/>
<path class="st35" d="M391.8,262.5c0.5-1.2,2-1.6,3.1-1l0.3,0.2c1,0.6,1.4,1.9,0.8,2.9l-2.6,4.7l-3.9-1.9L391.8,262.5z"/>
<path class="st36" d="M393.8,268.9c0,0,0-0.1,0-0.1l-4-2.2c0,0-0.1,0-0.1,0l-0.5,1c0,0,0,0.1,0,0.1l4,2.2c0,0,0.1,0,0.1,0
	L393.8,268.9z"/>
<path class="st25" d="M400.4,270.1c0,0,1.1-2.3,1.5-2.3s-0.3,2.2-0.3,2.2L400.4,270.1z"/>
<path class="st38" d="M395.9,254.3c1.2,0,2.2-1,2.2-2.2s-1-2.2-2.2-2.2s-2.2,1-2.2,2.2S394.7,254.3,395.9,254.3z"/>
<path class="st36" d="M396.3,254.7c1.1,0.5,2.4,0.1,2.9-1c0.5-1.1,0.1-2.4-1-2.9c-1.1-0.5-2.2-0.1-2.8,1
	C395,252.9,395.3,254.2,396.3,254.7z"/>
<path class="st38" d="M400.4,258.4c2.5,0,4.6-2.1,4.6-4.6c0-2.5-2.4-4.8-4.1-3.7c-2.2-1.2-5,1-5,3.7
	C395.8,256.5,397.8,258.4,400.4,258.4z"/>
<path class="st25" d="M398.3,261c0,0.8,0.7,1.5,1.5,1.5c0.9,0,1.6-0.8,1.5-1.6l-0.2-1.9c0,0,1.9,0.1,2.5-0.8
	c0.6-0.9,0.5-5.6,0.5-5.6h-5.8c0,0,0,1.2,0,1.6c-1.8,0-1.8,2.2,0,2.2C398.3,257.7,398.3,259.7,398.3,261z"/>
<path class="st38" d="M402.5,252.8c0,0,0.5,1.2,0.9,1.6c0.4,0.4,1.2,0.3,1.2,0.3l-0.5-3.1h-6v2.5c0,0,1.8,1.1,2.9,0.5
	C402,254,402.5,252.8,402.5,252.8z"/>
<path class="st24" d="M401.1,259c0,0-0.6-0.1-1-0.2c-0.4-0.1-1-0.4-1-0.4s0.7,0.7,1.1,1c0.4,0.3,0.9,0.6,0.9,0.6L401.1,259z"/>
<path class="st24" d="M402.9,255.3v1.5c0,0,0.6-0.3,0.6-0.5C403.6,256.2,402.9,255.3,402.9,255.3z"/>
<path class="st0" d="M413.3,279.2h-3.1v32.2h3.1V279.2z"/>
<path class="st1" d="M413.6,279.2h-1.7v32.2h1.7V279.2z"/>
<path class="st0" d="M469.3,279.2h-3.1v32.2h3.1V279.2z"/>
<path class="st1" d="M469.6,279.2h-1.7v32.2h1.7V279.2z"/>
<path class="st0" d="M429.3,279.2h-3.1v32.2h3.1V279.2z"/>
<path class="st1" d="M429.6,279.2H428v32.2h1.7V279.2z"/>
<path class="st0" d="M485.3,279.2h-3.1v32.2h3.1V279.2z"/>
<path class="st1" d="M485.6,279.2H484v32.2h1.7V279.2z"/>
<path class="st0" d="M449.7,278.6c0-0.2-0.2-0.4-0.4-0.4h-42.4c-0.2,0-0.4,0.2-0.4,0.4v2.2c0,0.2,0.2,0.4,0.4,0.4h42.4
	c0.2,0,0.4-0.2,0.4-0.4V278.6z"/>
<path class="st1" d="M488.1,278.6c0-0.2-0.2-0.4-0.4-0.4H427c-0.2,0-0.4,0.2-0.4,0.4v2.2c0,0.2,0.2,0.4,0.4,0.4h60.7
	c0.2,0,0.4-0.2,0.4-0.4V278.6z"/>
<path class="st7" d="M435.6,276.3c0-0.3,0.2-0.5,0.5-0.5H449c0.3,0,0.5,0.2,0.5,0.5v1.4c0,0.3-0.2,0.5-0.5,0.5h-12.9
	c-0.3,0-0.5-0.2-0.5-0.5V276.3z"/>
<path class="st8" d="M435.6,276.3c0-0.3,0.2-0.5,0.5-0.5h6.9c0.3,0,0.5,0.2,0.5,0.5v1.4c0,0.3-0.2,0.5-0.5,0.5h-6.9
	c-0.3,0-0.5-0.2-0.5-0.5V276.3z"/>
<path class="st2" d="M436.1,276.5c0-0.2,0.2-0.4,0.4-0.4h12.7c0.1,0,0.2,0.1,0.2,0.2v1.4c0,0.1-0.1,0.2-0.2,0.2h-12.7
	c-0.2,0-0.4-0.2-0.4-0.4V276.5z"/>
<path class="st6" d="M443.5,276.5c0-0.2,0.2-0.4,0.4-0.4h5.3c0.1,0,0.2,0.1,0.2,0.2v1.4c0,0.1-0.1,0.2-0.2,0.2h-5.3
	c-0.2,0-0.4-0.2-0.4-0.4V276.5z"/>
<path class="st4" d="M427.3,276.3c0-0.3,0.2-0.5,0.5-0.5h12.9c0.3,0,0.5,0.2,0.5,0.5v1.4c0,0.3-0.2,0.5-0.5,0.5h-12.9
	c-0.3,0-0.5-0.2-0.5-0.5V276.3z"/>
<path class="st5" d="M427.3,276.3c0-0.3,0.2-0.5,0.5-0.5h6.9c0.3,0,0.5,0.2,0.5,0.5v1.4c0,0.3-0.2,0.5-0.5,0.5h-6.9
	c-0.3,0-0.5-0.2-0.5-0.5V276.3z"/>
<path class="st2" d="M427.8,276.5c0-0.2,0.2-0.4,0.4-0.4h12.7c0.1,0,0.2,0.1,0.2,0.2v1.4c0,0.1-0.1,0.2-0.2,0.2h-12.7
	c-0.2,0-0.4-0.2-0.4-0.4V276.5z"/>
<path class="st6" d="M435.2,276.5c0-0.2,0.2-0.4,0.4-0.4h5.3c0.1,0,0.2,0.1,0.2,0.2v1.4c0,0.1-0.1,0.2-0.2,0.2h-5.3
	c-0.2,0-0.4-0.2-0.4-0.4V276.5z"/>
<path class="st12" d="M410.6,276.3c0-0.3,0.2-0.5,0.5-0.5H424c0.3,0,0.5,0.2,0.5,0.5v1.4c0,0.3-0.2,0.5-0.5,0.5h-12.9
	c-0.3,0-0.5-0.2-0.5-0.5V276.3z"/>
<path class="st13" d="M410.6,276.3c0-0.3,0.2-0.5,0.5-0.5h6.9c0.3,0,0.5,0.2,0.5,0.5v1.4c0,0.3-0.2,0.5-0.5,0.5h-6.9
	c-0.3,0-0.5-0.2-0.5-0.5V276.3z"/>
<path class="st2" d="M410.6,276.5c0-0.2,0.2-0.4,0.4-0.4h6.7c0.3,0,0.5,0.2,0.5,0.5v1c0,0.3-0.2,0.5-0.5,0.5H411
	c-0.2,0-0.4-0.2-0.4-0.4V276.5z"/>
<path class="st25" d="M461.5,310.9c-0.8,0.2-3.2,0-4.9,0.1c-0.8,0.1-2.4-0.1-2.6-0.2c-0.4-0.2,0.2-0.7,0.6-0.8
	c0.6-0.3,1.7-0.7,2.4-1c1.1-0.5,2.1-0.8,2.3-1.6c0.1-0.8-1.3-4.5-1.3-4.5l3.2,1.3c0,0,0.7,2.7,1,4c0.3,1.3,0.2,1.8,0.2,1.8
	S462.3,310.7,461.5,310.9z"/>
<path class="st39" d="M458.7,307.4c0,0,0.3,0.4,0.3,0.7c0,0.4,0.2,0.6,0.3,0.6c0.1,0,0.1-0.2,0.5-0.1c0.4,0.2,0.4,0.4,1.3,0.4
	c0.9,0,1.1-0.8,1.1-0.8s0.2,0.5,0.2,1.1s-0.2,1.4-0.2,1.4l-4.4,0.2l-4.6-0.1c0,0-0.1-0.4,0.1-0.6c0.2-0.2,2.5-1.1,3.5-1.5
	C457.9,308.3,458.7,307.4,458.7,307.4z"/>
<path class="st40" d="M462.4,310.5c0,0,0.2,0.4,0.1,0.7c-0.1,0.3-0.2,0.4-0.5,0.4c-0.1,0-0.5,0-1.5,0c-0.7,0-1.7-0.2-2-0.2
	c-0.3,0-1.5,0.2-2.1,0.2c-1.3,0-2.8,0-2.9,0c-0.2-0.1-0.3-0.9-0.1-0.9c0,0,1.1,0,3.1-0.1c0.5,0,1.6-0.2,2.2-0.2
	c0.5,0,1.3,0.2,1.8,0.1C461.7,310.5,462.4,310.5,462.4,310.5z"/>
<path class="st41" d="M466.9,291.1c-4.9,0-9.3-0.8-9.3-0.8s0.8,3.2,1.5,5.9c0.7,2.7,3.1,11.5,3.1,11.5h-3.1l-7.9-17.2
	c-1.3-2.8,0.6-6.1,3.7-6.3l10.2-0.8v-1.2h6.6C471.6,282.1,472.7,291.1,466.9,291.1z"/>
<path class="st25" d="M441.3,311.2c-0.8,0.2-3.2,0-4.9,0.1c-0.8,0.1-2.4-0.2-2.6-0.3c-0.4-0.2,0.2-0.7,0.6-0.8
	c0.6-0.2,1.7-0.6,2.4-0.9c1.1-0.5,2.2-0.9,2.4-1.7c0.1-0.8,1.5-4.3,1.5-4.3l2.7,1.5c0,0-1,2-1.2,3c-0.2,0.9,0,2.6,0,2.6
	S442.1,311,441.3,311.2z"/>
<path class="st42" d="M438.5,307.8c0,0,0.3,0.4,0.3,0.7c0,0.4,0.2,0.6,0.3,0.6c0.1,0,0.1-0.2,0.5-0.1c0.4,0.2,0.4,0.4,1.3,0.4
	c0.9,0,1.1-0.8,1.1-0.8s0.2,0.5,0.2,1.1c0,0.5-0.2,1.4-0.2,1.4l-4.4,0.2l-4.6-0.1c0,0-0.1-0.4,0.1-0.6c0.2-0.2,2.5-1.1,3.5-1.5
	C437.7,308.7,438.5,307.8,438.5,307.8z"/>
<path class="st43" d="M442.1,310.9c0,0,0.2,0.4,0.1,0.7c-0.1,0.3-0.2,0.4-0.5,0.4c-0.3,0-8.2,0.1-8.4,0c-0.2-0.1-0.3-0.9-0.1-0.9
	c0.1,0,1.7,0.1,5,0C439.4,311.1,442.1,310.9,442.1,310.9z"/>
<path class="st44" d="M463.4,291.2c-4.9-0.1-15.3-1.3-15.3-1.3s-0.2,4.1-1.1,6.5c-1,2.4-4.8,11.7-4.8,11.7h-3.3l4.1-19.5
	c0.4-2.1,2.1-3.6,4.2-3.9l11.5-1.5v-1.2h9.8C468.5,282.1,469.5,291.3,463.4,291.2z"/>
<path class="st41" d="M459.6,283.2l1.8,2.5l0.7-2.6L459.6,283.2z"/>
<path class="st45" d="M462.1,282.1l-0.2,2c-0.2,2.1-1.9,3.7-4,3.8l-11.5,0.2c-0.7,0-1.3,0.5-1.5,1.2l-5.1,18.9"/>
<path class="st24" d="M461.5,255.6v1.6c0,0-0.7-0.2-0.7-0.4C460.8,256.6,461.5,255.6,461.5,255.6z"/>
<path class="st25" d="M467.2,261.8h-3.6l0.3-1.7c0,0-1.5,0.2-2.1-0.8c-0.7-1-0.6-5.9-0.6-5.9h5.9V261.8z"/>
<path class="st24" d="M464,260.1l0.7-0.1l-1.1,1.8L464,260.1z"/>
<path class="st46" d="M460.7,253c0.3,1.4,2.3,1.1,2,2.5c-0.1,0.7-0.5,1.7-0.5,2.7c0,0.6,0.5,2.3,0.5,2.3s2.9-0.3,4.2-0.3
	c1.4,0,3.1,0.3,3.1,0.3s0.9-2,0.7-2.8c-0.3-1.3-1.3-1.8-0.9-3.3c1-3.6-4.7-5.8-6.7-3.6C462.1,250.3,460.4,251.6,460.7,253z"/>
<path class="st25" d="M480,258.1c0,0-0.9-0.9-1.2-1.2c-0.4-0.5-0.3-0.7,0-0.6c0.6,0.3,1.4,1,1.4,1L480,258.1z"/>
<path class="st25" d="M472.3,264.2l5.2,3.8c0,0,2.4-6.2,2.8-8.7c0-0.3-0.4-0.8-0.5-1.2c0-0.7,0.6-4.5,0.8-4.5c0.4,0,0.2,2.4,0.2,2.4
	s2.1,0.2,2.1,0.5c0,2.2-0.5,2.8-0.5,2.9c0,0.6-1,6.7-1.7,10.9c-0.3,1.7-2.3,2.5-3.7,1.5l-6.6-5L472.3,264.2z"/>
<path class="st47" d="M471.4,262.4c-1-0.7-2.4-0.4-3,0.6l-0.3,0.5c-0.7,1-0.4,2.4,0.6,3l3.1,2.1l2.7-4.2L471.4,262.4z"/>
<path class="st48" d="M471.5,265.4v3l-0.6-0.3L471.5,265.4z"/>
<path class="st47" d="M472.1,264.4c0.3-1.2-0.5-2.3-1.6-2.5c-1.5-0.2-3.4-0.5-4.7-0.5c-1.8-0.1-4.1,0.2-5.1,0.4
	c-0.3,0-0.5,0.2-0.6,0.5c-0.6,1.3-2.4,5.2-2.5,6.9c-0.1,1.6,1.3,3.3,1.3,4.9c0,1.6-1,9.1-1,9.1l14.5,0.7c0.1,0,0.2-0.1,0.2-0.2
	l-2.9-9.9L472.1,264.4z"/>
<path class="st48" d="M462.5,265.7c-0.4,2.1-3.5,7.8-3.5,7.8l-0.6-1.8l3.3-6.7C461.6,265,462.9,263.5,462.5,265.7z"/>
<path class="st25" d="M458.8,264l-3.7,7.5l-4.5-6.7c0,0,0,0,0-0.1l-0.3-2.5c0,0-1-2.5-1.3-1.7c-0.1,0.3,0.2,0.8,0,2
	c0,0.2-1.8-1-2.6-1.5c-0.1-0.1-0.3,0-0.3,0.2l0.5,2.8c0,0,0,0.1,0.1,0.1l2.5,2.1l3.4,8.3c0.8,1.8,3.3,2,4.2,0.3l5.1-9.1L458.8,264z"
	/>
<path class="st47" d="M458.6,263.1c0.5-1.1,1.9-1.5,2.9-1l0.3,0.1c1.1,0.5,1.5,1.8,1,2.9l-1.2,2.5l-4.1-2.2L458.6,263.1z"/>
<path class="st0" d="M463,292.6l-2.9,20.4l1.5,0l2.9-20.2L463,292.6z"/>
<path class="st1" d="M464.3,292.6l2.9,20.4l-1.5,0l-2.9-20.2L464.3,292.6z"/>
<path class="st0" d="M454.6,292.6l-2.9,20.4l1.5,0l2.9-20.2L454.6,292.6z"/>
<path class="st1" d="M473.1,292.6l2.9,20.4l-1.5,0l-2.9-20.2L473.1,292.6z"/>
<path class="st0" d="M453.5,293.8c-1.3,0-2.4-1.1-2.4-2.4c0-1.3,1.1-2.4,2.4-2.4h9.7c1.4,0,2.5-1,2.6-2.4l1.6-16.5
	c0.1-1.4,1.3-2.4,2.6-2.4h6.3c1.5,0,2.8,1.3,2.6,2.8l-1.6,20.7c-0.1,1.4-1.3,2.4-2.6,2.4H453.5z"/>
<path class="st1" d="M468.7,268.1l-1.6,20.8c-0.1,1.4-1.3,2.4-2.6,2.4h-13.3l0,0l0,0c0-1.3,1.1-2.4,2.4-2.4h9.7c1.4,0,2.5-1,2.6-2.4
	l1.5-16.4C467.4,269.3,467.9,268.5,468.7,268.1z"/>
<path class="st49" d="M427.8,238.4c0.5,0,0.9,0.4,0.9,0.9v8.8c0,0.5-0.4,0.9-0.9,0.9h-18.2l-3.7,2.9l0-2.9h-1
	c-0.5,0-0.9-0.4-0.9-0.9v-8.8c0-0.5,0.4-0.9,0.9-0.9H427.8z"/>
<path class="st50" d="M407.3,242.7h18.3c0.2,0,0.4-0.2,0.4-0.4s-0.2-0.4-0.4-0.4h-18.3c-0.2,0-0.4,0.2-0.4,0.4
	S407,242.7,407.3,242.7z"/>
<path class="st50" d="M407.3,245.5h15.4c0.2,0,0.4-0.2,0.4-0.4s-0.2-0.4-0.4-0.4h-15.4c-0.2,0-0.4,0.2-0.4,0.4
	S407,245.5,407.3,245.5z"/>
<path class="st49" d="M494.6,238.9c0.5,0,0.9,0.4,0.9,0.9v8.8c0,0.5-0.4,0.9-0.9,0.9h-18.2l-3.7,2.9l0-2.9h-1
	c-0.5,0-0.9-0.4-0.9-0.9v-8.8c0-0.5,0.4-0.9,0.9-0.9H494.6z"/>
<path class="st50" d="M474,243.1h18.3c0.2,0,0.4-0.2,0.4-0.4c0-0.2-0.2-0.4-0.4-0.4H474c-0.2,0-0.4,0.2-0.4,0.4
	C473.6,242.9,473.8,243.1,474,243.1z"/>
<path class="st50" d="M474,246h15.4c0.2,0,0.4-0.2,0.4-0.4s-0.2-0.4-0.4-0.4H474c-0.2,0-0.4,0.2-0.4,0.4S473.8,246,474,246z"/>
<path class="st1" d="M450.8,188v24.1h1.2v2.9h-0.5l5.4,6.5c0.2,0.2,0.1,0.5-0.1,0.7c0,0-0.1,0-0.1,0.1c-1.1,0.5-3.3,0.8-6.6,0.8
	l-0.3,0c-3.1,0-5.2-0.3-6.3-0.8c-0.2-0.1-0.3-0.4-0.2-0.6c0,0,0-0.1,0.1-0.1l5.4-6.5h-0.4v-2.9h1.2V188H450.8z"/>
<path class="st1" d="M462.7,188.2v31h1.2v2.9h-0.5l5.4,6.5c0.2,0.2,0.1,0.5-0.1,0.7c0,0-0.1,0-0.1,0.1c-1.1,0.5-3.3,0.8-6.6,0.8
	l-0.3,0c-3.1,0-5.2-0.3-6.3-0.8c-0.2-0.1-0.3-0.4-0.2-0.6c0,0,0-0.1,0.1-0.1l5.4-6.5h-0.4v-2.9h1.2v-31H462.7z"/>
<path class="st0" d="M308.5,204.8l0-0.2c2.9-0.8,5-3.5,5-6.6c0-3.2-2.1-5.8-5-6.6l0-0.2h-1.8c-3.8,0-6.9,3.1-6.9,6.9
	c0,3.8,3,6.8,6.7,6.9l0.1,0H308.5z"/>
<path class="st1" d="M308.1,204.8c-3.8,0-6.9-3.1-6.9-6.9s3.1-6.9,6.9-6.9c3.8,0,6.9,3.1,6.9,6.9S311.9,204.8,308.1,204.8z"/>
<path class="st0" d="M308.1,204.1c-3.4,0-6.2-2.8-6.2-6.2s2.8-6.2,6.2-6.2s6.2,2.8,6.2,6.2S311.5,204.1,308.1,204.1z"/>
<path class="st2" d="M307.6,191.9L307.6,191.9c-3.2,0.3-5.6,2.9-5.6,6.1c0,3.2,2.4,5.8,5.5,6.1c3.1-0.3,5.5-2.9,5.5-6.1
	C313.1,194.8,310.7,192.2,307.6,191.9L307.6,191.9L307.6,191.9z"/>
<path class="st0" d="M307.7,192.9v5.5c0,0.1-0.1,0.2-0.2,0.2c-0.1,0-0.2-0.1-0.2-0.2v-5.5c0-0.1,0.1-0.2,0.2-0.2
	C307.6,192.8,307.7,192.8,307.7,192.9z"/>
<path class="st0" d="M307.4,198.2l3.1-2.4c0.1-0.1,0.3-0.1,0.4,0c0.1,0.1,0.1,0.3,0,0.4l-3.1,2.4c-0.1,0.1-0.3,0.1-0.4,0
	C307.3,198.4,307.3,198.3,307.4,198.2z"/>
</svg>
