<?xml version="1.0" encoding="utf-8"?>
<!-- Generator: Adobe Illustrator 19.0.0, SVG Export Plug-In . SVG Version: 6.00 Build 0)  -->
<svg version="1.1" id="图层_1" xmlns="http://www.w3.org/2000/svg" xmlns:xlink="http://www.w3.org/1999/xlink" x="0px" y="0px"
	 viewBox="163.5 178 200 125" style="enable-background:new 163.5 178 200 125;" xml:space="preserve">
<style type="text/css">
	.st0{fill:#95B2EE;}
	.st1{fill:#A7C3FF;}
	.st2{fill:url(#SVGID_1_);}
	.st3{fill:#EAEFFF;}
	.st4{fill:#FFFFFF;stroke:#D2E0FF;}
	.st5{fill:#C6D8FF;}
	.st6{fill:#FFBF29;}
	.st7{fill:#FFFFFF;}
	.st8{fill:#FF5D8E;}
	.st9{fill:#467FFF;}
	.st10{fill:#C8DAFF;}
	.st11{fill:#616988;}
	.st12{fill:#4F2511;}
	.st13{fill:#34180A;}
	.st14{fill:#203584;}
	.st15{fill:#7680A4;}
	.st16{fill:#823E1D;}
	.st17{fill:#2E47A6;}
	.st18{fill:none;stroke:#98ABF4;stroke-width:0.5544;}
	.st19{fill:#FFC4A7;}
	.st20{fill:#F5AC00;}
	.st21{fill:#FF4F4F;}
	.st22{fill:#080708;fill-opacity:0.2213;}
	.st23{fill:#D5E4FF;}
	.st24{fill:#F19B93;}
	.st25{fill:#8A5835;}
	.st26{fill:#7CA1D9;}
	.st27{fill:#174E9F;}
	.st28{fill:#113C7B;}
	.st29{fill:#A0C6FF;}
	.st30{fill:#2B6AC7;}
	.st31{fill:#1E62C8;}
	.st32{fill:none;stroke:#174E9F;stroke-width:0.5877;}
	.st33{fill:#080708;fill-opacity:0.223;}
	.st34{fill:#E3E9FF;}
	.st35{fill:#0A2650;}
	.st36{fill:#E09282;}
	.st37{fill:#B7C3D1;}
	.st38{fill:#080708;fill-opacity:0.2457;}
	.st39{fill:#283845;}
	.st40{fill:#03344B;}
	.st41{fill:#364B5D;}
	.st42{fill:#064C6C;}
	.st43{fill:none;stroke:#03344B;stroke-width:0.5544;}
	.st44{fill:#B9726B;}
	.st45{fill:#321111;}
	.st46{fill:#FFE3F4;}
	.st47{fill:#080708;fill-opacity:0.1614;}
	.st48{fill:#FF326F;}
	.st49{fill:#D8DDF3;}
	.st50{fill:#93B2CC;}
	.st51{fill:#113B7B;}
	.st52{fill:none;stroke:#0A2650;stroke-width:0.5877;}
	.st53{fill:#5B1E09;}
</style>
<g>
	<path class="st0" d="M164.1,289.8h198.8v7.8H164.1V289.8z"/>
	<path class="st1" d="M164.1,292.9h198.8v2H164.1V292.9z"/>
	
		<linearGradient id="SVGID_1_" gradientUnits="userSpaceOnUse" x1="324.4341" y1="277.4888" x2="324.4433" y2="276.0969" gradientTransform="matrix(1 0 0 -1 0 502)">
		<stop  offset="0" style="stop-color:#D7DDF9"/>
		<stop  offset="1" style="stop-color:#F3F3F8"/>
	</linearGradient>
	<path class="st2" d="M353.4,223.8h-58v1.7h58V223.8z"/>
	<path class="st1" d="M354.3,180h-60v45.5h60V180z"/>
	<path class="st3" d="M353.4,180.5h-58v44.1h58V180.5z"/>
	<rect x="316.3" y="221.8" class="st1" width="16.7" height="3.6"/>
	<path class="st4" d="M337.4,201.4l-3.2-3.6h-9.7v20.6h12.8V201.4z"/>
	
		<rect x="324.6" y="196.7" transform="matrix(0.7431 0.6691 -0.6691 0.7431 216.3512 -166.5825)" class="st5" width="1.1" height="3.6"/>
	
		<rect x="324.3" y="216.2" transform="matrix(0.7431 -0.6691 0.6691 0.7431 -62.4488 273.3897)" class="st5" width="1.1" height="3.6"/>
	<path class="st5" d="M338.3,217l-0.8-0.7l-2,2.7l0.8,0.6L338.3,217z"/>
	<path class="st5" d="M334.3,197.7l3.2,3.6c0,0-0.5,0.5-1.1,0.7c-0.6,0.2-1.8,0.5-1.8,0.5s0.2-1.2,0.2-2.1
		C334.7,199.5,334.3,197.7,334.3,197.7z"/>
	<rect x="301.6" y="184.7" class="st5" width="13.1" height="16.2"/>
	<path class="st4" d="M301.7,184.9h12.8c0,0,0,0,0,0c0,0.1,0,0.3,0,0.5c0,0.4,0,1,0.1,1.7c0.1,1.4,0.2,3.4,0.5,5.3
		c0.3,1.9,0.7,3.8,1,5.3c0.2,0.7,0.3,1.3,0.4,1.7c0.1,0.2,0.1,0.4,0.1,0.5h-12.8c0,0,0,0,0-0.1c0-0.1-0.1-0.3-0.1-0.5
		c-0.1-0.4-0.3-1-0.4-1.7c-0.3-1.4-0.8-3.3-1-5.3c-0.3-1.9-0.4-3.8-0.5-5.3c0-0.7-0.1-1.3-0.1-1.7
		C301.7,185.2,301.7,185,301.7,184.9C301.7,184.9,301.7,184.9,301.7,184.9z"/>
	<path class="st5" d="M308.4,186.1c0.2,0,0.4-0.2,0.4-0.4c0-0.2-0.2-0.4-0.4-0.4c-0.2,0-0.4,0.2-0.4,0.4
		C308,185.9,308.2,186.1,308.4,186.1z"/>
	
		<rect x="341.4" y="184.7" transform="matrix(-0.9511 0.309 -0.309 -0.9511 730.0931 261.0382)" class="st6" width="5.9" height="7.3"/>
	<path class="st7" d="M345.4,185.6c0.2,0,0.4-0.2,0.4-0.4c0-0.2-0.2-0.4-0.4-0.4c-0.2,0-0.4,0.2-0.4,0.4
		C345,185.4,345.1,185.6,345.4,185.6z"/>
	<path class="st8" d="M332.2,184.7h5.9c0,0-0.1,1.8,0.1,3.6c0.2,1.8,0.7,3.6,0.7,3.6h-5.9c0,0-0.5-1.8-0.7-3.6
		C332.2,186.5,332.2,184.7,332.2,184.7z"/>
	<path class="st7" d="M335.3,185.9c0.2,0,0.4-0.2,0.4-0.4c0-0.2-0.2-0.4-0.4-0.4c-0.2,0-0.4,0.2-0.4,0.4
		C334.9,185.7,335.1,185.9,335.3,185.9z"/>
	<rect x="325" y="184.7" class="st9" width="5.9" height="7.3"/>
	<path class="st7" d="M328.1,185.9c0.2,0,0.4-0.2,0.4-0.4c0-0.2-0.2-0.4-0.4-0.4c-0.2,0-0.4,0.2-0.4,0.4
		C327.7,185.7,327.9,185.9,328.1,185.9z"/>
	<path class="st10" d="M208.3,179.1h58v118.5l-45.1,0.2l-12.9-0.8V179.1z"/>
	<path class="st1" d="M205.9,179.1h15.2v118.7l-15.2-0.8V179.1z"/>
	<path class="st3" d="M244.3,180.8H264V295h-19.7V180.8z M263.4,294.4v-113h-18.5v113H263.4z"/>
	<path class="st1" d="M249.2,185.8h10.5v6.6h-10.5V185.8z"/>
	<path class="st3" d="M249.2,185.4h10.9l0.4,1.6h-10.9L249.2,185.4z"/>
	<path class="st3" d="M249.2,187.7h10.9l0.4,1.6h-10.9L249.2,187.7z"/>
	<path class="st3" d="M249.2,190.1h10.9l0.4,1.6h-10.9L249.2,190.1z"/>
	<path class="st1" d="M227.8,185.8h10.5v6.6h-10.5V185.8z"/>
	<path class="st3" d="M227.8,185.4h10.9l0.4,1.6h-10.9L227.8,185.4z"/>
	<path class="st3" d="M227.8,187.7h10.9l0.4,1.6h-10.9L227.8,187.7z"/>
	<path class="st3" d="M227.8,190.1h10.9l0.4,1.6h-10.9L227.8,190.1z"/>
	<path class="st1" d="M227.8,284.2h10.5v6.6h-10.5V284.2z"/>
	<path class="st3" d="M227.8,283.8h10.9l0.4,1.6h-10.9L227.8,283.8z"/>
	<path class="st3" d="M227.8,286.1h10.9l0.4,1.6h-10.9L227.8,286.1z"/>
	<path class="st3" d="M227.8,288.5h10.9l0.4,1.6h-10.9L227.8,288.5z"/>
	<path class="st1" d="M249.2,284.2h10.5v6.6h-10.5V284.2z"/>
	<path class="st3" d="M249.2,283.8h10.9l0.4,1.6h-10.9L249.2,283.8z"/>
	<path class="st3" d="M249.2,286.1h10.9l0.4,1.6h-10.9L249.2,286.1z"/>
	<path class="st3" d="M249.2,288.5h10.9l0.4,1.6h-10.9L249.2,288.5z"/>
	<rect x="259.4" y="230.3" class="st3" width="2.7" height="10.9"/>
	<rect x="237.9" y="230.3" class="st3" width="2.7" height="10.9"/>
	<path class="st3" d="M222.8,180.8h19.7V295h-19.7V180.8z M241.9,294.4v-113h-18.5v113H241.9z"/>
	<path class="st11" d="M234.9,289.3h3.7l0.5,5.2h-3.4L234.9,289.3z"/>
	<path class="st12" d="M235.2,292.1v5.5h11.4v-0.8c0,0-0.8-1.3-2.7-1.3c-1.8,0-3.6-0.4-4.2-1.1c-0.6-0.7-0.7-2.3-0.7-2.3H235.2z"/>
	<rect x="235.2" y="297" class="st13" width="11.4" height="0.9"/>
	<path class="st14" d="M225.4,237.2l6.4,28.7c0,0-0.4,4.3-0.4,7.4s2.8,18.4,2.8,18.4h5.6l-2.8-54.4H225.4z"/>
	<path class="st15" d="M218.1,289.4h3.7l-0.6,5.2h-3.4L218.1,289.4z"/>
	<path class="st16" d="M217.8,292.2l-0.2,5.5H229v-0.8c0,0-0.6-1.3-2.5-1.3s-3.6-0.4-4.2-1.1c-0.6-0.7-0.7-2.3-0.7-2.3H217.8z"/>
	<rect x="217.6" y="297.1" class="st12" width="11.4" height="0.9"/>
	<path class="st17" d="M220.2,237.3l-1.1,27.7c0,0-1.4,4.6-1.4,7.7c0,3-0.5,19.1-0.5,19.1h5l9.4-54.4H220.2z"/>
	<path class="st14" d="M228,238.9l-3.2,4.5l0.5-4.5L228,238.9z"/>
	<path class="st18" d="M225.4,238l-3.2,27.9c0,0-0.9,3.5-1.4,7.3c-0.5,3.8-1.5,18.5-1.5,18.5"/>
	<path class="st19" d="M239.1,220.8l2.3,4.6l8.6-8.2c0,0,0.1-0.1,0.1-0.1l0.4-3.1c0,0,2-3.3,2.4-2.1c0.1,0.4-0.9,1-0.7,2.4
		c0,0.3,2.2-1.2,3.2-1.9c0.2-0.1,0.4,0,0.3,0.2l-0.7,3.4c0,0,0,0.1-0.1,0.1l-3.1,2.6l-8,10.9c-1.2,1.7-3.8,1.5-4.8-0.3l-3.8-6.6
		L239.1,220.8z"/>
	<path class="st20" d="M253.7,213h-1.7v3.9h1.7V213z"/>
	<path class="st6" d="M255.6,206h2.3c0.4,0,0.8,0.3,0.8,0.8c0,0,0,0.1,0,0.1c-0.3,1.7-0.7,2.9-1,3.5c-0.4,0.7-1.1,1.1-2,1l0-0.6
		c0.7,0,1.1-0.2,1.4-0.7c0.3-0.5,0.6-1.6,0.9-3.3c0,0,0,0,0,0c0-0.1,0-0.1-0.1-0.1h-2.3V206z"/>
	<path class="st6" d="M257.1,205.3h-8.6l0.5,5.2c0.2,1.9,1.8,3.4,3.8,3.4c2,0,3.6-1.5,3.8-3.4L257.1,205.3z"/>
	<path class="st20" d="M250.2,210c0.2,1.3,0.5,2.4,1,3.5c0.3,0.1,0.6,0.2,1,0.3c-0.5-1.2-0.8-2.4-1.1-3.8c-0.3-1.5-0.4-3-0.4-4.7
		h-0.9C249.8,207,249.9,208.5,250.2,210z"/>
	<path class="st6" d="M248.8,206h-1.1c-0.4,0-0.8,0.3-0.8,0.8c0,0,0,0.1,0,0.1c0.3,1.7,0.7,2.9,1,3.5c0.3,0.4,0.8,0.7,1.7,1
		c0.1,0,0.3-0.1,0.3-0.2c0,0,0,0,0-0.1c0-0.2-0.1-0.3-0.3-0.4c-0.6-0.1-1-0.4-1.1-0.6c-0.3-0.5-0.6-1.6-0.9-3.3l0,0
		c0-0.1,0-0.1,0.1-0.1h1.1c0.2,0,0.3-0.1,0.3-0.3C249.1,206.2,249,206,248.8,206z"/>
	<path class="st20" d="M258.4,216h-11.3v6.4h11.3V216z"/>
	<rect x="252.4" y="216" class="st6" width="6" height="6.4"/>
	<rect x="253.1" y="216.7" class="st20" width="4.7" height="4.7"/>
	<path class="st21" d="M237.4,214.9c-0.6-1.3-2.3-1.9-3.6-1.2l-0.6,0.3c-1.3,0.6-1.9,2.3-1.2,3.6l4,8.2l5.5-2.7L237.4,214.9z"/>
	<path class="st22" d="M236.2,219.2l1.9,5.6l-1.4,0.6L236.2,219.2z"/>
	<path class="st21" d="M219.3,215.5c0-1.2,0.9-2.1,2-2.3l7.4-0.8l5.6,0.8c1.1,0.1,1.9,1,1.9,2.1l1.9,23.1l-18.9,1V215.5z"/>
	<path class="st22" d="M223.3,219.9l-4,13v-7.7L223.3,219.9z"/>
	<path class="st23" d="M243.2,221.9c0-0.2-0.2-0.4-0.4-0.4h-10.9c-0.2,0-0.4,0.2-0.4,0.4v13.7c0,0.2,0.2,0.4,0.4,0.4h10.9
		c0.2,0,0.4-0.2,0.4-0.4V221.9z"/>
	<path class="st4" d="M243.4,221.5c0-0.1-0.1-0.3-0.3-0.3h-10.9c-0.1,0-0.3,0.1-0.3,0.3v13.7c0,0.1,0.1,0.3,0.3,0.3h10.9
		c0.1,0,0.3-0.1,0.3-0.3V221.5z"/>
	<path class="st20" d="M234.6,232h-2.1v4.5l1.1-1.2l1.1,1.2V232z"/>
	<path class="st20" d="M233.3,233.8c-1.5,0-2.6-1.2-2.6-2.6c0-1.5,1.2-2.6,2.6-2.6s2.6,1.2,2.6,2.6
		C235.9,232.6,234.8,233.8,233.3,233.8z"/>
	<path class="st6" d="M233.5,233.8c-1.5,0-2.6-1.2-2.6-2.6c0-1.5,1.2-2.6,2.6-2.6c1.5,0,2.6,1.2,2.6,2.6
		C236.1,232.6,235,233.8,233.5,233.8z"/>
	<path class="st7" d="M234.2,231c0.1-0.1,0.2-0.1,0.3,0c0.1,0.1,0.1,0.2,0,0.3l-0.7,0.8c-0.1,0.1-0.2,0.1-0.3,0c0,0,0,0,0,0l-1-1.3
		c-0.1-0.1,0-0.2,0-0.3c0.1-0.1,0.2,0,0.3,0l0.9,1.2L234.2,231z"/>
	<path class="st1" d="M234.2,224c-0.1,0-0.1,0.1-0.1,0.1c0,0.1,0.1,0.1,0.1,0.1l0,0h7.2c0.1,0,0.1-0.1,0.1-0.1
		c0-0.1-0.1-0.1-0.1-0.1l0,0H234.2z"/>
	<path class="st1" d="M234.2,225.7c-0.1,0-0.1,0.1-0.1,0.1c0,0.1,0.1,0.1,0.1,0.1l0,0h7.2c0.1,0,0.1-0.1,0.1-0.1
		c0-0.1-0.1-0.1-0.1-0.1l0,0H234.2z"/>
	<path class="st1" d="M234.2,227.7c-0.1,0-0.1,0.1-0.1,0.1c0,0.1,0.1,0.1,0.1,0.1l0,0h7.2c0.1,0,0.1-0.1,0.1-0.1
		c0-0.1-0.1-0.1-0.1-0.1l0,0H234.2z"/>
	<path class="st1" d="M236.5,229.6c-0.1,0-0.1,0.1-0.1,0.1c0,0.1,0.1,0.1,0.1,0.1l0,0h4.8c0.1,0,0.1-0.1,0.1-0.1
		c0-0.1-0.1-0.1-0.1-0.1l0,0H236.5z"/>
	<path class="st19" d="M219.8,224.1l-2.2,4.1c0,0,18-6,18.2-5.8c0.3,0.5-1.4,1.3-1.9,1.8c-0.4,0.5,0,2.1-0.5,2.7
		c-0.2,0.3-2.4,0.3-3.1,0.3c-0.3,0-3.8,1.5-9.1,4.2c-0.4,0.2-1.7,0.7-3.2,1.4c-3.1,1.3-6.2-1.9-4.7-5l2.8-5.9L219.8,224.1z"/>
	<path class="st21" d="M219.2,214.8c0.8-1.3,2.4-1.7,3.7-0.9l0.6,0.4c1.3,0.8,1.7,2.4,0.9,3.7l-4.7,7.9l-5.2-3.1L219.2,214.8z"/>
	<path class="st19" d="M229.9,224.2c0,0,1.4-2.8,1.9-2.8c0.5,0-0.4,2.7-0.4,2.7L229.9,224.2z"/>
	<path class="st19" d="M226.8,212.6c0,1.1,0.9,1.9,1.9,1.9c1.1,0,2-1,1.9-2.1l-0.2-1.5c0,0,2.4,0.2,3.2-1c0.8-1.2,0.7-7.2,0.7-7.2
		h-7.6c0,0,0,1.5,0,2c-2.3,0-2.3,2.8,0,2.8C226.8,209.1,226.8,211.1,226.8,212.6z"/>
	<path class="st24" d="M230.4,210.9c0,0-0.7-0.1-1.3-0.3c-0.6-0.2-1.2-0.5-1.2-0.5s0.9,0.9,1.4,1.3c0.5,0.4,1.2,0.8,1.2,0.8
		L230.4,210.9z"/>
	<path class="st25" d="M226.8,204.7l0.2,1.7c0,0.1,0.1,0.2,0.3,0.2c0.1,0,0.2-0.1,0.2-0.2l0.8-2.2c0.3-0.8,1-1.3,1.8-1.3h4.3
		c0,0,0.9-1,1.3-1.7c0.4-0.7,0.8-1.8,0.8-1.8s-6-1.4-7.6-1c-1.6,0.4-2,2-2,2s-1.5,0.4-1.9,1.5s0.6,3.1,0.6,3.1s0.3-0.3,0.7-0.4
		C226.4,204.7,226.8,204.7,226.8,204.7z"/>
	<path class="st24" d="M233.1,205l1,2c0,0.1,0,0.1-0.1,0.1l-1,0.3V205z"/>
	<path class="st19" d="M201.8,297.9c0.9,0.2,3.7,0,5.8,0.1c0.9,0.1,2.8-0.1,3.1-0.3c0.5-0.2-0.3-0.8-0.7-1c-0.8-0.3-2-0.8-2.8-1.2
		c-1.3-0.6-2.6-1.1-2.8-2c-0.1-0.9-0.6-5.2-0.6-5.2l-3.6-0.2c0,0,0.9,5.3,0.8,5.8s-0.1,2.8-0.1,2.8S200.9,297.6,201.8,297.9z"/>
	<path class="st26" d="M201,293.8c0,0,0.4,0.9,1.6,1c1.2,0.1,1.7-0.8,1.8-1c0-0.2,0.1-0.3,0.2-0.2c0.1,0.1,2.5,2.1,3,2.2
		c0.5,0,2.8,0.2,3.2,1s-0.1,1.5-0.1,1.5s-2.9,0.3-6.1,0c-3.1-0.3-3.6,0-3.8-0.2c-0.2-0.2-0.2-1.2-0.3-1.4
		C200.1,295.1,201,293.8,201,293.8z"/>
	<path class="st27" d="M202.6,297.3c0.4,0.1,2-0.1,2.4-0.1l0.2,0c0.7,0.1,2.1,0.3,2.6,0.3c1.5,0,2.5-0.2,3.1-0.6
		c0.1,0.4,0,0.8-0.2,1.1c-0.9,0.3-1.8,0.5-2.8,0.5c-0.6,0-2.3-0.2-2.9-0.3c-0.5,0-1.8,0.1-2.1,0.1l-0.3,0c-1.7-0.2-1.6-0.3-1.7-0.5
		c-0.1-0.2-0.2-0.8-0.2-1.1C201.4,297.1,202,297.3,202.6,297.3z"/>
	<path class="st27" d="M200.1,289.3h3.8l-0.9-19.7l-6.8-28.9h-11.4l11.9,28.9c0,0,0.4,6.5,1.1,10.1
		C198.4,283.3,200.1,289.3,200.1,289.3z"/>
	<path class="st28" d="M199.6,288.4c0-0.1,0.1-0.2,0.2-0.2h4.4c0.1,0,0.2,0.1,0.2,0.2l0.1,1.4c0,0.1-0.1,0.2-0.2,0.2h-4.4
		c-0.1,0-0.2-0.1-0.2-0.2L199.6,288.4z"/>
	<path class="st19" d="M170.7,295.4c0.8,0.6,3.4,1.5,5.2,2.5c0.8,0.4,2.5,0.9,2.8,0.9c0.5,0,0.1-0.8-0.3-1.2c-0.5-0.6-1.4-1.4-2-2.1
		c-1-1.1-1.9-2.1-1.7-2.9c0.2-0.9,2.6-4.3,2.6-4.3l-3.6-1.3l-3.4,7.2C170.3,294.1,169.9,294.8,170.7,295.4z"/>
	<path class="st29" d="M171.6,291.3c0,0-0.1,1,1,1.6c1.1,0.6,1.9,0,2-0.2s0.3-0.2,0.3-0.1c0.1,0.1,1.4,2.9,1.9,3.2
		c0.5,0.2,2.5,1.4,2.5,2.2c0,0.8-0.7,1.3-0.7,1.3s-3-0.6-5.7-2.1c-2.7-1.5-3.1-1.8-3.2-2.1c-0.1-0.3,0.3-1.2,0.3-1.4
		C170.2,292.2,171.6,291.3,171.6,291.3z"/>
	<path class="st30" d="M174.8,296.9c1.5,0.7,3,1.1,4.5,1.2c0,0.4-0.3,0.8-0.7,1.1c-2-0.4-3.9-1.1-5.7-2.1l-0.8-0.4
		c-2-1.1-2.3-1.4-2.4-1.7c-0.1-0.2,0.1-0.9,0.3-1.2C171.7,295.2,173.3,296.2,174.8,296.9z"/>
	<path class="st31" d="M181,240.8l-1.4,28c0,0-1.7,4.1-2.5,6.5c-0.9,2.7-0.7,3.2-3.4,11.4c-0.2,0.7,3.5,1.9,3.5,1.9l8.8-19l6.2-28.8
		H181z"/>
	<path class="st27" d="M186.4,241.6l-3.4,4.8l0.5-4.7L186.4,241.6z"/>
	<path class="st32" d="M183.4,240.9l-1.9,28.7c0,0,0,0,0,0l-7.2,17.9"/>
	<path class="st27" d="M173.5,286.2c0-0.1,0.2-0.1,0.3-0.1l3.9,2c0.1,0.1,0.1,0.2,0.1,0.3l-0.6,1.2c0,0.1-0.2,0.1-0.3,0.1l-3.9-2
		c-0.1-0.1-0.1-0.2-0.1-0.3L173.5,286.2z"/>
	<path class="st19" d="M196.4,220.5l3.6,7.7l1.1-7.7c0.1-1,0.2-1.5,0.2-1.6c0.1-0.4-0.4-1.3-0.5-2.2l0-0.1c-0.1-0.9-0.4-1.9-0.3-2.2
		c0-0.3,0.4-0.1,0.7,0.1c0.6,0.4,0.5,1,0.9,1.8c0.1,0.3,1.3-2.4,1.8-2.4c0.5,0,1.9,2.3,1.9,3c0,0.5-0.7,1.4-2.1,2.9l-0.5,12.2
		c-0.1,1.5-1.4,2.7-2.9,2.6c-1,0-1.9-0.6-2.3-1.5l-5.4-10.6L196.4,220.5z"/>
	<path class="st29" d="M195.6,217.8c-0.5-1.2-2-1.7-3.1-1.1l-0.4,0.2c-1.1,0.6-1.6,2-1,3.1l6.9,13c1.2,2.3,4.7,1.8,5.2-0.8l0.8-3.9
		l-3.7-1.4l-0.1,0.6L195.6,217.8z"/>
	<path class="st33" d="M195.4,219.5c0,0,2.5,4.5,2.5,5.8c0,1.3-1.3,5.3-1.3,5.3l-1.6-3.1L195.4,219.5z"/>
	<path class="st33" d="M200,227.5l-0.4,2.8v-3.8L200,227.5z"/>
	<path class="st19" d="M180.3,219.5c-0.4-1.4,0.6-2.8,2-3l6.2-0.8l5,0.6c0.3,0,0.6,0.2,0.8,0.5c0.7,1.5,2.8,6.1,2.9,8
		c0.1,1.8-1.6,3.9-1.6,5.7c0,1.9,1.2,10.7,1.2,10.7l-17,0.9c-0.1,0-0.3-0.1-0.2-0.3l3.3-11.6L180.3,219.5z"/>
	<path class="st34" d="M180.3,219.5c-0.4-1.4,0.6-2.8,2-3l3.7-0.5c0,0,2,3.2,4.4,3c2.4-0.2,1-3,1-3l2.2,0.2c0.3,0,0.6,0.2,0.8,0.5
		c0.7,1.5,2.8,6.1,2.9,8c0.1,1.8-1.6,3.9-1.6,5.7c0,1.9,1.2,10.7,1.2,10.7l-17,0.9c-0.1,0-0.3-0.1-0.2-0.3l3.3-11.6L180.3,219.5z"/>
	<path class="st33" d="M184.3,220.4l-1.6,8.2l-1.3-4.4L184.3,220.4z"/>
	<path class="st19" d="M183.2,221.7l-5.3,8.6c0,0,8.2,3.2,10.8,3.9c0.9,0.3,2.1-2,3.4-1.7c0.5,0.1-1.5,2-0.5,2.1
		c2.1,0.4,3.8,0.7,4,1.2c0.2,0.6-2.2,1.9-3.2,2.1c-0.6,0.1-2.3-0.5-4.3-1.1c-1.4-0.4-7.2-1.6-11.5-2.6c-2.3-0.5-3.5-3.1-2.3-5.2
		l5.4-9.5L183.2,221.7z"/>
	<path class="st29" d="M180,218.2c0.6-1.2,2.2-1.6,3.3-0.8l0.4,0.3c1,0.7,1.3,2,0.7,3.1l-5.7,9.4l2.1,0.9l-1.4,4.2l-4.3-1.2
		c-1.7-0.5-2.6-2.4-1.7-4L180,218.2z"/>
	<path class="st35" d="M186.4,204.6c2.2-4.4,7.7-1.8,8.7,1.2c0.5,1.6,0.8,5.5-0.3,7.3c-0.5,0.9-1,3.3-1,3.3l-5-0.4l-6.6,0.5
		c0,0,0.1-2.6,0.8-3.4c0.7-0.9,1.1-1.4,1.1-3.6S184.4,204.6,186.4,204.6z"/>
	<path class="st19" d="M187.1,216.1c0,1,0.8,1.7,1.7,1.7c1,0,1.8-0.9,1.7-1.9l-0.2-2.3c0,0,2.2,0.2,2.9-0.9s0.6-6.5,0.6-6.5h-6.8
		c0,0,0,1.4,0,1.8c-2.1,0-2.1,2.5,0,2.5C187.1,212.2,187.1,214.5,187.1,216.1z"/>
	<path class="st24" d="M190.4,213.6c0,0-0.6-0.1-1.1-0.2c-0.5-0.2-1.1-0.5-1.1-0.5s0.9,0.8,1.3,1.2c0.4,0.4,1.1,0.7,1.1,0.7
		L190.4,213.6z"/>
	<path class="st24" d="M192.6,209.3v1.8c0,0,0.8-0.4,0.8-0.5C193.3,210.4,192.6,209.3,192.6,209.3z"/>
	<path class="st35" d="M192,206.4c0,0,0.6,1.4,1.1,1.8c0.5,0.4,1.4,0.6,1.4,0.6l0.1-3.2l-7.8-0.6v2.9c0,0,2.2,1.3,3.4,0.6
		C191.4,207.8,192,206.4,192,206.4z"/>
	<path class="st36" d="M349.9,221.4l6.9,8.8c0.5,0.7,0.6,1.6,0.1,2.3l-6.2,10.3c0,0,0.3,4.3-1.3,4.9c-0.3,0.1-0.8,2.6-1.5,1.8
		c-0.2-0.2-0.3-4.8-0.3-4.8l0.7-3.4l3-10l-5.1-7L349.9,221.4z"/>
	<path class="st9" d="M341.7,247.4c-0.7,0-1.2-0.5-1.2-1.2s0.5-1.2,1.2-1.2s1.2,0.5,1.2,1.2S342.4,247.4,341.7,247.4z"/>
	<path class="st9" d="M359.5,244.9h-17.8v2.5l17.8,0.2V244.9z"/>
	<path class="st10" d="M359.5,247.6c-0.7,0-1.3-0.6-1.3-1.3s0.6-1.3,1.3-1.3c0.7,0,1.3,0.6,1.3,1.3S360.2,247.6,359.5,247.6z"/>
	<path class="st9" d="M360.4,245.3L360.4,245.3c0,0.2,0,0.4,0,0.6c0,0.7-0.6,1.3-1.3,1.3c-0.3,0-0.5,0-0.7-0.2l0,0l-0.1,0.1
		c0.3,0.3,0.6,0.4,1,0.4c0.8,0,1.4-0.6,1.4-1.4C360.6,245.8,360.6,245.6,360.4,245.3L360.4,245.3z"/>
	<path class="st10" d="M342.2,245.6c-0.7,0-1.3-0.5-1.3-1.2s0.5-1.3,1.2-1.3c0.7,0,1.3,0.5,1.3,1.2
		C343.4,245,342.9,245.6,342.2,245.6z"/>
	<path class="st10" d="M359.8,242.3l-17.8,0.9l0.1,2.5l17.8-0.7L359.8,242.3z"/>
	<path class="st9" d="M360,244.9c-0.7,0-1.4-0.5-1.4-1.3c0-0.7,0.5-1.4,1.3-1.4c0.7,0,1.4,0.5,1.4,1.3
		C361.3,244.3,360.7,244.9,360,244.9z"/>
	<path class="st10" d="M360.8,242.5L360.8,242.5c0,0.2,0,0.4,0,0.6c0,0.7-0.5,1.3-1.2,1.3c-0.3,0-0.5,0-0.7-0.2l0,0l-0.1,0.1
		c0.3,0.2,0.6,0.4,1,0.4c0.8,0,1.4-0.7,1.3-1.5C361,243.1,361,242.8,360.8,242.5L360.8,242.5z"/>
	<path class="st37" d="M347.2,217c-1-1.1-2.7-1.2-3.8-0.3l-0.5,0.5c-1.1,1-1.2,2.7-0.3,3.8l6,7l4.6-4L347.2,217z"/>
	<path class="st38" d="M347.2,222.1l1.7,5.6l-0.3,0.3l-1.1-1.3L347.2,222.1z"/>
	<path class="st15" d="M355.5,288.1l-3.4,1.4l2.6,4.5l3.1-1.3L355.5,288.1z"/>
	<path class="st39" d="M356.5,290c0,0,0.6,1.4,1.3,2.2c0.3,0.4,0.9,1.1,1.5,2.1c0.1,0.2-3.6,3-6.8,4.3c-2,0.8-4.1,0.4-4.1,0.3
		c-0.1-0.6,0.1-1,0.6-1.3c1-0.6,2.8-0.7,3.2-1.4s1.2-4.7,1.2-4.7s0.9-0.1,1.4-0.4C355.3,290.9,356.5,290,356.5,290z"/>
	<path class="st15" d="M349,297.7c-0.7,0.4-0.8,1-0.3,1.9l0.6,0c2,0,3.3-0.1,3.7-0.2l0.4-0.2l0.3-0.2c1-0.6,3.1-1.9,6.3-3.8
		l-0.2-0.3c-0.2-0.3-0.4-0.6-0.6-0.9l-1.3,0.8c-3.1,2-5,3.1-5.5,3.3c-0.6,0.2-1.3,0.3-2.1,0.1l-0.1-1
		C349.7,297.4,349.4,297.5,349,297.7z"/>
	<path class="st40" d="M347.2,240.3l1.3,27.5c0,0,1.7,2.2,3.2,6c0.9,2.3,2.5,7.5,4.6,15.5c0.2,0.8-3.4,2.2-3.4,2.2l-11.5-23.1
		l-5.8-28.1H347.2z"/>
	<path class="st11" d="M328.1,291h-3.7l-0.7,5.2h3.4L328.1,291z"/>
	<path class="st41" d="M327.5,293.5c0,0-0.2,1.5,0,2.6c0.1,0.5,0.2,1.4,0.3,2.6c0,0.3-12.2-0.3-12.2-0.5c0.2-0.6,0.5-0.8,1.1-0.8
		c1.2,0,3.2-0.2,3.9-0.6c0.7-0.4,3.4-3.4,3.4-3.4s0.9,0.3,1.4,0.3C326,293.6,327.5,293.5,327.5,293.5z"/>
	<path class="st15" d="M317.9,297.3c-0.4,0-0.9,0-1.2,0c-0.8,0-1.2,0.5-1.2,1.5c1.6,0.7,2.9,1.1,3.9,1.1c0.3,0,1.8-0.4,3.5-0.4
		c0.6,0,1.2,0.3,2.1,0.3l2.5-0.1c0.1,0,0.3,0,0.5,0l0-0.6c0-0.3,0-0.6-0.1-0.8l-0.3,0c-1.1,0.2-1.9,0.3-2.5,0.3
		c-0.7,0-1.5-0.4-2.1-0.4l-0.4,0c-1.8,0-3.1,0.2-3.4,0.1c-0.7-0.1-1.2-0.3-1.6-0.4L317.9,297.3z"/>
	<path class="st42" d="M327.7,293.1h-3.8l1.5-23.6l5.7-28.2h13.3c0,0-0.7,3.8-1.8,6c-1.1,2.2-4.1,5-4.1,5l-6.4,17.1
		c0,0,0.1,5.2-0.5,8.5C331,281.4,327.7,293.1,327.7,293.1z"/>
	<path class="st40" d="M332.3,242.3l1.4,4.8l1.4-4.7L332.3,242.3z"/>
	<path class="st43" d="M335,242.3l-7.9,27.1c0,0,0,0,0,0l-2,23.7"/>
	<path class="st44" d="M333.8,208.2l-1,2c0,0.1,0,0.1,0.1,0.1l1,0.3V208.2z"/>
	<path class="st36" d="M340.7,216.5h-4.4l0.4-2.1c0,0-1.8,0.2-2.6-1c-0.8-1.2-0.7-7.2-0.7-7.2h7.3V216.5z"/>
	<path class="st45" d="M341.1,212.5c-0.1,0.3-0.4,0.5-0.7,0.5h-1.2c-0.3,0-0.6-0.2-0.8-0.5c-0.2-0.6-0.5-1.6-0.6-2.5
		c-0.2-1.4-1.4-1.7-1.4-1.7l-0.2,1.4c0,0.2-0.2,0.4-0.5,0.4c-0.3,0-0.5-0.2-0.5-0.5v-1.9c0-0.6-0.4-1-1-1.1l-0.9-0.2
		c0,0-0.1-2.1,1-3c1.1-1,4-1.1,5.6-0.5c1.6,0.5,2.9,2.2,2.8,4.1C342.7,208.4,341.6,211.3,341.1,212.5z"/>
	<path class="st45" d="M340.7,211.8c-1.5,0-2.7-1.2-2.7-2.7s1.2-2.7,2.7-2.7c1.5,0,2.7,1.2,2.7,2.7S342.2,211.8,340.7,211.8z"/>
	<path class="st45" d="M341.5,208.8c-1.5,0-2.7-1.2-2.7-2.7c0-1.5,1.2-2.7,2.7-2.7c1.5,0,2.7,1.2,2.7,2.7
		C344.2,207.6,343,208.8,341.5,208.8z"/>
	<path class="st45" d="M337.3,206.1c-1.6,0-2.9-1.3-2.9-2.9s1.3-2.9,2.9-2.9c1.6,0,2.9,1.3,2.9,2.9S338.9,206.1,337.3,206.1z"/>
	<path class="st45" d="M340.6,205.3c-1,0-1.8-0.8-1.8-1.8c0-1,0.8-1.8,1.8-1.8s1.8,0.8,1.8,1.8C342.4,204.5,341.6,205.3,340.6,205.3
		z"/>
	<path class="st45" d="M334.1,206c-1.4,0-2.6-1.2-2.6-2.6c0-1.4,1.2-2.6,2.6-2.6c1.4,0,2.6,1.2,2.6,2.6
		C336.7,204.8,335.6,206,334.1,206z"/>
	<path class="st45" d="M333.1,206.7c-1.1,0-2.1-0.9-2.1-2.1s0.9-2.1,2.1-2.1c1.1,0,2.1,0.9,2.1,2.1S334.2,206.7,333.1,206.7z"/>
	<path class="st45" d="M334.9,207.6c-1.4,0-2.6-1.2-2.6-2.6c0-1.4,1.2-2.6,2.6-2.6c1.4,0,2.6,1.2,2.6,2.6
		C337.4,206.5,336.3,207.6,334.9,207.6z"/>
	<path class="st44" d="M336.8,214.4l0.9-0.1l-1.3,2.2L336.8,214.4z"/>
	<path class="st37" d="M329.9,218.4c0-1.3,1-2.3,2.3-2.3h12.4c1.2,0,2.2,0.9,2.3,2.1l1.9,23.9l-18.9,1V218.4z"/>
	<path class="st34" d="M329.9,239.5l0,0.7l18.6-0.7l0.2,2.6l-18.9,1V239.5z M348.2,234.7l0.2,2.5l-18.5,0.6v-2.5L348.2,234.7z
		 M347.8,230.2l0.2,2.3l-18.1,0.6v-2.3L347.8,230.2z M347.4,225.5l0.2,2.5l-17.7,0.6v-2.5L347.4,225.5z M347.1,221l0.2,2.3
		l-17.4,0.6v-2.3L347.1,221z M344.6,216.1c1.2,0,2.2,0.9,2.3,2.1l0,0.5l-17,0.6v-0.9c0-1.3,1-2.3,2.3-2.3l3.8,0c0,0,0,0.1,0,0.1
		c0,0.2,0.2,0.4,0.4,0.4l0,0h4.5c0.2,0,0.4-0.2,0.4-0.4c0,0,0-0.1,0-0.1L344.6,216.1z"/>
	<path class="st38" d="M333.9,222.2l-4,13.3v-7.7L333.9,222.2z"/>
	<path class="st36" d="M328,223.4l-2.3,4.6l-8.6-8.3c0,0-0.1-0.1-0.1-0.1l-0.5-3.1c0,0-1.9-3.3-2.2-2.1c-0.1,0.4,1.1,1,0.9,2.4
		c0,0.3-2.3-1.4-3.3-2.1c-0.1-0.1-0.4,0-0.3,0.2l0.6,3.7c0,0,0,0.1,0.1,0.1l3.1,2.6l8,10.9c1.2,1.7,3.8,1.5,4.8-0.3l3.8-6.6
		L328,223.4z"/>
	<path class="st37" d="M329.7,217.6c0.6-1.3,2.3-1.9,3.6-1.2l0.6,0.3c1.3,0.6,1.9,2.3,1.2,3.6l-4,8.2l-5.5-2.7L329.7,217.6z"/>
	<path class="st19" d="M307.2,215c0,0-1.1-1.1-1.4-1.5c-0.4-0.6-0.3-0.9,0-0.7c0.7,0.3,1.6,1.2,1.6,1.2L307.2,215z"/>
	<path class="st19" d="M298.2,222.2l6.1,4.4c0,0,2.8-7.3,3.2-10.2c0.1-0.4-0.5-1-0.5-1.4c0-0.8,0.7-5.3,0.9-5.3
		c0.5,0,0.2,2.8,0.2,2.8s2.5,0.2,2.5,0.6c0,2.6-0.6,3.3-0.6,3.4c0,0.7-1.2,7.8-2,12.7c-0.3,2-2.7,3-4.4,1.7l-7.7-5.9L298.2,222.2z"
		/>
	<path class="st46" d="M297.7,220.5c-1-0.9-2.6-0.8-3.5,0.2l-0.5,0.5c-1.1,1.1-0.9,3,0.4,3.9l3.7,2.5l2.9-4.6L297.7,220.5z"/>
	<path class="st47" d="M297.2,223.6l0.3,3.8l-0.9-0.6L297.2,223.6z"/>
	<path class="st21" d="M300.7,223c0,0-0.1,0-0.1,0l-3.4,4.1c0,0,0,0.1,0,0.1l1,0.8c0,0,0.1,0,0.1,0l3.3-4.1c0,0,0-0.1,0-0.1
		L300.7,223z"/>
	<path class="st48" d="M306,232.5c0-0.2-0.2-0.4-0.4-0.4h-10.8c-0.1,0-0.2,0-0.3,0.1l-0.3,0.3c0,0-0.1,0.1-0.1,0.2v12.8
		c0,0.2,0.2,0.4,0.4,0.4h10.8l1.1-0.3c0.2-0.1,0.3-0.2,0.3-0.5L306,232.5z"/>
	<path class="st48" d="M299.3,222c-0.2-0.7-0.8-1.3-1.5-1.7l-0.4-0.2l4.6,16.1l1.6-0.2L299.3,222z"/>
	<path class="st8" d="M305.3,233c0-0.2-0.2-0.4-0.4-0.4h-10.5c-0.2,0-0.4,0.2-0.4,0.4v12.5c0,0.2,0.2,0.4,0.4,0.4h10.9
		c0.3,0,0.5-0.2,0.4-0.5L305.3,233z"/>
	<path class="st8" d="M298.9,221.4c-0.2-0.9-1.1-1.4-2-1.3l3.7,14.3h1.8L298.9,221.4z"/>
	<path class="st10" d="M301.3,233.9c-0.2,0-0.4-0.2-0.4-0.4c0-0.2,0.2-0.4,0.4-0.4s0.4,0.2,0.4,0.4
		C301.7,233.7,301.5,233.9,301.3,233.9z"/>
	<path class="st19" d="M307.8,296.8c-0.8,0.6-4.9,2.3-4.9,2.3s-2.8,0.6-3.1,0.6c-0.5,0-0.1-0.8,0.3-1.1c0.5-0.4,1.3-1.1,1.9-1.8
		c1-1.1,1.9-2.1,1.7-2.9c-0.2-0.9-2.4-4.5-2.4-4.5l3.3-1.5l3.6,7.6C308.2,295.5,308.6,296.2,307.8,296.8z"/>
	<path class="st49" d="M307.4,292.8c0.2,0.2,1.2,1.5,1.2,1.5l0.3,0.7c0,0-4.1,3.3-5.6,4c-1.5,0.7-4.7,1.2-4.7,1.2s-0.2-0.8-0.1-1
		c0.2-0.2,2.1-1.5,2.3-1.8s2.1-2.7,2.5-3c0.5-0.2,0.6-0.2,1.1-0.1c0.5,0.1,1.3,0,2-0.5c0.7-0.5,0-1,0.1-1.2
		C306.9,292.6,307.2,292.6,307.4,292.8z"/>
	<path class="st50" d="M308.8,294.2c0.2,0,1.1,1.6,1.1,1.7c-0.1,0.1-0.4,0.9-2.2,1.8c-1.8,0.9-5,2.5-6.3,2.8c-1.3,0.3-2.8,0-2.9-0.1
		c-0.1-0.2-0.1-0.2-0.1-0.3c0.1,0,2.9-0.5,3.6-0.9c0.4-0.2,4.9-2.6,4.9-2.6S308.7,294.2,308.8,294.2z"/>
	<path class="st35" d="M297.5,242.2c0,0,1,3,1.1,5.9c0.1,3-0.5,5.9-0.5,5.9l0.8,16.1c0,0,1.7,4.1,2.5,6.5c0.9,2.7,0.7,3.2,3.4,11.4
		c0.2,0.7-3.5,1.9-3.5,1.9l-8.8-19l-6.2-28.8H297.5z"/>
	<path class="st19" d="M276.7,300.3c-0.9,0.2-3.7,0-5.8,0.1c-0.9,0.1-2.8-0.1-3.1-0.3c-0.5-0.2,0.3-0.8,0.7-1c0.8-0.3,2-0.8,2.8-1.2
		c1.3-0.6,2.6-1.1,2.8-2c0.1-0.9,0.6-5.2,0.6-5.2l3.6-0.2c0,0-0.9,5.3-0.8,5.8s0.1,2.8,0.1,2.8S277.6,300.1,276.7,300.3z"/>
	<path class="st34" d="M277.9,296.3c0.1,0.2,0.5,1.8,0.5,1.8l0,0.8c0,0-5,1.3-6.7,1.4c-1.7,0.1-4.8-0.8-4.8-0.8s0.1-0.8,0.3-0.9
		c0.2-0.1,2.5-0.5,2.8-0.7c0.3-0.2,3-1.7,3.5-1.7c0.5,0,0.7,0.1,1.1,0.3c0.4,0.3,1.2,0.6,2,0.4c0.8-0.2,0.4-0.9,0.6-1
		C277.6,295.9,277.8,296,277.9,296.3z"/>
	<path class="st50" d="M278.7,298.1c0.2,0.1,0.4,1.9,0.3,2c-0.1,0.1-0.7,0.7-2.8,0.8c-2,0.1-5.6,0.3-6.9,0c-1.3-0.2-2.5-1.1-2.6-1.3
		c0-0.2,0-0.3,0.1-0.3c0.1,0,2.9,0.8,3.7,0.6c0.4-0.1,5.5-0.4,5.5-0.4S278.6,298.1,278.7,298.1z"/>
	<path class="st51" d="M278.3,291.7h-3.8l0.9-19.7l6.8-28.9h12.7c0,0-0.5,3.5-1.2,5.2c-0.7,1.7-3.9,4.4-3.9,4.4l-8.1,19.2
		c0,0-0.4,6.5-1.1,10.1S278.3,291.7,278.3,291.7z"/>
	<path class="st35" d="M282.8,243.8l1.4,4.7l1.4-4.7L282.8,243.8z"/>
	<path class="st52" d="M285.9,243.2l-8.5,28.5l-1.8,20"/>
	<path class="st24" d="M286,213.1v1.8c0,0-0.8-0.4-0.8-0.5C285.3,214.2,286,213.1,286,213.1z"/>
	<path class="st19" d="M292.3,219.3h-3.9l0.4-1.8c0,0-1.6,0.2-2.4-0.9c-0.7-1.1-0.6-6.5-0.6-6.5h6.5V219.3z"/>
	<path class="st53" d="M290.9,217.1c-1.3,0-4.2-2.4-4.5-5.4s0.2-5.2,3.9-4.5c3.3-0.9,5.5,2.3,5.5,4.5c0,2.5-2.7,5.4-3.5,5.4
		C292.1,217,291.4,217.1,290.9,217.1z"/>
	<path class="st21" d="M294.2,212.4c-1.1,0-2-0.9-2-2c0-1.1,0.9-2,2-2c1.1,0,2,0.9,2,2C296.2,211.5,295.3,212.4,294.2,212.4z"/>
	<path class="st53" d="M295.2,212.3c-1.4,0-2.6-1.1-2.6-2.6c0-1.4,1.1-2.6,2.6-2.6s2.6,1.1,2.6,2.6
		C297.8,211.2,296.6,212.3,295.2,212.3z"/>
	<path class="st24" d="M288.7,217.5l0.8-0.1l-1.2,2L288.7,217.5z"/>
	<path class="st53" d="M287,212.2c0,0-1.9-1.9-1.5-3.2c0.8-2.6,5.2-1.7,5.2-1.7L287,212.2z"/>
	<path class="st46" d="M298,222.5c0.3-1.4-0.5-2.7-1.9-2.9c-1.7-0.3-4-0.5-5.5-0.6c-2.2-0.1-4.8,0.3-5.9,0.4c-0.3,0-0.6,0.2-0.7,0.5
		c-0.7,1.5-2.8,6.1-2.9,8.1c-0.1,1.8,1.6,3.9,1.6,5.7c0,1.9-1.2,10.7-1.2,10.7l17,0.9c0.1,0,0.3-0.1,0.2-0.3l-3.3-11.6L298,222.5z"
		/>
	<path class="st21" d="M287.8,219l0,0.2c0,0.2,0.1,0.3,0.3,0.3c1,0.1,1.9,0.2,2.7,0.2c0.8,0,1.4,0,2.1-0.1c0.2,0,0.3-0.1,0.3-0.3
		l0-0.3c-0.9-0.1-1.8-0.2-2.5-0.2C289.7,218.9,288.8,218.9,287.8,219z"/>
	<path class="st47" d="M286.7,223.9c-0.5,2.5-4.1,9.1-4.1,9.1l-0.7-2.1l3.8-7.8C285.6,223.1,287.1,221.4,286.7,223.9z"/>
	<path class="st19" d="M282.4,221.9l-4.3,8.7l-5.3-7.9c0,0,0-0.1,0-0.1l-0.3-3c0,0-1.2-2.9-1.6-2c-0.2,0.4,0.2,1,0,2.3
		c0,0.3-2.1-1.1-3-1.8c-0.1-0.1-0.3,0-0.3,0.2l0.6,3.3c0,0,0,0.1,0.1,0.1l3,2.5l4,9.8c0.9,2.1,3.8,2.3,4.9,0.3l6-10.7L282.4,221.9z"
		/>
	<path class="st46" d="M282.1,220.8c0.6-1.2,2.2-1.7,3.4-1.1l0.2,0.1c1.3,0.7,1.8,2.3,1.1,3.6l-2.8,4.8l-4.2-2.7L282.1,220.8z"/>
	<path class="st21" d="M279.5,225.2c0-0.1,0.1-0.1,0.1,0l4.6,2.6c0,0,0.1,0.1,0,0.1l-0.6,1c0,0-0.1,0.1-0.1,0l-4.6-2.7
		c0,0-0.1-0.1,0-0.1L279.5,225.2z"/>
</g>
</svg>
