<?xml version="1.0" encoding="utf-8"?>
<!-- Generator: Adobe Illustrator 19.0.0, SVG Export Plug-In . SVG Version: 6.00 Build 0)  -->
<svg version="1.1" id="图层_1" xmlns="http://www.w3.org/2000/svg" xmlns:xlink="http://www.w3.org/1999/xlink" x="0px" y="0px"
	 viewBox="-106.2 5 57.4 69.9" style="enable-background:new -106.2 5 57.4 69.9;" xml:space="preserve">
<style type="text/css">
	.st0{clip-path:url(#SVGID_2_);}
	.st1{fill:url(#SVGID_3_);}
	.st2{fill:url(#SVGID_4_);}
	.st3{fill:url(#SVGID_5_);}
	.st4{fill:url(#SVGID_6_);}
	.st5{fill:url(#SVGID_7_);}
</style>
<g>
	<defs>
		<rect id="SVGID_1_" x="-106.2" y="5" width="57.4" height="69.9"/>
	</defs>
	<clipPath id="SVGID_2_">
		<use xlink:href="#SVGID_1_"  style="overflow:visible;"/>
	</clipPath>
	<g class="st0">
		
			<linearGradient id="SVGID_3_" gradientUnits="userSpaceOnUse" x1="-93.8349" y1="14.378" x2="-43.7775" y2="9.8461" gradientTransform="matrix(1 0 0 -1 0 80)">
			<stop  offset="0" style="stop-color:#F32B44"/>
			<stop  offset="0.6" style="stop-color:#A4070A"/>
		</linearGradient>
		<path class="st1" d="M-92.2,60.1c-2,0-3.6,1.5-3.6,3.5c0,1.3,0.8,2.4,1.9,3l13.9,7.5c1.1,0.6,2.3,0.9,3.6,0.9
			c0.8,0,1.7-0.1,2.4-0.4l4.8-1.3V60.1C-69.2,60.1-92.2,60.1-92.2,60.1z"/>
		
			<linearGradient id="SVGID_4_" gradientUnits="userSpaceOnUse" x1="-59.9329" y1="11.3086" x2="-82.1557" y2="13.3207" gradientTransform="matrix(1 0 0 -1 0 80)">
			<stop  offset="0" style="stop-color:#000000;stop-opacity:0.4"/>
			<stop  offset="1" style="stop-color:#000000;stop-opacity:0"/>
		</linearGradient>
		<path class="st2" d="M-92.2,60.1c-2,0-3.6,1.5-3.6,3.5c0,1.3,0.8,2.4,1.9,3l13.9,7.5c1.1,0.6,2.3,0.9,3.6,0.9
			c0.8,0,1.7-0.1,2.4-0.4l4.8-1.3V60.1C-69.2,60.1-92.2,60.1-92.2,60.1z"/>
		
			<linearGradient id="SVGID_5_" gradientUnits="userSpaceOnUse" x1="-74.751" y1="78.1498" x2="-111.633" y2="23.6418" gradientTransform="matrix(1 0 0 -1 0 80)">
			<stop  offset="0" style="stop-color:#800600"/>
			<stop  offset="0.6" style="stop-color:#C72127"/>
			<stop  offset="0.7278" style="stop-color:#C13959"/>
			<stop  offset="0.8473" style="stop-color:#BC4B81"/>
			<stop  offset="0.942" style="stop-color:#B95799"/>
			<stop  offset="1" style="stop-color:#B85BA2"/>
		</linearGradient>
		<path class="st3" d="M-74.3,5.3C-75,5.1-75.7,5-76.4,5c-1.1,0-2.3,0.2-3.3,0.7c-0.2,0.1-22.6,12.3-22.6,12.3
			c-0.3,0.1-0.6,0.3-0.9,0.5c0,0-0.1,0-0.1,0.1c-0.2,0.1-0.3,0.3-0.5,0.4c-0.1,0.1-0.2,0.1-0.2,0.2c-0.1,0.1-0.2,0.2-0.3,0.3
			c-0.3,0.3-0.7,0.9-0.7,0.9c-0.8,1.1-1.2,2.4-1.2,3.9v32.4c0,1.9,1.6,3.5,3.6,3.5c0.5,0,1-0.1,1.4-0.3l6.4-3.5
			c1.2-0.6,2.1-1.5,2.6-2.7c0.1-0.2,0.2-0.5,0.3-0.8c0-0.1,0-0.2,0-0.2c0,0,0-0.1,0-0.1c0-0.1,0-0.3,0-0.4c0-0.1,0-0.2,0-0.3
			c0,0,0-17.2,0-17.2c0-4.2,0-5.4,0-5.4c0-1.5,0.7-2.9,1.7-3.8c0,0-0.5,0.4,0,0c0.5-0.4,1.2-0.8,1.9-1.1c0.8-0.3,19-6.6,19-6.6V6.8
			L-74.3,5.3z"/>
		
			<linearGradient id="SVGID_6_" gradientUnits="userSpaceOnUse" x1="-73.9965" y1="79.2649" x2="-81.8069" y2="67.7219" gradientTransform="matrix(1 0 0 -1 0 80)">
			<stop  offset="0" style="stop-color:#000000;stop-opacity:0.4"/>
			<stop  offset="1" style="stop-color:#000000;stop-opacity:0"/>
		</linearGradient>
		<path class="st4" d="M-74.3,5.3C-75,5.1-75.7,5-76.4,5c-1.1,0-2.3,0.2-3.3,0.7c-0.2,0.1-22.6,12.3-22.6,12.3
			c-0.3,0.1-0.6,0.3-0.9,0.5c0,0-0.1,0-0.1,0.1c-0.2,0.1-0.3,0.3-0.5,0.4c-0.1,0.1-0.2,0.1-0.2,0.2c-0.1,0.1-0.2,0.2-0.3,0.3
			c-0.3,0.3-0.7,0.9-0.7,0.9c-0.8,1.1-1.2,2.4-1.2,3.9v32.4c0,1.9,1.6,3.5,3.6,3.5c0.5,0,1-0.1,1.4-0.3l6.4-3.5
			c1.2-0.6,2.1-1.5,2.6-2.7c0.1-0.2,0.2-0.5,0.3-0.8c0-0.1,0-0.2,0-0.2c0,0,0-0.1,0-0.1c0-0.1,0-0.3,0-0.4c0-0.1,0-0.2,0-0.3
			c0,0,0-17.2,0-17.2c0-4.2,0-5.4,0-5.4c0-1.5,0.7-2.9,1.7-3.8c0,0-0.5,0.4,0,0c0.5-0.4,1.2-0.8,1.9-1.1c0.8-0.3,19-6.6,19-6.6V6.8
			L-74.3,5.3z"/>
		
			<linearGradient id="SVGID_7_" gradientUnits="userSpaceOnUse" x1="-61.4185" y1="78.5196" x2="-61.4185" y2="10.2979" gradientTransform="matrix(1 0 0 -1 0 80)">
			<stop  offset="3.405450e-004" style="stop-color:#FFB900"/>
			<stop  offset="0.166" style="stop-color:#EF8400"/>
			<stop  offset="0.3126" style="stop-color:#E25C01"/>
			<stop  offset="0.4288" style="stop-color:#DB4401"/>
			<stop  offset="0.5" style="stop-color:#D83B01"/>
		</linearGradient>
		<path class="st5" d="M-53.8,11.1c0,0-19.9-5.6-20.2-5.7c2.9,1.1,4.8,3.6,4.8,6.6c0,0,0,54.8,0,56.1c0,3-1.9,5.5-4.8,6.5
			c0.6-0.2,20.2-5.6,20.2-5.6c2.9-0.9,5-3.5,5-6.6V17.7C-48.8,14.6-50.9,12-53.8,11.1z"/>
	</g>
</g>
</svg>
