<?xml version="1.0" standalone="no"?><!DOCTYPE svg PUBLIC "-//W3C//DTD SVG 1.1//EN" "http://www.w3.org/Graphics/SVG/1.1/DTD/svg11.dtd"><svg t="1652176834198" class="icon" viewBox="0 0 1024 1024" version="1.1" xmlns="http://www.w3.org/2000/svg" p-id="15351" xmlns:xlink="http://www.w3.org/1999/xlink" width="200" height="200"><defs><style type="text/css">@font-face { font-family: feedback-iconfont; src: url("//at.alicdn.com/t/font_1031158_u69w8yhxdu.woff2?t=1630033759944") format("woff2"), url("//at.alicdn.com/t/font_1031158_u69w8yhxdu.woff?t=1630033759944") format("woff"), url("//at.alicdn.com/t/font_1031158_u69w8yhxdu.ttf?t=1630033759944") format("truetype"); }
</style></defs><path d="M860.084 294.439c0 30.008-24.265 54.374-54.241 54.374H218.155c-29.943 0-54.241-24.366-54.241-54.374 0-30.041 24.298-54.373 54.241-54.373h587.688c29.976-0.001 54.241 24.33 54.241 54.373z m0 222.076c0 30.008-24.265 54.373-54.241 54.373H218.155c-29.943 0-54.241-24.365-54.241-54.373 0-30.042 24.298-54.375 54.241-54.375h587.688c29.976 0 54.241 24.333 54.241 54.375z m0 213.013c0 30.041-24.265 54.406-54.241 54.406H218.155c-29.943 0-54.241-24.365-54.241-54.406 0-30.04 24.298-54.407 54.241-54.407h587.688c29.976 0 54.241 24.366 54.241 54.407z" p-id="15352"></path></svg>