<?xml version="1.0" encoding="utf-8"?>
<!-- Generator: Adobe Illustrator 19.0.0, SVG Export Plug-In . SVG Version: 6.00 Build 0)  -->
<svg version="1.1" id="图层_1" xmlns="http://www.w3.org/2000/svg" xmlns:xlink="http://www.w3.org/1999/xlink" x="0px" y="0px"
	 viewBox="-49 -41 200 163" style="enable-background:new -49 -41 200 163;" xml:space="preserve">
<style type="text/css">
	.st0{fill:#FFFFFF;}
</style>
<path class="st0" d="M149.6-21.6c0,8.6-6.8,15.4-15.4,15.4H-32.2c-8.4,0-15.4-7-15.4-15.4c0-8.6,6.8-15.4,15.4-15.4h166.5
	C142.6-37,149.6-30.2,149.6-21.6L149.6-21.6z M149.6,41.3c0,8.6-6.8,15.4-15.4,15.4H-32.2c-8.4,0-15.4-7-15.4-15.4
	c0-8.6,6.8-15.4,15.4-15.4h166.5C142.6,25.9,149.6,32.7,149.6,41.3L149.6,41.3z M149.6,101.6c0,8.6-6.8,15.4-15.4,15.4H-32.2
	c-8.4,0-15.4-7-15.4-15.4c0-8.6,6.8-15.4,15.4-15.4h166.5C142.6,86.3,149.6,93.1,149.6,101.6L149.6,101.6z"/>
</svg>
