<?xml version="1.0" encoding="utf-8"?>
<!-- Generator: Adobe Illustrator 19.0.0, SVG Export Plug-In . SVG Version: 6.00 Build 0)  -->
<svg version="1.1" id="图层_1" xmlns="http://www.w3.org/2000/svg" xmlns:xlink="http://www.w3.org/1999/xlink" x="0px" y="0px"
	 viewBox="-349 151 200 200" style="enable-background:new -349 151 200 200;" xml:space="preserve">
<style type="text/css">
	.st0{fill:#FFFFFF;}
	.st1{fill:#666666;}
</style>
<path d="M-249,338.5c-48.3,0-87.5-39.2-87.5-87.5s39.2-87.5,87.5-87.5s87.5,39.2,87.5,87.5c0.1,48.2-38.9,87.4-87.2,87.5
	C-248.8,338.5-248.9,338.5-249,338.5z"/>
<path class="st0" d="M-249,338.5c-48.3,0-87.5-39.2-87.5-87.5s39.2-87.5,87.5-87.5s87.5,39.2,87.5,87.5
	c0.1,48.2-38.9,87.4-87.2,87.5C-248.8,338.5-248.9,338.5-249,338.5z"/>
<path class="st1" d="M-265.1,270c-2.4,2.5-2.3,6.4,0.1,8.8c2.4,2.4,6.3,2.4,8.7,0l23.4-23.4c2.4-2.4,2.4-6.4,0-8.8l-23.4-23.4
	c-2.5-2.4-6.4-2.3-8.8,0.1c-2.4,2.4-2.4,6.3,0,8.7l19,19L-265.1,270z"/>
</svg>
