<?xml version="1.0" encoding="utf-8"?>
<!-- Generator: Adobe Illustrator 19.0.0, SVG Export Plug-In . SVG Version: 6.00 Build 0)  -->
<svg version="1.1" id="图层_1" xmlns="http://www.w3.org/2000/svg" xmlns:xlink="http://www.w3.org/1999/xlink" x="0px" y="0px"
	 viewBox="-425 227 48 48" style="enable-background:new -425 227 48 48;" xml:space="preserve">
<style type="text/css">
	.st0{fill:#08254F;}
</style>
<path class="st0" d="M-393.9,258.1c-1.6,2.1-3.9,5.1-7.1,9.1c-3.2-4-5.5-7-7.1-9.1c-1.5-2-2.7-3.7-3.4-5c-1.1-1.8-1.7-3.9-1.7-6.2
	c0-6.7,5.4-12.1,12.1-12.1s12.1,5.4,12.1,12.1c0,2.3-0.6,4.4-1.7,6.2C-391.3,254.4-392.4,256-393.9,258.1z M-395.9,256.6
	c1.5-2,2.5-3.5,3.2-4.7c0.9-1.5,1.4-3.2,1.4-4.9c0-5.3-4.3-9.6-9.6-9.6s-9.6,4.3-9.6,9.6c0,1.7,0.5,3.4,1.3,4.9
	c0.7,1.2,1.7,2.8,3.2,4.7c1.2,1.6,2.9,3.8,5.1,6.5C-398.8,260.3-397.1,258.2-395.9,256.6z M-401,253.1c-3.5,0-6.3-2.8-6.3-6.3
	s2.8-6.3,6.3-6.3s6.3,2.8,6.3,6.3S-397.5,253.1-401,253.1z M-401,250.6c2.1,0,3.8-1.7,3.8-3.8s-1.7-3.8-3.8-3.8s-3.8,1.7-3.8,3.8
	S-403.1,250.6-401,250.6z"/>
</svg>
