<?xml version="1.0" encoding="utf-8"?>
<!-- Generator: Adobe Illustrator 19.0.0, SVG Export Plug-In . SVG Version: 6.00 Build 0)  -->
<svg version="1.1" xmlns="http://www.w3.org/2000/svg" xmlns:xlink="http://www.w3.org/1999/xlink" x="0px" y="0px"
	 viewBox="0 0 290 228" style="enable-background:new 0 0 290 228;" xml:space="preserve">
<style type="text/css">
	.st0{fill:none;}
	.st1{fill:#E0DFE6;}
	.st2{fill:#525D7D;}
</style>
<g id="pattern">
</g>
<g id="color">
</g>
<g id="lineart">
	<g>
		<path class="st0" d="M182.1,119C182.1,119,182.1,119,182.1,119C182.1,119,182.1,119,182.1,119z"/>
		<path class="st0" d="M206.6,151c0.2-0.9,0.5-1.8,0.9-2.6c-0.5,0.2-1.1,0.1-1.4-0.3c0,0.1,0,0.1,0,0.2
			C206.2,149.2,206.4,150.1,206.6,151z"/>
		<path class="st1" d="M61.6,151.7c0,0.2,0,0.4,0,0.6c-0.1,1.5-0.2,3,0.4,4.4c0.2,0.5,0.7,0.6,1.2,0.6c0.1,0.4,0.3,0.7,0.4,1.1
			c0.7,1.6,3,0.4,2.6-1.1c-0.2-0.8-0.4-1.6-0.7-2.4c0-0.1,0-0.3,0-0.4c0.1-0.1,0.2-0.3,0.2-0.5c0.1-1.1,0-2.2,0-3.4
			c0-0.6-0.5-1-1.1-1c-0.1-0.3-0.1-0.7-0.2-1c-0.2-0.8-1.4-0.6-1.4,0.2c0,0.2,0,0.5,0,0.7c-0.1-0.5-0.2-1.1-0.3-1.6
			c-0.1-0.3-0.6-0.3-0.6,0c0,0.1,0,0.1,0,0.2c0-0.1-0.1-0.1-0.1-0.2c-0.4-0.7-1.5-0.2-1.3,0.5C61,149.4,61.3,150.5,61.6,151.7z"/>
		<path class="st1" d="M66.7,152.1c3.7,2,8.5,1.4,12.6,0.8c3.5-0.6,7.1-1.8,8.2-5.6c0.5-1.6-1.3-2.6-2.6-2c-3.1,1.3-5.8,2.2-9.1,2.6
			c-3.4,0.5-6.6,0.8-9.2,3.1C66.2,151.3,66.3,151.9,66.7,152.1z"/>
		<path class="st1" d="M84.9,140.6c3.2,1.1,7.2-0.6,8.9-3.3c0.8-1.3-0.8-2.9-2.1-2.1c-1.2,0.8-2.3,1.6-3.4,2.4
			c-1.1,0.8-2.3,1.3-3.5,2C84.3,139.8,84.5,140.4,84.9,140.6z"/>
		<path class="st1" d="M90,128.3c0.7-0.2,1.3-0.7,1.8-1c0.7-0.4,1.2-0.8,1.8-1.3c0.5-0.4,0.4-1.3,0-1.7c-0.5-0.5-1.2-0.4-1.7,0
			c-0.6,0.4-1,0.9-1.5,1.4c-0.4,0.5-1,1-1.3,1.6C88.9,127.8,89.4,128.5,90,128.3z"/>
		<path class="st1" d="M88,111.2c-0.8,1.2-1.7,2.2-2.8,3.2c-0.7,0.7,0.3,1.6,1,1c1.3-1,2.3-2.1,3.1-3.4
			C90,111.1,88.6,110.3,88,111.2z"/>
		<path class="st1" d="M182.6,121.5c0.6-0.1,0.9-0.8,0.9-1.3c-0.1-0.6-0.5-0.9-1-1c0,0,0,0-0.1-0.1c0,0-0.1,0-0.2-0.1
			c0,0-0.1-0.1-0.1-0.1c0,0-0.1-0.2-0.1-0.2c0,0,0-0.2,0-0.2c0.2-0.6-0.6-1.2-1.1-0.8c-0.8,0.5-1.1,1.4-0.8,2.3
			C180.4,121.1,181.4,121.7,182.6,121.5z"/>
		<path class="st1" d="M182.1,119C182.2,119.1,182.1,119,182.1,119L182.1,119z"/>
		<path class="st1" d="M181.7,135.7c1.8,1.2,4,1.3,5.9,0.3c1.6-0.9,0.5-3.3-1.2-2.9c-1.2,0.3-2.4,0.4-3.6,0.1
			c-1.3-0.4-2.1-1.2-3-2.1c-0.3-0.3-0.7-0.1-0.8,0.3C178.8,133.1,180.3,134.8,181.7,135.7z"/>
		<path class="st1" d="M195.8,143.4c-2.5-0.3-8-1.1-9.1-3.7c-0.3-0.7-1.2-0.4-1.4,0.2c-1.4,3.5,2.9,5.9,5.6,7
			c3.6,1.5,8.9,2.6,12.8,1.1c-0.1,1.4,0,3,0.3,4.3c0.2,1.3,1.8,1.3,2.5,0.4c0,0.2,0,0.3,0,0.5c0.1,1.7,2.4,2.5,3.3,0.9
			c1-1.7,1.1-4.1,1.4-6c0.3-2,0.7-4,0.6-6c0-0.6-0.8-0.8-1.1-0.3c-0.4,0.6-0.8,1.3-1.1,2c0.1-0.3,0.2-0.7,0.3-1
			c0.3-0.8-1-1.4-1.4-0.6c-0.8,1.7-1.6,3.4-2.3,5.1c0-0.5-0.1-1.1-0.2-1.6c0.1-1-0.3-2.1-1.5-2.3C201.5,143,198.7,143.7,195.8,143.4
			z M207.5,148.4c-0.3,0.9-0.7,1.7-0.9,2.6c-0.2-0.9-0.4-1.8-0.5-2.7c0-0.1,0-0.1,0-0.2C206.4,148.5,207,148.6,207.5,148.4z"/>
		<path class="st1" d="M139.9,152.8c-4.3-3.5-9.4-2.6-15-4.4c-8.6-2.7-14.7-14.2-16.8-22.1c-0.1-0.3-0.5-0.2-0.5,0.1
			c0.3,7.9,2.3,16,7.4,22.2c2.4,2.9,5.3,5,8.9,6c3.9,1,9.9,0.2,12.6,3.7c0.2,0.2,0.3,0.4,0.5,0.6c0.3,1.8,2.5,3,4,1.5
			c3.6-3.7,6.5-6.2,11.2-8.4c4-1.9,7.9-3.8,10.8-7.1c5.3-5.9,5.8-15,6.4-22.5c0-0.3-0.4-0.3-0.5-0.1c-2.3,9-6.1,17.8-14.7,22.3
			C149.9,146.9,143.6,148.9,139.9,152.8z"/>
		<path class="st1" d="M128.7,120.6c0-0.5-0.7-0.6-0.9-0.1c-1.3,4.7-1,10.5,0.8,15.1c0.5,1.3,2,1.4,2.8,0.8
			c4.5,1.2,11.3-3.3,15.1-5.4c3.9-2.2,7.9-4.3,8.5-9.1c0.2-2-2.6-2.4-3.5-0.9c-2.5,3.9-6.9,5.9-10.8,8c-2.8,1.5-6.8,2.7-9,5.2
			C130,129.5,129.1,125.4,128.7,120.6z"/>
		<path class="st1" d="M115.2,200.8c0,0.2-0.1,0.4-0.2,0.6c-0.8-0.4-1.7-0.3-2.5,0.5c-1,1.1-1.7,2.4-3.3,2.3c-1.5,0-3.7-0.9-3.4-2.7
			c0-0.2-0.1-0.5-0.4-0.4c-1.2,0.3-1.7,1.3-1.9,2.5c-0.2,1.9,1,3.3,2.5,4.3c3.9,2.6,8.2,0.8,10.1-3.1c0.2-0.4,0.3-0.8,0.2-1.2
			c0.5-0.7,0.7-1.6,0.9-2.5C117.5,199.8,115.5,199.6,115.2,200.8z"/>
		<path class="st1" d="M275.3,191.6c-4.3,0.1-8.7,0.3-13,0.3c-0.2-0.4-0.5-0.7-1-0.7c-7.5-0.4-15-0.3-22.5-0.3
			c-0.4,0-0.6,0.2-0.6,0.5c-11.2-0.7-22.3-2.1-33.5-1.7c-11.5,0.4-22.9,1-34.3,1c-5.5,0-11.1-0.1-16.6,0c-0.2-0.3-0.5-0.5-0.9-0.6
			c-2.6-0.5-5.3-0.4-8-0.1c-0.3-0.2-0.7-0.4-1.2-0.4c-11-1.4-22.1,0-33.1,0.4c-11.3,0.3-22.6,0-33.9-0.4c-11-0.4-21.9-0.9-32.9-0.8
			c-5.5,0-10.9,0.1-16.4,0.5c-2.6,0.2-5.2,0.3-7.7,0.7c-1.4,0.2-2.9,0.9-4.3,0.9c-0.4,0-0.5,0.3-0.5,0.6c0.4,2.7,2.3,3.3,4.8,3.4
			c5.7,0.4,11.7-0.7,17.4-0.9c11.9-0.2,23.9,0.3,35.8,0.7c11.6,0.5,23.2,1,34.8,0.8c12-0.2,23.8-1.3,35.8-0.7
			c8.6,0.9,17.3,0.6,26,0.6c11.8,0,23.5-0.5,35.3-0.9c11.4-0.4,22.7,1.3,34.1,2.1c12.1,0.8,24.5,0.9,36.6-0.4
			C278.2,195.9,278.3,191.5,275.3,191.6z"/>
		<path class="st0" d="M87.9,40.6c-0.4-0.6-0.7-1.2-1.1-1.7c-1-1.7-2.1-3.3-3.1-5.1c-1.5,2.3-2.9,4.7-4.3,7
			C82.3,40.8,85.1,40.7,87.9,40.6z"/>
		<path class="st0" d="M109.4,120.2c0,11.6,9.8,27.8,28.2,27.8c17.6,0,29.9-16.5,29.9-31.3c0-1.9-0.3-11.9-5.2-18
			c-5.4-6.6-14.3-8.7-20.7-9.3c-0.9-0.1-1.7-0.1-2.6-0.1C120.5,89.3,109.4,105,109.4,120.2z M153,118c0.5,0.2,0.9,0.7,0.9,1.2
			c0.1,0.6-0.2,1.1-0.7,1.4c-4.7,3-13.7,8.7-21.6,13.1c-0.2,0.1-0.5,0.2-0.7,0.2c-0.3,0-0.5-0.1-0.7-0.2c-0.5-0.3-0.7-0.7-0.8-1.2
			l-0.2-3.1c-0.3-6.7-0.7-13.6-0.8-20.4c0-0.5,0.3-1,0.7-1.3c0.4-0.3,1-0.3,1.5-0.1C138.2,111.6,145.7,115,153,118z"/>
		<path class="st0" d="M74.9,145.6c7.8,0,10-1.6,10.1-2c-0.1-0.5-2.4-2.2-7.1-2.2c-1.7,0-3.4-0.1-5.1-0.2c-1.7-0.1-3.4-0.2-5-0.2
			c-0.3,0-0.7,0-1.1,0c-3.8,0.1-5.7,0-6.6-0.9c-0.4-0.4-0.6-0.9-0.6-1.4c0-0.7,0.3-1.3,0.8-1.8c2-1.8,7.8-1.6,15.7-1.1
			c2,0.1,3.7,0.2,4.8,0.2c8.2,0,10.8-1.8,10.8-2.6c0-3-1.6-4.5-10.4-4.5c-1.1,0-3.4,0.2-5.7,0.5c-9.3,1-12.8,1.1-14.2-0.2
			c-0.4-0.4-0.7-0.9-0.7-1.5c0-0.5,0.1-1.1,0.8-1.7c1.9-1.8,7.7-2.1,16.4-1.9c0.7,0,1.4,0,1.7,0c4.7,0,9.8-0.8,10.7-1.6
			c0-4.2-1.4-4.9-9.4-4.9c-2,0-4.1,0.2-6.4,0.5c-2.3,0.3-4.6,0.5-7,0.5c-2,0-3.6-0.1-4.7-0.3c-1.7-0.3-2.5-1.1-2.5-2.2
			c0-3.2,8.3-3.4,10-3.4c0.3,0,0.6,0,1.1,0c2.6,0.1,10.4,0.3,12.7-1.9c0.4-0.4,0.5-0.7,0.5-1.2c0-1.6-2.6-5-10.3-5
			c-2.1,0-4.3,0.2-6.4,0.4c-0.6,0.1-1.2,0.1-1.8,0.2c0,0,0,0-0.1,0c-1.2,0.1-2.5,0.2-3.7,0.3c-5.3,0.2-9,5.2-10.8,8.2
			c-2.9,5-4.2,10.5-4.2,13.8c0,6.5,5.4,27.1,17.9,31.1c0-3.5,0-7.1-0.1-10.6c-1.2,0-2.5,0-3.7,0c-0.8,0-1.5-0.6-1.6-1.4
			c0-0.8,0.6-1.5,1.4-1.6c1.8-0.1,3.6,0,5.3,0c1,0,1.9,0.1,2.7,0.1C71.2,145.5,73.1,145.6,74.9,145.6z"/>
		<path class="st0" d="M132.4,129.9c6-3.5,12.5-7.5,16.9-10.3c-5.8-2.4-11.7-5.2-17.7-8.2c0.2,6,0.5,12,0.8,17.8L132.4,129.9z"/>
		<path class="st0" d="M198.1,49.8c3.1,0,7.8-4,7.8-10.1c0-3-2.5-7.4-7.1-7.4c-0.8,0-1.9,0.2-2.8,0.9c-2.5,2-4,5.2-4,8.5
			C192.1,45.6,194.5,49.8,198.1,49.8z"/>
		<path class="st0" d="M249.8,53.4C249.8,53.4,249.9,53.4,249.8,53.4c0.7,0,0.7-0.3,0.7-0.4c0-0.2-0.1-0.3-0.2-0.3
			c-0.1,0-0.2,0-0.3,0c0,0-0.1,0-0.1,0c-0.1,0.1-0.1,0.2-0.1,0.4C249.7,53.2,249.8,53.4,249.8,53.4z"/>
		<path class="st0" d="M262.2,164.6c-0.1,0-0.2,0-0.3,0c-1.1,0-1.7,1-1.7,2.8c0,3.1,0.9,3.4,2.1,3.4c0.9,0,1.4-1.8,1.4-3.1
			C263.6,166.6,263.2,165,262.2,164.6z"/>
		<path class="st0" d="M267.1,160.9c-10.9-0.3-29.5-0.9-40.5-1.3c0.3,2.8,0.3,5.6,0.3,7.9c0,1.3,0,2.5,0,3.8c0,1.2,0,2.5,0,3.7
			c10.8,0.1,29.7,0.4,41.1,1.1c-0.6-3.5-0.7-7-0.7-10.4C267.2,164.1,267.2,162.5,267.1,160.9z M232.4,173.8c-2.3,0-5.1-1.1-5.1-6.4
			c0-4.3,2.4-5.8,4.7-5.8c0.5,0,0.9,0.1,1.4,0.2c2.1,0.8,3.4,3.1,3.4,5.9C236.9,170.7,235.3,173.8,232.4,173.8z M242.1,173.8
			c-2.3,0-5.1-1.1-5.1-6.4c0-4.3,2.4-5.8,4.7-5.8c0.5,0,0.9,0.1,1.4,0.2c2.1,0.8,3.4,3.1,3.4,5.9C246.5,170.7,245,173.8,242.1,173.8
			z M250.4,171.2c-0.3,0.4-0.8,0.7-1.2,0.7c-0.3,0-0.6-0.1-0.8-0.3c-0.6-0.4-0.8-1.2-0.6-1.8c0-0.1,0-0.2,0-0.3
			c0-0.8,0.7-1.5,1.5-1.5c0.8,0,1.5,0.7,1.5,1.5l0,0.1c0,0.1,0,0.2,0,0.4C250.7,170.4,250.6,170.8,250.4,171.2z M250.2,165.8
			c-0.3,0.3-0.7,0.4-1.1,0.4c-0.4,0-0.8-0.1-1.1-0.4c-0.4-0.4-0.5-1.1-0.3-1.6c0-0.1,0-0.1,0-0.1c0-0.8,0.7-1.5,1.5-1.5
			c0.8,0,1.5,0.7,1.5,1.5c0,0.2,0,0.3,0,0.4C250.7,165.1,250.4,165.5,250.2,165.8z M256.5,172.3c0,0.8-0.6,1.5-1.5,1.5
			c-0.9,0-1.5-0.6-1.5-1.5c0-0.9,0-1.8,0-2.6c0-2.2,0.1-4.5,0.2-7.1c0.1-0.8,0.7-1.5,1.6-1.4c0.8,0.1,1.5,0.8,1.4,1.6
			c-0.2,2.6-0.2,4.8-0.2,6.9C256.5,170.6,256.5,171.4,256.5,172.3z M262.2,173.8c-2.3,0-5.1-1.1-5.1-6.4c0-4.3,2.4-5.8,4.7-5.8
			c0.5,0,0.9,0.1,1.4,0.2c2.1,0.8,3.4,3.1,3.4,5.9C266.6,170.7,265.1,173.8,262.2,173.8z"/>
		<path class="st0" d="M242,164.6c-0.1,0-0.2,0-0.3,0c-1.1,0-1.7,1-1.7,2.8c0,3.1,0.9,3.4,2.1,3.4c0.9,0,1.4-1.8,1.4-3.1
			C243.5,166.6,243.1,165,242,164.6z"/>
		<path class="st0" d="M18,213.4c0.6,0,1.1-0.1,1.6-0.1c7.5-0.2,15.3-0.3,24-0.3c14.4,0,29.1,0.3,43.2,0.5
			c14.1,0.3,28.7,0.5,43.1,0.5c15.5,0,23.3-0.3,30.8-0.5c6.2-0.2,12.1-0.4,22-0.4c15.8,0,31.8,0.6,47.3,1.1c14.7,0.5,30,1.1,45,1.1
			c0.5-7.5,0.9-15.2,1.2-23.3c-85.1-1.5-168.2-1.7-260-1.7C16.7,198.1,17.3,205.7,18,213.4z M24.8,199.9c22.9,1,47.7,1.7,75.8,2
			c0.1-3.9,2.4-7.3,6-8.6c0.8-0.3,1.6-0.4,2.5-0.4c4.5,0,9.8,3.9,9.8,8.9c0,0.1,0,0.2,0,0.2c22.8,0.2,45.9,0.2,68.3,0.2
			c23.6,0,48,0,72,0.2c0.8,0,1.5,0.7,1.5,1.5c0,0.8-0.7,1.5-1.5,1.5c-24-0.2-48.4-0.2-72-0.2c-22.6,0-46,0-69-0.2
			c-1.5,3.6-5.4,5.9-9,5.9c-4,0-7.2-2.5-8.3-6.1c-28.3-0.4-53.3-1-76.4-2c-0.8,0-1.5-0.7-1.4-1.6C23.2,200.5,23.9,199.9,24.8,199.9z
			"/>
		<path class="st0" d="M109.3,208c3.1,0,6.6-2.6,6.6-6.1c0-3.4-4.1-5.9-6.8-5.9c-0.5,0-1.1,0.1-1.5,0.3c-2.4,0.8-4,3.1-4,5.9
			C103.6,205.5,106,208,109.3,208z"/>
		<path class="st0" d="M276.8,150.5c0-18-0.3-36.2-0.6-53.9c-0.3-17.7-0.6-36-0.6-54.1c0-6.6,0.4-13.4,0.9-20
			c0.2-3.3,0.4-6.6,0.6-9.9c-11.6,0.7-23.9,1.1-36.6,1.1c-16.9,0-23-0.3-30.1-0.7c-9.9-0.5-21.1-1.1-64.9-1.1
			c-15.9,0-32.1,0.1-47.8,0.1C82,12,65.8,12.1,49.8,12.1c-13.5,0-25.6,0-36.8-0.1c-0.6,16.8-1.4,48.2-1.4,66.1
			c0,35.4,1.4,72.1,4.3,109.4c92,0,175.2,0.1,260.3,1.7C276.6,177.3,276.8,164.6,276.8,150.5z M249,38.8c0.1-1.8,0.2-3.7,0.2-5.6
			c0-1.2,0-2.3-0.1-3.4c-0.1-0.8,0.5-1.6,1.4-1.6c0.8-0.1,1.6,0.5,1.6,1.4c0.1,1.1,0.2,2.3,0.2,3.6c0,2-0.1,3.9-0.2,5.8
			c-0.1,1.8-0.2,3.8-0.2,5.6c0,0.6,0,1.3,0,1.9c0,0.8-0.6,1.5-1.4,1.6c0,0,0,0-0.1,0c-0.8,0-1.5-0.6-1.5-1.4c0-0.7,0-1.3,0-2
			C248.8,42.6,248.9,40.7,249,38.8z M249.6,49.7c0.1,0,0.1,0,0.2,0c0.2,0,0.3,0,0.5,0c1.8,0,3.2,1.5,3.2,3.3c0,2-1.5,3.4-3.6,3.4
			c-1.9,0-3.2-1.4-3.2-3.4C246.7,51.1,248.2,49.7,249.6,49.7z M211,31.7c0.8-0.3,1.6,0.1,2,0.8c1.7,4.2,3.5,8.3,5.6,12.9
			c2-2.9,4.2-6,6.3-9.2c0.3-0.4,0.8-0.7,1.3-0.7c0.5,0,1,0.4,1.2,0.8c1.6,3.2,2.8,6.4,3.8,8.9c0.2,0.4,0.3,0.8,0.5,1.2
			c0.8-1.4,1.5-2.9,2.3-4.5c1.8-3.6,3.6-7.3,5.6-10.2c0.5-0.7,1.4-0.9,2.1-0.4c0.7,0.5,0.9,1.4,0.4,2.1c-1.9,2.7-3.7,6.3-5.4,9.8
			c-1.3,2.7-2.6,5.2-3.9,7.3c-0.3,0.5-0.8,0.7-1.3,0.7c0,0,0,0-0.1,0c-0.5,0-1-0.3-1.3-0.8c-0.5-1-1.1-2.4-1.8-4.3
			c-0.7-1.8-1.6-4-2.6-6.3c-2.2,3.2-4.4,6.4-6.3,9.2c-0.3,0.4-0.8,0.7-1.4,0.6c-0.5-0.1-1-0.4-1.2-0.9c-2.5-5.7-4.6-10.5-6.7-15.4
			C209.9,32.9,210.2,32,211,31.7z M194.1,30.9c1.2-1,2.9-1.6,4.7-1.6c6.6,0,10.1,6,10.1,10.4c0,7.5-5.7,13.1-10.8,13.1
			c-5.6,0-9-5.8-9-11.1C189.1,37.5,191,33.5,194.1,30.9z M164.2,47.4c0.4-1.3,0.9-2.6,1.3-4c1.1-3.3,2.3-6.8,3.3-10.1
			c0.2-0.6,0.7-1,1.3-1.1c0.6-0.1,1.2,0.3,1.5,0.8c2.2,4.2,4.6,8.3,7,12.1c1.2-2.5,2.2-5,3.3-7.7c0.9-2.3,1.9-4.6,3-6.9
			c0.3-0.8,1.2-1.1,2-0.7c0.8,0.3,1.1,1.2,0.7,2c-1,2.2-2,4.6-2.9,6.8c-1.4,3.4-2.9,6.9-4.6,10.3c-0.3,0.5-0.7,0.8-1.3,0.8
			c0,0,0,0-0.1,0c-0.5,0-1-0.3-1.3-0.7c-2.3-3.6-4.6-7.4-6.8-11.4c-0.7,2.3-1.5,4.6-2.2,6.8c-0.4,1.3-0.9,2.6-1.3,3.9
			c-0.3,0.8-1.1,1.2-1.9,1C164.4,49.1,163.9,48.2,164.2,47.4z M129.7,38.5c0-1.9,0.1-4,0.1-5.9c0-0.6,0-0.7,0-1l0-0.6
			c0-0.8,0.6-1.5,1.5-1.5c0.9,0,1.5,0.6,1.5,1.5l0,0.6c0,0.3,0,0.5,0,1.1c0,2,0,4-0.1,6c0,0.1,0,0.2,0,0.2c1.4,0.1,2.8,0.3,4.2,0.5
			c2.1,0.2,4.2,0.5,6.2,0.6c0-3,0-6,0-9.9c0-0.8,0.7-1.5,1.5-1.5c0.8,0,1.5,0.7,1.5,1.5c0,4.6,0,7.9,0,11.5c0,0,0,0.1,0,0.1
			c0,0,0,0,0,0.1c0,2.5-0.1,5-0.1,8.1c0,0.8-0.7,1.5-1.5,1.5c-0.9,0-1.5-0.7-1.5-1.5c0.1-2.5,0.1-4.7,0.1-6.8
			c-2.2-0.1-4.4-0.4-6.6-0.7c-1.3-0.2-2.6-0.3-3.9-0.4c0,0.9,0,1.8,0,2.7c0,1.6,0,2,0.1,3.2l0.1,1.1c0.1,0.8-0.6,1.5-1.4,1.6
			c0,0-0.1,0-0.1,0c-0.8,0-1.4-0.6-1.5-1.4l-0.1-1.1c-0.1-1.2-0.1-1.7-0.1-3.4C129.6,42.4,129.7,40.4,129.7,38.5z M122,29.2
			c0.8,0,1.5,0.7,1.4,1.5c0,0.8-0.7,1.5-1.5,1.4l-0.2,0c-4.5,0-7.6,4.2-7.6,8.2c0,5.2,2.8,8.4,7.4,8.4c1.7,0,3.3-0.5,4.6-1.3
			c0.7-0.4,1.6-0.2,2.1,0.5c0.4,0.7,0.2,1.6-0.5,2.1c-1.8,1.1-4,1.8-6.2,1.8c-6.2,0-10.4-4.6-10.4-11.4C111.2,34.1,116,29,122,29.2z
			 M92,30.3c3.1-0.2,6.3-0.2,9.4-0.3c3,0,6.2-0.1,9.3-0.3c0.8-0.1,1.5,0.6,1.6,1.4c0,0.8-0.6,1.5-1.4,1.6c-2.4,0.1-4.9,0.2-7.3,0.2
			c0,0.2,0,0.4,0,0.6c0,2.5,0.1,5,0.2,7.5c0.1,2.5,0.2,5.1,0.2,7.6c0,0.8-0.7,1.5-1.5,1.5c-0.8,0-1.5-0.7-1.5-1.5
			c0-2.5-0.1-5-0.2-7.5c-0.1-2.5-0.2-5-0.2-7.6c0-0.2,0-0.4,0-0.6c-2.8,0-5.6,0.1-8.4,0.2c0,0-0.1,0-0.1,0c-0.8,0-1.5-0.6-1.5-1.4
			C90.5,31,91.2,30.3,92,30.3z M83.9,29.4c0.5,0,1,0.3,1.3,0.8c1.4,2.4,2.8,4.8,4.3,7.1c0.8,1.2,1.5,2.5,2.3,3.8
			c0.1,0.1,0.1,0.2,0.2,0.3c1.7,2.8,3.3,5.7,4.7,8.7c0.4,0.8,0,1.6-0.7,2c-0.2,0.1-0.4,0.1-0.6,0.1c-0.6,0-1.1-0.3-1.4-0.9
			c-1.2-2.6-2.7-5.2-4.2-7.8l-0.9,0c-3.2,0.1-6.4,0.3-9.7,0.3c-0.4,0-0.9,0-1.3,0c-0.3,0.4-0.5,0.9-0.8,1.3
			c-0.7,1.2-1.4,2.4-2.1,3.6c-0.4,0.7-1.3,1-2.1,0.5c-0.7-0.4-1-1.3-0.5-2.1c0.7-1.2,1.4-2.4,2.1-3.6c2.6-4.5,5.3-9.2,8.2-13.6
			C82.9,29.6,83.3,29.4,83.9,29.4z M42.3,31.3c0.7-0.4,1.6-0.2,2.1,0.5c1.3,2.1,2.6,4.8,3.8,7.4c1,2.1,2,4.3,3.1,6.1
			c0.9-1.4,1.9-3.1,2.8-4.7c1.3-2.2,2.6-4.6,3.8-6.3c0.3-0.4,0.7-0.6,1.2-0.6c0.5,0,0.9,0.2,1.2,0.6c2,2.8,3.4,6,4.4,8.5
			c0.2,0.5,0.4,0.9,0.6,1.4c0.8-1.4,1.6-3,2.5-4.6c1.9-3.6,3.8-7.2,5.8-9.8c0.5-0.7,1.4-0.8,2.1-0.3c0.7,0.5,0.8,1.4,0.3,2.1
			c-1.8,2.4-3.7,6-5.5,9.4c-1.4,2.6-2.7,5.1-4,7.1c-0.3,0.4-0.7,0.7-1.2,0.7c-0.5,0-1-0.2-1.3-0.6c-0.7-0.9-1.3-2.4-2.1-4.2
			c-0.8-1.8-1.7-4-2.9-6.1c-0.8,1.3-1.6,2.7-2.4,4.1c-1.4,2.5-2.9,5-4.3,6.9c-0.3,0.4-0.7,0.6-1.2,0.6c-0.5,0-1-0.3-1.2-0.7
			c-1.6-2.3-3-5.4-4.4-8.4c-1.2-2.5-2.4-5.1-3.6-7.1C41.4,32.7,41.6,31.8,42.3,31.3z M207.9,169.7c0,0.4-0.2,0.8-0.5,1.1
			c-0.3,0.3-0.7,0.4-1.1,0.4l-4.1-0.3c-14.1-0.9-33.4-2.1-42.9-2.1c-4.6,0-13,0.8-17.4,6.1c-0.3,0.3-0.7,0.5-1.1,0.5
			c0,0-0.1,0-0.1,0c-0.5,0-0.9-0.3-1.2-0.7c-3.9-6.8-18.3-6.7-27.8-6.6c-1,0-1.9,0-2.8,0c-13.7,0-27.2,0.9-42.1,1.9
			c-0.4,0-0.8-0.1-1.1-0.4c-0.3-0.3-0.5-0.7-0.5-1.1c0-2.2,0-4.4,0-6.6c-8-2.1-13.1-9.5-16-15.5c-3.6-7.7-5-15.4-5-18.7
			c0-8.6,6.8-24.7,17.9-25c0.7,0,1.5-0.1,2.2-0.1C64.2,91.8,64,80.4,64,68.6c0-1.5,0-3,0-4.5c0-0.4,0.2-0.8,0.4-1.1
			c0.3-0.3,0.7-0.4,1.1-0.4c4.5,0,9,0.2,13.4,0.4c4.6,0.2,9.3,0.4,13.9,0.4c7,0,12.5-0.4,16.5-0.7c2.5-0.2,4.4-0.3,5.9-0.3
			c5.9,0,16.4,1.1,23.3,8.5c5.7-5.4,13-8.4,20.3-8.4c3.1,0,8.7,0.3,15.2,0.6c9.6,0.5,21.6,1.1,31.3,1.1c0.9,0,1.7,0,2.6,0
			c0.9,0,1.5,0.7,1.5,1.5c0,2.3,0,4.5,0,6.8c0,7.2-0.1,15.2-0.4,24.7c0.2,0,0.5,0,0.7,0c11.1,0.3,17.9,16.4,17.9,25
			c0,6-5,29.3-20,34c0,0.2,0,0.5,0,0.7C207.8,161.5,207.8,165.6,207.9,169.7z M271,178.8c-0.3,0.3-0.7,0.5-1.1,0.5c0,0-0.1,0-0.1,0
			c-11.5-0.8-33.3-1.2-44.4-1.3c-0.8,0-1.5-0.7-1.5-1.5c0-0.5,0-1,0-1.5c0-1.3,0-2.5,0-3.8c0-1.3,0-2.5,0-3.8c0-2.6-0.1-6-0.5-9.2
			c-0.1-0.4,0.1-0.9,0.4-1.2c0.3-0.3,0.7-0.5,1.2-0.5c11.1,0.4,32.5,1,43.6,1.4c0.8,0,1.4,0.6,1.5,1.4c0.2,2.1,0.2,4.3,0.2,6.4
			c0,4,0.1,7.9,1,11.7C271.4,177.9,271.3,178.4,271,178.8z"/>
		<path class="st0" d="M138.6,151c-0.3,0-0.6,0-0.9,0c-9,0-17.2-3.6-23.1-10.3c-5.1-5.7-8.2-13.4-8.2-20.5
			c0-12.8,5.7-20.7,10.5-25.2c5.3-4.9,12.3-8,19.4-8.6c0-1.2,0-2.5,0-3.9c0-3.2,0.1-6.5,0.2-9.5c-6.2-6.5-15.8-7.5-21.1-7.5
			c-1.4,0-3.3,0.1-5.7,0.3c-4.1,0.3-9.7,0.7-16.7,0.7c-4.7,0-9.5-0.2-14.1-0.4c-3.9-0.2-7.8-0.4-11.8-0.4c0,1,0,2,0,3
			c0,11.6,0.2,23,0.4,33.6c0,0,0,0,0.1,0c2.2-0.2,4.5-0.5,6.7-0.5c9.7,0,13.3,4.9,13.3,8c0,1.3-0.5,2.4-1.4,3.3
			c-0.7,0.7-1.7,1.2-2.8,1.6c5.6,0.1,9.9,1,9.9,8c0,1.9-2.2,3.1-5.1,3.7c3.5,0.7,6.4,2.5,6.4,7c0,3.3-4,5.2-11.2,5.6
			c2.8,0.9,4.7,2.5,4.7,4.5c0,0.9-0.5,2.7-3.7,3.8c-2.2,0.8-5.4,1.2-9.4,1.2c-1.9,0-3.9-0.1-5.7-0.2c-0.3,0-0.7,0-1-0.1
			c0,3.7,0.1,7.5,0.1,11.2c0,0.4,0,0.7,0,1.1c0,0,0,0,0,0.1c0,2.1,0,4.1,0,6.2c14.3-1,27.3-1.8,40.7-1.8c0.9,0,1.8,0,2.8,0
			c9.1-0.1,21.1-0.1,27.5,4.9c-0.1-3.5-0.2-7-0.3-10.4C138.8,156.7,138.7,153.8,138.6,151z"/>
		<path class="st0" d="M197.2,143.1c-4,0-7.2-0.4-9.4-1.2c-3.2-1.1-3.7-2.9-3.7-3.8c0-1.9,1.8-3.6,4.7-4.5
			c-7.3-0.4-11.2-2.3-11.2-5.6c0-4.5,2.9-6.3,6.4-7c-2.9-0.6-5.1-1.7-5.1-3.7c0-7,4.4-7.9,9.9-8c-1.1-0.4-2-0.9-2.8-1.6
			c-0.9-0.9-1.4-2.1-1.4-3.3c0-3.1,3.6-8,13.3-8c2.2,0,4.5,0.2,6.7,0.5c0.5,0.1,1.1,0.1,1.6,0.2c0.3-9.5,0.4-17.3,0.4-24.5
			c0-1.7,0-3.5,0-5.2c-0.4,0-0.8,0-1.1,0c-9.7,0-21.8-0.6-31.4-1.1c-6.5-0.3-12.1-0.6-15.1-0.6c-7,0-14,3.2-19.3,8.7
			c-0.1,0.1-0.2,0.2-0.3,0.2c-0.1,2.6-0.1,5.3-0.1,8c0,1.3,0,2.6,0,3.8c0.9,0,1.7,0,2.6,0.1c7,0.7,16.7,3,22.7,10.4
			c5.5,6.7,5.9,16.9,5.9,19.9c0,8.4-3.4,17-9.3,23.5c-5.4,5.9-12.2,9.6-19.6,10.5c0.1,2.9,0.2,5.8,0.2,8.8c0.1,3.6,0.2,7.4,0.3,11.1
			c5.3-4,12.8-4.7,17.2-4.7c9.6,0,29,1.2,43.1,2.1l2.4,0.2c-0.1-3.6-0.1-7.3-0.1-11.2c0-0.6,0-1.2,0-1.8c0,0,0,0,0-0.1
			c0-3.9,0.1-7.9,0.1-12.3c-0.7,0-1.4,0.1-2,0.1C201,143,199.1,143.1,197.2,143.1z"/>
		<path class="st0" d="M232.4,164.6c-0.1,0-0.2,0-0.3,0c-1.1,0-1.7,1-1.7,2.8c0,3.1,0.9,3.4,2.1,3.4c0.9,0,1.4-1.8,1.4-3.1
			C233.9,166.6,233.5,165,232.4,164.6z"/>
		<path class="st0" d="M220.3,139.3c3.3-7.1,4.5-14.2,4.5-17c0-3.3-1.3-8.9-4.2-13.8c-1.7-3-5.5-8-10.8-8.2c-0.7,0-1.4-0.1-2.1-0.1
			c0,0-0.1,0-0.1,0c0,0-0.1,0-0.1,0c-1.1-0.1-2.1-0.2-3.2-0.3c-2.1-0.2-4.3-0.4-6.4-0.4c-7.7,0-10.3,3.4-10.3,5
			c0,0.5,0.2,0.8,0.5,1.2c2.3,2.2,10.1,2,12.7,1.9c0.5,0,0.8,0,1.1,0c1.7,0,10,0.2,10,3.4c0,1.1-0.9,1.9-2.5,2.2
			c-1.1,0.2-2.7,0.3-4.7,0.3c-2.3,0-4.7-0.3-7-0.5c-2.2-0.3-4.3-0.5-6.4-0.5c-8.1,0-9.4,0.6-9.4,4.9c0.9,0.8,6,1.6,10.7,1.6
			c0.4,0,1,0,1.7,0c8.8-0.2,14.6,0,16.4,1.9c0.6,0.6,0.8,1.3,0.8,1.7c0,0.6-0.2,1.1-0.7,1.5c-1.4,1.3-5,1.2-14.2,0.2
			c-2.4-0.2-4.6-0.5-5.7-0.5c-8.8,0-10.4,1.4-10.4,4.5c0,0.9,2.6,2.6,10.8,2.6c1.1,0,2.8-0.1,4.8-0.2c8-0.5,13.8-0.8,15.7,1.1
			c0.5,0.5,0.8,1.1,0.8,1.8c0,0.5-0.2,1-0.6,1.4c-1,0.9-2.8,1-6.6,0.9c-0.5,0-0.8,0-1.1,0c-1.7,0-3.4,0.1-5,0.2
			c-1.7,0.1-3.4,0.2-5.1,0.2c-4.7,0-7,1.7-7.1,2.2c0.1,0.4,2.2,2,10.1,2c1.8,0,3.7-0.1,5.6-0.2c1.2-0.1,2.4-0.1,3.7-0.2
			c1.5,0,2.9-0.1,4.4,0c0.8,0,1.5,0.7,1.4,1.6c0,0.8-0.7,1.5-1.6,1.4c-0.9,0-1.8,0-2.7,0c-0.1,3.6-0.1,7-0.1,10.3
			C214,150.6,218,144.4,220.3,139.3z"/>
		<path class="st2" d="M280.1,11.1c0-0.4-0.1-0.8-0.4-1.1c-0.3-0.3-0.7-0.5-1.1-0.4c-12.1,0.8-24.9,1.2-38.1,1.2
			c-16.9,0-22.9-0.3-30-0.7c-9.9-0.5-21.2-1.1-65-1.1c-15.9,0-32.1,0.1-47.8,0.1C82,9,65.8,9.1,49.8,9.1C35.8,9.1,23.3,9,11.6,9
			c-0.8,0-1.5,0.6-1.5,1.4C9.5,26.8,8.6,59.6,8.6,78.1c0,35.8,1.5,73,4.3,110.8c0.1-0.8,0.7-1.4,1.5-1.4c0.5,0,0.9,0,1.4,0
			c-2.8-37.3-4.3-74-4.3-109.4c0-17.8,0.9-49.3,1.4-66.1c11.3,0.1,23.3,0.1,36.8,0.1C65.8,12.1,82,12,97.6,12
			c15.7-0.1,31.8-0.1,47.8-0.1c43.8,0,55,0.6,64.9,1.1c7.1,0.4,13.2,0.7,30.1,0.7c12.7,0,25-0.4,36.6-1.1c-0.2,3.3-0.4,6.7-0.6,9.9
			c-0.4,6.6-0.9,13.4-0.9,20c0,18.1,0.3,36.4,0.6,54.1c0.3,17.7,0.6,35.9,0.6,53.9c0,14-0.2,26.7-0.6,38.6c0.5,0,1,0,1.5,0
			c0.8,0,1.5,0.7,1.5,1.5c0,0.8-0.7,1.5-1.5,1.5c-0.5,0-1,0-1.6,0c-0.3,8.1-0.7,15.8-1.2,23.3c-15,0-30.2-0.6-45-1.1
			c-15.5-0.6-31.5-1.1-47.3-1.1c-9.8,0-15.7,0.2-22,0.4c-7.5,0.3-15.2,0.5-30.8,0.5c-14.4,0-29-0.3-43.1-0.5
			C72.6,213.3,58,213,43.5,213c-8.6,0-16.5,0.1-24,0.3c-0.5,0-1,0-1.6,0.1c-0.7-7.7-1.3-15.3-1.9-22.9c-0.6,0-1.1,0-1.6,0
			c-0.7,0-1.3-0.5-1.4-1.1c0.7,8.6,1.4,17.1,2.2,25.8c0.1,0.8,0.8,1.4,1.6,1.4c1.1-0.1,2-0.1,2.9-0.2c7.5-0.2,15.3-0.3,23.9-0.3
			c14.4,0,29,0.3,43.2,0.5c7.3,0.1,14.8,0.3,22.3,0.4c-0.1-0.4-0.2-0.8-0.3-1.2c-0.2-0.8,0.4-1.6,1.2-1.8c0.8-0.2,1.6,0.4,1.8,1.2
			c0.1,0.6,0.3,1.2,0.4,1.8c5.9,0.1,11.8,0.1,17.7,0.1c15.6,0,23.7-0.3,30.9-0.5c6.2-0.2,12.1-0.4,21.9-0.4
			c15.7,0,31.7,0.6,47.2,1.1c15.2,0.5,30.9,1.1,46.5,1.1c0.8,0,1.4-0.6,1.5-1.4c1.4-19.8,2-40.9,2-66.5c0-18-0.3-36.3-0.6-53.9
			c-0.3-17.7-0.6-36-0.6-54c0-6.5,0.4-13.3,0.9-19.8C279.6,18.9,279.9,15,280.1,11.1z"/>
		<path class="st2" d="M14.4,190.4c0.6,0,1.1,0,1.6,0c91.8,0,174.9,0.1,260,1.7c0.5,0,1,0,1.5,0c0.8,0,1.5-0.7,1.5-1.5
			c0-0.8-0.6-1.5-1.5-1.5c-0.5,0-1,0-1.5,0c-85.2-1.5-168.4-1.7-260.3-1.7c-0.5,0-0.9,0-1.4,0c-0.8,0-1.4,0.6-1.5,1.4
			c0,0,0,0.1,0,0.1c0,0.1,0,0.2,0.1,0.4C13.1,190,13.7,190.4,14.4,190.4z"/>
		<path class="st2" d="M24.6,202.9c23.1,1,48.1,1.7,76.4,2c-0.3-0.9-0.4-1.9-0.4-2.9c0,0,0-0.1,0-0.1c-28.1-0.4-52.9-1-75.8-2
			c-0.8,0-1.5,0.6-1.6,1.4C23.2,202.2,23.8,202.9,24.6,202.9z"/>
		<path class="st2" d="M187.2,205.3c23.6,0,48,0,72,0.2c0.8,0,1.5-0.7,1.5-1.5c0-0.8-0.7-1.5-1.5-1.5c-24-0.2-48.4-0.2-72-0.2
			c-22.4,0-45.5,0-68.3-0.2c0,1.1-0.3,2.1-0.7,3C141.3,205.3,164.6,205.3,187.2,205.3z"/>
		<path class="st2" d="M101,204.9c1.1,3.6,4.3,6.1,8.3,6.1c3.6,0,7.4-2.3,9-5.9c0.4-0.9,0.6-1.9,0.7-3c0-0.1,0-0.2,0-0.2
			c0-5-5.3-8.9-9.8-8.9c-0.9,0-1.7,0.1-2.5,0.4c-3.5,1.2-5.9,4.7-6,8.6c0,0,0,0.1,0,0.1C100.6,203.1,100.7,204.1,101,204.9z
			 M107.6,196.2c0.5-0.2,1-0.3,1.5-0.3c2.7,0,6.8,2.5,6.8,5.9c0,3.5-3.5,6.1-6.6,6.1c-3.3,0-5.7-2.5-5.7-5.9
			C103.6,199.3,105.1,197,107.6,196.2z"/>
		<path class="st2" d="M65.2,158.8c-12.5-4-17.9-24.7-17.9-31.1c0-3.3,1.3-8.9,4.2-13.8c1.7-3,5.5-8,10.8-8.2c1.2,0,2.4-0.1,3.6-0.3
			c-0.8,0-1.5-0.7-1.5-1.5c0-0.5,0-0.9,0-1.4c-0.7,0.1-1.5,0.1-2.2,0.1c-11.1,0.3-17.9,16.4-17.9,25c0,3.3,1.3,11.1,5,18.7
			c2.9,6,7.9,13.4,16,15.5c0-0.8,0-1.6,0-2.4C65.2,159.3,65.2,159,65.2,158.8z"/>
		<path class="st2" d="M74.9,148.6c4,0,7.2-0.4,9.4-1.2c3.2-1.1,3.7-2.9,3.7-3.8c0-1.9-1.8-3.6-4.7-4.5c7.3-0.4,11.2-2.3,11.2-5.6
			c0-4.5-2.9-6.3-6.4-7c2.9-0.6,5.1-1.7,5.1-3.7c0-7-4.4-7.9-9.9-8c1.1-0.4,2-0.9,2.8-1.6c0.9-0.9,1.4-2.1,1.4-3.3
			c0-3.1-3.6-8-13.3-8c-2.2,0-4.5,0.2-6.7,0.5c0,0,0,0-0.1,0c0,0.5,0,1.1,0,1.6c0,0.8-0.6,1.5-1.4,1.5c0.6-0.1,1.2-0.1,1.8-0.2
			c2.1-0.2,4.3-0.4,6.4-0.4c7.7,0,10.3,3.4,10.3,5c0,0.5-0.2,0.8-0.5,1.2c-2.3,2.2-10.1,2-12.7,1.9c-0.5,0-0.8,0-1.1,0
			c-1.7,0-10,0.2-10,3.4c0,1.1,0.9,1.9,2.5,2.2c1.1,0.2,2.7,0.3,4.7,0.3c2.3,0,4.7-0.3,7-0.5c2.2-0.3,4.3-0.5,6.4-0.5
			c8.1,0,9.4,0.6,9.4,4.9c-0.9,0.8-6,1.6-10.7,1.6c-0.4,0-1,0-1.7,0c-8.8-0.2-14.6,0-16.4,1.9c-0.6,0.6-0.8,1.3-0.8,1.7
			c0,0.6,0.2,1.1,0.7,1.5c1.4,1.3,5,1.2,14.2,0.2c2.4-0.2,4.6-0.5,5.7-0.5c8.8,0,10.4,1.4,10.4,4.5c0,0.9-2.6,2.6-10.8,2.6
			c-1.1,0-2.8-0.1-4.8-0.2c-8-0.5-13.8-0.8-15.7,1.1c-0.5,0.5-0.8,1.1-0.8,1.8c0,0.5,0.2,1,0.6,1.4c1,0.9,2.8,1,6.6,0.9
			c0.5,0,0.8,0,1.1,0c1.7,0,3.4,0.1,5,0.2c1.7,0.1,3.4,0.2,5.1,0.2c4.7,0,7,1.7,7.1,2.2c-0.1,0.4-2.2,2-10.1,2
			c-1.8,0-3.7-0.1-5.6-0.2c-0.9,0-1.8-0.1-2.7-0.1c0.8,0,1.4,0.7,1.5,1.5c0,0.5,0,1.1,0,1.6c0.3,0,0.7,0,1,0.1
			C71.1,148.5,73,148.6,74.9,148.6z"/>
		<path class="st2" d="M61.3,145.2c-0.8,0-1.5,0.7-1.4,1.6c0,0.8,0.8,1.5,1.6,1.4c1.2-0.1,2.5-0.1,3.7,0c0-0.5,0-1,0-1.4
			c0-0.8,0.6-1.5,1.5-1.5C64.9,145.2,63.1,145.1,61.3,145.2z"/>
		<path class="st2" d="M68.2,160.7C68.2,160.7,68.2,160.7,68.2,160.7C68.2,160.7,68.2,160.7,68.2,160.7z"/>
		<path class="st2" d="M210.7,142.8c0.9,0,1.5-0.6,1.6-1.4c0-0.8-0.6-1.5-1.4-1.6c-1.4-0.1-2.9-0.1-4.3,0c0.8,0,1.5,0.7,1.5,1.5
			c0,0.5,0,1,0,1.4C208.9,142.7,209.8,142.7,210.7,142.8z"/>
		<path class="st2" d="M197.2,140.1c-7.8,0-10-1.6-10.1-2c0.1-0.5,2.4-2.2,7.1-2.2c1.7,0,3.4-0.1,5.1-0.2c1.7-0.1,3.4-0.2,5-0.2
			c0.3,0,0.7,0,1.1,0c3.8,0.1,5.7,0,6.6-0.9c0.4-0.4,0.6-0.9,0.6-1.4c0-0.7-0.3-1.3-0.8-1.8c-2-1.8-7.8-1.6-15.7-1.1
			c-2,0.1-3.7,0.2-4.8,0.2c-8.2,0-10.8-1.8-10.8-2.6c0-3,1.6-4.5,10.4-4.5c1.1,0,3.4,0.2,5.7,0.5c9.3,1,12.8,1.1,14.2-0.2
			c0.4-0.4,0.7-0.9,0.7-1.5c0-0.5-0.1-1.1-0.8-1.7c-1.9-1.8-7.7-2.1-16.4-1.9c-0.7,0-1.4,0-1.7,0c-4.7,0-9.8-0.8-10.7-1.6
			c0-4.2,1.4-4.9,9.4-4.9c2,0,4.1,0.2,6.4,0.5c2.3,0.3,4.6,0.5,7,0.5c2,0,3.6-0.1,4.7-0.3c1.7-0.3,2.5-1.1,2.5-2.2
			c0-3.2-8.3-3.4-10-3.4c-0.3,0-0.6,0-1.1,0c-2.6,0.1-10.4,0.3-12.7-1.9c-0.4-0.4-0.5-0.7-0.5-1.2c0-1.6,2.6-5,10.3-5
			c2.1,0,4.3,0.2,6.4,0.4c1,0.1,2.1,0.2,3.2,0.3c-0.8-0.1-1.3-0.7-1.3-1.5c0-0.5,0-1.1,0-1.6c-0.5-0.1-1-0.1-1.6-0.2
			c-2.2-0.2-4.5-0.5-6.7-0.5c-9.7,0-13.3,4.9-13.3,8c0,1.3,0.5,2.4,1.4,3.3c0.7,0.7,1.7,1.2,2.8,1.6c-5.6,0.1-9.9,1-9.9,8
			c0,1.9,2.2,3.1,5.1,3.7c-3.5,0.7-6.4,2.5-6.4,7c0,3.3,4,5.2,11.2,5.6c-2.8,0.9-4.7,2.5-4.7,4.5c0,0.9,0.5,2.7,3.7,3.8
			c2.2,0.8,5.4,1.2,9.4,1.2c1.9,0,3.9-0.1,5.7-0.2c0.7,0,1.3-0.1,2-0.1c0-0.5,0-1,0-1.6c0-0.8,0.7-1.4,1.5-1.5
			c-1.2,0-2.5,0.1-3.7,0.2C200.9,140,199,140.1,197.2,140.1z"/>
		<path class="st2" d="M207.8,100.1c0.7,0.1,1.4,0.1,2.1,0.1c5.3,0.2,9,5.2,10.8,8.2c2.9,5,4.2,10.5,4.2,13.8c0,2.8-1.2,10-4.5,17
			c-2.4,5.1-6.4,11.4-12.5,13.8c0,1.1,0,2.1,0,3.2c15-4.7,20-28,20-34c0-8.6-6.8-24.7-17.9-25c-0.2,0-0.5,0-0.7,0c0,0.5,0,1,0,1.5
			C209.2,99.5,208.5,100.1,207.8,100.1z"/>
		<path class="st2" d="M204.8,155.2C204.8,155.1,204.8,155.1,204.8,155.2C204.8,155.1,204.8,155.1,204.8,155.2z"/>
		<path class="st2" d="M207.8,153c0-3.3,0.1-6.7,0.1-10.3c0-0.5,0-1,0-1.4c0-0.8-0.6-1.5-1.5-1.5c-0.9,0-1.5,0.7-1.5,1.5
			c0,0.5,0,1.1,0,1.6c-0.1,4.4-0.1,8.4-0.1,12.3c0,0,0,0,0,0.1c0,0.6,0,1.2,0,1.8c0,3.9,0,7.6,0.1,11.2l-2.4-0.2
			c-14.1-0.9-33.5-2.1-43.1-2.1c-4.4,0-11.8,0.7-17.2,4.7c0,1.1,0.1,2.2,0.1,3.3c0,0.8-0.6,1.5-1.4,1.6c0,0,0,0-0.1,0
			c-0.8,0-1.5-0.6-1.5-1.4c-0.1-1.3-0.1-2.7-0.2-4c-6.4-5-18.4-5-27.5-4.9c-1,0-1.9,0-2.8,0c-13.3,0-26.3,0.8-40.7,1.8
			c0-2.1,0-4.1,0-6.2c0,0,0,0,0-0.1c0-0.4,0-0.7,0-1.1c0-3.7,0-7.5-0.1-11.2c0-0.5,0-1.1,0-1.6c0-0.8-0.7-1.5-1.5-1.5
			c-0.9,0-1.6,0.7-1.5,1.5c0,0.5,0,1,0,1.4c0,3.5,0.1,7.1,0.1,10.6c0,0.2,0,0.5,0,0.7c0,0.8,0,1.6,0,2.4c0,2.2,0,4.4,0,6.6
			c0,0.4,0.2,0.8,0.5,1.1c0.3,0.3,0.7,0.4,1.1,0.4c14.9-1.1,28.3-1.9,42.1-1.9c0.9,0,1.8,0,2.8,0c9.5-0.1,23.8-0.2,27.8,6.6
			c0.2,0.4,0.7,0.7,1.2,0.7c0,0,0.1,0,0.1,0c0.4,0,0.9-0.2,1.1-0.5c4.4-5.3,12.8-6.1,17.4-6.1c9.6,0,28.8,1.2,42.9,2.1l4.1,0.3
			c0.4,0,0.8-0.1,1.1-0.4c0.3-0.3,0.5-0.7,0.5-1.1c-0.1-4.1-0.1-8.3-0.1-12.8c0-0.2,0-0.5,0-0.7C207.8,155.2,207.8,154.1,207.8,153z
			"/>
		<path class="st2" d="M65.9,105.4C66,105.4,66,105.4,65.9,105.4c0.9-0.1,1.5-0.7,1.5-1.5c0-0.5,0-1.1,0-1.6
			c-0.2-10.6-0.4-22-0.4-33.6c0-1,0-2,0-3c3.9,0.1,7.9,0.2,11.8,0.4c4.6,0.2,9.4,0.4,14.1,0.4c7.1,0,12.7-0.4,16.7-0.7
			c2.4-0.2,4.3-0.3,5.7-0.3c5.3,0,14.9,1,21.1,7.5c0-0.2,0-0.4,0-0.6c0-0.8,0.7-1.5,1.5-1.5c0.8,0,1.5,0.7,1.5,1.5c0,0.6,0,1.3,0,2
			c0.1-0.1,0.2-0.1,0.3-0.2c5.2-5.5,12.3-8.7,19.3-8.7c3,0,8.6,0.3,15.1,0.6c9.7,0.5,21.7,1.1,31.4,1.1c0.4,0,0.8,0,1.1,0
			c0,1.7,0,3.5,0,5.2c0,7.2-0.1,15-0.4,24.5c0,0.5,0,1.1,0,1.6c0,0.8,0.6,1.4,1.3,1.5c0,0,0.1,0,0.1,0c0,0,0.1,0,0.1,0
			c0.8,0,1.4-0.7,1.5-1.5c0-0.5,0-1,0-1.5c0.3-9.6,0.4-17.5,0.4-24.7c0-2.3,0-4.5,0-6.8c0-0.8-0.7-1.5-1.5-1.5c-0.9,0-1.7,0-2.6,0
			c-9.7,0-21.7-0.6-31.3-1.1c-6.5-0.3-12.2-0.6-15.2-0.6c-7.3,0-14.6,3.1-20.3,8.4c-6.9-7.4-17.5-8.5-23.3-8.5
			c-1.5,0-3.5,0.1-5.9,0.3c-4,0.3-9.5,0.7-16.5,0.7c-4.6,0-9.4-0.2-13.9-0.4c-4.4-0.2-8.9-0.4-13.4-0.4c-0.4,0-0.8,0.2-1.1,0.4
			c-0.3,0.3-0.4,0.7-0.4,1.1c0,1.5,0,3,0,4.5c0,11.7,0.2,23.2,0.4,33.9c0,0.5,0,0.9,0,1.4C64.4,104.8,65.1,105.4,65.9,105.4z"/>
		<path class="st2" d="M137.9,89.3C137.9,89.3,137.9,89.3,137.9,89.3c-0.9,0-1.5-0.6-1.6-1.4c0-0.5,0-1,0-1.4
			c-7.1,0.6-14.1,3.7-19.4,8.6c-4.8,4.4-10.5,12.4-10.5,25.2c0,7.1,3,14.8,8.2,20.5c5.9,6.6,14.1,10.3,23.1,10.3c0.3,0,0.6,0,0.9,0
			c0-0.5,0-1,0-1.5c0-0.8,0.6-1.5,1.4-1.6c0.8,0,1.5,0.6,1.6,1.4c0,0.5,0,0.9,0,1.4c7.4-1,14.3-4.6,19.6-10.5
			c5.9-6.5,9.3-15.1,9.3-23.5c0-3-0.4-13.2-5.9-19.9c-6.1-7.4-15.7-9.8-22.7-10.4c-0.8-0.1-1.7-0.1-2.6-0.1c0,0.5,0,1,0,1.5
			C139.4,88.6,138.7,89.3,137.9,89.3z M162.3,98.7c5,6.1,5.2,16,5.2,18c0,14.8-12.3,31.3-29.9,31.3c-18.4,0-28.2-16.1-28.2-27.8
			c0-15.2,11.1-30.9,29.6-30.9c0.9,0,1.7,0,2.6,0.1C148,90,156.9,92.1,162.3,98.7z"/>
		<path class="st2" d="M129.2,107.7c-0.5,0.3-0.7,0.8-0.7,1.3c0.1,6.8,0.5,13.7,0.8,20.4l0.2,3.1c0,0.5,0.3,1,0.8,1.2
			c0.2,0.1,0.5,0.2,0.7,0.2c0.3,0,0.5-0.1,0.7-0.2c7.9-4.4,16.9-10.1,21.6-13.1c0.5-0.3,0.7-0.8,0.7-1.4c-0.1-0.6-0.4-1-0.9-1.2
			c-7.3-2.9-14.8-6.4-22.3-10.3C130.2,107.4,129.7,107.4,129.2,107.7z M149.2,119.7c-4.4,2.8-10.8,6.8-16.9,10.3l0-0.7
			c-0.3-5.9-0.6-11.9-0.8-17.8C137.5,114.5,143.4,117.2,149.2,119.7z"/>
		<path class="st2" d="M136.3,86.4c0,0.5,0,1,0,1.4c0,0.8,0.7,1.4,1.5,1.4c0,0,0,0,0.1,0c0.8,0,1.5-0.7,1.4-1.6c0-0.5,0-1,0-1.5
			c0-1.2,0-2.4,0-3.8c0-2.7,0.1-5.4,0.1-8c0-0.7,0-1.3,0-2c0-0.8-0.6-1.5-1.5-1.5c-0.8,0-1.5,0.6-1.5,1.5c0,0.2,0,0.4,0,0.6
			c-0.1,3-0.2,6.3-0.2,9.5C136.3,83.9,136.3,85.2,136.3,86.4z"/>
		<path class="st2" d="M141.6,150.7c0-0.5,0-0.9,0-1.4c0-0.8-0.7-1.5-1.6-1.4c-0.8,0-1.5,0.7-1.4,1.6c0,0.5,0,1,0,1.5
			c0.1,2.9,0.2,5.7,0.2,8.6c0.1,3.4,0.2,6.9,0.3,10.4c0,1.3,0.1,2.7,0.2,4c0,0.8,0.7,1.4,1.5,1.4c0,0,0,0,0.1,0
			c0.8,0,1.5-0.7,1.4-1.6c0-1.1-0.1-2.2-0.1-3.3c-0.1-3.7-0.2-7.5-0.3-11.1C141.8,156.6,141.7,153.7,141.6,150.7z"/>
		<path class="st2" d="M270.2,165.7c0-2.1,0-4.2-0.2-6.4c-0.1-0.8-0.7-1.4-1.5-1.4c-11.1-0.3-32.5-1-43.6-1.4
			c-0.4,0-0.9,0.2-1.2,0.5c-0.3,0.3-0.4,0.8-0.4,1.2c0.4,3.2,0.5,6.6,0.5,9.2c0,1.3,0,2.5,0,3.8c0,1.3,0,2.5,0,3.8c0,0.5,0,1,0,1.5
			c0,0.8,0.7,1.5,1.5,1.5c11.1,0.1,32.9,0.4,44.4,1.3c0,0,0.1,0,0.1,0c0.4,0,0.9-0.2,1.1-0.5c0.3-0.4,0.4-0.9,0.3-1.3
			C270.3,173.6,270.3,169.8,270.2,165.7z M226.8,175c0-1.2,0-2.5,0-3.7c0-1.3,0-2.5,0-3.8c0-2.2,0-5-0.3-7.9
			c11,0.4,29.7,0.9,40.5,1.3c0.1,1.6,0.1,3.2,0.1,4.8c0,3.4,0.1,6.9,0.7,10.4C256.5,175.4,237.7,175.1,226.8,175z"/>
		<path class="st2" d="M233.5,161.8c-0.4-0.2-0.9-0.2-1.4-0.2c-2.3,0-4.7,1.5-4.7,5.8c0,5.3,2.8,6.4,5.1,6.4c2.9,0,4.4-3.1,4.4-6.1
			C236.9,164.9,235.6,162.6,233.5,161.8z M232.4,170.8c-1.1,0-2.1-0.3-2.1-3.4c0-1.9,0.6-2.8,1.7-2.8c0.1,0,0.2,0,0.3,0
			c1.1,0.4,1.5,1.9,1.5,3.1C233.9,169,233.4,170.8,232.4,170.8z"/>
		<path class="st2" d="M243.1,161.8c-0.4-0.2-0.9-0.2-1.4-0.2c-2.3,0-4.7,1.5-4.7,5.8c0,5.3,2.8,6.4,5.1,6.4c2.9,0,4.4-3.1,4.4-6.1
			C246.5,164.9,245.2,162.6,243.1,161.8z M242.1,170.8c-1.1,0-2.1-0.3-2.1-3.4c0-1.9,0.6-2.8,1.7-2.8c0.1,0,0.2,0,0.3,0
			c1.1,0.4,1.5,1.9,1.5,3.1C243.5,169,243,170.8,242.1,170.8z"/>
		<path class="st2" d="M263.2,161.8c-0.4-0.2-0.9-0.2-1.4-0.2c-2.3,0-4.7,1.5-4.7,5.8c0,5.3,2.8,6.4,5.1,6.4c2.9,0,4.4-3.1,4.4-6.1
			C266.6,164.9,265.3,162.6,263.2,161.8z M262.2,170.8c-1.1,0-2.1-0.3-2.1-3.4c0-1.9,0.6-2.8,1.7-2.8c0.1,0,0.2,0,0.3,0
			c1.1,0.4,1.5,1.9,1.5,3.1C263.6,169,263.1,170.8,262.2,170.8z"/>
		<path class="st2" d="M255.3,161.2c-0.8-0.1-1.5,0.6-1.6,1.4c-0.2,2.6-0.2,5-0.2,7.1c0,0.9,0,1.7,0,2.6c0,0.8,0.7,1.5,1.5,1.5
			c0.9,0,1.5-0.7,1.5-1.5c0-0.8,0-1.7,0-2.5c0-2.1,0.1-4.4,0.2-6.9C256.8,162,256.2,161.3,255.3,161.2z"/>
		<path class="st2" d="M249.2,162.5c-0.8,0-1.5,0.7-1.5,1.5c0,0,0,0.1,0,0.1c-0.2,0.5-0.1,1.2,0.3,1.6c0.3,0.3,0.7,0.4,1.1,0.4
			c0.4,0,0.8-0.1,1.1-0.4c0.3-0.3,0.6-0.7,0.6-1.4c0-0.1,0-0.2,0-0.4C250.7,163.2,250,162.5,249.2,162.5z"/>
		<path class="st2" d="M250.7,169.5c0-0.8-0.7-1.5-1.5-1.5c-0.8,0-1.5,0.7-1.5,1.5c0,0.1,0,0.2,0,0.3c-0.3,0.6-0.1,1.4,0.6,1.8
			c0.3,0.2,0.5,0.3,0.8,0.3c0.5,0,1-0.2,1.2-0.7c0.3-0.4,0.4-0.8,0.4-1.3c0-0.1,0-0.2,0-0.4L250.7,169.5z"/>
		<path class="st2" d="M49.9,48.9c0.3,0.4,0.7,0.7,1.2,0.7c0.5,0,1-0.2,1.2-0.6c1.4-1.9,2.9-4.4,4.3-6.9c0.8-1.4,1.6-2.9,2.4-4.1
			c1.2,2,2.1,4.2,2.9,6.1c0.8,1.8,1.4,3.2,2.1,4.2c0.3,0.4,0.8,0.6,1.3,0.6c0.5,0,0.9-0.3,1.2-0.7c1.3-2,2.6-4.5,4-7.1
			c1.8-3.4,3.7-7,5.5-9.4c0.5-0.7,0.4-1.6-0.3-2.1c-0.7-0.5-1.6-0.4-2.1,0.3c-2,2.6-3.9,6.3-5.8,9.8c-0.9,1.6-1.7,3.2-2.5,4.6
			c-0.2-0.4-0.4-0.9-0.6-1.4c-1.1-2.6-2.4-5.7-4.4-8.5c-0.3-0.4-0.7-0.6-1.2-0.6c-0.5,0-0.9,0.2-1.2,0.6c-1.2,1.7-2.6,4-3.8,6.3
			c-0.9,1.6-1.9,3.3-2.8,4.7c-1-1.9-2.1-4-3.1-6.1c-1.2-2.6-2.5-5.3-3.8-7.4c-0.4-0.7-1.4-0.9-2.1-0.5c-0.7,0.4-0.9,1.4-0.5,2.1
			c1.2,2,2.4,4.6,3.6,7.1C46.9,43.5,48.3,46.6,49.9,48.9z"/>
		<path class="st2" d="M216.9,49.1c0.2,0.5,0.7,0.8,1.2,0.9c0.5,0,1.1-0.2,1.4-0.6c1.9-2.8,4.2-6,6.3-9.2c1,2.3,1.8,4.5,2.6,6.3
			c0.7,1.8,1.2,3.2,1.8,4.3c0.2,0.5,0.7,0.8,1.3,0.8c0,0,0,0,0.1,0c0.5,0,1-0.3,1.3-0.7c1.3-2.2,2.5-4.7,3.9-7.3
			c1.7-3.5,3.5-7.1,5.4-9.8c0.5-0.7,0.3-1.6-0.4-2.1c-0.7-0.5-1.6-0.3-2.1,0.4c-2,2.9-3.8,6.6-5.6,10.2c-0.8,1.6-1.5,3.1-2.3,4.5
			c-0.2-0.4-0.3-0.8-0.5-1.2c-1-2.5-2.2-5.7-3.8-8.9c-0.2-0.5-0.7-0.8-1.2-0.8c-0.5,0-1,0.2-1.3,0.7c-2.1,3.2-4.3,6.3-6.3,9.2
			c-2.1-4.6-3.8-8.7-5.6-12.9c-0.3-0.8-1.2-1.1-2-0.8c-0.8,0.3-1.1,1.2-0.8,2C212.2,38.6,214.3,43.4,216.9,49.1z"/>
		<path class="st2" d="M90.6,43.5l-0.9,0c1.5,2.5,3,5.1,4.2,7.8c0.3,0.5,0.8,0.9,1.4,0.9c0.2,0,0.4,0,0.6-0.1c0.8-0.4,1.1-1.2,0.7-2
			c-1.4-3-3-5.9-4.7-8.7c0.1,0.2,0.1,0.4,0.1,0.6C92,42.7,91.4,43.4,90.6,43.5z"/>
		<path class="st2" d="M72.3,47.3c-0.4,0.7-0.2,1.6,0.5,2.1c0.7,0.4,1.6,0.2,2.1-0.5c0.7-1.2,1.4-2.4,2.1-3.6
			c0.3-0.4,0.5-0.9,0.8-1.3c-0.3,0-0.6,0-0.9,0c-0.8,0-1.5-0.7-1.5-1.5c0-0.8,0.7-1.5,1.5-1.5c0.9,0,1.7,0,2.6,0
			c1.4-2.4,2.8-4.7,4.3-7c1,1.7,2.1,3.4,3.1,5.1c0.4,0.6,0.7,1.2,1.1,1.7c0.2,0,0.5,0,0.7,0l1.8-0.1c0.5,0,1,0.2,1.3,0.6
			c-0.8-1.3-1.5-2.5-2.3-3.8c-1.4-2.3-2.9-4.7-4.3-7.1c-0.3-0.5-0.7-0.7-1.3-0.8c-0.5,0-1,0.2-1.3,0.7c-2.9,4.4-5.6,9.1-8.2,13.6
			C73.7,44.8,73,46.1,72.3,47.3z"/>
		<path class="st2" d="M90.4,40.5l-1.8,0.1c-0.2,0-0.5,0-0.7,0c-2.8,0.1-5.6,0.2-8.4,0.2c-0.9,0-1.7,0-2.6,0c-0.8,0-1.5,0.6-1.5,1.5
			c0,0.8,0.6,1.5,1.5,1.5c0.3,0,0.6,0,0.9,0c0.4,0,0.9,0,1.3,0c3.2,0,6.5-0.1,9.7-0.3l0.9,0l0.9,0c0.8,0,1.5-0.7,1.4-1.6
			c0-0.2-0.1-0.4-0.1-0.6c0-0.1-0.1-0.2-0.2-0.3C91.4,40.7,90.9,40.4,90.4,40.5z"/>
		<path class="st2" d="M100.6,33c0,0.2,0,0.4,0,0.6c0,2.5,0.1,5.1,0.2,7.6c0.1,2.5,0.2,5,0.2,7.5c0,0.8,0.7,1.5,1.5,1.5
			c0.8,0,1.5-0.7,1.5-1.5c0-2.6-0.1-5.1-0.2-7.6c-0.1-2.5-0.2-5-0.2-7.5c0-0.2,0-0.4,0-0.6c-0.7,0-1.4,0-2.1,0
			C101.2,33,100.9,33,100.6,33z"/>
		<path class="st2" d="M92.1,33.2C92.1,33.2,92.1,33.2,92.1,33.2c2.9-0.2,5.7-0.2,8.5-0.2c0.3,0,0.6,0,0.9,0c0.7,0,1.4,0,2.1,0
			c2.4,0,4.8-0.1,7.3-0.2c0.8,0,1.5-0.8,1.4-1.6c0-0.8-0.8-1.5-1.6-1.4c-3.1,0.2-6.2,0.2-9.3,0.3c-3.1,0-6.3,0.1-9.4,0.3
			c-0.8,0-1.5,0.8-1.4,1.6C90.6,32.6,91.3,33.2,92.1,33.2z"/>
		<path class="st2" d="M121.6,51.7c2.2,0,4.4-0.6,6.2-1.8c0.7-0.4,0.9-1.4,0.5-2.1c-0.4-0.7-1.4-0.9-2.1-0.5c-1.3,0.8-3,1.3-4.6,1.3
			c-4.6,0-7.4-3.2-7.4-8.4c0-4,3-8.2,7.6-8.2l0.2,0c0.8,0,1.5-0.6,1.5-1.4c0-0.8-0.6-1.5-1.4-1.5c-6-0.2-10.9,4.9-10.9,11.2
			C111.2,47.2,115.4,51.7,121.6,51.7z"/>
		<path class="st2" d="M129.8,49c0.1,0.8,0.7,1.4,1.5,1.4c0,0,0.1,0,0.1,0c0.8-0.1,1.4-0.8,1.4-1.6l-0.1-1.1
			c-0.1-1.1-0.1-1.5-0.1-3.2c0-0.9,0-1.8,0-2.7c-0.5-0.1-1.1-0.1-1.6-0.2c-0.8-0.1-1.4-0.8-1.4-1.6c0.1-0.8,0.8-1.4,1.6-1.4
			c0.5,0,0.9,0.1,1.4,0.1c0-0.1,0-0.2,0-0.2c0-2,0.1-4,0.1-6c0-0.7,0-0.8,0-1.1l0-0.6c0-0.8-0.7-1.5-1.5-1.5c-0.8,0-1.5,0.7-1.5,1.5
			l0,0.6c0,0.3,0,0.4,0,1c0,2,0,4-0.1,5.9c0,2-0.1,4-0.1,6c0,1.8,0,2.2,0.1,3.4L129.8,49z"/>
		<path class="st2" d="M146.1,41.4c0-3.5,0-6.9,0-11.5c0-0.8-0.7-1.5-1.5-1.5c-0.8,0-1.5,0.7-1.5,1.5c0,3.9,0,6.9,0,9.9
			c0.5,0,1,0.1,1.6,0.1C145.5,40,146.1,40.6,146.1,41.4z"/>
		<path class="st2" d="M144.6,42.9C144.6,42.9,144.6,42.9,144.6,42.9c-0.5,0-1-0.1-1.5-0.1c0,2.1-0.1,4.2-0.1,6.8
			c0,0.8,0.6,1.5,1.5,1.5c0.8,0,1.5-0.6,1.5-1.5c0.1-3.1,0.1-5.7,0.1-8.1C146,42.3,145.4,42.9,144.6,42.9z"/>
		<path class="st2" d="M129.7,40c-0.1,0.8,0.6,1.5,1.4,1.6c0.5,0,1.1,0.1,1.6,0.2c1.3,0.1,2.6,0.3,3.9,0.4c2.1,0.3,4.4,0.5,6.6,0.7
			c0.5,0,1,0.1,1.5,0.1c0,0,0,0,0.1,0c0.8,0,1.4-0.6,1.5-1.4c0,0,0,0,0-0.1c0,0,0-0.1,0-0.1c0-0.8-0.6-1.4-1.4-1.5
			c-0.5,0-1-0.1-1.6-0.1c-2.1-0.1-4.2-0.4-6.2-0.6c-1.4-0.2-2.8-0.3-4.2-0.5c-0.5,0-0.9-0.1-1.4-0.1C130.5,38.6,129.7,39.2,129.7,40
			z"/>
		<path class="st2" d="M165.1,49.3c0.8,0.3,1.6-0.2,1.9-1c0.4-1.3,0.9-2.6,1.3-3.9c0.7-2.2,1.5-4.5,2.2-6.8c2.2,4,4.6,7.8,6.8,11.4
			c0.3,0.4,0.8,0.7,1.3,0.7c0,0,0,0,0.1,0c0.5,0,1-0.3,1.3-0.8c1.8-3.4,3.2-6.9,4.6-10.3c0.9-2.2,1.9-4.6,2.9-6.8
			c0.3-0.8,0-1.6-0.7-2c-0.8-0.3-1.6,0-2,0.7c-1.1,2.3-2,4.6-3,6.9c-1.1,2.7-2.1,5.2-3.3,7.7c-2.4-3.8-4.8-7.8-7-12.1
			c-0.3-0.5-0.9-0.9-1.5-0.8c-0.6,0.1-1.1,0.5-1.3,1.1c-1,3.4-2.2,6.8-3.3,10.1c-0.4,1.3-0.9,2.6-1.3,4
			C163.9,48.2,164.4,49.1,165.1,49.3z"/>
		<path class="st2" d="M198.1,52.8c5.1,0,10.8-5.6,10.8-13.1c0-4.4-3.5-10.4-10.1-10.4c-1.8,0-3.5,0.5-4.7,1.6
			c-3.2,2.6-5.1,6.6-5.1,10.8C189.1,47,192.5,52.8,198.1,52.8z M196.1,33.2c0.9-0.7,2-0.9,2.8-0.9c4.6,0,7.1,4.4,7.1,7.4
			c0,6.1-4.7,10.1-7.8,10.1c-3.6,0-6-4.2-6-8.1C192.1,38.4,193.6,35.2,196.1,33.2z"/>
		<path class="st2" d="M250.3,48C250.4,48,250.4,48,250.3,48c0.9,0,1.5-0.7,1.5-1.6c0-0.6,0-1.3,0-1.9c0-1.9,0.1-3.8,0.2-5.6
			c0.1-1.9,0.2-3.8,0.2-5.8c0-1.3,0-2.5-0.2-3.6c-0.1-0.8-0.8-1.4-1.6-1.4c-0.8,0.1-1.4,0.8-1.4,1.6c0.1,1,0.1,2.1,0.1,3.4
			c0,1.9-0.1,3.8-0.2,5.6c-0.1,1.9-0.2,3.9-0.2,5.8c0,0.7,0,1.3,0,2C248.9,47.4,249.5,48,250.3,48z"/>
		<path class="st2" d="M249.9,56.4c2,0,3.6-1.5,3.6-3.4c0-1.8-1.4-3.3-3.2-3.3c-0.2,0-0.3,0-0.5,0c-0.1,0-0.2,0-0.2,0
			c-1.3,0-2.8,1.4-2.8,3.4C246.7,55.1,248,56.4,249.9,56.4z M249.9,52.7c0,0,0.1,0,0.1,0c0.1,0,0.2,0,0.3,0c0.1,0,0.2,0.1,0.2,0.3
			c0,0.1,0,0.4-0.6,0.4c0,0-0.1,0-0.1,0c0-0.1-0.1-0.2-0.1-0.4C249.7,52.9,249.8,52.7,249.9,52.7z"/>
	</g>
</g>
<g id="text_x5F_shadow">
</g>
</svg>
