<?xml version="1.0" standalone="no"?><!DOCTYPE svg PUBLIC "-//W3C//DTD SVG 1.1//EN" "http://www.w3.org/Graphics/SVG/1.1/DTD/svg11.dtd"><svg t="1651759267292" class="icon" viewBox="0 0 1024 1024" version="1.1" xmlns="http://www.w3.org/2000/svg" p-id="3689" xmlns:xlink="http://www.w3.org/1999/xlink" width="200" height="200"><defs><style type="text/css">@font-face { font-family: feedback-iconfont; src: url("//at.alicdn.com/t/font_1031158_u69w8yhxdu.woff2?t=1630033759944") format("woff2"), url("//at.alicdn.com/t/font_1031158_u69w8yhxdu.woff?t=1630033759944") format("woff"), url("//at.alicdn.com/t/font_1031158_u69w8yhxdu.ttf?t=1630033759944") format("truetype"); }
</style></defs><path d="M0 0h1024v1024H0V0z" fill="#202425" opacity=".01" p-id="3690"></path><path d="M512 887.466667a68.266667 68.266667 0 0 1 68.266667-68.266667h307.2a68.266667 68.266667 0 1 1 0 136.533333h-307.2a68.266667 68.266667 0 0 1-68.266667-68.266666z" fill="#FFAA44" p-id="3691"></path><path d="M955.733333 512c0 245.077333-198.656 443.733333-443.733333 443.733333S68.266667 757.077333 68.266667 512 266.922667 68.266667 512 68.266667s443.733333 198.656 443.733333 443.733333z" fill="#FF7744" p-id="3692"></path><path d="M512 375.466667a102.4 102.4 0 1 0 0-204.8 102.4 102.4 0 0 0 0 204.8z m136.533333 136.533333a102.4 102.4 0 1 0 204.8 0 102.4 102.4 0 0 0-204.8 0z m-238.933333 238.933333a102.4 102.4 0 1 1 204.8 0 102.4 102.4 0 0 1-204.8 0z m-34.133333-238.933333a102.4 102.4 0 1 0-204.8 0 102.4 102.4 0 0 0 204.8 0z" fill="#FFFFFF" p-id="3693"></path></svg>