<?xml version="1.0" standalone="no"?><!DOCTYPE svg PUBLIC "-//W3C//DTD SVG 1.1//EN" "http://www.w3.org/Graphics/SVG/1.1/DTD/svg11.dtd"><svg t="1652174768313" class="icon" viewBox="0 0 1024 1024" version="1.1" xmlns="http://www.w3.org/2000/svg" p-id="2786" xmlns:xlink="http://www.w3.org/1999/xlink" width="200" height="200"><defs><style type="text/css">@font-face { font-family: feedback-iconfont; src: url("//at.alicdn.com/t/font_1031158_u69w8yhxdu.woff2?t=1630033759944") format("woff2"), url("//at.alicdn.com/t/font_1031158_u69w8yhxdu.woff?t=1630033759944") format("woff"), url("//at.alicdn.com/t/font_1031158_u69w8yhxdu.ttf?t=1630033759944") format("truetype"); }
</style></defs><path d="M512 1024C229.23 1024 0 794.77 0 512S229.23 0 512 0s512 229.23 512 512-229.23 512-512 512z m193.521-701.437c0.01 0.013 0.025 0.02 0.036 0.034-0.008-0.01-0.027-0.024-0.036-0.032-34.1-22.232-58.708-57.808-66.386-99.27h0.002c-1.661-8.96-2.57-18.182-2.57-27.616H527.742l-0.177 436.135c-1.682 44.941-35.851 81.72-79.69 87.304h-23.172c-11.02-1.41-21.424-4.8-30.875-9.774 2.443 3.385 2.441 3.385-0.002 0-29.115-15.322-49.043-45.845-49.043-80.97 0-50.441 41.04-91.482 91.48-91.482 9.417 0 18.448 1.553 26.99 4.232l0.003-111.099c-8.841-1.205-17.825-1.959-26.994-1.959-110.452 0-200.302 89.86-200.302 200.309 0 67.767 33.856 127.737 85.512 164.003l-0.002-0.003c32.536 22.84 72.11 36.304 114.794 36.304 110.447 0 200.302-89.853 200.302-200.304V407.216c42.682 30.637 94.977 48.689 151.405 48.689V347.08c-30.396 0-58.709-9.037-82.45-24.518z" p-id="2787" fill="#04132a"></path></svg>