<?xml version="1.0" encoding="utf-8"?>
<!-- Generator: Adobe Illustrator 19.0.0, SVG Export Plug-In . SVG Version: 6.00 Build 0)  -->
<svg version="1.1" id="图层_1" xmlns="http://www.w3.org/2000/svg" xmlns:xlink="http://www.w3.org/1999/xlink" x="0px" y="0px"
	 viewBox="-349 151 200 200" style="enable-background:new -349 151 200 200;" xml:space="preserve">
<style type="text/css">
	.st0{fill:#08254F;}
</style>
<path class="st0" d="M-249,310c-32.6,0-59-26.4-59-59s26.4-59,59-59s59,26.4,59,59S-216.4,310-249,310L-249,310z M-249,298.9
	c26.5,0,47.9-21.5,47.9-47.9s-21.5-47.9-47.9-47.9s-47.9,21.5-47.9,47.9S-275.5,298.9-249,298.9z"/>
<path class="st0" d="M-244.8,251h18.8c3.5,0,6.3,2.8,6.3,6.3s-2.8,6.3-6.3,6.3h-25c-1.7,0-3.3-0.7-4.4-1.8c-1.2-1.2-1.8-2.8-1.8-4.4
	v-25c0-3.5,2.8-6.3,6.3-6.3s6.3,2.8,6.3,6.3L-244.8,251L-244.8,251z"/>
</svg>
