<?xml version="1.0" encoding="utf-8"?>
<!-- Generator: Adobe Illustrator 19.0.0, SVG Export Plug-In . SVG Version: 6.00 Build 0)  -->
<svg version="1.1" id="图层_1" xmlns="http://www.w3.org/2000/svg" xmlns:xlink="http://www.w3.org/1999/xlink" x="0px" y="0px"
	 viewBox="4 1 80 78" style="enable-background:new 4 1 80 78;" xml:space="preserve">
<style type="text/css">
	.st0{fill:#0078FF;}
</style>
<path class="st0" d="M80.1,40.9C80.1,20.9,63.9,4.8,44,4.8S7.9,20.9,7.9,40.9S24.1,76.9,44,76.9S80.1,60.8,80.1,40.9z M12.7,40.9
	c0-17.3,14-31.3,31.3-31.3s31.3,14,31.3,31.3S61.3,72.1,44,72.1S12.7,58.1,12.7,40.9z"/>
<path class="st0" d="M56,43.3c1.3,0,2.4-1.1,2.4-2.4c0-1.3-1.1-2.4-2.4-2.4H27.2c-1.3,0-2.4,1.1-2.4,2.4c0,1.3,1.1,2.4,2.4,2.4H56z"
	/>
<path class="st0" d="M56.8,42l-0.1-3.4l-14.4,15c-0.9,1-0.8,2.5,0.2,3.4c0.9,0.8,2.4,0.8,3.3-0.1l14.4-15c0.9-1,0.9-2.5-0.1-3.4
	c0,0,0,0,0,0L45.7,24.7c-1-0.9-2.5-0.8-3.4,0.2c-0.8,0.9-0.8,2.3,0.1,3.2L56.8,42z"/>
</svg>
