<?xml version="1.0" encoding="utf-8"?>
<!-- Generator: Adobe Illustrator 19.0.0, SVG Export Plug-In . SVG Version: 6.00 Build 0)  -->
<svg version="1.1" id="图层_1" xmlns="http://www.w3.org/2000/svg" xmlns:xlink="http://www.w3.org/1999/xlink" x="0px" y="0px"
	 viewBox="110 0.6 534.8 79.4" style="enable-background:new 110 0.6 534.8 79.4;" xml:space="preserve">
<style type="text/css">
	.st0{fill:#F4E5B3;}
</style>
<title>资源 1</title>
<g>
	<path class="st0" d="M150.1,50.3c1.2,0.6,1.5,1.2,1.5,2.1c0,2-1.7,3-6.6,3h-2.5c-3.5,0-4.5-0.9-4.5-4.3v-3.3
		c-3,1.9-7.8,4.4-15.4,7.8c-0.2,0.4-0.6,0.8-1,0.9l-3.1-5.7c0.8-0.1,1.8-0.2,2.9-0.4V30.9l5.6,0.5c-0.1,0.4-0.3,0.7-1.1,0.9v17.4
		l2.2-0.4V24l6.1,0.6c-0.1,0.5-0.3,0.9-1.3,1v9.8l2.1-3.8c0,0,1.7,1.8,3,3.3V24l6.2,0.7c0,0.4-0.3,0.8-1.2,1V36
		c1.3-1.6,2.6-3.3,3.7-5l4.9,4.1c-0.3,0.4-0.8,0.5-1.7,0.2c-2.2,1.1-4.5,2-7,2.5v11.7c0,0.7,0.2,0.9,1,0.9h1.7c0.5,0,1,0,1.3,0
		c0.4,0,0.7-0.2,0.9-0.4c0.4-0.7,1.1-2.9,1.7-4.9h0.3L150.1,50.3z M133,48.3c1.7-0.3,3.3-0.6,5.1-1V36.7H133V48.3z"/>
	<path class="st0" d="M177.7,46.6c0,0.3-1.9,1.2-3.6,1.2h-0.8v-5.3c-0.3,0-0.6,0-0.8,0c-1.4,2-2.9,3.9-4.6,5.6
		c8.9,2.9,5.1,10.3,0.9,7.1c-0.4-2.1-1.2-4.1-2.2-5.9c-3.7,3.3-8.1,5.5-13.2,7l-0.2-0.5c6.4-3.6,11.5-8.5,15.1-16.6l5,2.5V30.3H160
		l5.2,2.1c-0.1,0.3-0.5,0.6-1.1,0.5c-1.8,1.6-3.8,2.9-5.9,4.1c1.6,0,3.5,0,5.6,0c0.7-1.3,1.3-2.7,2-4.2l5.5,2.7
		c-0.2,0.4-0.6,0.6-1.4,0.4c-4.2,6.4-9.4,10.5-16.1,13.1l-0.2-0.4c3.6-2.5,6.7-5.7,9-9.5c-1.5,0.5-3.2,1.1-5.1,1.6
		c-0.3,0.4-0.8,0.7-1.3,0.8l-1.5-4.8c0,0,1.8-0.3,2.2-0.6c1-0.9,1.9-4.1,2.2-6h-5.4l-0.3-1h8.6c-0.3-0.1-0.5-0.3-0.7-0.4
		c-0.2-1.9-0.9-3.7-2-5.2l0.2-0.2c7.5,0.4,7.3,4.6,5.1,5.8h3.1l2.3-3.1c0,0,1.8,1.5,3.2,2.8v-1.9l5.7,0.5c-0.1,0.5-0.3,0.8-1.3,1
		V46.6z M186,24.5c0,0.5-0.4,0.8-1.2,1v25.4c0,3.3-0.7,5.1-6.1,5.5c-0.1-1.6-0.3-2.7-0.9-3.5c-0.6-0.8-1.3-1.2-3.2-1.6v-0.4
		c0,0,3.7,0.2,4.5,0.2c0.6,0,0.7-0.2,0.7-0.6V23.9L186,24.5z"/>
</g>
</svg>
