<?xml version="1.0" encoding="utf-8"?>
<!-- Generator: Adobe Illustrator 19.0.0, SVG Export Plug-In . SVG Version: 6.00 Build 0)  -->
<svg version="1.1" id="图层_1" xmlns="http://www.w3.org/2000/svg" xmlns:xlink="http://www.w3.org/1999/xlink" x="0px" y="0px"
	 viewBox="-56 -60 200 200" style="enable-background:new -56 -60 200 200;" xml:space="preserve">
<style type="text/css">
	.st0{fill:#999999;}
</style>
<path class="st0" d="M141.7,37.8C129.7,6.7,82.3-22.8,44-22.8c-40.6,0-83.4,26.5-97.6,60.3l-1,2.4l1,2.4
	c14.2,33.9,57,60.4,97.6,60.4c38.2,0,85.6-29.4,97.6-60.5l0.9-2.3L141.7,37.8L141.7,37.8z M44,78.9c-21.5,0-39-17.5-39-39
	s17.5-39,39-39s39,17.5,39,39S65.6,78.9,44,78.9z"/>
<path class="st0" d="M44,13.2c-14.8,0-26.8,12-26.8,26.8s12,26.8,26.8,26.8s26.8-12,26.8-26.8S58.8,13.2,44,13.2z"/>
</svg>
