<?xml version="1.0" encoding="utf-8"?>
<!-- Generator: Adobe Illustrator 19.0.0, SVG Export Plug-In . SVG Version: 6.00 Build 0)  -->
<svg version="1.1" xmlns="http://www.w3.org/2000/svg" xmlns:xlink="http://www.w3.org/1999/xlink" x="0px" y="0px"
	 viewBox="0 0 307.5 185.5" style="enable-background:new 0 0 307.5 185.5;" xml:space="preserve">
<style type="text/css">
	.st0{fill:#E0DFE6;}
	.st1{fill:#FFCC80;}
	.st2{fill:#525D7D;}
</style>
<g id="pattern">
</g>
<g id="color">
</g>
<g id="lineart">
	<g>
		<g>
			<g>
				<path class="st0" d="M30,128.3c-0.1,0-0.1,0-0.2,0c-0.8-0.4-1.6-0.8-2.4-1.2c-0.6-0.3-1.1-0.6-1.7-0.9c-0.2-0.1-0.3-0.2-0.3-0.4
					l0-0.9c0-1-0.1-2.1-0.1-3.1l0-0.5c0-0.2,0.1-0.3,0.2-0.4c1-0.7,2-1.4,3-2.1l0.3-0.2c0.2-0.1,0.4-0.1,0.5,0
					c0.8,0.5,1.6,1,2.4,1.5c0.7,0.4,1.4,0.9,2.1,1.3c0.1,0.1,0.2,0.2,0.2,0.4c0.1,1.1,0.2,2.3,0.3,3.4c0,0.2-0.1,0.4-0.2,0.5
					c-1.5,0.8-2.7,1.7-3.8,2.6C30.3,128.2,30.2,128.3,30,128.3z M26.5,125.4c0.5,0.2,1,0.5,1.5,0.8c0.7,0.4,1.4,0.7,2,1.1
					c1-0.8,2.1-1.5,3.4-2.3c-0.1-1-0.2-1.9-0.2-2.9c-0.6-0.4-1.3-0.8-1.9-1.2c-0.7-0.4-1.4-0.9-2.1-1.3c-1,0.6-1.9,1.3-2.8,2l0,0.2
					c0,1,0,2.1,0.1,3.1L26.5,125.4z"/>
			</g>
			<g>
				<path class="st0" d="M35.5,137.6c-0.1,0-0.2,0-0.3-0.1c-0.7-0.4-1.4-0.9-2-1.3c-0.7-0.5-1.4-1-2.1-1.4c-0.2-0.1-0.3-0.3-0.3-0.4
					c0-1.2-0.1-1.9-0.1-3l0-0.6c0-0.2,0.1-0.3,0.2-0.4c1.3-1,2.8-1.9,4.4-2.9c0.2-0.1,0.3-0.1,0.5,0c0.9,0.5,1.8,1,2.6,1.6
					c0.4,0.2,0.8,0.5,1.1,0.7c0.1,0.1,0.2,0.2,0.2,0.4c0.2,1.7,0.3,2.7,0.4,4.5c0,0.2-0.1,0.4-0.3,0.5c-1.6,0.8-2.9,1.4-4.1,2.3
					C35.7,137.6,35.6,137.6,35.5,137.6z M31.9,134.1c0.7,0.4,1.3,0.9,1.9,1.3c0.5,0.4,1.1,0.8,1.6,1.1c1.1-0.8,2.3-1.4,3.7-2.1
					c-0.1-1.5-0.2-2.4-0.3-3.9c-0.3-0.2-0.6-0.4-0.9-0.6c-0.8-0.5-1.5-1-2.3-1.4c-1.4,0.8-2.7,1.7-3.8,2.5l0,0.3
					C31.8,132.3,31.9,133,31.9,134.1z"/>
			</g>
			<g>
				<path class="st0" d="M40.8,128.1c-0.1,0-0.2,0-0.3-0.1c-0.4-0.3-0.9-0.6-1.3-0.8c-0.9-0.6-1.8-1.1-2.7-1.6
					c-0.1-0.1-0.2-0.2-0.3-0.4c0-0.6-0.1-1-0.1-1.5c0-0.6-0.1-1.1-0.1-2c0-0.2,0.1-0.3,0.2-0.4c0.8-0.7,1.7-1.3,2.5-1.9
					c0.4-0.3,0.9-0.6,1.3-0.9c0.2-0.1,0.4-0.1,0.6,0c1.2,0.9,2.4,1.7,3.4,2.3c0.1,0.1,0.2,0.2,0.2,0.4l0.5,4c0,0.2-0.1,0.4-0.2,0.5
					c-0.8,0.5-1.6,1-2.4,1.5c-0.4,0.3-0.8,0.5-1.2,0.8C41,128.1,40.9,128.1,40.8,128.1z M37.4,124.8c0.9,0.5,1.7,1,2.5,1.5
					c0.3,0.2,0.7,0.4,1,0.7c0.3-0.2,0.7-0.4,1-0.6c0.7-0.4,1.4-0.9,2.1-1.3l-0.5-3.5c-0.9-0.6-2-1.2-3-2c-0.3,0.2-0.7,0.5-1,0.7
					c-0.8,0.5-1.6,1.1-2.3,1.7c0,0.7,0.1,1.2,0.1,1.7C37.3,124,37.3,124.4,37.4,124.8z"/>
			</g>
		</g>
		<g>
			<g>
				<path class="st0" d="M260.2,33.2c-0.1,0-0.1,0-0.2,0c-0.8-0.4-1.6-0.8-2.4-1.2c-0.6-0.3-1.1-0.6-1.7-0.9
					c-0.2-0.1-0.3-0.2-0.3-0.4l0-0.9c0-1.1-0.1-2.1-0.1-3.2l0-0.5c0-0.2,0.1-0.3,0.2-0.4c1-0.8,2-1.5,3-2.1l0.3-0.2
					c0.2-0.1,0.4-0.1,0.5,0c0.8,0.5,1.6,1,2.4,1.5c0.7,0.4,1.4,0.9,2.1,1.3c0.1,0.1,0.2,0.2,0.2,0.4c0.1,1.1,0.2,2.3,0.3,3.4
					c0,0.2-0.1,0.4-0.2,0.5c-1.5,0.8-2.7,1.7-3.8,2.6C260.4,33.1,260.3,33.2,260.2,33.2z M256.6,30.3c0.5,0.2,1,0.5,1.5,0.8
					c0.7,0.4,1.4,0.7,2,1.1c1-0.8,2.1-1.5,3.4-2.3c-0.1-1-0.2-1.9-0.2-2.9c-0.6-0.4-1.3-0.8-1.9-1.2c-0.7-0.4-1.4-0.9-2.1-1.3
					c-0.9,0.6-1.9,1.3-2.8,2l0,0.2c0,1.1,0,2.1,0.1,3.2L256.6,30.3z"/>
			</g>
			<g>
				<path class="st0" d="M265.6,42.5c-0.1,0-0.2,0-0.3-0.1c-0.7-0.4-1.4-0.9-2-1.3c-0.7-0.5-1.4-1-2.1-1.4c-0.2-0.1-0.3-0.3-0.3-0.4
					c0-1.2-0.1-1.9-0.1-2.9l0-0.6c0-0.2,0.1-0.3,0.2-0.4c1.3-1,2.8-1.9,4.4-2.9c0.2-0.1,0.3-0.1,0.5,0c0.9,0.5,1.8,1,2.6,1.5
					c0.4,0.2,0.8,0.5,1.2,0.7c0.1,0.1,0.2,0.2,0.2,0.4c0.2,1.7,0.3,2.7,0.4,4.5c0,0.2-0.1,0.4-0.3,0.5c-1.3,0.6-2.8,1.4-4.1,2.3
					C265.8,42.5,265.7,42.5,265.6,42.5z M262,39c0.7,0.4,1.3,0.9,1.9,1.3c0.5,0.4,1.1,0.8,1.6,1.1c1.2-0.9,2.5-1.5,3.7-2.1
					c-0.1-1.5-0.2-2.4-0.3-3.9c-0.3-0.2-0.6-0.4-0.9-0.6c-0.8-0.5-1.5-0.9-2.3-1.4c-1.4,0.8-2.7,1.7-3.8,2.5l0,0.3
					C262,37.3,262,37.9,262,39z"/>
			</g>
			<g>
				<path class="st0" d="M271,33c-0.1,0-0.2,0-0.3-0.1c-0.4-0.3-0.9-0.5-1.3-0.8c-0.9-0.6-1.8-1.1-2.7-1.7c-0.1-0.1-0.2-0.2-0.3-0.4
					c0-0.6-0.1-1-0.1-1.5c0-0.6-0.1-1.1-0.1-2c0-0.2,0.1-0.3,0.2-0.4c0.8-0.7,1.7-1.3,2.5-1.9c0.4-0.3,0.9-0.6,1.3-0.9
					c0.2-0.1,0.4-0.1,0.6,0c1.2,0.9,2.4,1.7,3.4,2.3c0.1,0.1,0.2,0.2,0.2,0.4l0.5,4c0,0.2-0.1,0.4-0.2,0.5c-0.8,0.5-1.6,1.1-2.4,1.5
					c-0.4,0.3-0.8,0.5-1.2,0.8C271.2,33,271.1,33,271,33z M267.5,29.7c0.9,0.5,1.7,1,2.5,1.5c0.3,0.2,0.7,0.4,1,0.6
					c0.3-0.2,0.6-0.4,1-0.6c0.7-0.4,1.4-0.9,2.1-1.4l-0.5-3.5c-0.9-0.5-1.9-1.2-3-2c-0.3,0.2-0.7,0.5-1,0.7
					c-0.8,0.5-1.6,1.1-2.3,1.7c0,0.7,0.1,1.2,0.1,1.7C267.4,28.9,267.4,29.3,267.5,29.7z"/>
			</g>
		</g>
		<g>
			<g>
				<path class="st0" d="M146.9,18.8c-5.7,0-7.8-4.5-7.8-7.5c0-3.4,3.1-6.6,6.5-6.6c0.6,0,1.1,0.1,1.7,0.3c2.2,0.7,4.5,1.7,6.1,4.1
					c0.6,0.9,0.9,1.9,0.9,2.9C154.3,15.1,151.3,18.8,146.9,18.8z M145.6,5.7c-2.9,0-5.5,2.7-5.5,5.6c0,2.3,1.4,6.5,6.8,6.5
					c3.8,0,6.4-3.1,6.4-5.9c0-0.8-0.2-1.6-0.7-2.3c-1.4-2-3.2-2.9-5.6-3.7C146.6,5.8,146.1,5.7,145.6,5.7z"/>
			</g>
			<g>
				<path class="st0" d="M146.9,9.7c-0.3,0-0.5-0.2-0.5-0.5c-0.2-2.9-0.5-5.8-0.5-8.8c0-0.3,0.2-0.5,0.5-0.5c0.3,0,0.5,0.2,0.5,0.5
					c0,2.9,0.2,5.8,0.5,8.7C147.4,9.5,147.2,9.7,146.9,9.7z"/>
			</g>
			<g>
				<path class="st0" d="M136,13.9c-0.2,0-0.4-0.1-0.5-0.3c-0.1-0.3,0.1-0.5,0.3-0.6c1.5-0.5,2.9-0.5,4.1-0.5c0.6,0,1.3,0,1.9,0
					c1.1,0,2.2,0.1,3.4,0c0.3,0,0.5,0.2,0.5,0.5c0,0.3-0.2,0.5-0.5,0.5c-1.2,0.1-2.3,0.1-3.5,0c-0.6,0-1.2,0-1.9,0
					c-1,0-2.4,0.1-3.7,0.5C136.1,13.8,136.1,13.9,136,13.9z"/>
			</g>
			<g>
				<path class="st0" d="M147.4,22.8c-0.3,0-0.5-0.2-0.5-0.5V15c0-0.3,0.2-0.5,0.5-0.5c0.3,0,0.5,0.2,0.5,0.5v7.3
					C147.9,22.6,147.7,22.8,147.4,22.8z"/>
			</g>
			<g>
				<path class="st0" d="M149.8,13.9c-0.2,0-0.4-0.2-0.5-0.4c-0.1-0.3,0.1-0.5,0.4-0.6c0.7-0.2,1.5-0.2,2.6-0.2c0.5,0,0.9,0,1.4,0
					c1,0,2.1,0,2.8,0c0.3,0,0.5,0.2,0.6,0.4c0,0.3-0.2,0.5-0.4,0.6c-0.8,0.1-1.9,0.1-3,0c-0.5,0-0.9,0-1.4,0c-1,0-1.7,0.1-2.4,0.2
					C149.9,13.8,149.9,13.9,149.8,13.9z"/>
			</g>
			<g>
				<path class="st0" d="M138.7,4.2c-0.1,0-0.3,0-0.4-0.1l-1.2-1.2c-0.2-0.2-0.2-0.5,0-0.7c0.2-0.2,0.5-0.2,0.7,0l1.2,1.2
					c0.2,0.2,0.2,0.5,0,0.7C138.9,4.1,138.8,4.2,138.7,4.2z"/>
			</g>
			<g>
				<path class="st0" d="M154.7,5.4c-0.3,0-0.5-0.2-0.5-0.5c0-0.8,0.7-1.2,1.2-1.4c0.2-0.1,0.5,0,0.7,0.2c0.1,0.2,0,0.5-0.2,0.7
					c-0.3,0.2-0.7,0.3-0.7,0.5C155.2,5.1,155,5.4,154.7,5.4z"/>
			</g>
			<g>
				<path class="st0" d="M138,22.6c-0.1,0-0.3,0-0.4-0.1c-0.2-0.2-0.2-0.5,0-0.7l1.2-1.2c0.2-0.2,0.5-0.2,0.7,0
					c0.2,0.2,0.2,0.5,0,0.7l-1.2,1.2C138.2,22.5,138.1,22.6,138,22.6z"/>
			</g>
			<g>
				<path class="st0" d="M156.1,21.9c-0.2,0-0.4-0.1-0.4-0.3c-0.1-0.2-0.3-0.4-0.5-0.6c-0.3-0.3-0.5-0.5-0.7-0.9
					c-0.1-0.2,0-0.5,0.2-0.7c0.2-0.1,0.5,0,0.7,0.2c0.1,0.2,0.3,0.4,0.5,0.6c0.3,0.3,0.5,0.5,0.7,0.9c0.1,0.2,0,0.5-0.2,0.7
					C156.3,21.8,156.2,21.9,156.1,21.9z"/>
			</g>
		</g>
		<path class="st1" d="M105.4,99.3c0.2,0,0.3,0,0.5,0.1c9.2,3.7,14.1-3.3,19.5-9.5c0.2-0.2,0.4-0.4,0.6-0.5c0.1-2.1-0.4-4.2-1.7-6.1
			c-2.2-3.2-6.1-4.4-9.8-3.8c-0.7,0.1-1.4,0.3-2,0.5c-0.2-0.1-0.3-0.2-0.6-0.3c-6.4-2-12.3,4-12,10.3
			C100.1,94,102.3,97.3,105.4,99.3z"/>
		<path class="st1" d="M218.8,92.9c3,4.3,9,5.5,13.1,2c3.9-3.3,4-9.5,0-12.7c-2.5-2-5.6-2.3-8.6-1.6c-0.9-1.3-2.8-2.1-4-0.5
			c-0.9,1.1-1.5,2.4-1.9,3.8c-0.7,1.3-0.8,2.8-0.3,4.1C217.2,89.7,217.8,91.4,218.8,92.9z"/>
		<path class="st1" d="M188,17.2c2.5,1.7,5.9,1.1,8.2-0.9c2.2-2,3-5,2.9-7.9c-0.1-2.3-1.9-4.2-4.2-4.2c-3.3-0.1-6.2,1.9-7.6,4.7
			c-0.2,0.2-0.4,0.3-0.6,0.5C184.6,11.9,185.5,15.6,188,17.2z"/>
		<path class="st0" d="M40.5,54.5c-1.7-2-4.8-0.5-5.1,1.8c-0.1-0.3-0.2-0.7-0.3-1c-0.9-2.7-3.6-4.4-6.4-3.6
			c-0.3,0.1-0.6,0.2-0.9,0.4c-2.4-1.1-5.2,0.3-6,2.8c-1.5-0.3-3.1,1.3-2.7,2.9c0.8,3.7,3.3,6.7,4.4,10.3c1.2,3.6,6.3,3.7,7.4,0
			c0-0.1,0-0.2,0.1-0.3c0.7,0.2,1.5,0.1,2.3-0.1c2.7-0.7,4.3-3.6,3.7-6.2c2.5,6,6.1,11.5,9.4,17c-4.8,2.2-9.1,5.3-13.4,8.3
			c-0.5,0.3-0.9,0.7-1.4,1c0.2-0.5,0.3-1,0.3-1.5c0.1-1.3-0.4-2.4-1.2-3.3c-0.1-0.2-0.6-0.8-0.7-1c-0.4-0.7-0.8-1.3-1.1-2
			c-0.8-1.3-1.5-2.6-2.3-3.9c-2.9-4.7-9.7-1.9-9.2,3.2c-1.4-0.2-3,1.2-3.2,2.7c-0.5,4.3,2.9,9.2,5.8,12.1c0.7,0.7,1.5,1.2,2.3,1.3
			c-0.7,0.7-1.3,1.4-1.9,2.1c-1.5,1.8-0.2,5.3,2.5,4.3c4.8-1.7,9.3-4.4,13.8-6.9c4.8-2.7,10.1-4.9,14.5-8.2c1.6-1.2,2.2-3.3,1.9-5.1
			c2.6-1.3,4.4-4.7,1.7-7.8C49.4,67.6,45.6,60.6,40.5,54.5z"/>
		<path class="st0" d="M111.7,121.4c8.9,0,17.2-4.7,22-12.1c0.7-0.2,1.5-0.7,2.1-1.4c3.7-4.1,6-9.1,6.7-14.6
			c0.5-4.5,0.1-10.8-3.5-14.1c-1.1-1-3.1-0.7-3.4,0.9c-0.8,3.5-0.1,7.1-1,10.7c-1,4-2.8,7.3-5.5,10.3c0,0,0,0-0.1,0.1
			c-1.4,0.1-2.9,0.8-4,2.3c-3.4,4.5-8.4,7.5-14.1,7.7c-5.9,0.2-10.4-2.7-15.5-5c-1.8-0.8-4.1,0.5-3.5,2.7
			C94.1,117,103.8,121.5,111.7,121.4z"/>
		<path class="st0" d="M206.8,151.5c4.1,1.5,7.1-5.4,3-7.1c-11.1-4.8-23.3-5.6-35.2-5.4c-5.5,0.1-11.2,0.1-16.8,0.5
			c-0.5-1.1-1.6-2-3.1-2c-8.1-0.2-17.1-1.3-24.8,1.7c-7.2,2.8-12.7,8.6-17.4,14.5c-4.9,6.3-9.5,13.7-16.3,18.2
			c-6.1,3.9-15.5,5.2-21-0.3c-0.6-0.6-1.7,0.2-1.2,1c7.1,12.9,22.5,8.7,32,0.9c-2.9,3-6,5.7-9.7,7.8c-0.9,0.5-0.3,1.7,0.7,1.5
			c18.6-3.5,25.6-22.8,41.4-30.8c10-5.1,22-4.8,32.9-5C183.4,146.6,195.1,147.3,206.8,151.5z M118.1,158.8c2.5-3.3,5.2-6.4,8.5-8.9
			c1.4-1.1,2.9-2,4.4-2.7C126.2,150.4,122,154.4,118.1,158.8z"/>
		<path class="st0" d="M282.1,140c0-0.1,0-0.2,0-0.3c-0.4-10.5-2-21.1-4.9-31.2c-5.7-20.7-16.2-39.3-30.8-54.9
			c-0.7-0.8-2,0.2-1.5,1.1c1,1.7,1.9,3.3,2.8,5c-2.8-3.3-5.9-6.2-9.5-8.6c-0.9-0.6-1.8,0.5-1.4,1.4c5.4,10,11.5,19.5,15.6,30.2
			c0.4,1,0.7,2,1.1,3c-1.4,0.1-2.6,0.9-3,2.6c-1.6,7.5-2.1,14.6-9.7,18.5c-7.6,3.9-16.1,2.8-24,0.8c-0.9-0.2-1.5,0.9-0.9,1.5
			c7.1,7.5,19,8.2,28.1,4.1c7.4-3.3,11.2-9.8,12.8-17.1c1.8,6.6,3.3,13.3,4.3,20.1c1.9,12.1,3,24.8,2.6,37
			c-0.1,4.9-0.6,11.5-4.2,15.3c-4.5,1-8.8,1.7-13.1,1.8c-1.2-0.2-2.5-0.5-3.6-0.6c-0.6-0.1-1.2,0.1-1.6,0.4c-4.5-0.5-8.9-2-13.2-5
			c-0.9-0.6-1.7,0.6-1.3,1.3c2.2,4.9,5.8,8,10.2,9.7c0.3,0.2,0.7,0.4,1,0.6c1.9,1.4,4,2.4,6.1,3c8.7,3.5,18.7,4.3,27.1,0.4
			c12.3-5.8,14.7-25.6,12.8-37.4C283.9,141.3,283.1,140.4,282.1,140z M266.5,173.8c1.7-1.5,3.1-3.5,4-5.9c0.2-0.5,0.4-1,0.5-1.5
			c0,0.9,0,1.8,0.1,2.8C270,171,268.5,172.6,266.5,173.8z"/>
		<path class="st0" d="M198.8,110.7c-0.4-2.7-0.7-5.4-1.1-8.1c-0.3-2.2-0.3-4.8-1.9-6.5c-1.4-1.5-3.5-1.5-5.4-1.7
			c-2.2-0.2-4.3-0.3-6.5-0.3c0.3-0.8,0.3-1.8-0.2-2.6c-0.7-1.1-1.1-2.3-1.5-3.6c-0.4-1.2-0.4-2.5-1.4-3.4c-0.6-0.5-1.6-0.6-2.1,0
			c-1,1.1-1,2.6-1,4.1c0,0.8,0,1.7,0.1,2.5c-0.1,0-0.3,0.1-0.4,0.1c-0.2-0.7-0.4-1.5-0.5-2c-0.4-1.3-0.4-2.7-0.9-3.9
			c-0.3-0.7-1.5-1.1-1.9-0.2c-0.6,1.3-0.7,2.8-0.8,4.3c-0.2,1.6,0.1,3.4-0.3,4.9c-0.5,2.5,1.5,4.3,3.9,3.9c1.1-0.2,2.1-0.4,3.2-0.7
			c0.5-0.2,0.9-0.4,1.2-0.7c1.8,0.7,3.7,1.3,5.6,1.8c0.1,0,0.2,0.1,0.4,0.1c-0.6,5.4,0.3,11,0.2,16.4c0,0.3,0,0.6,0.1,0.8
			c-0.6,0-1.2,0-1.8,0c-0.9,0-1.7,0.4-2.3,1c-1.3-0.3-2.9,0.4-3.5,1.9c-1.4,3.9-6.4,3.2-9.7,3.5c-3,0.3-6.2,0.6-9.1,1.5
			c-1.4,0.5-1.6,2.6,0,3c1.8,0.5,5,1,8.4,1.2c-2.9,0.1-5.9,0.1-8.7,0.8c-1,0.2-1.3,1.8-0.3,2.3c6.8,3.2,15.9,1.9,23,0.6
			c2.5-0.5,5.3-0.8,6.6-3.3c0.9-1.7,0.6-3.8,0-5.9c2.2-0.1,4.3-0.5,6.4-1.1c3.5-1,2.9-5.7,0.3-6.7
			C197.9,114.2,199.1,112.8,198.8,110.7z M184.5,125.5c-0.2,0.6-2.5,1.1-4.8,1.4c1.9-0.6,3.4-1.5,4.4-2.8
			C184.4,124.8,184.6,125.3,184.5,125.5z M192,105c-0.4-2-0.9-4-1.5-5.9c0.5,0.2,1,0.4,1.2,0.7C192.3,100.7,191.9,103.8,192,105z"/>
		<path class="st0" d="M147.6,113.8c-1.4-0.1-2.4,1.7-1.6,2.8c1.8,2.4,5,3.6,7.8,4.2c1.8,0.4,3.5-0.6,3.8-2.5c0.2-1.8-1.1-3.4-3-3.4
			C152.2,114.9,150,114,147.6,113.8z"/>
		<path class="st0" d="M222.1,99.7c-0.8,0-1.3,1-0.7,1.6c8.4,8.2,23.5-3.9,21.1-14c-0.5-2.1-3.8-2.2-4.3,0c-0.9,4-1.4,7.5-4.9,10.1
			C229.8,100.1,226.1,99.5,222.1,99.7z"/>
		<path class="st0" d="M105.9,99.3c-0.2-0.1-0.3-0.1-0.5-0.1c-0.8,0.1-1.5,1.2-1,1.9c7.6,10,20.6-0.8,25.4-7.9
			c1.7-2.4-1.7-5.3-3.9-3.9c-0.2,0.1-0.4,0.3-0.6,0.5C120,96,115.1,103,105.9,99.3z"/>
		<path class="st0" d="M131,47.8c-0.6-0.1-1,0.5-0.9,1.1c-0.5,0.2-0.8,0.9-0.3,1.3c5.9,5.2,12.6,9.8,19.3,14
			c4.5,2.8,10.3,5.2,15.7,4.4c11.2,1.3,22.9-0.7,33.5-4.1c2.7-0.8,2.4-5.4-0.7-5.1c-9.4,0.9-18.7,2.8-28,2.6
			c-0.5-0.5-1.3-0.9-2.1-0.9c-2.6-0.1-4.9,0.1-7.3-0.1c-0.2,0-0.4-0.1-0.6-0.1c-5.7-1.2-10.5-3.7-15.3-7
			C140.1,51,136.2,48.2,131,47.8z"/>
		<path class="st2" d="M298.2,95.2c-0.1-1.2-0.1-2.4-0.1-3.6c0-1.8,0.1-3.4,0.3-4.9c0.1-0.8-0.4-1.6-1.3-1.7
			c-0.8-0.1-1.6,0.4-1.7,1.3c-0.3,1.7-0.4,3.4-0.4,5.4c0,1.3,0.1,2.5,0.1,3.8c0.5,0,1.1-0.1,1.6-0.1
			C297.3,95.3,297.8,95.2,298.2,95.2z"/>
		<path class="st2" d="M295.5,98.4c0,0.4,0.1,0.7,0.1,1.1c0.2,2.5,0.4,5.1,0.4,7.6c0,0.8,0.7,1.5,1.5,1.5c0.8,0,1.5-0.7,1.5-1.5
			c0-2.7-0.2-5.3-0.5-7.9c0-0.4-0.1-0.7-0.1-1.1c-0.5,0-0.9,0.1-1.4,0.1C296.6,98.3,296,98.4,295.5,98.4z"/>
		<path class="st2" d="M287.8,98.6c0.9,0.1,1.8,0.1,2.7,0.1c1.6,0,3.3-0.1,4.9-0.2c0.5,0,1.1-0.1,1.6-0.1c0.4,0,0.9-0.1,1.4-0.1
			c2.6-0.2,5.2-0.3,7.4-0.2c0.8,0.1,1.6-0.5,1.6-1.4c0.1-0.8-0.5-1.6-1.4-1.6c-0.9-0.1-1.8-0.1-2.7-0.1c-1.7,0-3.4,0.1-5.2,0.3
			c-0.5,0-0.9,0.1-1.4,0.1c-0.5,0-1.1,0.1-1.6,0.1c-2.5,0.2-5.1,0.3-7.2,0.1c-0.8-0.1-1.6,0.5-1.6,1.4
			C286.4,97.7,287,98.5,287.8,98.6z"/>
		<path class="st2" d="M181.9,172c-0.1-1.2-0.1-2.4-0.1-3.6c0-1.8,0.1-3.4,0.3-4.9c0.1-0.8-0.4-1.6-1.3-1.7
			c-0.8-0.1-1.6,0.4-1.7,1.3c-0.3,1.7-0.4,3.4-0.4,5.4c0,1.3,0.1,2.5,0.1,3.8c0.5,0,1.1-0.1,1.6-0.1
			C180.9,172.1,181.4,172,181.9,172z"/>
		<path class="st2" d="M179.1,175.3c0,0.4,0.1,0.7,0.1,1.1c0.2,2.5,0.4,5.1,0.4,7.6c0,0.8,0.7,1.5,1.5,1.5c0.8,0,1.5-0.7,1.5-1.5
			c0-2.7-0.2-5.3-0.5-7.9c0-0.4-0.1-0.7-0.1-1.1c-0.5,0-0.9,0.1-1.4,0.1C180.2,175.2,179.7,175.2,179.1,175.3z"/>
		<path class="st2" d="M171.7,172.4c-0.8-0.1-1.6,0.5-1.6,1.4c-0.1,0.8,0.5,1.6,1.4,1.6c0.9,0.1,1.8,0.1,2.7,0.1
			c1.6,0,3.3-0.1,4.9-0.2c0.5,0,1.1-0.1,1.6-0.1c0.4,0,0.9-0.1,1.4-0.1c2.6-0.2,5.2-0.3,7.4-0.2c0.8,0.1,1.6-0.5,1.6-1.4
			c0.1-0.8-0.5-1.6-1.4-1.6c-0.9-0.1-1.8-0.1-2.7-0.1c-1.7,0-3.5,0.1-5.2,0.3c-0.5,0-0.9,0.1-1.4,0.1c-0.5,0-1.1,0.1-1.6,0.1
			C176.4,172.5,173.8,172.6,171.7,172.4z"/>
		<path class="st2" d="M275.9,141.3c0-1.5-2.3-24.7-9.5-47.8c-9.5-30.2-23.1-46.1-39.6-46.1c-7.9,0-13,2.4-16.8,5.3l0.8,0.3
			c0.8,0.3,1.2,1.1,0.9,1.9c-0.2,0.6-0.8,1-1.4,1c-0.2,0-0.3,0-0.5-0.1l-1.4-0.5c-0.4-0.1-0.7-0.3-1.1-0.4c-0.8,0.7-1.6,1.5-2.3,2.2
			c-2.1,2.1-3.9,3.8-6,4.5c-11.2,3.8-23,3.9-34.5,3.9c-0.9,0-1.8,0-2.7,0c-0.9,0-1.8,0-2.6,0c-6.4,0-11.5-3.9-17.3-8.4
			c-3.6-2.8-7.5-5.8-12.1-8.1c-1.6,0.3-3.2,0.6-4.8,1c-0.8,0.2-1.6-0.3-1.8-1.2c-0.2-0.8,0.3-1.6,1.2-1.8c0.1,0,0.3-0.1,0.4-0.1
			c-3.1-1-6.6-1.6-10.5-1.6c-38.4,0-52,55.5-52,103c0,12.3,2.8,21.6,8.3,27.8c4.1,4.7,9.9,7.3,15.7,7.3c13.9,0,19.2-8.1,24.7-16.6
			c8-12.3,17.1-26.3,54-26.3c31.3,0,36.9,1.5,42.3,7.6c1.5,1.6,3,3.4,4.6,5.2c10.6,12.2,23.9,27.4,39.9,27.4
			C267.4,180.8,275.9,174.5,275.9,141.3z M214.1,151.4c-1.6-1.8-3.1-3.6-4.6-5.2c-6.5-7.2-13.6-8.6-44.6-8.6
			c-38.6,0-48.5,15.4-56.5,27.7c-5.5,8.5-9.9,15.2-22.2,15.2c-3.5,0-21-1.5-21-32.1c0-11.3,1-40.2,10.1-64.8
			c8.7-23.4,21.8-35.3,38.9-35.3c11.5,0,18.8,5.6,25.8,11.1c6,4.6,11.7,9,19.1,9c0.9,0,1.8,0,2.7,0c0.9,0,1.8,0,2.7,0
			c11.7,0,23.8,0,35.5-4c2.7-0.9,4.9-3,7.1-5.2c4.2-4.2,9-8.9,19.8-8.9c18.9,0,30.4,23.9,36.7,44c7,22.4,9.4,45.6,9.4,46.9
			c0,34-8.8,36.6-21.2,36.6C237,177.8,224.8,163.8,214.1,151.4z"/>
		<path class="st2" d="M123.1,48.8c0.2,0.8,1,1.3,1.8,1.2c1.6-0.3,3.2-0.7,4.8-1c9.7-1.8,19.4-2.7,28.9-2.7
			c23.3,0,37.4,4.6,48.7,8.4c0.4,0.1,0.7,0.3,1.1,0.4l1.4,0.5c0.2,0.1,0.3,0.1,0.5,0.1c0.6,0,1.2-0.4,1.4-1c0.3-0.8-0.2-1.6-0.9-1.9
			l-0.8-0.3l-0.6-0.2c-11.7-4-26.2-9-50.7-9c-11.1,0-22.5,1.2-33.9,3.6c-0.1,0-0.3,0.1-0.4,0.1C123.5,47.2,123,48,123.1,48.8z"/>
		<path class="st2" d="M109.9,63c-1.6,0-3.2,0.1-4.8,0.3c-12.6,1.4-20.2,13.8-20.2,25c0,15.8,14.8,24.2,25.4,24.2
			c6.3,0,13.2-2.9,18.6-7.8c5.9-5.3,9.2-12.2,9.2-19.3C138.2,74.3,129.4,63,109.9,63z M110.3,109.5c-9.4,0-22.4-7.4-22.4-21.2
			c0-9.9,6.6-20.8,17.5-22c1.5-0.2,3-0.2,4.4-0.2c12.6,0,25.3,6,25.3,19.5C135.2,98.8,121.6,109.5,110.3,109.5z"/>
		<path class="st2" d="M110.6,73.9c-0.9,0-1.8,0-2.6,0.1c-6.5,0.7-11.4,6.8-11.4,14.1c0,8.9,8.3,13.6,14.3,13.6
			c7.2,0,15.6-6.6,15.6-15.1C126.5,80.2,121.6,73.9,110.6,73.9z M110.9,98.7c-3.9,0-11.3-3.1-11.3-10.6c0-5,3.3-10.5,8.7-11.1
			c0.8-0.1,1.5-0.1,2.3-0.1c6.4,0,12.8,3,12.8,9.7C123.5,93.3,116.6,98.7,110.9,98.7z"/>
		<path class="st2" d="M250.2,86.2c0-11.8-12-21.8-26.3-21.8c-1.8,0-3.7,0.2-5.5,0.5c-11,1.9-16.8,12.6-16.8,22.1
			c0,13.3,10.5,23.8,24,23.8C243.5,110.8,250.2,95.7,250.2,86.2z M225.6,107.8c-11.8,0-21-9.1-21-20.8c0-8.3,4.9-17.5,14.3-19.1
			c1.7-0.3,3.3-0.4,5-0.4c12.6,0,23.3,8.6,23.3,18.8C247.2,94.9,241.4,107.8,225.6,107.8z"/>
		<path class="st2" d="M224.9,75.3c-1,0-1.9,0.1-2.9,0.3c-5.9,1-9,6.7-9,11.8c0,7.1,5.6,12.6,12.8,12.6c9.5,0,13-8,13-13
			C238.8,80.5,232.6,75.3,224.9,75.3z M225.8,97c-5.5,0-9.8-4.2-9.8-9.6c0-3.8,2.2-8.1,6.5-8.8c0.8-0.1,1.6-0.2,2.4-0.2
			c5.9,0,10.9,4,10.9,8.7C235.8,89.7,234,97,225.8,97z"/>
		<path class="st2" d="M84.1,123.2c7.8,2.8,14.7,4.6,21,5.5c0.1,0,0.1,0,0.2,0c0.7,0,1.4-0.5,1.5-1.3c0.1-0.8-0.5-1.6-1.3-1.7
			c-6.1-0.9-12.8-2.6-20.4-5.3c-0.8-0.3-1.6,0.1-1.9,0.9C82.9,122,83.3,122.9,84.1,123.2z"/>
		<path class="st2" d="M106,137c-1.1,0.2-2.2,0.4-3.4,0.4c-3.5,0-6.8-1-10.4-2.1c-3.7-1.1-7.5-2.3-11.5-2.3c-0.8,0-1.5,0.7-1.5,1.5
			s0.7,1.5,1.5,1.5c3.6,0,7,1,10.7,2.1c3.6,1.1,7.3,2.2,11.2,2.2c1.4,0,2.7-0.1,4.1-0.4c0.8-0.2,1.3-1,1.1-1.8
			C107.6,137.4,106.8,136.8,106,137z"/>
		<path class="st2" d="M251.5,119.7c0.8-0.2,1.3-1,1.1-1.8c-0.2-0.8-1-1.3-1.8-1.1c-3.8,1-7.4,2.4-11,3.7c-3.5,1.3-7.1,2.7-10.7,3.6
			c-0.8,0.2-1.3,1-1.1,1.8c0.2,0.7,0.8,1.1,1.4,1.1c0.1,0,0.3,0,0.4-0.1c3.8-1,7.4-2.4,11-3.7C244.3,122.1,247.9,120.7,251.5,119.7z
			"/>
		<path class="st2" d="M256.4,127.4c-0.4-0.7-1.3-1-2.1-0.5c-5.6,3.3-11.3,5.7-18,8.3c-0.8,0.3-1.2,1.2-0.9,1.9c0.2,0.6,0.8,1,1.4,1
			c0.2,0,0.4,0,0.5-0.1c6.9-2.6,12.7-5.1,18.4-8.5C256.5,129,256.8,128.1,256.4,127.4z"/>
		<path class="st2" d="M193.4,102.5c-0.3-2.1-0.7-4.3-1.2-6.4c-0.2-0.8-0.9-1.3-1.7-1.1c-1.8,0.3-3.8,0.4-6.2,0.4
			c-1.6,0-3.2-0.1-4.9-0.1l-0.1,0c-0.5-4.6-0.6-9.1-0.7-12.6c0-0.4-0.2-0.8-0.5-1.1c-0.3-0.3-0.7-0.4-1.1-0.4
			c-6.1,0.6-12.5,1-19.5,1.1c-0.4,0-0.8,0.2-1.1,0.5c-0.3,0.3-0.4,0.7-0.4,1.1c0.1,4.5,0.4,9,0.9,13.6c-0.8,0.1-1.6,0.1-2.4,0.2
			c-3.3,0.3-6.6,0.5-10,1.4c-0.7,0.2-1.1,0.8-1.1,1.5c0.1,4.4,0.7,9.2,1.9,14.7c0.2,0.7,0.8,1.2,1.5,1.2c0.7,0,1.4-0.1,2-0.1
			c2.4-0.1,4.8-0.2,7.3-0.5c0.1,0.6,0.1,1.1,0.2,1.7c0.3,3.6,0.6,7.3,1.3,10.9c0.1,0.7,0.8,1.2,1.5,1.2c10-0.2,18-1,25.3-2.4
			c0.5-0.1,0.9-0.4,1.1-0.8c0.2-0.4,0.2-0.9,0-1.4c-1-1.8-1.5-3.9-2-6.1c-0.1-0.3-0.1-0.6-0.2-0.8c4.3-0.2,8.4-0.7,12.4-1.2
			c0.5-0.1,0.9-0.4,1.1-0.8c0.2-0.4,0.2-1,0-1.4C194.8,110.9,194.1,106.8,193.4,102.5z M181.3,115.2c-0.5,0-0.9,0.2-1.1,0.6
			c-0.3,0.4-0.4,0.8-0.2,1.3c0.2,0.8,0.4,1.7,0.6,2.5c0.4,1.7,0.8,3.4,1.4,5c-6.3,1.1-13.3,1.8-21.6,2c-0.5-3.1-0.8-6.3-1.1-9.4
			c-0.1-1.1-0.2-2.2-0.3-3.3c0-0.4-0.3-0.8-0.6-1c-0.3-0.2-0.6-0.3-0.9-0.3c-0.1,0-0.2,0-0.3,0c-2.8,0.5-5.6,0.6-8.5,0.7
			c-0.3,0-0.5,0-0.8,0c-0.9-4.3-1.4-8.2-1.5-11.7c2.7-0.6,5.5-0.8,8.4-1c1.3-0.1,2.6-0.2,4-0.4c0.8-0.1,1.4-0.8,1.3-1.7
			c-0.5-4.4-0.8-8.9-1-13.3c5.9-0.1,11.4-0.4,16.6-0.9c0.1,3.6,0.2,8,0.8,12.5c0.1,0.7,0.7,1.3,1.4,1.3l1.4,0c1.6,0.1,3.3,0.1,5,0.1
			c1.9,0,3.6-0.1,5.2-0.3c0.3,1.6,0.6,3.3,0.9,4.9c0.6,3.7,1.2,7.6,2.8,11.2C189.4,114.6,185.4,115,181.3,115.2z"/>
		<path class="st2" d="M10.1,80c0.4-0.2,0.9-0.5,1.3-0.7c-2.8-4.7-5.5-9.5-7.9-14.4c3.6-2,7.2-4.2,10.7-6.2c0.2-0.1,0.4-0.2,0.6-0.3
			c-0.2-0.4-0.5-0.9-0.8-1.3c-0.4-0.7-0.1-1.6,0.6-2c-0.6,0.4-1.3,0.8-1.9,1.1C8.7,58.4,4.7,60.8,0.8,63c-0.7,0.4-1,1.2-0.6,2
			C3,70.8,6.2,76.5,9.5,82C9.1,81.3,9.4,80.4,10.1,80z"/>
		<path class="st2" d="M48.6,78.5c-6.7-10.8-12.4-21.9-17-31.4c-0.2-0.4-0.5-0.6-0.9-0.8c-0.4-0.1-0.8-0.1-1.2,0.1
			C24.6,49.1,19.5,52,14.5,55c0.7-0.4,1.6-0.1,2,0.6c0.2,0.4,0.5,0.9,0.7,1.3c4.1-2.4,8.2-4.8,12.4-7.1c2.1,4.3,4.5,9,7,13.8
			c0.4-0.3,0.7-0.5,1.1-0.8c0.7-0.5,1.6-0.3,2.1,0.4c0.5,0.7,0.3,1.6-0.4,2.1c-0.5,0.3-0.9,0.6-1.4,1c2.3,4.2,4.7,8.4,7.2,12.6
			c-3.8,2.6-7.7,5.2-11.6,7.7c0.3,0.5,0.5,1,0.8,1.5c0.4,0.7,0.1,1.6-0.6,2c-0.2,0.1-0.5,0.2-0.7,0.2c-0.5,0-1.1-0.3-1.3-0.8
			c-0.2-0.4-0.4-0.8-0.6-1.2c-3.5,2.3-6.9,4.5-10.3,6.6c-1.2-1.9-2.4-3.8-3.6-5.7c-1.5-2.4-3-4.8-4.5-7.2c-0.4,0.3-0.9,0.5-1.3,0.8
			c-0.2,0.1-0.5,0.2-0.7,0.2c-0.5,0-1-0.3-1.3-0.7c1.8,2.9,3.5,5.7,5.3,8.6c1.5,2.3,2.9,4.7,4.3,7c0.2,0.3,0.5,0.6,0.9,0.7
			c0.1,0,0.2,0,0.3,0c0.3,0,0.6-0.1,0.8-0.2c8.7-5.5,17.9-11.5,26.9-17.7C48.9,80,49.1,79.1,48.6,78.5z"/>
		<path class="st2" d="M26.7,73.7c3.8-2.4,7.6-4.8,11.3-7.4c0.5-0.3,0.9-0.6,1.4-1c0.7-0.5,0.8-1.4,0.4-2.1
			c-0.5-0.7-1.4-0.8-2.1-0.4c-0.4,0.3-0.7,0.5-1.1,0.8c-3.7,2.6-7.6,5.1-11.4,7.5C25.8,71.9,26.2,72.8,26.7,73.7z"/>
		<path class="st2" d="M10.8,82.8c0.3,0,0.5-0.1,0.7-0.2c0.4-0.3,0.9-0.5,1.3-0.8c3.7-2.1,7.5-4.3,11.2-6.6c-0.5-0.9-1-1.8-1.5-2.6
			c-3.8,2.3-7.6,4.5-11.3,6.7c-0.4,0.2-0.9,0.5-1.3,0.7c-0.7,0.4-1,1.3-0.6,2C9.8,82.5,10.3,82.8,10.8,82.8z"/>
		<path class="st2" d="M14,57c0.2,0.4,0.5,0.9,0.8,1.3c1.7,3,3.4,6,5,9c1,1.7,2,3.5,3,5.3c0.5,0.9,1,1.7,1.5,2.6
			c2.4,4.3,4.8,8.6,7.1,12.9c0.2,0.4,0.4,0.8,0.6,1.2c0.3,0.5,0.8,0.8,1.3,0.8c0.2,0,0.5-0.1,0.7-0.2c0.7-0.4,1-1.3,0.6-2
			c-0.3-0.5-0.5-1-0.8-1.5c-2.3-4.3-4.7-8.6-7-12.9c-0.5-0.9-1-1.8-1.5-2.6c-1-1.7-2-3.5-2.9-5.2c-1.7-3-3.4-6-5.1-9
			c-0.2-0.4-0.5-0.8-0.7-1.3c-0.4-0.7-1.3-1-2-0.6C13.8,55.4,13.6,56.3,14,57z"/>
		<path class="st2" d="M49,48.8c0.3,0,0.7-0.1,0.9-0.3c1-0.8,2.1-1.6,3.1-2.4c0.7-0.5,0.8-1.4,0.3-2.1c-0.5-0.7-1.4-0.8-2.1-0.3
			c-1.1,0.8-2.2,1.6-3.2,2.5c-0.6,0.5-0.7,1.5-0.2,2.1C48.1,48.6,48.5,48.8,49,48.8z"/>
		<path class="st2" d="M39.5,57.7c0.4,0,0.8-0.2,1.1-0.5c0.9-1,1.8-1.9,2.7-2.8c0.6-0.6,0.6-1.5,0-2.1c-0.6-0.6-1.5-0.6-2.1,0
			c-1,1-1.9,1.9-2.8,2.9c-0.6,0.6-0.5,1.6,0.1,2.1C38.8,57.6,39.2,57.7,39.5,57.7z"/>
		<path class="st2" d="M83.5,31.3c0.1,0,0.2,0,0.4,0c1.3-0.3,2.6-0.6,3.8-0.9c0.8-0.2,1.3-1,1.2-1.8c-0.2-0.8-1-1.3-1.8-1.2
			c-1.3,0.3-2.7,0.6-4,0.9c-0.8,0.2-1.3,1-1.1,1.8C82.2,30.8,82.8,31.3,83.5,31.3z"/>
		<path class="st2" d="M109.1,29.1c1.3,0.1,2.6,0.3,3.9,0.5c0.1,0,0.1,0,0.2,0c0.7,0,1.4-0.5,1.5-1.3c0.1-0.8-0.4-1.6-1.3-1.7
			c-1.4-0.2-2.7-0.4-4-0.5c-0.8-0.1-1.6,0.5-1.6,1.3C107.7,28.3,108.3,29,109.1,29.1z"/>
		<path class="st2" d="M122.4,28.4c-0.8-0.2-1.6,0.3-1.8,1.1c-0.2,0.8,0.3,1.6,1.1,1.8c1.3,0.3,2.6,0.7,3.8,1c0.1,0,0.3,0.1,0.4,0.1
			c0.6,0,1.2-0.4,1.4-1.1c0.2-0.8-0.2-1.6-1-1.9C125.1,29.1,123.8,28.7,122.4,28.4z"/>
		<path class="st2" d="M71.2,35.4c0.2,0,0.4,0,0.6-0.1c1.2-0.5,2.4-1,3.7-1.4c0.8-0.3,1.2-1.1,0.9-1.9c-0.3-0.8-1.1-1.2-1.9-0.9
			c-1.3,0.5-2.5,1-3.8,1.5c-0.8,0.3-1.1,1.2-0.8,2C70,35.1,70.6,35.4,71.2,35.4z"/>
		<path class="st2" d="M100.2,25.8c-1.3,0-2.7,0.1-4.1,0.3c-0.8,0.1-1.4,0.8-1.4,1.6c0.1,0.8,0.7,1.4,1.5,1.4c0,0,0.1,0,0.1,0
			c1.3-0.1,2.6-0.2,3.9-0.2c0.8,0,1.5-0.7,1.4-1.6C101.7,26.4,101.1,25.8,100.2,25.8z"/>
		<path class="st2" d="M135,32.7c-0.7-0.4-1.6,0-2,0.7c-0.4,0.7,0,1.6,0.7,2c1.2,0.6,2.4,1.2,3.3,1.8c0.3,0.2,0.5,0.2,0.8,0.2
			c0.5,0,1-0.2,1.3-0.7c0.5-0.7,0.3-1.6-0.4-2.1C137.6,34,136.4,33.3,135,32.7z"/>
		<path class="st2" d="M59.6,41.3c0.3,0,0.5-0.1,0.8-0.2c1.1-0.7,2.3-1.3,3.4-2c0.7-0.4,1-1.3,0.6-2c-0.4-0.7-1.3-1-2-0.6
			c-1.2,0.6-2.4,1.3-3.5,2c-0.7,0.4-0.9,1.3-0.5,2.1C58.6,41.1,59.1,41.3,59.6,41.3z"/>
		<path class="st2" d="M192.3,23.1c2.4,0,8-2.2,9.9-7.1c-0.5-0.1-1-0.2-1.4-0.4c-0.8-0.2-1.2-1.1-1-1.9c0.2-0.8,1.1-1.2,1.9-1
			c0.4,0.1,0.8,0.2,1.2,0.3c0-0.2,0-0.4,0-0.6c0-5.9-6.1-10.9-11-10.9c-0.4,0-0.7,0-1.1,0.1c-1.4,0.2-2.8,0.6-4,1.3
			c-3.1,1.9-5,5.3-5,9.2C181.8,19.7,188.1,23.1,192.3,23.1z M188.4,5.6c0.8-0.5,1.8-0.8,2.8-0.9c0.3,0,0.5,0,0.8,0
			c3.5,0,8,3.8,8,7.9c0,5.5-6.3,7.6-7.6,7.6c-2.3,0-7.5-2-7.5-7.8C184.8,9.5,186.2,7,188.4,5.6z"/>
		<path class="st2" d="M217.9,13.9c-1.3,0.2-2.5,0.3-3.8,0.4c-0.8,0-1.5,0.7-1.4,1.6c0,0.8,0.7,1.4,1.5,1.4c0,0,0,0,0.1,0
			c1.4-0.1,2.8-0.2,4.1-0.4c0.8-0.1,1.4-0.9,1.3-1.7C219.5,14.3,218.7,13.8,217.9,13.9z"/>
		<path class="st2" d="M199.8,13.8c-0.2,0.8,0.2,1.6,1,1.9c0.5,0.1,1,0.3,1.4,0.4c0.9,0.2,1.7,0.4,2.6,0.6c0.1,0,0.2,0,0.3,0
			c0.7,0,1.3-0.5,1.5-1.2c0.1-0.8-0.4-1.6-1.2-1.7c-0.9-0.2-1.7-0.4-2.5-0.6c-0.4-0.1-0.8-0.2-1.2-0.3
			C200.9,12.6,200.1,13,199.8,13.8z"/>
	</g>
</g>
<g id="text_x5F_shadow">
</g>
</svg>
