<?xml version="1.0" encoding="utf-8"?>
<!-- Generator: Adobe Illustrator 19.0.0, SVG Export Plug-In . SVG Version: 6.00 Build 0)  -->
<svg version="1.1" id="图层_1" xmlns="http://www.w3.org/2000/svg" xmlns:xlink="http://www.w3.org/1999/xlink" x="0px" y="0px"
	 viewBox="-55.9 -60 200 200" style="enable-background:new -55.9 -60 200 200;" xml:space="preserve">
<style type="text/css">
	.st0{fill:#999999;}
</style>
<path class="st0" d="M136.2,12.7C136.2-18,112.1-43,82.5-43c-14.6,0-28.5,6.3-38.4,17.1C34.1-36.7,20.2-43,5.7-43
	C-23.9-43-48-18-48,12.7c0,1,0.1,2,0.2,2.7c0,0.2,0,0.5,0,0.8c0,5.4,1.3,11.4,3.9,17.8c0.1,0.2,0.2,0.5,0.3,0.7
	c16.4,39.3,79.4,84.4,82,86.5c1.7,1.3,3.6,1.9,5.6,1.9c2,0,4-0.7,5.7-2c2.3-1.8,56-40.5,77.3-77c0.8-1.2,1.4-2.4,2-3.5
	c0.2-0.3,0.3-0.7,0.5-1l0.1-0.2c0.1-0.1,0.2-0.3,0.2-0.4c1.3-2.5,2.3-4.8,3.1-7c2.2-5.8,3.3-11,3.3-15.8c0-0.4,0-0.7,0-1
	C136.2,14.6,136.2,13.7,136.2,12.7z"/>
</svg>
