<?xml version="1.0" standalone="no"?><!DOCTYPE svg PUBLIC "-//W3C//DTD SVG 1.1//EN" "http://www.w3.org/Graphics/SVG/1.1/DTD/svg11.dtd"><svg t="1652089440140" class="icon" viewBox="0 0 1024 1024" version="1.1" xmlns="http://www.w3.org/2000/svg" p-id="6370" xmlns:xlink="http://www.w3.org/1999/xlink" width="200" height="200"><defs><style type="text/css">@font-face { font-family: feedback-iconfont; src: url("//at.alicdn.com/t/font_1031158_u69w8yhxdu.woff2?t=1630033759944") format("woff2"), url("//at.alicdn.com/t/font_1031158_u69w8yhxdu.woff?t=1630033759944") format("woff"), url("//at.alicdn.com/t/font_1031158_u69w8yhxdu.ttf?t=1630033759944") format("truetype"); }
</style></defs><path d="M783.36 303.104h196.022857A510.646857 510.646857 0 0 1 1024 493.019429h-224.914286a1311.890286 1311.890286 0 0 0-15.725714-189.915429zM697.709714 34.377143c112.420571 43.666286 204.690286 126.354286 262.582857 230.765714h-183.332571c-20.845714-106.349714-52.370286-181.869714-79.250286-230.765714z m-164.205714 230.765714V0c40.448 1.792 79.689143 8.155429 117.174857 18.651429 28.525714 47.908571 65.206857 127.817143 88.393143 246.491428h-205.531429zM284.16 720.896a1300.553143 1300.553143 0 0 1-15.945143-189.915429h227.364572v189.915429H284.16zM283.794286 303.104h211.748571v189.915429H267.995429c0.950857-71.424 6.912-134.253714 15.798857-189.915429z m95.085714-285.257143a512.256 512.256 0 0 1 116.662857-17.773714v265.033143H290.011429c23.332571-119.296 60.306286-199.497143 88.868571-247.259429zM63.268571 265.106286A514.669714 514.669714 0 0 1 332.178286 32.804571c-27.062857 48.859429-59.062857 124.854857-80.091429 232.301715H63.232z m166.765715 227.913143H0.256c2.523429-67.474286 17.700571-131.657143 43.885714-189.915429h201.508572a1311.122286 1311.122286 0 0 0-15.725715 189.915429z m16.164571 227.913142H45.641143C19.309714 662.454857 2.486857 598.784 0 531.017143h230.144a1299.382857 1299.382857 0 0 0 16.018286 189.915428z m6.217143 37.997715c21.174857 108.544 53.686857 184.429714 80.859429 232.740571a513.462857 513.462857 0 0 1-269.494858-232.740571h188.635429z m243.163429 0V1024a513.828571 513.828571 0 0 1-115.456-17.444571c-28.598857-46.848-65.755429-127.451429-89.307429-247.625143h204.763429z m242.761142 0c-23.405714 119.442286-60.306286 199.753143-88.832 246.747428a519.387429 519.387429 0 0 1-115.931428 17.627429v-264.411429h204.8z m-204.8-227.913143h227.364572a1303.734857 1303.734857 0 0 1-15.945143 189.915428h-211.382857V531.017143z m227.620572-37.997714h-227.584V303.104h211.748571a1313.645714 1313.645714 0 0 1 15.835429 189.915429z m37.778286 37.997714h224.694857c-2.56 67.693714-19.236571 131.437714-45.421715 189.915428h-195.291428c8.923429-55.734857 15.140571-118.198857 16.018286-189.915428z m161.097142 227.913143a512 512 0 0 1-263.314285 231.131428c27.026286-48.347429 59.099429-123.721143 80.054857-231.131428h183.222857z" fill="#3882F5" p-id="6371"></path></svg>