<?xml version="1.0" encoding="utf-8"?>
<!-- Generator: Adobe Illustrator 19.0.0, SVG Export Plug-In . SVG Version: 6.00 Build 0)  -->
<svg version="1.1" xmlns="http://www.w3.org/2000/svg" xmlns:xlink="http://www.w3.org/1999/xlink" x="0px" y="0px"
	 viewBox="0 0 521.2 370.7" style="enable-background:new 0 0 521.2 370.7;" xml:space="preserve">
<style type="text/css">
	.st0{fill:#525D7D;}
	.st1{fill:#ECEBF2;}
	.st2{fill:none;stroke:#525D7D;stroke-width:2;stroke-miterlimit:10;}
</style>
<g id="pattern">
</g>
<g id="color">
</g>
<g id="lineart">
	<path class="st0" d="M15.4,403.5c0,0,0.1,0.1,0.1,0.1C15.5,403.6,15.5,403.6,15.4,403.5z"/>
	<g>
		<path class="st1" d="M84.6,277.6c3.6,2.9,8.3,2.4,11.8,0.1c-1.6,2.5-3.8,4.5-7,3.9c-2.7-0.5-3.8,3.2-1.1,4.2
			c6.8,2.4,12.8-2.7,16-8.3c1.8-3.2-1.4-5.7-4-4.9c-0.4-2.6-4.7-4.3-6.2-1.3c-1.5,3-4.5,3.9-7.7,3.3C84.8,274.2,83,276.3,84.6,277.6
			z"/>
		<path class="st1" d="M116.9,281.9c1.9,2.8,5.3,4,8.6,3.1c4-1.1,6.6-5.1,7.4-9c0.6-2.7-1.8-4.4-3.9-4.1c-0.2-2.6-3.7-4.2-5.5-1.4
			c-0.8,1.3-1.5,3-2.7,4c-1.7,1.4-3.1,0.3-4.5-1c-1.4-1.3-3.8,0.4-2.7,2.1c1,1.5,2.2,2.9,3.6,3.7
			C116.6,279.9,116.2,280.9,116.9,281.9z M121.5,280.1c1.3-0.2,2.4-0.7,3.4-1.4c-0.2,0.3-0.4,0.6-0.7,0.8c-0.8,0.8-2.5,1.4-3.6,0.7
			C121,280.2,121.2,280.2,121.5,280.1z"/>
		<path class="st1" d="M156.1,269.2c-2.5,2.4-5.4,5.8-9.1,3.6c-2-1.2-4.7,1.3-3.3,3.3c2,3.1,4.9,3.8,7.8,3.3c-1.7,1.3-3.7,1.9-6,1
			c-0.9-0.3-1.6,1-0.9,1.6c6,5.4,16.8-1,17.1-8.4c0-0.1,0-0.3,0-0.4C163.3,270.2,159,266.5,156.1,269.2z"/>
		<path class="st1" d="M181.5,275.4c3.1-3.4-2.4-7.7-5-3.9c-0.8,1.3-2.7,1.2-3.9,0.4c-2.4-1.6-5.2,2.1-3.1,4
			C173,279,178.4,278.9,181.5,275.4z"/>
		<path class="st1" d="M180.8,284.5c4.3-1.1,7.5-4.7,9.8-8.3c2.6-4-3.6-7.4-6.3-3.7c-1.2,1.6-2.1,3.3-3.5,4.8c-1,1-3.2,3-5,2.7
			c-0.6-1.8-3.5-1.2-3.6,0.8C172.3,284.9,177.8,285.3,180.8,284.5z"/>
		<path class="st1" d="M115.3,223c5.1,3.9,10.4,7.5,15.9,10.9c1.4,0.8,2.8,1.7,4.3,2.5c0,0.2,0.1,0.4,0.1,0.6
			c0.4,2.3,2.8,3.5,4.8,3.7c3.9,0.3,8.4-3.3,11.6-5.3c4.2-2.6,8.3-5.6,12.2-8.7c8.1-6.5,15.3-14.1,21.6-22.4
			c12.3-16.1,24.5-37.3,25.8-58.1c3.2-9.1,6.3-22,3.7-31.6c-0.4-1.5-2.5-1.3-2.9,0c0,0.1-0.1,0.2-0.1,0.3c-0.1,0.1-0.3,0.2-0.4,0.4
			c-0.4,0.9-0.8,1.8-1.1,2.8c0-0.3,0-0.6,0-0.9c0.1-3.8-1.2-7.4-5.4-7.8c-1.3-0.1-2,1.7-1.1,2.6c1.8,1.6,0.1,6.4-0.3,8.3
			c-0.5,2.9-1.2,5.7-1.8,8.6c-1.2,5.2-2.7,10.3-4.4,15.4c-3.8,11-8.8,21.7-14.8,31.7c-5.9,9.8-12.8,19-20.6,27.3
			c-8.3,8.8-17.9,18-29.6,22.1c0,0,0,0-0.1,0c-1.2-0.7-2.3-1.4-3.4-2.1c-4.5-2.7-8.9-5.5-13.2-8.4c-8.6-5.8-16.4-12.7-25.1-18.4
			c-0.8-0.5-1.8,0.5-1.3,1.3C96.3,207.8,105.9,215.8,115.3,223z M192.1,174.9c4.2-7.5,7.7-15.4,10.6-23.5c0.1,0.2,0.3,0.3,0.4,0.4
			c-2.8,5.9-5.2,12.1-8,18c-2.4,5.2-5.1,10.2-8,15.2c-0.4-0.1-0.7,0-1.1,0.1C188.2,181.6,190.2,178.2,192.1,174.9z M154.8,220.7
			c0.1,0.1,0.3,0.3,0.5,0.4c-1.2,0.9-2.4,1.8-3.6,2.6c-2,1.4-4,2.7-6.1,3.9c-0.6,0.3-1.8,1.3-3,2c-0.4,0-0.7-0.1-1.1-0.2
			C146.1,227,150.6,224,154.8,220.7z"/>
		<path class="st1" d="M158,312.4c8.8-0.2,17.7-0.5,26.5-0.6c1.4,0,2.8,0,4.2,0c-0.2,0.2-0.3,0.4-0.4,0.6
			c-8.9-0.2-17.7,0.4-26.2,3.6c-1.3,0.5-1.7,2.7,0,3c11.1,1.8,22.2,3.8,33.4,5.5c11.6,1.8,23.3,3.6,35.1,2.8
			c10.4-0.7,21-3.1,29.3-9.9c7.6-6.3,12.2-16.9,9.1-26.6c-1-3.2-3.3-4.7-5.7-4.9c-1-1.2-2.7-1.6-4.3-1.3c0.2-1,0.2-2.2-0.3-3.4
			c-2.7-7-4.9-14.1-6.6-21.4c-1.7-7.1-2.5-14.7-4.7-21.6c-0.3-1-1.1-1.6-2-1.7c0-0.7,0-1.4-0.1-2.1c-0.3-11.9-0.7-23.9-1.5-35.8
			c-0.8-11.8-1.2-24.9-5-36.2c-0.4-1.2-2.4-1.5-2.7,0c-2,9.7-1.4,20.3-1.3,30.2c0.1,10.3,0.5,20.6,0.7,30.8
			c0.2,10.3,0.5,20.6,0.6,30.9c0,0.4,0,0.8,0,1.1c-0.4-14.2-0.6-28.3-1.2-42.5c-0.6-14.5-1.1-29-1.7-43.4
			c-0.4-9.5-1.2-20.3-10.6-25.2c-1.2-0.6-2.4,0.9-1.4,1.9c6.6,7.2,5.5,19.3,5.8,28.3c0.3,12.5,0.7,25,1.1,37.5
			c0.4,12.2,1,24.4,1.5,36.5c0.2,5.9,0.4,11.8,0.7,17.8c0.2,4.9,1.4,12.3-3,15.7c-3.1,2.3-0.3,7.5,3.1,5.3c0.8-0.5,1.6-1.2,2.2-1.8
			c-0.5,1.5,0.2,3.4,2,3.9c3,0.9,5.1,0.4,6.7-0.9c4.7,0.2,8.6,1.4,12.9,3.3c0,0,0.1,0,0.1,0c-0.3,1-0.6,1.9-0.9,2.9
			c-0.2-1.7-2.6-2.7-4.2-1.4c-7.5,5.9-14.1,10.6-23.7,12.7c-10.2,2.2-20.7,1.5-31.1,0.9c-20.4-1.2-40.5-2.8-61-2.9
			c-20.3-0.1-40.6,0.8-60.9,2.2c-19.6,1.4-39.9,4.6-57.9-5.4c-1.6-0.9-3.1,1.1-1.9,2.5c10,11.5,26.1,13.6,40.6,13.2
			c17.5-0.6,35.1-2.1,52.6-2.7C123.3,313,140.6,312.7,158,312.4z M233.9,283.5c1.6-2.5,2.4-5.4,2.8-8.6
			C236.9,278.3,236.6,281.6,233.9,283.5z M244.2,283.6c0.3-1,0.6-2.1,0.8-3.1c0.2,1,0.4,2,0.7,3
			C245.2,283.4,244.7,283.5,244.2,283.6z M252.4,296.9c-1,2.2-2.3,4.1-4.5,5.7c-0.9,0.6-1.9,1.2-2.9,1.6
			C247.9,302.3,250.4,299.9,252.4,296.9z"/>
		<path class="st1" d="M27.9,275.5c0.5,3.1,2,5.1,5.2,5.4c3.7,0.3,3.7-5.5,0-5.8c0.2,0-0.7-23.8-0.8-26.2c-0.3-9.2-0.1-18.4,0-27.6
			c0.1-9.2,0.3-18.4,0.6-27.6c0.2-4.6,0.4-9.2,0.5-13.8c0.1-3.1-0.9-9.5,1-13.1c0.3-0.2,0.5-0.4,0.8-0.6c2.9-1.7,6.5-0.9,9.7-0.6
			c5.5,0.5,11.2,0.3,16.5-1.2c3.2-0.9,2.7-6.5-0.8-6c-4.3,0.6-8.6,1.2-13,1.2c-4-0.1-8-0.7-11.9,0.5c-6.5,2-7.5,7.6-6.8,13.6
			c0,0.4,0.3,0.6,0.5,0.8c-0.3,2.7-0.3,5.4-0.5,7.4c-0.9,12.8-1.4,25.6-1.6,38.4c-0.2,12.5,0,25,0.1,37.4
			C27.5,263.5,27,269.8,27.9,275.5z"/>
		<path class="st1" d="M170.5,112.3c2.2,2.9,4.6,5.5,7.5,7.8c2.2,1.8,3.8,3.6,5.4,5.6c-0.6,6.3-4,12.3-6.9,17.9
			c-3.6,6.9-7.4,13.8-11.5,20.4c-4.1,6.7-8.4,13.2-12.9,19.6c-2.4,3.4-4.9,6.8-7.3,10.2c-0.4,0.5-0.8,1.2-1.2,1.9
			c-0.3,0.1-0.7,0.3-1,0.6c-4,3.1-13.7-2.7-17.3-4.5c-5.6-2.7-10.7-6.1-16.1-9c-1-0.6-1.9,0.7-1.2,1.6c5.6,6.8,13.5,11.9,21.1,16
			c0.9,0.5,1.9,1,2.9,1.5c-0.5,0.2-0.8,0.9-0.3,1.2c3.4,2.8,6.6,2.8,9.7,1.5c1.1,0,2.1-0.2,3.1-0.5c-3.6,3.1-7,4.6-8.7,1.7
			c-0.5-0.8-1.6-0.1-1.2,0.7c8,16.2,34.1-19.4,38.5-25.7c12.2-17.7,19.9-37.9,22.6-59.2c0.2-1.5-0.8-2.5-2-2.9
			c-0.8-1.8-2-3.5-3.5-4.9c-5.4-5.3-13.4-6.7-19.2-11.4c-0.3-0.2-0.7-0.3-1-0.2c-2.5-3.5-4.9-7.1-7.7-10.4c-0.8-1-2.4,0.1-2.1,1.2
			C162.4,99.8,166.2,106.6,170.5,112.3z M157.2,189.8c-1,1.3-4.2,5.5-7.8,9.4c0-0.4,0-0.7-0.1-1.1c7.2-7.6,13.4-16.3,19.1-24.9
			c0.8-1.3,1.6-2.5,2.5-3.8C166.9,176.6,162.3,183.4,157.2,189.8z"/>
		<path class="st1" d="M276.5,148.6c3.2,2.5,7.6,6.5,12,7c0.2,0.2,0.4,0.4,0.6,0.5c4.6,4.1,9.4,7.9,14.5,11.5
			c0.8,4.1,1.6,8.2,2.4,12.2c0.9,5,8,5.3,10.4,1.4c0.2-0.3,0.4-0.7,0.6-1c1.5,1,3.5,1.4,5.2,1c0.7,4.6,7,6.7,10,2.1
			c0.3-0.5,0.7-1,1-1.5c-0.1,0.5-0.2,1.1-0.4,1.6c-1.2,5.2,5.1,9.2,9.1,5.3c0.2-0.2,0.5-0.5,0.7-0.7c0.5,4,5.9,7,9.4,3.4
			c1.8-1.8,3.6-3.7,5.4-5.5c-0.1,0.3-0.3,0.5-0.4,0.8c-1.4,2.8-0.3,5.6,1.7,7.1c-1.3,2.1-2.5,4.3-3.6,6.5c-1.8,3.7-1.5,7.6,1.9,10.2
			c3.9,3,9.2,2.9,13.8,2.6c0.9,0,1.8-0.1,2.8-0.2c-0.3,0.2-0.7,0.5-1,0.8c-2.3,1.7-3.5,5.3-1,7.5c7.5,6.5,18.2-0.5,25.8-3.6
			c9.3-3.7,20.7-6.4,27.1-14.6c6.2-8.1,9.8-19.2,12.9-28.8c2.9-9.2,6.3-20,6.5-30c4.5-9.9,6.8-20.2,2-30.8
			c-4.4-9.8-13.7-16.6-23-21.4c-9.6-5-19.9-9.1-30.4-11.8c-40.6-10.5-89.3-4.1-122.6,22.5c-10.2,8.2-15.2,21.5-7,33
			C266.6,140.9,271.6,144.7,276.5,148.6z M400.1,199c0.2,0.9,0.5,1.8,0.7,2.6c0.3,0.9,0.7,1.6,1.2,2.2c-0.4,0.2-0.8,0.4-1.3,0.5
			l-5.5,2.5c0.2-0.9,0-1.9-0.5-2.8C396.6,202.3,398.3,200.6,400.1,199z M382.2,164.8c-1,0.2-1.9,0.6-2.9,1.1
			c0.7-1.9,0.4-3.8-0.6-5.2c0.3-0.5,0.6-1,0.9-1.5c0.6-1.1,0.9-2.1,1.1-3.1C381.2,159,381.7,161.9,382.2,164.8z M379.4,145.4
			c0.2,1.4,0.3,2.7,0.5,4.1c-0.5-0.9-1.1-1.7-1.8-2.4C378.6,146.6,379,146.1,379.4,145.4z M377.1,120c0.1,1.9,0.2,3.7,0.3,5.6
			c-1.5-2.3-3.4-4.2-5.6-5.9C373.6,119.7,375.4,119.8,377.1,120z M365.6,193.3c3.5-3.2,7-6.4,10.4-9.7c-1.1,3.2-2.1,6.5-2.9,9.8
			c-1.3,4.9,5.7,10.1,9.3,5.4c0.8-1.1,1.7-2.1,2.6-3.1c-0.8,1.9-1.5,3.9-2.3,5.8c-0.3,0.8-0.4,1.6-0.3,2.3
			c-6.2,1.8-12.8,3.2-18.6,2.6c-3.1-0.3-4.2-0.7-3.3-4.7c0.5-2,2-4.2,2.9-6.1c0.2-0.4,0.4-0.8,0.6-1.2
			C364.5,194.2,365.1,193.8,365.6,193.3z M339.8,151.8c1.9-9.1,15.9-16.5,22.2-6.9c0.5,0.7,1,1.4,1.7,1.9c-0.4,0.4-0.9,0.9-1.3,1.4
			c-0.2,0.1-0.7,0.5-1.4,1c-1.1,0.7-2.1,1.4-3.2,2.2c-1.6,1.1-3.1,2.3-4.8,3.4c-3.1,2-4,2.3-7.6,1.8c-2.7-0.3-4.7,1.6-5.6,4
			c-0.1,0-0.1,0.1-0.2,0.1c-1.2,0.8-2.4,1.7-3.6,2.6c-0.6-3-3.6-5.4-6.7-4.6c1.3-2.6,2.5-5.3,3.5-8c0.1,0.3,0.1,0.7,0.2,1
			C333.8,155.1,339.1,155.1,339.8,151.8z M332.5,130.8c1.7-0.1,3.4-0.1,5.1,0c-1.7,2-2.9,4.2-3.8,6.6c-1.4-2-3.5-3.6-5.8-4.3
			c-0.1-0.6-0.4-1.2-0.7-1.8C329.1,131,330.8,130.9,332.5,130.8z M295.9,143.8c1,3.7,2.3,7.3,3.8,10.7c-1.1-0.7-2.1-1.4-3.2-2.1
			c-0.4-0.3-0.9-0.6-1.3-0.9c0-0.1,0.1-0.3,0.1-0.4c0.2-1.6-0.7-3.1-1.9-3.8c-0.1-0.2-0.2-0.5-0.3-0.7c-0.2-0.7-0.6-1.4-1-2.1
			C293.5,144.6,294.7,144.3,295.9,143.8z M284.8,117c-2.1,3.5-3.6,7.3-4.5,11.4c-0.4-0.7-0.8-1.5-1.2-2.2
			C277.4,122.1,281.1,119.2,284.8,117z"/>
		<path class="st1" d="M303.1,347.8c-3,10,6,21,15.7,22.6c4.8,0.8,9.4-0.4,13.8-2c10.1,5.4,25.8-1,34.4-6.2c6.5-3.9,0.6-14.1-6-10.3
			c-0.1,0.1-0.3,0.2-0.4,0.2c-3.1-1.2-6.3-1.7-9.6-1.7c0.1-0.2,0.2-0.5,0.2-0.8c3.5-17.5,5.8-36.3,0.9-53.8
			c-4.7-16.8-17.2-33.7-10.6-51.7c0.4-1.2-1.4-1.9-2.1-0.9c-8.7,14.9-4.3,32.7-0.2,48.3c5,18.8,3.9,37.7,3.8,57c0,1,0.4,1.9,1,2.6
			c-4.7,0.9-9.3,2.5-13.6,4.3c-4.5,1.9-9.7,4.5-14.5,2.1c-4.2-2.2-6-6.5-8.1-10.4C306.8,345.1,303.7,345.6,303.1,347.8z"/>
		<path class="st1" d="M353.2,247.8c-4.8,9.6-5.6,19.3-3.3,29.8c2.8,12.6,9.4,24.2,5.7,37.4c-1.4,5,6.6,7.2,7.8,2.2
			c2.9-11.6-0.2-23.2-3.6-34.3c-3.2-10.5-9.2-23.3-4.9-34.3C355.4,247.6,353.7,246.9,353.2,247.8z"/>
		<path class="st1" d="M325.2,289.4c-0.9-2.2-3.3-2.8-5.3-1.8c-3.1,1.5-8.4,5.1-6,9.2c0.9,1.5,2.9,2.5,4.6,2.4
			c1.9-0.1,3.4-1.4,4.8-2.7c0.7-0.7,0.6-1.7,0.1-2.2C325.1,293.4,326,291.2,325.2,289.4z"/>
		<path class="st1" d="M330.3,281.7c3.1-11.7-4.1-22.3-3.3-33.9c0.1-1.8-2.8-2.2-3.2-0.4c-2.3,10.8,3.2,21.9-0.2,32.5
			C322.2,284.1,329.1,286,330.3,281.7z"/>
		<path class="st1" d="M482.4,234.8c-0.8-0.3-1.6,0.8-1.1,1.4c5.2,7.3,9.7,15.6,14,23.5c2.2,4.1,4.2,8.3,5.3,12.9
			c1.1,4.6,0.7,9.3,1.7,13.9c0.9,4.4,5.8,5.2,9,3.3c0.2,1,0.4,2,0.7,3c1.4,4.9,9.3,4.1,9.1-1.2c-0.4-8.1-4.2-16.7-6.2-24.6
			c-0.4-1.6-2.2-2-3.4-1.4c-1.7-4-3.9-7.8-6.2-10.8C499.3,247,491.8,238.6,482.4,234.8z"/>
		<path class="st1" d="M367.1,67.1c4.5,0.1,9-0.2,13.4-0.3c-0.9,1.3-0.3,3.4,1.6,3.3c1.5-0.1,3.1-0.2,4.6-0.2
			c-0.4,0.6-0.1,1.6,0.8,1.6c5.2,0.4,10.5,0.8,15.7,1.4c4.9,0.5,10.4,0.6,14.8,2.9c3.3,1.7,5.8,5,8.3,7.8c3.3,3.7,6.5,7.7,10.1,11.2
			c1.7,1.7,3.7,2.1,5.3,1.6c0.4,0.4,0.7,0.8,1.1,1.2c2.4,2.4,6.8,0.7,6.8-2.8c0-1.6-0.3-3.1-0.7-4.5c0-0.2,0-0.4-0.1-0.5
			c-1.9-7.1-3.5-14.6-3.5-21.9c0-1.1-1-1.8-2-1.8c-0.3-5.8-1.1-11.5-2.9-17.1c-4.3-13.7-12.6-27.5-22.9-37.6c-1.1-1-2.7,0.3-2,1.6
			c1.1,2.2,2.3,4.3,3.4,6.5C411.3,10.7,400.9,2.2,389,4c-1.4,0.2-1.3,2.4,0,2.7c11.8,2.6,19.4,13.7,25.5,23.3
			c0.8,1.2,1.4,2.4,2.1,3.7c2.1,8.8,2.1,18.3-1.2,26.8c-5.2-1.7-10.3-3.5-15.8-4c-11-1.1-23.6,3.1-33,8.5
			C365.6,65.6,366,67,367.1,67.1z"/>
		<path class="st1" d="M441.5,221.6c-1.8-1.3-4-2.1-6.2-2.2c-0.8,0-1.5,0.3-2,0.7c-3.3,0.7-5.3,3.2-8.1,5.2
			c-3.1,2.2-6.4,3.7-10.1,4.5c-0.7,0.2-1.4,0.3-2,0.4c-0.7-0.1-1.5-0.1-2.4,0.1c-6.3,1.7-13.1,0-19.5,0.9c-6.1,0.8-12,3.2-16.3,7.7
			c-1.4,1.5-2.6,3.2-3.4,5c-0.1-0.6-0.2-1.1-0.1-1.7c0.3-3.3,3.9-5.2,6.4-6.7c4.6-2.9,0.6-9.3-4.2-7.1c-5,2.3-9.7,6.5-10.4,12.3
			c-0.8,6.9,3.7,12.1,7.8,17c0.7,0.8,1.3,1.6,1.8,2.5c0,2.6,0.5,5.2,1.4,7.9c0.3,0.9,1.6,0.8,1.7,0c0.7,3.7,0.5,7.6-0.6,11.6
			c-1.8,6.3-4.6,12.2-3.9,18.9c0.1,1.4,2.2,1.5,2.3,0c0.3-6.8,4.3-12.4,6.8-18.5c1.7-4.1,2.5-8.3,2.1-12.6c0.4-0.4,0.7-1.1,0.3-1.8
			c-0.4-0.8-0.8-1.7-1.1-2.5c-0.2-0.8-0.5-1.6-0.8-2.3c-0.7-2.6-1-5.3-0.6-7.8c4.9-4.3,12.5-6.5,19-7.5c8.5-1.3,17.9-2.5,24.4-8.3
			c2.9-1.1,6.1-2.6,8.8-4.5c2.3-1.2,4.6-2.4,7.2-3.1c4.8-1.5,9.7-1.8,14.6-2.7c1.1-0.2,0.8-1.6,0-1.9c-3.3-1.3-7.4-2-11.7-2.1
			C442.4,222.4,442,222,441.5,221.6z"/>
		<path class="st1" d="M320.9,228.1c-0.4-0.2-0.9-0.4-1.3-0.4c-3.7-0.9-7.5-0.7-10.5,1.4c-1.5,1.1-1.7,4,0.6,4.5
			c4.4,0.8,8.6,1.2,11.3,5.3c4.1,6.2,13.2-1.1,8-6.1C326.9,230.9,324,229.2,320.9,228.1z"/>
		<g>
			<line class="st2" x1="133.1" y1="146.1" x2="133.1" y2="165.6"/>
			<line class="st2" x1="133.1" y1="146.1" x2="150" y2="136.3"/>
			<line class="st2" x1="133.1" y1="146.1" x2="116.2" y2="136.3"/>
		</g>
		<path class="st0" d="M232.8,239.5c-0.1-0.2-0.1-0.4-0.1-0.6c0.2,11.6,0.4,23.5,0.8,35.7c0.2,5.5-3.3,10.5-8.4,12.4
			c1.9,0.1,3.8,0.1,5.7,0.1c3.7-3.1,5.9-7.7,5.7-12.7c-0.4-11.9-0.6-23.4-0.8-34.7c-0.3,0.1-0.6,0.3-0.9,0.4
			C234,240.6,233.1,240.2,232.8,239.5z"/>
		<path class="st0" d="M208,143.6c3.4,0.2,6.8,0.3,10.2,0.5c7.2,0.3,13.1,6.2,13.3,13.4c0.6,16.9,0.7,34.6,0.9,53.3
			c0.1,9.2,0.2,18.6,0.3,28.1c0-0.6,0.3-1.1,0.9-1.4c0.7-0.3,1.4-0.6,2.1-0.9c-0.1-8.8-0.2-17.4-0.3-25.9
			c-0.2-18.7-0.3-36.4-0.9-53.4c-0.3-8.8-7.4-16-16.2-16.3c-3.4-0.1-6.8-0.3-10.2-0.4l-1.8-0.1c-0.3,1-0.6,2-0.9,3L208,143.6z"/>
		<path class="st0" d="M10.5,232c0-12.2,0.3-24.6,0.6-36.6c0.3-12,0.6-24.4,0.6-36.6l0-2.3c0-5.7,4.4-10.3,10.1-10.5
			c2.1-0.1,5.6-0.1,9.7-0.2c8.2-0.1,19.4-0.3,27.3-0.7c-0.3-1-0.6-2-0.9-3c-7.8,0.4-18.5,0.6-26.5,0.7c-4.1,0.1-7.6,0.1-9.7,0.2
			c-7.3,0.2-13.1,6.2-13,13.5l0,2.3c0,12.2-0.3,24.6-0.6,36.5c-0.3,12-0.6,24.4-0.6,36.6c0,33.3,0.5,48.2,5.4,55.3c1.3,0,2.7,0,4,0
			C11.1,282.1,10.5,267,10.5,232z"/>
		<path class="st0" d="M61.4,143.4c0-0.1-0.1-0.3-0.1-0.4C61.3,143.1,61.3,143.3,61.4,143.4z"/>
		<path class="st0" d="M66.8,158.2c0-0.1-0.1-0.3-0.2-0.4C66.7,157.9,66.8,158.1,66.8,158.2z"/>
		<path class="st0" d="M37.7,158.1c-7,0.2-12.5,6.1-12.4,13.1c0.2,10.8,0.3,19.7,0.3,28.1c0,23.4-0.8,35.9-1.4,45.1
			c-0.4,5.7-0.7,10.2-0.7,15.5c0,16.9,1.4,22.2,9.9,22.2c1.1,0,2.8-0.1,4.5-1.2c0.7-0.4,0.9-1.3,0.5-2.1c-0.4-0.7-1.3-0.9-2.1-0.5
			c-0.8,0.5-1.7,0.7-3,0.7c-5.2,0-6.9-1.5-6.9-19.2c0-5.1,0.3-9.6,0.6-15.3c0.6-9.2,1.4-21.8,1.4-45.3c0-8.5-0.1-17.4-0.3-28.2
			c-0.1-5.3,4.1-9.8,9.5-10c2.5-0.1,5.2-0.2,8-0.3c6.5-0.2,13.2-0.4,18.6-0.7c-0.4-1-0.9-2-1.3-2.9c-5.2,0.2-11.4,0.4-17.4,0.6
			C42.9,157.9,40.2,158,37.7,158.1z"/>
		<path class="st0" d="M63.1,157.2c0.4,1,0.9,2,1.3,2.9c3.7,8.2,8.2,16,13.6,23.3c14.8,20.2,35.7,36.5,60.5,47.3
			c0.2,0.1,0.4,0.1,0.6,0.1c0.3,0,0.5-0.1,0.8-0.2c14.1-8.6,42.4-30.1,59.6-70.8l-0.9,0.1c-0.8,0.1-1.6-0.5-1.6-1.3
			c-0.1-0.8,0.5-1.6,1.3-1.6l1.3-0.1c0.4,0,0.7-0.1,1.1-0.1c1.7-4.2,3.3-8.7,4.7-13.3c0.3-1,0.6-2,0.9-3c2.8-9.6,4.9-20.1,6.2-31.6
			c0-0.4-0.1-0.8-0.3-1.1c-0.3-0.3-0.6-0.5-1-0.5c-20.7-2-34.8-12.9-37.7-29.1c-0.1-0.7-0.8-1.3-1.6-1.2c-7.6,0.4-15.3,0.6-23.1,0.6
			c-3.2,0-6.4,0-9.7-0.1l0,1.1c0,0.8-0.6,1.5-1.4,1.5c0,0,0,0-0.1,0c-0.8,0-1.4-0.6-1.5-1.4l-0.1-1.2c0,0,0-0.1,0-0.1
			c-10.5-0.3-21.1-1-31.9-2c-0.6-0.1-1.2,0.3-1.5,0.8c-9.2,18.6-28.2,31.3-48.4,32.4c-0.8,0-1.5,0.7-1.4,1.6
			c0.5,11.2,2.2,21.9,5.1,32.1c0.3,1,0.6,2,0.9,3C60,149.3,61.5,153.3,63.1,157.2z M104.9,78.5c14.9,1.4,29.7,2.1,43.9,2.1
			c7.4,0,14.8-0.2,22-0.6c3.5,16.3,18.1,27.6,38.6,30.1c-8.4,71.5-51.4,105.8-70.4,117.6c-24-10.5-44.2-26.4-58.5-46
			c-5.4-7.4-10-15.3-13.6-23.5c-0.1-0.1-0.1-0.3-0.2-0.4c-2.1-4.7-3.8-9.5-5.3-14.4c0-0.1-0.1-0.3-0.1-0.4c-3-10-4.8-20.6-5.4-31.5
			C76.2,109.8,95.2,97,104.9,78.5z"/>
		<path class="st0" d="M69.6,122.4c11.2,53.3,55.2,79.4,68.4,86.1c0.2,0.1,0.4,0.2,0.7,0.2c0.3,0,0.7-0.1,1-0.4
			c26.3-22,44.7-52.9,53.3-89.2c0.2-0.7-0.2-1.4-0.9-1.7c-13.7-5.8-23.7-15.8-28-28.2c-0.2-0.7-0.9-1.1-1.6-1
			c-12.1,1.8-22.1,2.6-31.5,2.6c-6.5,0-12.5-0.4-18.4-1.2c-0.7-0.1-1.4,0.3-1.6,0.9c-4.8,12.4-13.7,27-40,30.1c-0.4,0-0.8,0.3-1,0.6
			C69.6,121.6,69.5,122,69.6,122.4z M113.2,92.8c5.7,0.7,11.5,1.1,17.7,1.1c9.3,0,19.1-0.8,30.7-2.5c4.6,12.3,14.5,22.3,28,28.3
			c-8.5,34.9-26.1,64.5-51.2,85.8c-26.1-13.6-56.6-42-65.6-82C99,119.8,108.5,104.5,113.2,92.8z"/>
		<path class="st0" d="M206.5,159.4c14,0,14,37.7,14,55.7c0,3.1,0,6.2,0,9.3c0,3.1,0,6.3,0,9.4c0,16.6,1.1,29.9,1.2,30.9
			c0,11.5-5.7,11.5-9.4,11.5c-0.5,0-0.9,0-1.4,0c-0.5,0-1,0-1.5,0c-1.7,0-3.7,0.1-5.5,0.6c-0.8,0.2-1.2,1.1-1,1.9
			c0.2,0.6,0.8,1.1,1.4,1.1c0.1,0,0.3,0,0.4-0.1c1.9-0.6,4.1-0.5,6.1-0.5c0.5,0,1,0,1.4,0c3.7,0,12.4,0,12.4-14.5c0,0,0-0.1,0-0.1
			c0-0.1-1.2-13.6-1.2-30.7c0-3.1,0-6.3,0-9.4c0-3.1,0-6.2,0-9.3c0-22,0-58.7-17-58.7c-1.8,0-3.8,0.2-5.7,0.4
			c-0.4,0-0.7,0.1-1.1,0.1l-1.3,0.1c-0.8,0.1-1.4,0.8-1.3,1.6c0.1,0.8,0.8,1.4,1.6,1.3l0.9-0.1l0.5,0
			C202.3,159.6,204.5,159.4,206.5,159.4z"/>
		<path class="st0" d="M90.2,263.2c-0.9,0-1.7,0.1-2.5,0.3c-4.4,1.3-7.6,5.4-7.6,9.9c0,6,5.5,9.2,10.9,9.2c4.1,0,10.2-2.9,10.2-9.2
			C101.1,268.4,95.6,263.2,90.2,263.2z M91,279.6c-3.8,0-7.9-1.9-7.9-6.2c0-3.1,2.3-6.1,5.5-7c0.5-0.1,1.1-0.2,1.6-0.2
			c3.8,0,7.9,3.8,7.9,7.2C98.1,278.1,93.2,279.6,91,279.6z"/>
		<path class="st0" d="M120.1,263.1c-2.3,0-4,1.3-5.6,2.6l-0.1,0.1c-2.2,1.7-3.4,4.1-3.4,6.8c0,5.4,4.5,9.6,10.2,9.6
			c4.1,0,9.3-4.7,9.3-9.9C130.5,266.8,125.1,263.1,120.1,263.1z M121.1,279.1c-4.1,0-7.2-2.9-7.2-6.6c0-1.8,0.8-3.3,2.2-4.4l0.1-0.1
			c1.4-1,2.5-1.9,3.8-1.9c3.6,0,7.4,2.5,7.4,6.2C127.5,275.8,123.5,279.1,121.1,279.1z"/>
		<path class="st0" d="M149.4,264.1c-0.6,0-1.2,0.1-1.8,0.2c-1.9,0.5-3.3,1.2-4.6,2.3c-1.9,1.6-3.1,4-3.1,6.5
			c0,5.3,5.6,9.3,10.5,9.3c4.9,0,8.1-4.7,8.1-9C158.6,266.9,152,264.1,149.4,264.1z M150.5,279.4c-4.2,0-7.5-3.4-7.5-6.3
			c0-1.6,0.7-3.2,2-4.2c1-0.8,2.1-1.4,3.5-1.7c0.3-0.1,0.7-0.1,1-0.1c1.3,0,6.2,1.7,6.2,6.3C155.6,275.9,153.7,279.4,150.5,279.4z"
			/>
		<path class="st0" d="M176.1,263.6c-0.5,0-1.1,0-1.6,0.1c-4.7,0.7-7.5,5.1-7.5,9.1c0,6,5.2,9.8,10,9.8c5.8,0,9.3-5,9.3-9.8
			C186.4,268.5,182.2,263.6,176.1,263.6z M177.1,279.6c-3.4,0-7-2.6-7-6.8c0-2.6,1.9-5.7,4.9-6.1c0.4-0.1,0.8-0.1,1.2-0.1
			c4.2,0,7.3,3.3,7.3,6.2C183.4,275.6,181.4,279.6,177.1,279.6z"/>
		<path class="st0" d="M200.5,250.4c-7.3-0.3-14.8-0.6-22.1-0.8c-6.1-0.2-12.2-0.4-18.3-0.6c-5.7-0.2-11.6-0.3-17.9-0.3
			c-18.9,0-38,1.1-56.6,2.1c-12.2,0.7-24.8,1.4-37.1,1.8c-0.8,0-1.5,0.7-1.5,1.5c0,0.8,0.7,1.5,1.5,1.5c12.5-0.4,25.1-1.1,37.3-1.8
			c18.5-1,37.6-2.1,56.4-2.1c6.3,0,12.1,0.1,17.8,0.3c6.1,0.2,12.2,0.4,18.3,0.6c7.3,0.2,14.7,0.5,22,0.8c0.8,0,1.5-0.6,1.6-1.4
			C201.9,251.2,201.3,250.5,200.5,250.4z"/>
		<path class="st0" d="M160,234.8c3.2-0.1,6.5-0.1,10.5-0.1c3.1,0,6.3,0,9.4,0c3.1,0,6.3,0,9.4,0c6.9,0,12.2-0.1,17.2-0.3
			c0.8,0,1.5-0.7,1.4-1.6c0-0.8-0.7-1.5-1.6-1.4c-4.9,0.2-10.2,0.3-17.1,0.3c-3.1,0-6.3,0-9.4,0c-3.1,0-6.3,0-9.4,0
			c-4,0-7.4,0-10.5,0.1c-0.8,0-1.5,0.7-1.5,1.5C158.5,234.2,159.2,234.8,160,234.8z"/>
		<path class="st0" d="M178.4,218.6c4.4-0.1,8.9,0.2,13.3,0.6c3.8,0.3,7.7,0.6,11.5,0.6c0.7,0,1.4,0,2.1,0c0.8,0,1.5-0.7,1.5-1.5
			c0-0.8-0.7-1.5-1.5-1.5c-4.4,0.1-8.9-0.2-13.3-0.6c-4.5-0.4-9.1-0.7-13.7-0.6c-0.8,0-1.5,0.7-1.4,1.5
			C176.8,217.9,177.5,218.6,178.4,218.6z"/>
		<path class="st0" d="M192,203.8h12.5c0.8,0,1.5-0.7,1.5-1.5c0-0.8-0.7-1.5-1.5-1.5H192c-0.8,0-1.5,0.7-1.5,1.5
			C190.5,203.1,191.1,203.8,192,203.8z"/>
		<path class="st0" d="M75.5,236.7c9,0.4,18.4,0.7,27.6,0.7c1.5,0,3.1,0,4.6,0c0.8,0,1.5-0.7,1.5-1.5c0-0.8-0.7-1.5-1.5-1.5
			c-10.7,0.2-21.6-0.3-32.1-0.7c-9-0.4-18.4-0.7-27.7-0.7c-0.8,0-1.5,0.7-1.5,1.5s0.7,1.5,1.5,1.5C57.2,236,66.5,236.4,75.5,236.7z"
			/>
		<path class="st0" d="M64.6,214.7c-1.1,0-2.2,0-3.4,0c-4.2,0-8.7,0.1-13.3,0.9c-0.8,0.1-1.4,0.9-1.2,1.7c0.1,0.7,0.8,1.3,1.5,1.3
			c0.1,0,0.2,0,0.2,0c4.4-0.7,8.7-0.8,12.8-0.8c1.1,0,2.2,0,3.3,0c1.1,0,2.2,0,3.4,0c3.5,0,7.7-0.1,11.9-0.7
			c0.8-0.1,1.4-0.9,1.3-1.7c-0.1-0.8-0.9-1.4-1.7-1.3c-3.9,0.5-7.8,0.6-11.5,0.6C66.8,214.8,65.7,214.8,64.6,214.7z"/>
		<path class="st0" d="M51.4,198.2c3.9,0,7.8,0.2,11.6,0.4c1.7,0.1,3.5,0.2,5.2,0.3c0,0,0,0,0.1,0c0.8,0,1.5-0.6,1.5-1.4
			c0-0.8-0.6-1.5-1.4-1.6c-1.7-0.1-3.5-0.2-5.2-0.3c-3.8-0.2-7.8-0.4-11.8-0.4c-1.4,0-2.8,0-4.1,0.1c-0.8,0-1.5,0.7-1.4,1.6
			c0,0.8,0.7,1.5,1.6,1.4C48.7,198.2,50,198.2,51.4,198.2z"/>
		<path class="st0" d="M228.4,312.7L228.4,312.7c12-0.5,22.8-9.2,28.9-23.3c0.2-0.5,0.2-1-0.1-1.4c-0.3-0.4-0.8-0.7-1.3-0.7
			c-2.9,0.1-5.9,0.1-9.1,0.1c-5.3,0-10.7-0.1-16-0.2c-1.9,0-3.8-0.1-5.7-0.1c-1.5,0-3-0.1-4.5-0.1c-8.6-0.3-17.5-0.5-26.3-0.5
			c-7.9,0-15.9,0.3-25.1,0.7c-12,0.5-25.6,1.1-43.3,1.1c-12.7,0-19.5-0.3-26.6-0.6c-7.5-0.3-15.2-0.6-30.5-0.6
			c-8,0-16.2,0.1-24.1,0.2c-7.9,0.1-16,0.2-24.1,0.2c-1.3,0-2.5,0-3.7,0c-1.4,0-2.7,0-4,0c-4,0-7.8-0.1-11.4-0.2
			c-0.4,0-0.9,0.2-1.1,0.5c-0.3,0.3-0.4,0.8-0.4,1.2c3.3,26.3,38.4,30.3,59,30.3c0,0,0,0,84.7-3.1
			C213.6,313.4,226,312.9,228.4,312.7z M3.3,290.2c4.1,0.1,8.4,0.1,13.1,0.2c1.4,0,2.8,0,4.3,0c8,0,16.2-0.1,24.1-0.2
			c7.9-0.1,16-0.2,24.1-0.2c15.2,0,23,0.3,30.4,0.6c7.2,0.3,13.9,0.6,26.7,0.6c17.7,0,31.4-0.6,43.4-1.1c9.2-0.4,17.1-0.7,24.9-0.7
			c8.7,0,17.6,0.3,26.2,0.5c1.6,0,3.2,0.1,4.8,0.1c7.1,0.2,14.3,0.4,21.4,0.4c2.3,0,4.6,0,6.8-0.1c-5.8,11.8-15.1,19-25.3,19.4
			c-0.3,0-166.5,6.1-169.2,6.2C15.7,316.1,5.4,300.6,3.3,290.2z"/>
		<path class="st0" d="M450.6,129.8c0.6-0.2,0.9-0.8,0.9-1.4c-0.1-3-0.1-7-0.1-11.6c0.2-25.4,0.5-72.7-25.2-98.5
			C414.2,6.1,397.7,0,377.1,0c-31.3,0-43.6,16.6-59,37.5c-10.1,13.6-21.5,29.1-40.6,43.7c-0.7,0.5-0.8,1.4-0.3,2.1
			c0.5,0.7,1.4,0.8,2.1,0.3c19.4-14.9,31-30.5,41.2-44.3C336.1,18.2,347.3,3,377.1,3c19.7,0,35.5,5.8,46.9,17.4
			c23.7,23.8,24.5,67.4,24.3,93c1.5,4.4,2.2,9.2,2.2,14.3C450.6,128.3,450.6,129.1,450.6,129.8z"/>
		<path class="st0" d="M232.7,238.9c0,0.2,0,0.4,0.1,0.6c0.3,0.8,1.2,1.1,2,0.8c0.3-0.1,0.6-0.3,0.9-0.4c7.4-3.2,15.5-5.4,23.1-7.5
			c10.6-2.8,23.5-4.3,30.8-4.3c3.8,0,7.6,0.3,11.3,0.5c1,0.1,1.9,0.1,2.9,0.2c0.8,0.1,1.5-0.5,1.6-1.3c0.2-1.5,0.3-3,0.5-4.6
			c0.7-6.1,1.5-12.5,1.5-18.7c0-24.8-12.9-35.5-25.3-45.8c-10.8-9-21.1-17.5-21.1-35.2c0-28.7,74.5-45.1,94.8-45.1
			c25.3,0,46.7,3.4,61.9,9.7c19.9,8.3,30,21.7,30,39.9c0,10.8-4.3,21.8-8.8,33.4c-4.6,11.8-9.4,23.9-9.4,36.2c0,1.9,0.1,3.7,0.2,5.3
			c0.5,0,1-0.1,1.5-0.1c0.8-0.1,1.6,0.5,1.6,1.3c0.1,0.8-0.5,1.6-1.3,1.6c-0.5,0-1,0.1-1.4,0.1c2.6,16.7,13.5,18.3,25,20
			c7.1,1,14.4,2.1,21.2,6.3c17.4,10.8,34.3,23.4,39.2,42.5c1.9,7.4,2.8,13.4,2.8,19c0,0.9,0,1.7-0.1,2.6c1,0.6,1.9,1.2,2.9,1.8
			c0.1-1.4,0.2-2.9,0.2-4.4c0-5.8-0.9-12.1-2.9-19.7c-5.2-20.1-22.5-33.2-40.5-44.3c-7.3-4.5-15.3-5.7-22.3-6.7
			c-13.4-1.9-23.1-3.3-23.1-25.3c0-11.7,4.7-23.6,9.2-35.1c4.2-10.6,8.4-21.6,9-32.2c0-0.7,0.1-1.5,0.1-2.2c0-5.1-0.7-9.9-2.2-14.3
			c-4.1-12.4-14.1-21.9-29.7-28.4c-15.8-6.6-37.1-9.9-63.1-9.9c-9.4,0-33.9,4.1-55.4,11.7c-19.3,6.9-42.3,18.8-42.3,36.4
			c0,19.1,11.3,28.5,22.2,37.5c11.9,9.9,24.2,20.1,24.2,43.5c0,6.1-0.7,12.3-1.5,18.4c-0.1,1.1-0.2,2.1-0.4,3.2
			c-0.5,0-1-0.1-1.4-0.1c-3.8-0.3-7.6-0.5-11.5-0.5c-7.5,0-20.7,1.5-31.5,4.4c-7.4,2-15.1,4.1-22.4,7.2c-0.7,0.3-1.4,0.6-2.1,0.9
			C233,237.7,232.7,238.3,232.7,238.9z"/>
		<path class="st0" d="M432.8,203.7c-0.1-0.8-0.8-1.4-1.6-1.3c-0.5,0-1,0.1-1.5,0.1c-0.8,0.1-1.6,0.1-2.4,0.1
			c-3.3,0.2-6.6,0.4-9.9,1.4c-2.3,0.7-5.2,2.4-8.8,4.6c-8.6,5.1-21.7,12.7-37.5,12.7c-8.4,0-14.5-6.9-19.4-12.5
			c-3.4-3.9-6.1-6.9-9-6.9c-3.4,0-6.1,2.3-8.8,4.5c-2.6,2.2-5,4.2-7.8,4.2c-5.1,0-7.2-4.9-9.4-11.3c-0.2-0.5-0.4-1-0.5-1.5
			c-0.3-0.8-1.1-1.2-1.9-0.9c-0.8,0.3-1.2,1.1-0.9,1.9c0.2,0.5,0.4,1,0.5,1.5c2,5.6,4.7,13.3,12.3,13.3c3.9,0,7-2.6,9.7-4.9
			c2.3-2,4.5-3.8,6.8-3.8c1.5,0,4.2,3,6.7,5.9c5,5.7,11.9,13.5,21.7,13.5c16.7,0,30.2-7.9,39.1-13.1c3.3-2,6.2-3.7,8.2-4.3
			c2.9-0.9,6.1-1.1,9.2-1.3c0.9,0,1.7-0.1,2.6-0.2c0.5,0,1-0.1,1.4-0.1C432.3,205.2,432.9,204.5,432.8,203.7z"/>
		<path class="st0" d="M367.3,297.8c0,4.3,3.8,5.8,5.5,5.8c1.7,0,4.8-1.7,4.8-4.6c0-1.6-1-4.3-3.8-4.9c-0.8-0.2-1.6,0.4-1.8,1.2
			c-0.2,0.8,0.4,1.6,1.2,1.8c1.1,0.2,1.4,1.6,1.4,1.9c0,0.8-1.3,1.6-1.8,1.6c0,0-2.5-0.2-2.5-2.8c0-2.3,1-3.7,2.5-5.6
			c2-2.6,4.5-5.9,4.5-12.7c0-6.7-2.9-12.9-5.4-18.4c-2.2-4.7-4.3-9.2-4.3-13.3c0-7.1,6.9-15.4,26.4-15.4c1.9,0,4,0.1,6.1,0.3
			c0.8,0.1,1.6-0.5,1.6-1.4c0.1-0.8-0.5-1.6-1.4-1.6c-2.2-0.2-4.3-0.3-6.4-0.3c-4.2,0-12.4,0.5-19.3,3.9
			c-6.6,3.2-10.1,8.3-10.1,14.5c0,4.7,2.2,9.5,4.5,14.5c2.5,5.5,5.2,11.2,5.2,17.2c0,5.8-2,8.4-3.9,10.9
			C368.9,292.4,367.3,294.5,367.3,297.8z"/>
		<path class="st0" d="M361.2,336.5c0.1,0,0.1,0,0.2,0c0.8,0,1.4-0.6,1.5-1.3c0.3-2.2,0.4-4.5,0.4-6.8c0-11.9-3.5-24.1-7-36
			c-3-10.5-5.9-20.5-5.9-29.1c0-7.6,1.9-14.7,3.9-22.2c0.2-0.8-0.3-1.6-1.1-1.8c-0.8-0.2-1.6,0.3-1.8,1.1c-2,7.4-4,15-4,23
			c0,9,2.9,19.2,6,29.9c3.4,11.6,6.8,23.6,6.8,35.1c0,2.2-0.1,4.4-0.4,6.5C359.8,335.7,360.4,336.4,361.2,336.5z"/>
		<path class="st0" d="M341.8,300.7c-3.3-13.4-6.5-26.1-6.5-36.4c0-10.8,2.9-22.3,9-35.1c0.3-0.6,0.2-1.2-0.3-1.7
			c-0.4-0.4-1.1-0.6-1.7-0.4c-2.6,1.1-5,2.3-7.2,3.6c0.3,0.2,0.5,0.4,0.8,0.6c0.7,0.5,0.8,1.4,0.3,2.1c-0.3,0.4-0.7,0.6-1.2,0.6
			c-0.3,0-0.6-0.1-0.9-0.3c-0.6-0.4-1.1-0.8-1.7-1.3c-8.2,5.7-12.5,13.1-12.5,21.8c0,4.4,1.1,9.1,2.2,13.7c0.9,4,1.8,7.8,1.8,10.9
			c0,5.2-3.1,7-6.3,8.9c-2.9,1.7-6.2,3.6-6.2,8.1c0,3.3,5.1,5.8,7.7,5.8c3.6,0,6.6-2.9,6.6-6.3c0-0.8-0.7-1.5-1.5-1.5
			c-0.8,0-1.5,0.7-1.5,1.5c0,1.7-1.7,3.3-3.6,3.3c-1.8,0-4.7-1.8-4.7-2.8c0-2.6,1.7-3.8,4.7-5.5c3.5-2,7.8-4.6,7.8-11.5
			c0-3.4-0.9-7.4-1.9-11.6c-1-4.4-2.1-9-2.1-13c0-11.5,8.6-18.6,17-22.7c-5.1,11.8-7.6,22.5-7.6,32.8c0,10.6,3.2,23.5,6.5,37.1
			c3.9,15.7,7.9,32,7.9,47.5c0,3.2-0.2,6.1-0.2,6.2c0,0,0,0.1,0,0.1c0,0.4,0,0.8,0.1,1.1c0,0.3,0.1,0.6,0.1,0.9
			c0,0.5-0.1,0.7-0.3,0.9c-0.6,0.6-0.6,1.5,0,2.1c0.3,0.3,0.7,0.4,1.1,0.4c0.4,0,0.8-0.1,1.1-0.4c0.8-0.8,1.2-1.8,1.2-3
			c0-0.4,0-0.9-0.1-1.2c0-0.3-0.1-0.5-0.1-0.7c0-0.4,0.2-3.2,0.2-6.3C349.8,333.1,345.8,316.6,341.8,300.7z"/>
		<path class="st0" d="M335.1,234c0.5,0,0.9-0.2,1.2-0.6c0.5-0.7,0.4-1.6-0.3-2.1c-0.3-0.2-0.5-0.4-0.8-0.6c-4-3-8.8-5.8-14.2-5.8
			c-1.5,0-3.1,0.2-4.5,0.7c-0.8,0.2-1.2,1.1-1,1.9c0.2,0.8,1.1,1.2,1.9,1c1.2-0.4,2.4-0.6,3.7-0.6c4.1,0,7.9,2.1,11.5,4.6
			c0.6,0.4,1.2,0.8,1.7,1.3C334.5,233.9,334.8,234,335.1,234z"/>
		<path class="st0" d="M349.7,105c2.9-2.9,4.9-4.8,4.2-6.6c-0.4-0.9-1.3-1.4-2.7-1.4c-16.5,0-31.7,7.5-46.4,14.7
			c-2.5,1.2-5,2.5-7.5,3.7c-0.7,0.4-1.1,1.3-0.7,2c0.4,0.7,1.3,1.1,2,0.7c2.5-1.2,5-2.4,7.5-3.7c14.1-7,28.7-14.2,44.3-14.4
			c-0.7,0.9-1.9,2-2.8,2.8c-3.3,3.2-5.3,5.3-5.3,7.3c0,2.5,4.2,4.5,7.7,4.5c3.6,0,7.5-1.6,11.2-3.2c3.7-1.6,7.5-3.2,10.9-3.2
			c1.9,0,4.3,0.8,4.9,1.3c-0.3,0.8-2,2.6-3,3.8c-2,2.2-3.8,4.1-3.8,5.8c0,3.4,8.1,4.8,11.5,4.8c5.6,0,11.6-1.9,17.4-3.7
			c5.4-1.7,10.9-3.4,16.2-3.7c0.8,0,1.5-0.8,1.4-1.6c0-0.8-0.7-1.5-1.6-1.4c-5.7,0.3-11.4,2.1-16.9,3.8c-5.8,1.8-11.3,3.5-16.5,3.5
			c-3.7,0-7.5-1.3-8.4-2c0.4-0.8,1.9-2.5,2.9-3.6c2.1-2.2,3.9-4.2,3.9-6c0-3.1-5.9-4.1-8-4.1c-4.1,0-8.2,1.7-12.1,3.4
			c-3.6,1.5-7,3-10,3c-2.3,0-4.2-1.1-4.7-1.6C345.7,108.9,348.3,106.4,349.7,105z"/>
		<path class="st0" d="M356,138.3c-7.1,0-12.6,6.8-14.9,13.6c-0.3,0.8,0.2,1.6,0.9,1.9c0.2,0.1,0.3,0.1,0.5,0.1c0.6,0,1.2-0.4,1.4-1
			c1.9-5.7,6.4-11.5,12-11.5c4,0,7.4,2.8,8.2,5.3c0.3,0.8,1.1,1.2,1.9,0.9c0.8-0.3,1.2-1.1,0.9-1.9
			C365.7,141.5,360.9,138.3,356,138.3z"/>
	</g>
</g>
<g id="text_x5F_shadow">
</g>
</svg>
